<?xml version="1.0" encoding="utf-8"?>
<!-- Generator: Adobe Illustrator 15.0.2, SVG Export Plug-In . SVG Version: 6.00 Build 0)  -->
<!DOCTYPE svg PUBLIC "-//W3C//DTD SVG 1.0//EN" "http://www.w3.org/TR/2001/REC-SVG-20010904/DTD/svg10.dtd">
<svg version="1.0" id="Layer_1" xmlns="http://www.w3.org/2000/svg" xmlns:xlink="http://www.w3.org/1999/xlink" x="0px" y="0px"
	 width="300px" height="225px" viewBox="0 0 300 225" enable-background="new 0 0 300 225" xml:space="preserve">
<g>
	<g>
		<path fill="#0E4973" d="M107.463,40.333H95.127l-1.714,5.804H82.319l13.216-35.163h11.852l13.213,35.163h-11.378L107.463,40.333z
			 M105.209,32.729l-3.881-12.64l-3.84,12.64H105.209z"/>
		<path fill="#0E4973" d="M125.034,10.974h16.142c3.182,0,5.753,0.432,7.712,1.295s3.577,2.103,4.857,3.717
			c1.279,1.616,2.206,3.494,2.781,5.637c0.576,2.143,0.864,4.413,0.864,6.812c0,3.758-0.428,6.672-1.283,8.743
			c-0.856,2.071-2.043,3.806-3.562,5.205c-1.521,1.399-3.151,2.331-4.893,2.794c-2.383,0.64-4.542,0.959-6.478,0.959h-16.142V10.974
			z M135.899,18.937V38.15h2.662c2.271,0,3.886-0.252,4.845-0.755c0.96-0.504,1.711-1.383,2.255-2.639
			c0.543-1.255,0.816-3.29,0.816-6.104c0-3.726-0.608-6.276-1.823-7.651c-1.216-1.375-3.231-2.063-6.045-2.063H135.899z"/>
		<path fill="#0E4973" d="M164.007,10.974h10.146l13.24,19.454V10.974h10.241v35.163h-10.241l-13.169-19.307v19.307h-10.217V10.974z
			"/>
	</g>
	<g>
		<path fill="#0E4973" d="M15.343,213.829h-2.469l-0.982-2.514H7.398l-0.928,2.514H4.062l4.379-11.072h2.4L15.343,213.829z
			 M11.164,209.45l-1.549-4.109l-1.518,4.109H11.164z"/>
		<path fill="#0E4973" d="M23.836,209.758l2.201,0.688c-0.337,1.209-0.899,2.105-1.684,2.693c-0.785,0.586-1.781,0.879-2.987,0.879
			c-1.493,0-2.72-0.502-3.682-1.506c-0.961-1.004-1.442-2.379-1.442-4.121c0-1.842,0.483-3.273,1.45-4.293
			c0.966-1.02,2.237-1.529,3.812-1.529c1.376,0,2.493,0.4,3.352,1.199c0.512,0.475,0.895,1.154,1.15,2.041l-2.247,0.527
			c-0.133-0.574-0.411-1.025-0.832-1.359c-0.422-0.332-0.935-0.498-1.538-0.498c-0.833,0-1.509,0.295-2.028,0.885
			c-0.519,0.588-0.778,1.543-0.778,2.861c0,1.4,0.255,2.396,0.767,2.99c0.511,0.596,1.175,0.893,1.994,0.893
			c0.604,0,1.123-0.189,1.557-0.566C23.335,211.163,23.647,210.569,23.836,209.758z"/>
		<path fill="#0E4973" d="M35.274,209.758l2.201,0.688c-0.337,1.209-0.899,2.105-1.684,2.693c-0.785,0.586-1.78,0.879-2.987,0.879
			c-1.493,0-2.72-0.502-3.682-1.506c-0.961-1.004-1.441-2.379-1.441-4.121c0-1.842,0.483-3.273,1.449-4.293s2.237-1.529,3.812-1.529
			c1.375,0,2.492,0.4,3.352,1.199c0.511,0.475,0.895,1.154,1.15,2.041l-2.248,0.527c-0.133-0.574-0.411-1.025-0.832-1.359
			c-0.422-0.332-0.935-0.498-1.539-0.498c-0.833,0-1.509,0.295-2.028,0.885c-0.519,0.588-0.778,1.543-0.778,2.861
			c0,1.4,0.256,2.396,0.767,2.99c0.511,0.596,1.176,0.893,1.994,0.893c0.604,0,1.123-0.189,1.557-0.566
			C34.772,211.163,35.084,210.569,35.274,209.758z"/>
		<path fill="#0E4973" d="M39.448,213.829v-11.072h2.271v11.072H39.448z"/>
		<path fill="#0E4973" d="M43.515,208.362c0-1.129,0.171-2.076,0.514-2.84c0.255-0.564,0.604-1.07,1.047-1.52
			c0.442-0.447,0.926-0.779,1.453-0.996c0.701-0.293,1.509-0.438,2.424-0.438c1.657,0,2.982,0.506,3.977,1.518
			c0.994,1.012,1.492,2.42,1.492,4.223c0,1.787-0.494,3.186-1.48,4.195c-0.987,1.01-2.306,1.514-3.958,1.514
			c-1.672,0-3.001-0.502-3.988-1.506S43.515,210.124,43.515,208.362z M45.854,208.286c0,1.254,0.294,2.205,0.882,2.852
			c0.588,0.646,1.334,0.971,2.24,0.971c0.905,0,1.647-0.322,2.228-0.963c0.58-0.643,0.871-1.605,0.871-2.889
			c0-1.27-0.282-2.217-0.848-2.84c-0.565-0.625-1.315-0.938-2.25-0.938c-0.936,0-1.69,0.316-2.263,0.949
			C46.141,206.059,45.854,207.012,45.854,208.286z M47.572,202.124l1.059-2.258h2.416l-2.109,2.258H47.572z"/>
		<path fill="#0E4973" d="M56.31,213.829v-11.072h2.209l4.602,7.395v-7.395h2.109v11.072h-2.277l-4.533-7.219v7.219H56.31z"/>
		<path fill="#0E4973" d="M72.176,202.756h4.149c0.935,0,1.648,0.072,2.14,0.213c0.659,0.189,1.224,0.531,1.695,1.02
			s0.828,1.086,1.074,1.793c0.245,0.707,0.368,1.58,0.368,2.617c0,0.91-0.115,1.697-0.345,2.357
			c-0.281,0.805-0.682,1.457-1.204,1.955c-0.394,0.377-0.926,0.674-1.595,0.883c-0.501,0.156-1.171,0.234-2.01,0.234h-4.271V202.756
			z M74.446,204.629v7.334h1.695c0.634,0,1.091-0.035,1.373-0.105c0.368-0.09,0.673-0.244,0.916-0.461
			c0.243-0.217,0.441-0.572,0.594-1.068c0.153-0.494,0.23-1.172,0.23-2.027c0-0.857-0.077-1.514-0.23-1.973
			c-0.153-0.457-0.368-0.814-0.644-1.072c-0.276-0.256-0.626-0.43-1.051-0.52c-0.317-0.07-0.938-0.107-1.864-0.107H74.446z"/>
		<path fill="#0E4973" d="M83.621,213.829v-11.072h8.337v1.873h-6.067v2.455h5.646v1.865h-5.646v3.014h6.282v1.865H83.621z"/>
		<path fill="#0E4973" d="M98.643,202.756h4.149c0.936,0,1.649,0.072,2.14,0.213c0.659,0.189,1.224,0.531,1.695,1.02
			c0.47,0.488,0.828,1.086,1.074,1.793c0.246,0.707,0.368,1.58,0.368,2.617c0,0.91-0.115,1.697-0.345,2.357
			c-0.281,0.805-0.683,1.457-1.204,1.955c-0.394,0.377-0.926,0.674-1.596,0.883c-0.501,0.156-1.17,0.234-2.009,0.234h-4.272V202.756
			z M100.913,204.629v7.334h1.695c0.634,0,1.092-0.035,1.373-0.105c0.368-0.09,0.673-0.244,0.917-0.461
			c0.243-0.217,0.441-0.572,0.594-1.068c0.153-0.494,0.23-1.172,0.23-2.027c0-0.857-0.077-1.514-0.23-1.973
			c-0.153-0.457-0.368-0.814-0.644-1.072c-0.276-0.256-0.626-0.43-1.051-0.52c-0.317-0.07-0.938-0.107-1.864-0.107H100.913z"/>
		<path fill="#0E4973" d="M110.088,213.829v-11.072h8.337v1.873h-6.067v2.455h5.645v1.865h-5.645v3.014h6.282v1.865H110.088z"/>
		<path fill="#0E4973" d="M120.084,210.227l2.208-0.211c0.133,0.729,0.403,1.266,0.809,1.609c0.407,0.342,0.955,0.512,1.646,0.512
			c0.731,0,1.282-0.152,1.652-0.455c0.371-0.307,0.557-0.662,0.557-1.07c0-0.262-0.079-0.484-0.234-0.668s-0.428-0.344-0.816-0.48
			c-0.266-0.09-0.872-0.25-1.818-0.482c-1.217-0.297-2.071-0.662-2.562-1.096c-0.69-0.609-1.036-1.352-1.036-2.229
			c0-0.564,0.163-1.09,0.488-1.582c0.324-0.49,0.792-0.865,1.403-1.121c0.611-0.258,1.348-0.385,2.212-0.385
			c1.412,0,2.474,0.305,3.187,0.914s1.088,1.422,1.124,2.439l-2.271,0.098c-0.097-0.568-0.306-0.979-0.625-1.227
			c-0.319-0.25-0.799-0.375-1.438-0.375c-0.66,0-1.176,0.133-1.549,0.4c-0.24,0.172-0.36,0.4-0.36,0.688
			c0,0.262,0.112,0.486,0.337,0.672c0.287,0.236,0.982,0.484,2.086,0.74c1.104,0.258,1.921,0.521,2.45,0.797
			c0.529,0.275,0.944,0.65,1.243,1.125c0.299,0.477,0.448,1.064,0.448,1.764c0,0.635-0.178,1.229-0.537,1.783
			c-0.357,0.555-0.864,0.965-1.519,1.234c-0.655,0.27-1.47,0.404-2.447,0.404c-1.421,0-2.513-0.324-3.275-0.971
			C120.687,212.409,120.232,211.465,120.084,210.227z"/>
		<path fill="#0E4973" d="M141.369,213.829H138.9l-0.982-2.514h-4.494l-0.929,2.514h-2.408l4.379-11.072h2.4L141.369,213.829z
			 M137.189,209.45l-1.55-4.109l-1.518,4.109H137.189z"/>
		<path fill="#0E4973" d="M142.675,213.829v-11.072h4.778c1.202,0,2.075,0.1,2.62,0.299c0.544,0.199,0.98,0.553,1.307,1.063
			c0.328,0.508,0.491,1.09,0.491,1.744c0,0.83-0.248,1.518-0.743,2.059c-0.497,0.541-1.238,0.881-2.225,1.023
			c0.491,0.281,0.896,0.59,1.216,0.928c0.319,0.338,0.75,0.938,1.292,1.799l1.373,2.158h-2.716l-1.641-2.408
			c-0.583-0.861-0.981-1.404-1.196-1.627c-0.214-0.225-0.443-0.379-0.683-0.463c-0.241-0.082-0.622-0.123-1.143-0.123h-0.46v4.621
			H142.675z M144.946,207.44h1.679c1.09,0,1.77-0.045,2.041-0.135c0.271-0.092,0.483-0.248,0.636-0.471
			c0.154-0.221,0.231-0.498,0.231-0.83c0-0.373-0.101-0.672-0.303-0.902c-0.202-0.229-0.487-0.373-0.855-0.434
			c-0.184-0.025-0.736-0.039-1.657-0.039h-1.771V207.44z"/>
		<path fill="#0E4973" d="M154.112,213.829v-11.072h4.778c1.202,0,2.074,0.1,2.619,0.299c0.544,0.199,0.98,0.553,1.308,1.063
			c0.327,0.508,0.49,1.09,0.49,1.744c0,0.83-0.247,1.518-0.743,2.059c-0.497,0.541-1.237,0.881-2.225,1.023
			c0.49,0.281,0.896,0.59,1.216,0.928s0.751,0.938,1.293,1.799l1.372,2.158h-2.716l-1.641-2.408
			c-0.583-0.861-0.981-1.404-1.196-1.627c-0.214-0.225-0.442-0.379-0.682-0.463c-0.241-0.082-0.622-0.123-1.144-0.123h-0.46v4.621
			H154.112z M156.383,207.44h1.679c1.09,0,1.77-0.045,2.041-0.135c0.271-0.092,0.483-0.248,0.636-0.471
			c0.154-0.221,0.23-0.498,0.23-0.83c0-0.373-0.101-0.672-0.303-0.902c-0.201-0.229-0.486-0.373-0.854-0.434
			c-0.185-0.025-0.737-0.039-1.658-0.039h-1.771V207.44z"/>
		<path fill="#0E4973" d="M165.082,208.362c0-1.129,0.172-2.076,0.515-2.84c0.255-0.564,0.604-1.07,1.046-1.52
			c0.443-0.447,0.928-0.779,1.455-0.996c0.699-0.293,1.507-0.438,2.423-0.438c1.656,0,2.981,0.506,3.977,1.518
			c0.994,1.012,1.491,2.42,1.491,4.223c0,1.787-0.493,3.186-1.479,4.195s-2.306,1.514-3.958,1.514c-1.672,0-3.001-0.502-3.987-1.506
			C165.576,211.508,165.082,210.124,165.082,208.362z M167.422,208.286c0,1.254,0.294,2.205,0.882,2.852s1.335,0.971,2.239,0.971
			c0.905,0,1.648-0.322,2.229-0.963c0.581-0.643,0.871-1.605,0.871-2.889c0-1.27-0.283-2.217-0.848-2.84
			c-0.565-0.625-1.316-0.938-2.252-0.938c-0.935,0-1.688,0.316-2.262,0.949C167.709,206.059,167.422,207.012,167.422,208.286z"/>
		<path fill="#0E4973" d="M177.916,213.829v-10.98h2.27v9.115h5.646v1.865H177.916z"/>
		<path fill="#0E4973" d="M187.605,213.829v-10.98h2.27v9.115h5.646v1.865H187.605z"/>
		<path fill="#0E4973" d="M196.772,208.362c0-1.129,0.171-2.076,0.515-2.84c0.255-0.564,0.604-1.07,1.046-1.52
			c0.442-0.447,0.927-0.779,1.454-0.996c0.7-0.293,1.507-0.438,2.423-0.438c1.656,0,2.982,0.506,3.978,1.518
			c0.994,1.012,1.491,2.42,1.491,4.223c0,1.787-0.494,3.186-1.48,4.195s-2.306,1.514-3.958,1.514c-1.671,0-3.001-0.502-3.987-1.506
			C197.266,211.508,196.772,210.124,196.772,208.362z M199.112,208.286c0,1.254,0.294,2.205,0.882,2.852s1.334,0.971,2.238,0.971
			c0.906,0,1.649-0.322,2.229-0.963c0.58-0.643,0.87-1.605,0.87-2.889c0-1.27-0.282-2.217-0.848-2.84
			c-0.565-0.625-1.315-0.938-2.252-0.938c-0.935,0-1.688,0.316-2.262,0.949C199.398,206.059,199.112,207.012,199.112,208.286z"/>
		<path fill="#0E4973" d="M214.025,213.829v-11.072h2.209l4.603,7.395v-7.395h2.109v11.072h-2.278l-4.533-7.219v7.219H214.025z"/>
		<path fill="#0E4973" d="M235.58,213.829h-2.47l-0.981-2.514h-4.494l-0.929,2.514h-2.408l4.38-11.072h2.4L235.58,213.829z
			 M231.399,209.45l-1.549-4.109l-1.519,4.109H231.399z"/>
		<path fill="#0E4973" d="M244.071,209.758l2.201,0.688c-0.336,1.209-0.897,2.105-1.683,2.693c-0.785,0.586-1.78,0.879-2.988,0.879
			c-1.492,0-2.719-0.502-3.681-1.506c-0.961-1.004-1.441-2.379-1.441-4.121c0-1.842,0.483-3.273,1.449-4.293
			s2.236-1.529,3.812-1.529c1.375,0,2.493,0.4,3.352,1.199c0.512,0.475,0.895,1.154,1.15,2.041l-2.246,0.527
			c-0.134-0.574-0.411-1.025-0.833-1.359c-0.422-0.332-0.935-0.498-1.537-0.498c-0.834,0-1.51,0.295-2.029,0.885
			c-0.519,0.588-0.778,1.543-0.778,2.861c0,1.4,0.256,2.396,0.767,2.99c0.512,0.596,1.177,0.893,1.994,0.893
			c0.604,0,1.123-0.189,1.558-0.566C243.571,211.163,243.883,210.569,244.071,209.758z"/>
		<path fill="#0E4973" d="M248.247,213.829v-11.072h2.271v11.072H248.247z"/>
		<path fill="#0E4973" d="M252.313,208.362c0-1.129,0.172-2.076,0.515-2.84c0.255-0.564,0.604-1.07,1.046-1.52
			c0.442-0.447,0.927-0.779,1.454-0.996c0.7-0.293,1.508-0.438,2.424-0.438c1.655,0,2.981,0.506,3.977,1.518
			c0.994,1.012,1.491,2.42,1.491,4.223c0,1.787-0.493,3.186-1.479,4.195s-2.306,1.514-3.959,1.514c-1.671,0-3-0.502-3.986-1.506
			C252.807,211.508,252.313,210.124,252.313,208.362z M254.653,208.286c0,1.254,0.294,2.205,0.882,2.852s1.335,0.971,2.239,0.971
			c0.905,0,1.648-0.322,2.229-0.963c0.58-0.643,0.87-1.605,0.87-2.889c0-1.27-0.282-2.217-0.848-2.84
			c-0.564-0.625-1.315-0.938-2.251-0.938c-0.935,0-1.689,0.316-2.262,0.949C254.939,206.059,254.653,207.012,254.653,208.286z"/>
		<path fill="#0E4973" d="M265.109,213.829v-11.072h2.208l4.604,7.395v-7.395h2.108v11.072h-2.277l-4.534-7.219v7.219H265.109z"/>
		<path fill="#0E4973" d="M286.662,213.829h-2.47l-0.981-2.514h-4.494l-0.928,2.514h-2.408l4.379-11.072h2.4L286.662,213.829z
			 M282.482,209.45l-1.549-4.109l-1.52,4.109H282.482z"/>
		<path fill="#0E4973" d="M288.023,213.829v-10.98h2.27v9.115h5.646v1.865H288.023z"/>
	</g>
	<g>
		<g>
			<polygon fill="#F9F347" points="147.439,192.803 138.776,192.803 122.762,61.107 160.89,61.107 			"/>
			<polygon fill="#F9F347" points="145.95,193.495 139.201,188.061 209.32,75.438 239.019,99.348 			"/>
			<polygon fill="#F9F347" points="139.923,191.555 146.579,186.01 74.571,74.588 45.28,98.994 			"/>
			<polygon fill="#F9F347" points="152.238,193.223 148.826,185.256 252.132,123.579 267.146,158.625 			"/>
			<polygon fill="#F9F347" points="137.032,177.043 134.154,185.219 16.354,160.739 29.01,124.772 			"/>
		</g>
		<g>
			<ellipse fill="#0C4975" cx="138.717" cy="119.762" rx="16.472" ry="20.541"/>
			
				<ellipse transform="matrix(0.9775 -0.2109 0.2109 0.9775 -23.1447 40.1879)" fill="#0C4975" cx="176.859" cy="128.614" rx="12.553" ry="16.257"/>
			<g>
				<path fill="#0C4975" d="M23.763,192.165l1.754-0.94c42.389-22.732,51.157-32.677,55.37-37.456
					c1.912-2.169,3.066-3.478,5.937-4.443c0.719-0.164,1.297-0.236,1.818-0.236c2.28,0,3.656,1.387,6.398,4.15
					c5.653,5.697,17.416,17.553,55.516,37.985l1.754,0.94H23.763z"/>
				<path fill="#FFFFFF" d="M88.642,149.589c6.32,0,4.896,11.625,61.678,42.076H25.753c61.229-32.836,52.276-38.855,61.229-41.865
					C87.604,149.66,88.146,149.589,88.642,149.589 M88.642,148.589c-0.558,0-1.172,0.077-1.877,0.234l-0.051,0.012l-0.05,0.017
					c-2.997,1.007-4.185,2.354-6.152,4.585c-4.194,4.758-12.921,14.656-55.231,37.347l-3.508,1.881h3.98h124.566h3.98l-3.508-1.881
					c-38.034-20.397-49.762-32.217-55.397-37.897C92.555,150.025,91.13,148.589,88.642,148.589L88.642,148.589z"/>
			</g>
			<g>
				<path fill="#0C4975" d="M118.126,192.059l1.754-0.94c42.389-22.732,51.157-32.677,55.37-37.456
					c1.912-2.169,3.066-3.478,5.937-4.443c0.719-0.164,1.297-0.236,1.818-0.236c2.28,0,3.656,1.387,6.397,4.15
					c5.652,5.697,17.415,17.553,55.517,37.985l1.754,0.94H118.126z"/>
				<path fill="#FFFFFF" d="M183.005,149.483c6.32,0,4.896,11.625,61.678,42.076H120.117c61.229-32.836,52.276-38.855,61.229-41.865
					C181.968,149.555,182.51,149.483,183.005,149.483 M183.005,148.483c-0.559,0-1.172,0.077-1.878,0.234l-0.051,0.012l-0.049,0.017
					c-2.998,1.007-4.186,2.354-6.152,4.585c-4.194,4.758-12.921,14.656-55.231,37.347l-3.508,1.881h3.98h124.566h3.98l-3.508-1.881
					c-38.035-20.397-49.763-32.217-55.398-37.897C186.918,149.919,185.493,148.483,183.005,148.483L183.005,148.483z"/>
			</g>
			<g>
				<path fill="#0C4975" d="M61.993,195.571l1.83-0.944c51.416-26.537,62.055-38.15,67.167-43.732
					c2.307-2.518,3.699-4.038,7.151-5.155c0.851-0.186,1.543-0.27,2.165-0.27c2.715,0,4.27,1.508,7.675,4.812
					c6.858,6.651,21.127,20.494,67.34,44.346l1.829,0.944H61.993z"/>
				<path fill="#FFFFFF" d="M140.306,145.969c7.664,0,5.936,13.566,74.786,49.102H64.052c74.243-38.318,63.386-45.343,74.243-48.856
					C139.049,146.052,139.706,145.969,140.306,145.969 M140.306,144.969c-0.658,0-1.385,0.088-2.222,0.268l-0.049,0.011
					l-0.048,0.015c-3.577,1.158-5.003,2.714-7.366,5.294c-5.093,5.56-15.691,17.129-67.027,43.625l-3.659,1.889h4.118h151.04h4.118
					l-3.659-1.889c-46.147-23.818-60.381-37.625-67.222-44.261C144.93,146.625,143.224,144.969,140.306,144.969L140.306,144.969z"/>
			</g>
			
				<ellipse transform="matrix(-0.9775 -0.2109 0.2109 -0.9775 172.1732 275.5876)" fill="#0C4975" cx="100.781" cy="128.614" rx="12.553" ry="16.257"/>
		</g>
	</g>
</g>
</svg>
