<?xml version="1.0" encoding="utf-8"?>
<!-- Generator: Adobe Illustrator 15.0.2, SVG Export Plug-In . SVG Version: 6.00 Build 0)  -->
<!DOCTYPE svg PUBLIC "-//W3C//DTD SVG 1.1//EN" "http://www.w3.org/Graphics/SVG/1.1/DTD/svg11.dtd">
<svg version="1.1" id="Layer_1" xmlns="http://www.w3.org/2000/svg" xmlns:xlink="http://www.w3.org/1999/xlink" x="0px" y="0px"
	 width="200px" height="150px" viewBox="0 0 200 150" enable-background="new 0 0 200 150" xml:space="preserve">
<g>
	<g>
		<path fill="#DA251C" d="M23.951,137.485h-3.025l-0.42,1.418h-2.722l3.242-8.59h2.906l3.241,8.59h-2.791L23.951,137.485z
			 M23.398,135.627l-0.952-3.088l-0.941,3.088H23.398z"/>
		<path fill="#DA251C" d="M27.788,130.313h2.399v8.59h-2.399V130.313z"/>
		<path fill="#DA251C" d="M34.449,130.313v2.367h1.317v1.746h-1.317v2.205c0,0.265,0.025,0.44,0.076,0.525
			c0.079,0.133,0.216,0.199,0.412,0.199c0.177,0,0.424-0.051,0.741-0.152l0.177,1.646c-0.593,0.129-1.146,0.193-1.659,0.193
			c-0.596,0-1.035-0.076-1.317-0.229c-0.283-0.152-0.491-0.383-0.627-0.693c-0.136-0.31-0.203-0.813-0.203-1.507v-2.188h-0.882
			v-1.746h0.882v-1.143L34.449,130.313z"/>
		<path fill="#DA251C" d="M43.688,136.383h-4.801c0.044,0.383,0.147,0.668,0.313,0.855c0.231,0.27,0.533,0.404,0.905,0.404
			c0.235,0,0.459-0.059,0.671-0.176c0.13-0.074,0.269-0.205,0.418-0.393l2.359,0.217c-0.361,0.625-0.797,1.073-1.307,1.345
			s-1.241,0.407-2.194,0.407c-0.827,0-1.479-0.116-1.953-0.349s-0.867-0.602-1.18-1.107c-0.312-0.506-0.468-1.101-0.468-1.784
			c0-0.973,0.313-1.76,0.938-2.361c0.626-0.602,1.489-0.902,2.592-0.902c0.895,0,1.601,0.135,2.118,0.404s0.911,0.66,1.182,1.172
			c0.271,0.512,0.406,1.178,0.406,1.998V136.383z M41.252,135.241c-0.047-0.461-0.172-0.791-0.373-0.99
			c-0.202-0.199-0.468-0.299-0.798-0.299c-0.38,0-0.684,0.15-0.911,0.451c-0.146,0.188-0.237,0.467-0.277,0.838H41.252z"/>
		<path fill="#DA251C" d="M44.654,132.68h2.242v1.02c0.215-0.441,0.438-0.745,0.667-0.911s0.513-0.249,0.851-0.249
			c0.353,0,0.739,0.109,1.158,0.328l-0.741,1.699c-0.282-0.117-0.506-0.176-0.67-0.176c-0.314,0-0.558,0.129-0.729,0.387
			c-0.247,0.363-0.371,1.043-0.371,2.039v2.086h-2.406V132.68z"/>
		<path fill="#DA251C" d="M50.422,132.68h2.229v1.014c0.334-0.414,0.671-0.71,1.013-0.888c0.341-0.178,0.757-0.267,1.247-0.267
			c0.662,0,1.181,0.196,1.556,0.589c0.374,0.393,0.562,0.999,0.562,1.819v3.955h-2.406v-3.422c0-0.391-0.072-0.667-0.217-0.829
			c-0.146-0.162-0.35-0.243-0.612-0.243c-0.29,0-0.525,0.109-0.706,0.328s-0.271,0.611-0.271,1.178v2.988h-2.395V132.68z"/>
		<path fill="#DA251C" d="M60.484,134.696l-2.289-0.24c0.087-0.398,0.211-0.712,0.374-0.94c0.162-0.229,0.396-0.427,0.703-0.595
			c0.22-0.121,0.521-0.215,0.905-0.281c0.385-0.066,0.801-0.1,1.248-0.1c0.717,0,1.294,0.04,1.729,0.12
			c0.435,0.08,0.798,0.247,1.088,0.501c0.204,0.176,0.365,0.425,0.482,0.747c0.118,0.322,0.177,0.63,0.177,0.923v2.748
			c0,0.293,0.019,0.522,0.056,0.688s0.118,0.378,0.244,0.636h-2.247c-0.091-0.16-0.149-0.282-0.177-0.366s-0.055-0.216-0.082-0.396
			c-0.314,0.301-0.626,0.516-0.936,0.645c-0.424,0.172-0.916,0.258-1.477,0.258c-0.745,0-1.312-0.172-1.697-0.516
			c-0.387-0.344-0.579-0.768-0.579-1.271c0-0.473,0.139-0.861,0.417-1.166s0.792-0.531,1.542-0.68
			c0.897-0.18,1.48-0.306,1.747-0.378s0.549-0.167,0.847-0.284c0-0.293-0.061-0.498-0.183-0.615
			c-0.121-0.117-0.335-0.176-0.641-0.176c-0.393,0-0.687,0.063-0.883,0.188C60.702,134.243,60.578,134.426,60.484,134.696z
			 M62.561,135.95c-0.329,0.117-0.673,0.221-1.029,0.311c-0.486,0.129-0.794,0.256-0.924,0.381c-0.133,0.129-0.2,0.275-0.2,0.439
			c0,0.188,0.066,0.341,0.197,0.46c0.132,0.119,0.324,0.179,0.58,0.179c0.267,0,0.515-0.064,0.744-0.193s0.392-0.286,0.488-0.472
			c0.096-0.186,0.144-0.427,0.144-0.724V135.95z"/>
		<path fill="#DA251C" d="M68.864,130.313v2.367h1.317v1.746h-1.317v2.205c0,0.265,0.025,0.44,0.076,0.525
			c0.078,0.133,0.216,0.199,0.412,0.199c0.176,0,0.423-0.051,0.741-0.152l0.176,1.646c-0.592,0.129-1.145,0.193-1.658,0.193
			c-0.597,0-1.036-0.076-1.318-0.229s-0.491-0.383-0.626-0.693c-0.136-0.31-0.203-0.813-0.203-1.507v-2.188h-0.883v-1.746h0.883
			v-1.143L68.864,130.313z"/>
		<path fill="#DA251C" d="M71.255,130.313h2.394v1.623h-2.394V130.313z M71.255,132.68h2.394v6.223h-2.394V132.68z"/>
		<path fill="#DA251C" d="M74.315,132.68h2.491l1.213,3.943l1.257-3.943h2.417l-2.655,6.223h-2.124L74.315,132.68z"/>
		<path fill="#DA251C" d="M84.407,134.696l-2.288-0.24c0.086-0.398,0.211-0.712,0.373-0.94c0.163-0.229,0.397-0.427,0.703-0.595
			c0.22-0.121,0.521-0.215,0.906-0.281c0.384-0.066,0.8-0.1,1.247-0.1c0.718,0,1.294,0.04,1.729,0.12s0.798,0.247,1.089,0.501
			c0.203,0.176,0.364,0.425,0.482,0.747c0.117,0.322,0.176,0.63,0.176,0.923v2.748c0,0.293,0.019,0.522,0.057,0.688
			c0.037,0.166,0.118,0.378,0.244,0.636h-2.248c-0.09-0.16-0.148-0.282-0.176-0.366c-0.028-0.084-0.056-0.216-0.083-0.396
			c-0.313,0.301-0.625,0.516-0.936,0.645c-0.423,0.172-0.915,0.258-1.477,0.258c-0.745,0-1.311-0.172-1.697-0.516
			c-0.386-0.344-0.579-0.768-0.579-1.271c0-0.473,0.14-0.861,0.418-1.166s0.792-0.531,1.541-0.68c0.898-0.18,1.48-0.306,1.747-0.378
			s0.549-0.167,0.848-0.284c0-0.293-0.062-0.498-0.183-0.615c-0.122-0.117-0.335-0.176-0.642-0.176
			c-0.392,0-0.687,0.063-0.882,0.188C84.625,134.243,84.502,134.426,84.407,134.696z M86.484,135.95
			c-0.33,0.117-0.673,0.221-1.03,0.311c-0.486,0.129-0.794,0.256-0.923,0.381c-0.134,0.129-0.2,0.275-0.2,0.439
			c0,0.188,0.065,0.341,0.197,0.46c0.131,0.119,0.324,0.179,0.579,0.179c0.267,0,0.515-0.064,0.744-0.193s0.393-0.286,0.488-0.472
			s0.145-0.427,0.145-0.724V135.95z"/>
		<path fill="#DA251C" d="M94.142,130.313h2.489l3.247,4.752v-4.752h2.512v8.59h-2.512l-3.229-4.717v4.717h-2.507V130.313z"/>
		<path fill="#DA251C" d="M110.429,138.903h-2.236v-1.008c-0.334,0.414-0.67,0.709-1.008,0.885c-0.34,0.176-0.756,0.264-1.25,0.264
			c-0.66,0-1.176-0.196-1.551-0.589s-0.563-0.997-0.563-1.813v-3.961h2.406v3.422c0,0.391,0.072,0.668,0.219,0.832
			c0.145,0.164,0.348,0.246,0.611,0.246c0.285,0,0.52-0.109,0.703-0.328c0.182-0.219,0.273-0.611,0.273-1.178v-2.994h2.395V138.903z
			"/>
		<path fill="#DA251C" d="M118.661,136.383h-4.801c0.043,0.383,0.146,0.668,0.313,0.855c0.23,0.27,0.533,0.404,0.906,0.404
			c0.234,0,0.459-0.059,0.67-0.176c0.129-0.074,0.27-0.205,0.418-0.393l2.359,0.217c-0.361,0.625-0.797,1.073-1.307,1.345
			s-1.242,0.407-2.195,0.407c-0.826,0-1.479-0.116-1.953-0.349c-0.473-0.232-0.867-0.602-1.178-1.107
			c-0.313-0.506-0.469-1.101-0.469-1.784c0-0.973,0.313-1.76,0.939-2.361c0.625-0.602,1.488-0.902,2.59-0.902
			c0.895,0,1.602,0.135,2.119,0.404s0.912,0.66,1.182,1.172c0.271,0.512,0.406,1.178,0.406,1.998V136.383z M116.226,135.241
			c-0.047-0.461-0.172-0.791-0.373-0.99c-0.203-0.199-0.469-0.299-0.797-0.299c-0.381,0-0.686,0.15-0.912,0.451
			c-0.146,0.188-0.238,0.467-0.277,0.838H116.226z"/>
		<path fill="#DA251C" d="M118.587,132.68h2.49l1.213,3.943l1.258-3.943h2.416l-2.656,6.223h-2.123L118.587,132.68z"/>
		<path fill="#DA251C" d="M128.679,134.696l-2.289-0.24c0.086-0.398,0.211-0.712,0.373-0.94c0.164-0.229,0.398-0.427,0.703-0.595
			c0.221-0.121,0.521-0.215,0.906-0.281s0.801-0.1,1.248-0.1c0.717,0,1.293,0.04,1.729,0.12s0.799,0.247,1.088,0.501
			c0.205,0.176,0.365,0.425,0.482,0.747c0.119,0.322,0.178,0.63,0.178,0.923v2.748c0,0.293,0.018,0.522,0.055,0.688
			s0.119,0.378,0.244,0.636h-2.246c-0.09-0.16-0.15-0.282-0.178-0.366s-0.055-0.216-0.082-0.396
			c-0.313,0.301-0.625,0.516-0.936,0.645c-0.424,0.172-0.916,0.258-1.477,0.258c-0.744,0-1.311-0.172-1.697-0.516
			c-0.385-0.344-0.578-0.768-0.578-1.271c0-0.473,0.139-0.861,0.416-1.166c0.279-0.305,0.793-0.531,1.543-0.68
			c0.896-0.18,1.48-0.306,1.746-0.378c0.268-0.072,0.549-0.167,0.848-0.284c0-0.293-0.061-0.498-0.182-0.615
			c-0.123-0.117-0.336-0.176-0.643-0.176c-0.393,0-0.686,0.063-0.883,0.188C128.896,134.243,128.772,134.426,128.679,134.696z
			 M130.755,135.95c-0.33,0.117-0.672,0.221-1.029,0.311c-0.486,0.129-0.795,0.256-0.924,0.381
			c-0.133,0.129-0.199,0.275-0.199,0.439c0,0.188,0.064,0.341,0.195,0.46c0.133,0.119,0.326,0.179,0.58,0.179
			c0.268,0,0.516-0.064,0.744-0.193c0.23-0.129,0.393-0.286,0.488-0.472s0.145-0.427,0.145-0.724V135.95z"/>
		<path fill="#DA251C" d="M138.413,130.313h2.488l3.248,4.752v-4.752h2.512v8.59h-2.512l-3.23-4.717v4.717h-2.506V130.313z"/>
		<path fill="#DA251C" d="M150.298,134.696l-2.287-0.24c0.086-0.398,0.209-0.712,0.373-0.94c0.162-0.229,0.396-0.427,0.703-0.595
			c0.219-0.121,0.521-0.215,0.906-0.281c0.383-0.066,0.799-0.1,1.246-0.1c0.719,0,1.295,0.04,1.73,0.12s0.797,0.247,1.088,0.501
			c0.203,0.176,0.365,0.425,0.482,0.747s0.176,0.63,0.176,0.923v2.748c0,0.293,0.02,0.522,0.057,0.688s0.119,0.378,0.244,0.636
			h-2.248c-0.09-0.16-0.148-0.282-0.176-0.366s-0.055-0.216-0.082-0.396c-0.314,0.301-0.627,0.516-0.936,0.645
			c-0.424,0.172-0.916,0.258-1.477,0.258c-0.746,0-1.311-0.172-1.697-0.516s-0.58-0.768-0.58-1.271c0-0.473,0.139-0.861,0.418-1.166
			s0.793-0.531,1.541-0.68c0.898-0.18,1.48-0.306,1.748-0.378c0.266-0.072,0.549-0.167,0.846-0.284c0-0.293-0.061-0.498-0.182-0.615
			s-0.336-0.176-0.641-0.176c-0.393,0-0.688,0.063-0.883,0.188C150.517,134.243,150.392,134.426,150.298,134.696z M152.374,135.95
			c-0.328,0.117-0.672,0.221-1.029,0.311c-0.486,0.129-0.793,0.256-0.924,0.381c-0.133,0.129-0.199,0.275-0.199,0.439
			c0,0.188,0.066,0.341,0.197,0.46s0.324,0.179,0.58,0.179c0.266,0,0.514-0.064,0.744-0.193c0.229-0.129,0.391-0.286,0.488-0.472
			c0.096-0.186,0.143-0.427,0.143-0.724V135.95z"/>
		<path fill="#DA251C" d="M160.655,136.465l2.275,0.258c-0.125,0.473-0.33,0.882-0.617,1.228c-0.285,0.346-0.652,0.614-1.098,0.806
			c-0.443,0.191-1.01,0.287-1.697,0.287c-0.662,0-1.215-0.062-1.654-0.185c-0.441-0.123-0.822-0.321-1.139-0.597
			c-0.318-0.275-0.566-0.599-0.748-0.969c-0.18-0.371-0.27-0.863-0.27-1.476c0-0.64,0.109-1.173,0.328-1.599
			c0.162-0.312,0.381-0.592,0.66-0.84c0.277-0.248,0.564-0.432,0.857-0.553c0.467-0.191,1.066-0.287,1.795-0.287
			c1.02,0,1.797,0.182,2.332,0.545s0.912,0.895,1.127,1.594l-2.252,0.299c-0.072-0.266-0.199-0.466-0.387-0.601
			c-0.186-0.135-0.436-0.202-0.75-0.202c-0.396,0-0.717,0.142-0.961,0.424c-0.246,0.283-0.367,0.711-0.367,1.284
			c0,0.511,0.121,0.898,0.363,1.164c0.244,0.265,0.553,0.397,0.93,0.397c0.314,0,0.578-0.08,0.791-0.24
			C160.39,137.043,160.55,136.797,160.655,136.465z"/>
		<path fill="#DA251C" d="M163.962,130.313h2.395v1.623h-2.395V130.313z M163.962,132.68h2.395v6.223h-2.395V132.68z"/>
		<path fill="#DA251C" d="M167.437,135.809c0-0.949,0.32-1.731,0.965-2.347c0.643-0.615,1.512-0.923,2.605-0.923
			c1.25,0,2.195,0.361,2.836,1.084c0.514,0.582,0.77,1.299,0.77,2.15c0,0.957-0.318,1.741-0.955,2.353s-1.52,0.917-2.645,0.917
			c-1.004,0-1.816-0.254-2.436-0.762C167.815,137.653,167.437,136.829,167.437,135.809z M169.837,135.803
			c0,0.555,0.111,0.965,0.338,1.23c0.225,0.266,0.508,0.398,0.85,0.398c0.346,0,0.629-0.131,0.85-0.393
			c0.223-0.262,0.332-0.682,0.332-1.26c0-0.539-0.111-0.94-0.334-1.204c-0.225-0.264-0.5-0.396-0.83-0.396
			c-0.35,0-0.637,0.134-0.865,0.401C169.95,134.849,169.837,135.256,169.837,135.803z M170.96,130.167h2.059l-1.9,1.752h-1.146
			L170.96,130.167z"/>
		<path fill="#DA251C" d="M175.61,132.68h2.229v1.014c0.334-0.414,0.672-0.71,1.012-0.888c0.342-0.178,0.758-0.267,1.248-0.267
			c0.662,0,1.182,0.196,1.557,0.589c0.373,0.393,0.561,0.999,0.561,1.819v3.955h-2.406v-3.422c0-0.391-0.072-0.667-0.217-0.829
			s-0.35-0.243-0.611-0.243c-0.291,0-0.525,0.109-0.707,0.328c-0.18,0.219-0.27,0.611-0.27,1.178v2.988h-2.395V132.68z"/>
	</g>
	<g>
		<g>
			<g>
				<rect x="15.542" y="12.957" fill="#DA251C" width="168.916" height="110.5"/>
			</g>
			<g>
				<path fill="#FEF600" d="M186.458,125.457H13.542v-114.5h172.916V125.457z M17.542,121.457h164.916v-106.5H17.542V121.457z"/>
			</g>
		</g>
		<g>
			<g>
				<path fill="#FEF600" d="M64.421,106.655H51.189l-1.838,6.145h-11.9l14.176-37.223H64.34l14.173,37.223H66.308L64.421,106.655z
					 M62.003,98.606L57.84,85.225l-4.12,13.381H62.003z"/>
				<path fill="#FEF600" d="M82.031,75.577h10.883l14.201,20.593V75.577h10.986v37.223h-10.986L92.991,92.361v20.438h-10.96V75.577z
					"/>
				<path fill="#FEF600" d="M125.659,75.577h10.883l14.201,20.593V75.577h10.986v37.223h-10.986l-14.124-20.438v20.438h-10.96
					V75.577z"/>
			</g>
			<polygon fill="#FEF600" points="99.542,21.993 105.331,39.812 124.068,39.812 108.91,50.825 114.701,68.644 99.542,57.632 
				84.385,68.644 90.173,50.825 75.016,39.812 93.753,39.812 			"/>
		</g>
	</g>
</g>
</svg>
