<?xml version="1.0" encoding="utf-8"?>
<!-- Generator: Adobe Illustrator 15.0.2, SVG Export Plug-In . SVG Version: 6.00 Build 0)  -->
<!DOCTYPE svg PUBLIC "-//W3C//DTD SVG 1.1//EN" "http://www.w3.org/Graphics/SVG/1.1/DTD/svg11.dtd">
<svg version="1.1" id="Layer_1" xmlns="http://www.w3.org/2000/svg" xmlns:xlink="http://www.w3.org/1999/xlink" x="0px" y="0px"
	 width="250px" height="299.834px" viewBox="0 0 250 299.834" enable-background="new 0 0 250 299.834" xml:space="preserve">
<g>
	<g>
		<g>
			<rect x="0.744" y="43.643" fill="#0F1C8F" width="249.2" height="226.364"/>
			<ellipse fill="#FFFFFF" cx="125.344" cy="156.824" rx="103.254" ry="110.452"/>
			<rect x="0.744" fill="none" stroke="#0F1C8F" stroke-miterlimit="10" width="249.2" height="299.834"/>
		</g>
		<g>
			<path fill="none" stroke="#F15A24" stroke-width="5" stroke-linecap="square" stroke-miterlimit="10" d="M80.956,104.992"/>
			<path fill="none" stroke="#F15A24" stroke-width="5" stroke-linecap="square" stroke-miterlimit="10" d="M126.75,143.464"/>
			<polygon fill="#F80C10" stroke="#0F1C8F" stroke-width="5" stroke-miterlimit="10" points="204.481,140.32 159.308,97.049 
				92.001,97.049 46.207,135.521 46.207,149.917 204.481,149.917 			"/>
			<g>
				<rect x="53.074" y="188.308" fill="#F80C10" width="56.923" height="25.316"/>
				<rect x="143.754" y="188.308" fill="#F80C10" width="54.936" height="25.316"/>
				
					<rect x="53.074" y="149.917" fill="none" stroke="#0F1C8F" stroke-width="5" stroke-miterlimit="10" width="145.615" height="63.707"/>
				
					<rect x="109.997" y="165.968" fill="none" stroke="#0F1C8F" stroke-width="6" stroke-miterlimit="10" width="33.757" height="42.691"/>
				
					<rect x="74.42" y="159.019" fill="none" stroke="#0F1C8F" stroke-width="6" stroke-miterlimit="10" width="15.058" height="18.862"/>
				
					<rect x="163.443" y="159.019" fill="none" stroke="#0F1C8F" stroke-width="6" stroke-miterlimit="10" width="15.06" height="18.862"/>
			</g>
		</g>
	</g>
	<g>
		<path fill="#0F1C8F" d="M23.672,282.608c-0.107-2.06-0.822-3.241-1.947-3.241c-1.263,0-2.023,1.951-2.023,5.769
			c0,2.773,0.334,5.383,2.16,5.383c1.156,0,1.703-1.455,1.84-3.351h3.453c-0.319,5.108-2.342,8.185-5.232,8.185
			c-3.62,0-5.81-4.01-5.81-10.437c0-6.399,2.403-10.382,5.46-10.382c3.346,0,5.217,2.993,5.506,8.074H23.672z"/>
		<path fill="#0F1C8F" d="M27.88,294.831v-19.775h8.928v4.614h-5.339v2.829h4.518v4.614h-4.518v3.104h5.552v4.614H27.88z"/>
		<path fill="#0F1C8F" d="M45.138,285.85l-0.137-4.504v-6.29h3.437v19.775h-3.361l-3.909-10.767l0.137,4.504v6.263h-3.438v-19.775
			h3.361L45.138,285.85z"/>
		<path fill="#0F1C8F" d="M49.072,275.056H59.11v5.191h-3.224v14.584h-3.59v-14.584h-3.224V275.056z"/>
		<path fill="#0F1C8F" d="M63.212,287.938v6.894h-3.589v-19.775h5.171c3.65,0,4.853,1.785,4.853,5.631
			c0,2.279-0.563,4.202-1.84,4.834c1.156,0.769,1.855,1.264,1.855,5.245c0,2.582-0.045,3.461,0.381,3.461v0.604h-3.635
			c-0.091-0.439-0.183-1.702-0.183-3.46c0-2.582-0.243-3.434-1.917-3.434H63.212z M63.212,283.598h1.415
			c1.11,0,1.704-0.494,1.704-1.868c0-1.4-0.608-2.06-1.445-2.06h-1.673V283.598z"/>
		<path fill="#0F1C8F" d="M81.718,284.834c0,6.729-2.51,10.519-5.75,10.519c-3.438,0-5.734-3.845-5.734-10.574
			c0-6.207,2.327-10.244,5.734-10.244C79.877,274.534,81.718,279.615,81.718,284.834z M73.824,284.834
			c0,2.526,0.426,5.685,2.145,5.685c1.551,0,2.16-2.416,2.16-5.685c0-2.692-0.608-5.549-2.19-5.467
			C74.311,279.367,73.824,282.334,73.824,284.834z"/>
		<path fill="#0F1C8F" d="M86.592,294.831v-19.775h4.807c3.529,0,5.719,2.966,5.719,9.476c0,7.443-2.297,10.3-5.81,10.3H86.592z
			 M90.182,290.217h0.761c1.673,0,2.585-1.593,2.585-5.328c0-4.12-0.745-5.219-2.661-5.219h-0.685V290.217z"/>
		<path fill="#0F1C8F" d="M97.706,294.831v-19.775h8.929v4.614h-5.339v2.829h4.519v4.614h-4.519v3.104h5.552v4.614H97.706z"/>
		<path fill="#0F1C8F" d="M110.993,294.831l3.925-19.775h3.649l3.925,19.775h-3.575l-0.426-2.609h-3.574l-0.411,2.609H110.993z
			 M116.711,281.016l-1.109,7.087h2.266L116.711,281.016z"/>
		<path fill="#0F1C8F" d="M129.666,282.608c-0.106-2.06-0.822-3.241-1.946-3.241c-1.264,0-2.024,1.951-2.024,5.769
			c0,2.773,0.334,5.383,2.16,5.383c1.156,0,1.704-1.455,1.84-3.351h3.454c-0.32,5.108-2.343,8.185-5.233,8.185
			c-3.619,0-5.811-4.01-5.811-10.437c0-6.399,2.404-10.382,5.461-10.382c3.347,0,5.217,2.993,5.507,8.074H129.666z"/>
		<path fill="#0F1C8F" d="M140.611,282.608c-0.106-2.06-0.821-3.241-1.946-3.241c-1.263,0-2.023,1.951-2.023,5.769
			c0,2.773,0.335,5.383,2.16,5.383c1.155,0,1.703-1.455,1.84-3.351h3.453c-0.319,5.108-2.342,8.185-5.232,8.185
			c-3.62,0-5.811-4.01-5.811-10.437c0-6.399,2.403-10.382,5.461-10.382c3.346,0,5.217,2.993,5.506,8.074H140.611z"/>
		<path fill="#0F1C8F" d="M144.819,294.831v-19.775h3.591v19.775H144.819z"/>
		<path fill="#0F1C8F" d="M160.772,284.834c0,6.729-2.51,10.519-5.749,10.519c-3.438,0-5.734-3.845-5.734-10.574
			c0-6.207,2.327-10.244,5.734-10.244C158.932,274.534,160.772,279.615,160.772,284.834z M152.879,284.834
			c0,2.526,0.425,5.685,2.145,5.685c1.551,0,2.159-2.416,2.159-5.685c0-2.692-0.608-5.549-2.189-5.467
			C153.365,279.367,152.879,282.334,152.879,284.834z"/>
		<path fill="#0F1C8F" d="M168.798,285.85l-0.137-4.504v-6.29h3.437v19.775h-3.36l-3.909-10.767l0.137,4.504v6.263h-3.437v-19.775
			h3.36L168.798,285.85z"/>
		<path fill="#0F1C8F" d="M183.209,280.796c-0.061-0.687-0.259-1.099-0.518-1.346c-0.258-0.247-0.578-0.357-0.927-0.357
			c-0.791,0-1.142,0.412-1.142,1.126c0,2.967,6.298,1.127,6.298,8.323c0,4.587-2.115,6.811-5.126,6.811
			c-2.891,0-4.776-3.048-4.853-6.619h3.438c0.076,0.715,0.289,1.236,0.594,1.566c0.289,0.329,0.669,0.494,1.019,0.494
			c0.897,0,1.49-0.521,1.49-1.456c0-2.993-6.296-0.934-6.296-8.487c0-4.202,2.007-6.316,4.745-6.316
			c3.042,0,4.426,2.801,4.685,6.262H183.209z"/>
		<path fill="#0F1C8F" d="M198.611,284.834c0,6.729-2.509,10.519-5.749,10.519c-3.438,0-5.734-3.845-5.734-10.574
			c0-6.207,2.327-10.244,5.734-10.244C196.771,274.534,198.611,279.615,198.611,284.834z M190.718,284.834
			c0,2.526,0.427,5.685,2.145,5.685c1.551,0,2.16-2.416,2.16-5.685c0-2.692-0.609-5.549-2.19-5.467
			C191.204,279.367,190.718,282.334,190.718,284.834z"/>
		<path fill="#0F1C8F" d="M206.211,282.608c-0.106-2.06-0.821-3.241-1.947-3.241c-1.262,0-2.022,1.951-2.022,5.769
			c0,2.773,0.335,5.383,2.16,5.383c1.156,0,1.703-1.455,1.841-3.351h3.452c-0.318,5.108-2.342,8.185-5.232,8.185
			c-3.62,0-5.81-4.01-5.81-10.437c0-6.399,2.402-10.382,5.461-10.382c3.345,0,5.216,2.993,5.505,8.074H206.211z"/>
		<path fill="#0F1C8F" d="M210.42,294.831v-19.775h3.589v19.775H210.42z"/>
		<path fill="#0F1C8F" d="M214.463,294.831l3.924-19.775h3.651l3.924,19.775h-3.575l-0.425-2.609h-3.575l-0.41,2.609H214.463z
			 M220.183,281.016l-1.111,7.087h2.267L220.183,281.016z"/>
		<path fill="#0F1C8F" d="M226.398,294.831v-19.775h3.589v15.161h4.929v4.614H226.398z"/>
	</g>
	<g>
		<path fill="#0F1C8F" d="M53.446,17.19c-0.549-3.768-4.236-5.928-10.041-5.928c-6.511,0-10.433,3.567-10.433,10.549
			c0,5.074,1.726,9.847,11.139,9.847c5.962,0,8.786-2.663,9.492-6.129h17.807c-1.647,9.344-12.08,14.97-26.984,14.97
			c-18.669,0-29.965-7.334-29.965-19.09c0-11.705,12.394-18.989,28.161-18.989c17.257,0,26.906,5.476,28.396,14.77H53.446z"/>
		<path fill="#0F1C8F" d="M70.078,39.544L90.317,3.375h18.826l20.238,36.169h-18.434l-2.196-4.772H90.317l-2.118,4.772H70.078z
			 M99.573,14.276l-5.726,12.96h11.688L99.573,14.276z"/>
		<path fill="#0F1C8F" d="M160.604,13.875c-0.313-1.256-1.334-2.01-2.667-2.462s-2.981-0.653-4.784-0.653
			c-4.08,0-5.884,0.753-5.884,2.06c0,5.425,32.476,2.06,32.476,15.221c0,8.389-10.903,12.458-26.436,12.458
			c-14.903,0-24.631-5.577-25.023-12.107h17.728c0.393,1.307,1.49,2.26,3.06,2.864c1.491,0.603,3.451,0.904,5.257,0.904
			c4.628,0,7.687-0.955,7.687-2.662c0-5.476-32.476-1.708-32.476-15.523c0-7.686,10.354-11.554,24.475-11.554
			c15.688,0,22.827,5.124,24.16,11.454H160.604z"/>
		<path fill="#0F1C8F" d="M178.648,39.544l20.238-36.169h18.826l20.237,36.169h-18.433l-2.197-4.772h-18.434l-2.118,4.772H178.648z
			 M208.143,14.276l-5.727,12.96h11.688L208.143,14.276z"/>
	</g>
</g>
</svg>
