<?xml version="1.0" encoding="utf-8"?>
<!-- Generator: Adobe Illustrator 15.0.2, SVG Export Plug-In . SVG Version: 6.00 Build 0)  -->
<!DOCTYPE svg PUBLIC "-//W3C//DTD SVG 1.0//EN" "http://www.w3.org/TR/2001/REC-SVG-20010904/DTD/svg10.dtd">
<svg version="1.0" id="Layer_1" xmlns="http://www.w3.org/2000/svg" xmlns:xlink="http://www.w3.org/1999/xlink" x="0px" y="0px"
	 width="300px" height="220px" viewBox="0 0 300 220" enable-background="new 0 0 300 220" xml:space="preserve">
<g>
	<path fill="#FFFFFF" d="M13.672,215.906c-5.061,0-9.177-4.104-9.177-9.146V13.243c0-5.044,4.117-9.148,9.177-9.148h273.651
		c5.06,0,9.177,4.104,9.177,9.148V206.76c0,5.043-4.117,9.146-9.177,9.146H13.672z"/>
	<g>
		<path fill="#D90200" d="M287.323,7.595c3.136,0,5.677,2.527,5.677,5.648V206.76c0,3.119-2.541,5.646-5.677,5.646H13.672
			c-3.136,0-5.677-2.527-5.677-5.646V13.243c0-3.121,2.542-5.648,5.677-5.648H287.323 M287.323,0.595H13.672
			c-6.99,0-12.677,5.674-12.677,12.648V206.76c0,6.973,5.687,12.646,12.677,12.646h273.651c6.99,0,12.677-5.674,12.677-12.646
			V13.243C300,6.269,294.313,0.595,287.323,0.595L287.323,0.595z"/>
	</g>
</g>
<path fill="#D90200" d="M287.231,199.014c0,4.846-3.919,8.777-8.754,8.777H25.595c-4.833,0-8.753-3.932-8.753-8.777V24.257
	c0-4.848,3.92-8.777,8.753-8.777h252.883c4.835,0,8.754,3.929,8.754,8.777V199.014z"/>
<path fill="#FFFFFF" d="M153.571,156.475C126.569,135.287,26.456,113.463,28.188,66.73c-0.162-46.86,84.556-63.274,121.518-28.417
	C186.556,4.998,273.992,21.39,273.83,68.251C277.689,104.419,178.769,134.52,153.571,156.475z"/>
<path fill="#D90200" d="M153.596,151.635c-18.826-14.086-85.407-30.576-82.908-59.23c-0.113-31.155,54.041-42.5,79.811-19.328
	c26.826-22.212,82.229-11.25,82.115,19.905C235.307,117.027,170.883,136.057,153.596,151.635z"/>
<g>
	<path fill="#FFFFFF" stroke="#FFFFFF" stroke-width="0.5" stroke-miterlimit="10" d="M100.908,171.938
		c0,0.633-0.156,1.318-0.468,2.055c-0.312,0.738-0.803,1.461-1.472,2.17c-0.669,0.711-1.524,1.287-2.564,1.73
		s-2.252,0.664-3.636,0.664c-1.049,0-2.003-0.1-2.863-0.297c-0.859-0.199-1.639-0.51-2.34-0.93
		c-0.701-0.422-1.345-0.975-1.933-1.662c-0.524-0.625-0.972-1.322-1.343-2.096c-0.371-0.773-0.649-1.6-0.834-2.477
		c-0.186-0.877-0.278-1.809-0.278-2.795c0-1.602,0.233-3.033,0.699-4.301c0.466-1.266,1.133-2.35,2.001-3.248
		c0.868-0.9,1.886-1.586,3.053-2.057c1.167-0.469,2.41-0.705,3.73-0.705c1.61,0,3.043,0.322,4.301,0.963
		c1.257,0.643,2.22,1.436,2.89,2.381s1.004,1.838,1.004,2.68c0,0.461-0.163,0.869-0.488,1.221c-0.326,0.354-0.719,0.529-1.18,0.529
		c-0.516,0-0.902-0.121-1.16-0.365s-0.545-0.666-0.861-1.262c-0.525-0.986-1.142-1.723-1.852-2.213
		c-0.71-0.488-1.585-0.732-2.625-0.732c-1.655,0-2.974,0.629-3.955,1.887c-0.981,1.258-1.472,3.043-1.472,5.359
		c0,1.545,0.217,2.832,0.651,3.859c0.434,1.025,1.049,1.793,1.845,2.299c0.796,0.508,1.728,0.76,2.795,0.76
		c1.158,0,2.137-0.287,2.937-0.861c0.801-0.574,1.404-1.418,1.812-2.529c0.171-0.525,0.384-0.953,0.638-1.283
		c0.253-0.33,0.66-0.494,1.221-0.494c0.479,0,0.891,0.166,1.235,0.502C100.736,171.023,100.908,171.439,100.908,171.938z"/>
	<path fill="#FFFFFF" stroke="#FFFFFF" stroke-width="0.5" stroke-miterlimit="10" d="M113.281,157.99
		c2.062,0,3.833,0.418,5.311,1.256c1.479,0.836,2.598,2.025,3.358,3.566c0.76,1.543,1.14,3.354,1.14,5.434
		c0,1.539-0.208,2.936-0.624,4.193c-0.417,1.256-1.041,2.346-1.873,3.27c-0.832,0.922-1.854,1.627-3.066,2.115
		s-2.6,0.732-4.165,0.732c-1.556,0-2.949-0.25-4.178-0.752c-1.23-0.502-2.257-1.209-3.08-2.123
		c-0.823-0.914-1.445-2.012-1.866-3.297s-0.631-2.672-0.631-4.166c0-1.527,0.219-2.93,0.658-4.205
		c0.438-1.275,1.074-2.359,1.906-3.256c0.832-0.895,1.845-1.58,3.039-2.055S111.761,157.99,113.281,157.99z M119.006,168.219
		c0-1.455-0.235-2.717-0.706-3.785c-0.471-1.066-1.142-1.873-2.015-2.42c-0.873-0.549-1.875-0.822-3.005-0.822
		c-0.805,0-1.549,0.152-2.232,0.455c-0.683,0.303-1.271,0.744-1.764,1.322c-0.493,0.58-0.882,1.318-1.167,2.219
		c-0.285,0.9-0.428,1.91-0.428,3.031c0,1.131,0.143,2.154,0.428,3.066c0.285,0.914,0.687,1.672,1.207,2.273s1.117,1.051,1.791,1.35
		s1.413,0.447,2.218,0.447c1.031,0,1.978-0.258,2.842-0.773c0.863-0.516,1.551-1.311,2.062-2.387
		C118.75,171.119,119.006,169.793,119.006,168.219z"/>
	<path fill="#FFFFFF" stroke="#FFFFFF" stroke-width="0.5" stroke-miterlimit="10" d="M131.949,169.713h-1.411v6.389
		c0,0.842-0.186,1.461-0.556,1.859c-0.371,0.396-0.855,0.596-1.452,0.596c-0.643,0-1.14-0.207-1.492-0.623
		c-0.353-0.416-0.529-1.027-0.529-1.832v-15.303c0-0.869,0.194-1.496,0.583-1.887c0.389-0.389,1.018-0.582,1.886-0.582h6.553
		c0.904,0,1.677,0.037,2.32,0.115c0.642,0.076,1.221,0.232,1.736,0.467c0.624,0.264,1.176,0.639,1.655,1.127
		c0.479,0.488,0.843,1.057,1.092,1.703c0.249,0.646,0.373,1.332,0.373,2.055c0,1.484-0.418,2.668-1.255,3.555
		c-0.837,0.887-2.105,1.516-3.806,1.885c0.714,0.381,1.397,0.941,2.048,1.684c0.651,0.74,1.232,1.531,1.744,2.367
		c0.511,0.836,0.909,1.592,1.194,2.266c0.285,0.674,0.427,1.137,0.427,1.391c0,0.262-0.083,0.521-0.251,0.779
		s-0.396,0.461-0.685,0.611c-0.29,0.148-0.624,0.223-1.004,0.223c-0.453,0-0.833-0.105-1.14-0.318
		c-0.308-0.213-0.572-0.48-0.793-0.807c-0.222-0.326-0.522-0.805-0.902-1.438l-1.614-2.688c-0.579-0.984-1.097-1.736-1.554-2.252
		s-0.92-0.867-1.391-1.059C133.255,169.807,132.663,169.713,131.949,169.713z M134.255,161.355h-3.717v5.467h3.609
		c0.967,0,1.782-0.084,2.442-0.25c0.66-0.168,1.165-0.453,1.513-0.855s0.522-0.957,0.522-1.662c0-0.551-0.14-1.037-0.42-1.459
		c-0.28-0.42-0.669-0.734-1.167-0.941C136.565,161.455,135.639,161.355,134.255,161.355z"/>
	<path fill="#FFFFFF" stroke="#FFFFFF" stroke-width="0.5" stroke-miterlimit="10" d="M159.244,175.967l-0.949-2.496h-8.086
		l-0.95,2.549c-0.371,0.996-0.688,1.668-0.95,2.016s-0.692,0.521-1.289,0.521c-0.507,0-0.955-0.186-1.343-0.555
		c-0.389-0.371-0.583-0.793-0.583-1.262c0-0.271,0.045-0.553,0.136-0.842s0.24-0.691,0.448-1.207l5.087-12.916
		c0.145-0.371,0.319-0.816,0.522-1.336c0.204-0.52,0.421-0.951,0.651-1.295s0.534-0.623,0.909-0.836
		c0.375-0.211,0.839-0.318,1.391-0.318c0.561,0,1.028,0.107,1.404,0.318c0.375,0.213,0.678,0.486,0.909,0.822
		c0.23,0.334,0.425,0.693,0.583,1.078s0.359,0.896,0.604,1.539l5.196,12.834c0.407,0.977,0.61,1.688,0.61,2.131
		c0,0.461-0.192,0.883-0.576,1.268c-0.385,0.385-0.849,0.576-1.391,0.576c-0.317,0-0.588-0.057-0.814-0.168
		c-0.226-0.113-0.416-0.268-0.569-0.463c-0.154-0.193-0.319-0.492-0.495-0.895C159.522,176.629,159.371,176.273,159.244,175.967z
		 M151.268,170.445h5.941l-2.998-8.209L151.268,170.445z"/>
	<path fill="#FFFFFF" stroke="#FFFFFF" stroke-width="0.5" stroke-miterlimit="10" d="M165.974,173.578l10.216-12.223h-8.777
		c-0.615,0-1.079-0.137-1.391-0.408c-0.313-0.271-0.469-0.627-0.469-1.07c0-0.463,0.156-0.836,0.469-1.119
		c0.312-0.285,0.775-0.428,1.391-0.428h11.314c1.465,0,2.197,0.682,2.197,2.049c0,0.65-0.122,1.17-0.366,1.559
		c-0.244,0.391-0.737,1.018-1.479,1.887l-9.551,11.369h10.527c0.624,0,1.09,0.129,1.397,0.387s0.461,0.617,0.461,1.078
		c0,0.479-0.153,0.859-0.461,1.139c-0.308,0.281-0.773,0.422-1.397,0.422h-12.915c-0.878,0-1.538-0.197-1.981-0.59
		c-0.442-0.395-0.664-0.922-0.664-1.582c0-0.225,0.036-0.434,0.108-0.623s0.169-0.369,0.292-0.537
		c0.122-0.166,0.291-0.379,0.508-0.637C165.621,173.992,165.811,173.768,165.974,173.578z"/>
	<path fill="#FFFFFF" stroke="#FFFFFF" stroke-width="0.5" stroke-miterlimit="10" d="M193.201,157.99
		c2.063,0,3.833,0.418,5.312,1.256c1.479,0.836,2.598,2.025,3.357,3.566c0.76,1.543,1.14,3.354,1.14,5.434
		c0,1.539-0.208,2.936-0.624,4.193c-0.416,1.256-1.04,2.346-1.872,3.27c-0.832,0.922-1.854,1.627-3.065,2.115
		c-1.213,0.488-2.601,0.732-4.165,0.732c-1.556,0-2.949-0.25-4.179-0.752c-1.23-0.502-2.257-1.209-3.08-2.123
		s-1.444-2.012-1.865-3.297s-0.631-2.672-0.631-4.166c0-1.527,0.22-2.93,0.658-4.205s1.074-2.359,1.906-3.256
		c0.832-0.895,1.845-1.58,3.039-2.055C190.325,158.229,191.682,157.99,193.201,157.99z M198.927,168.219
		c0-1.455-0.235-2.717-0.706-3.785c-0.47-1.066-1.142-1.873-2.015-2.42c-0.872-0.549-1.874-0.822-3.005-0.822
		c-0.805,0-1.549,0.152-2.231,0.455s-1.271,0.744-1.764,1.322c-0.493,0.58-0.882,1.318-1.167,2.219
		c-0.284,0.9-0.427,1.91-0.427,3.031c0,1.131,0.143,2.154,0.427,3.066c0.285,0.914,0.688,1.672,1.208,2.273
		c0.52,0.602,1.116,1.051,1.79,1.35s1.413,0.447,2.219,0.447c1.031,0,1.979-0.258,2.842-0.773c0.864-0.516,1.552-1.311,2.063-2.387
		S198.927,169.793,198.927,168.219z"/>
	<path fill="#FFFFFF" stroke="#FFFFFF" stroke-width="0.5" stroke-miterlimit="10" d="M211.706,160.404l7.747,11.723v-11.83
		c0-0.77,0.164-1.346,0.495-1.73c0.33-0.383,0.775-0.576,1.336-0.576c0.579,0,1.035,0.193,1.37,0.576
		c0.335,0.385,0.502,0.961,0.502,1.73v15.643c0,1.746-0.724,2.617-2.171,2.617c-0.361,0-0.688-0.051-0.977-0.154
		c-0.289-0.105-0.561-0.27-0.813-0.496c-0.254-0.227-0.489-0.49-0.706-0.793s-0.434-0.613-0.651-0.93l-7.557-11.586v11.654
		c0,0.76-0.176,1.334-0.528,1.723c-0.354,0.389-0.806,0.582-1.357,0.582c-0.569,0-1.026-0.195-1.37-0.59
		c-0.344-0.393-0.516-0.965-0.516-1.715v-15.346c0-0.65,0.072-1.16,0.218-1.531c0.171-0.408,0.456-0.74,0.854-0.998
		c0.397-0.258,0.827-0.387,1.289-0.387c0.361,0,0.671,0.059,0.929,0.176c0.258,0.119,0.484,0.277,0.679,0.475
		c0.194,0.199,0.394,0.457,0.597,0.773C211.278,159.732,211.489,160.063,211.706,160.404z"/>
</g>
<g>
	<path fill="#FFFFFF" stroke="#FFFFFF" stroke-width="0.5" stroke-miterlimit="10" d="M49.598,184l7.747,11.721v-11.83
		c0-0.768,0.165-1.344,0.495-1.729s0.775-0.576,1.336-0.576c0.579,0,1.036,0.191,1.37,0.576s0.502,0.961,0.502,1.729v15.643
		c0,1.746-0.724,2.619-2.17,2.619c-0.362,0-0.688-0.053-0.977-0.156s-0.561-0.27-0.814-0.496c-0.253-0.225-0.488-0.49-0.706-0.793
		c-0.217-0.303-0.434-0.613-0.651-0.93l-7.557-11.586v11.654c0,0.76-0.176,1.334-0.529,1.723c-0.353,0.389-0.805,0.584-1.356,0.584
		c-0.57,0-1.027-0.197-1.371-0.59c-0.344-0.395-0.515-0.967-0.515-1.717v-15.344c0-0.65,0.072-1.162,0.217-1.533
		c0.172-0.406,0.457-0.738,0.855-0.996c0.397-0.258,0.827-0.387,1.289-0.387c0.362,0,0.671,0.059,0.929,0.176
		s0.484,0.275,0.679,0.475c0.194,0.199,0.393,0.457,0.597,0.773S49.381,183.656,49.598,184z"/>
	<path fill="#FFFFFF" stroke="#FFFFFF" stroke-width="0.5" stroke-miterlimit="10" d="M65.485,193.592v-9.564
		c0-0.814,0.183-1.424,0.549-1.832c0.367-0.406,0.848-0.609,1.445-0.609c0.624,0,1.12,0.203,1.486,0.609
		c0.366,0.408,0.549,1.018,0.549,1.832v9.781c0,1.113,0.124,2.041,0.373,2.787c0.249,0.748,0.689,1.326,1.323,1.738
		c0.633,0.41,1.52,0.617,2.659,0.617c1.574,0,2.686-0.42,3.337-1.256s0.977-2.105,0.977-3.805v-9.863
		c0-0.822,0.181-1.436,0.543-1.838c0.361-0.402,0.846-0.604,1.452-0.604c0.605,0,1.096,0.201,1.472,0.604s0.563,1.016,0.563,1.838
		v9.564c0,1.555-0.151,2.854-0.454,3.893c-0.303,1.041-0.875,1.955-1.716,2.742c-0.724,0.668-1.565,1.156-2.523,1.465
		c-0.959,0.307-2.081,0.461-3.365,0.461c-1.528,0-2.844-0.166-3.948-0.496s-2.003-0.84-2.7-1.533
		c-0.697-0.691-1.208-1.578-1.533-2.658C65.648,196.385,65.485,195.094,65.485,193.592z"/>
	<path fill="#FFFFFF" stroke="#FFFFFF" stroke-width="0.5" stroke-miterlimit="10" d="M99.672,185.031h-9.076v4.885h8.357
		c0.615,0,1.074,0.137,1.377,0.412c0.303,0.277,0.455,0.641,0.455,1.094c0,0.451-0.149,0.82-0.448,1.105
		c-0.298,0.283-0.76,0.426-1.384,0.426h-8.357v5.658h9.388c0.633,0,1.11,0.146,1.432,0.441c0.321,0.293,0.481,0.684,0.481,1.174
		c0,0.469-0.161,0.852-0.481,1.146c-0.321,0.293-0.798,0.439-1.432,0.439H89.036c-0.877,0-1.508-0.193-1.893-0.582
		s-0.576-1.018-0.576-1.887v-14.951c0-0.578,0.085-1.051,0.257-1.416c0.172-0.367,0.441-0.635,0.808-0.801
		c0.366-0.168,0.834-0.252,1.404-0.252h10.636c0.642,0,1.12,0.143,1.432,0.428s0.468,0.658,0.468,1.119
		c0,0.471-0.156,0.848-0.468,1.133S100.314,185.031,99.672,185.031z"/>
	<path fill="#FFFFFF" stroke="#FFFFFF" stroke-width="0.5" stroke-miterlimit="10" d="M108.043,184.23l4.504,13.336l4.518-13.432
		c0.235-0.705,0.412-1.195,0.529-1.471s0.312-0.525,0.583-0.746c0.271-0.223,0.642-0.332,1.112-0.332
		c0.344,0,0.663,0.086,0.957,0.258s0.524,0.398,0.692,0.684c0.167,0.285,0.251,0.572,0.251,0.861c0,0.199-0.027,0.414-0.082,0.645
		s-0.122,0.457-0.204,0.68c-0.081,0.221-0.163,0.449-0.244,0.684l-4.816,12.998c-0.172,0.498-0.344,0.969-0.516,1.418
		c-0.172,0.447-0.371,0.84-0.597,1.18c-0.227,0.34-0.527,0.617-0.902,0.834c-0.375,0.217-0.834,0.326-1.377,0.326
		c-0.543,0-1.002-0.107-1.377-0.318c-0.375-0.213-0.679-0.494-0.909-0.842s-0.432-0.744-0.604-1.188
		c-0.172-0.443-0.344-0.912-0.516-1.41l-4.735-12.889c-0.082-0.234-0.165-0.465-0.251-0.691s-0.158-0.471-0.217-0.732
		c-0.059-0.264-0.088-0.484-0.088-0.666c0-0.461,0.185-0.881,0.556-1.262c0.371-0.379,0.836-0.568,1.397-0.568
		c0.687,0,1.173,0.209,1.458,0.631C107.453,182.637,107.745,183.309,108.043,184.23z"/>
	<path fill="#FFFFFF" stroke="#FFFFFF" stroke-width="0.5" stroke-miterlimit="10" d="M135.529,199.561l-0.95-2.496h-8.085
		l-0.95,2.551c-0.371,0.994-0.688,1.666-0.95,2.014c-0.262,0.35-0.692,0.523-1.289,0.523c-0.507,0-0.955-0.186-1.343-0.557
		c-0.389-0.371-0.583-0.791-0.583-1.262c0-0.271,0.045-0.551,0.136-0.842c0.09-0.289,0.24-0.691,0.448-1.207l5.087-12.914
		c0.145-0.371,0.319-0.816,0.522-1.338c0.204-0.52,0.42-0.951,0.651-1.295c0.231-0.344,0.534-0.621,0.909-0.834
		c0.375-0.213,0.839-0.318,1.391-0.318c0.561,0,1.029,0.105,1.404,0.318c0.375,0.213,0.678,0.486,0.909,0.82
		s0.425,0.695,0.583,1.078c0.158,0.385,0.359,0.898,0.604,1.541l5.196,12.834c0.407,0.977,0.61,1.686,0.61,2.129
		c0,0.461-0.192,0.885-0.577,1.27c-0.384,0.383-0.848,0.576-1.391,0.576c-0.316,0-0.588-0.057-0.814-0.17s-0.416-0.266-0.57-0.461
		s-0.319-0.492-0.495-0.896C135.808,200.223,135.656,199.869,135.529,199.561z M127.552,194.039h5.942l-2.999-8.207L127.552,194.039
		z"/>
	<path fill="#FFFFFF" stroke="#FFFFFF" stroke-width="0.5" stroke-miterlimit="10" d="M154.984,184l7.746,11.721v-11.83
		c0-0.768,0.165-1.344,0.495-1.729s0.775-0.576,1.336-0.576c0.579,0,1.036,0.191,1.371,0.576c0.334,0.385,0.502,0.961,0.502,1.729
		v15.643c0,1.746-0.724,2.619-2.171,2.619c-0.362,0-0.688-0.053-0.977-0.156c-0.29-0.104-0.562-0.27-0.814-0.496
		c-0.253-0.225-0.488-0.49-0.705-0.793c-0.218-0.303-0.435-0.613-0.651-0.93l-7.557-11.586v11.654c0,0.76-0.177,1.334-0.529,1.723
		s-0.805,0.584-1.356,0.584c-0.57,0-1.027-0.197-1.371-0.59c-0.344-0.395-0.515-0.967-0.515-1.717v-15.344
		c0-0.65,0.072-1.162,0.217-1.533c0.172-0.406,0.457-0.738,0.855-0.996c0.398-0.258,0.828-0.387,1.289-0.387
		c0.361,0,0.672,0.059,0.93,0.176s0.483,0.275,0.678,0.475s0.394,0.457,0.598,0.773C154.557,183.326,154.767,183.656,154.984,184z"
		/>
	<path fill="#FFFFFF" stroke="#FFFFFF" stroke-width="0.5" stroke-miterlimit="10" d="M183.203,199.561l-0.95-2.496h-8.086
		l-0.949,2.551c-0.371,0.994-0.688,1.666-0.949,2.014c-0.263,0.35-0.692,0.523-1.289,0.523c-0.507,0-0.954-0.186-1.344-0.557
		c-0.389-0.371-0.583-0.791-0.583-1.262c0-0.271,0.045-0.551,0.136-0.842c0.09-0.289,0.239-0.691,0.447-1.207l5.088-12.914
		c0.145-0.371,0.319-0.816,0.522-1.338c0.203-0.52,0.421-0.951,0.651-1.295s0.533-0.621,0.908-0.834
		c0.376-0.213,0.839-0.318,1.391-0.318c0.562,0,1.029,0.105,1.404,0.318c0.376,0.213,0.679,0.486,0.909,0.82
		s0.425,0.695,0.583,1.078c0.158,0.385,0.36,0.898,0.604,1.541l5.195,12.834c0.407,0.977,0.611,1.686,0.611,2.129
		c0,0.461-0.192,0.885-0.577,1.27c-0.385,0.383-0.848,0.576-1.391,0.576c-0.316,0-0.588-0.057-0.813-0.17
		c-0.227-0.113-0.416-0.266-0.57-0.461c-0.153-0.195-0.318-0.492-0.495-0.896C183.48,200.223,183.329,199.869,183.203,199.561z
		 M175.226,194.039h5.942l-2.998-8.207L175.226,194.039z"/>
	<path fill="#FFFFFF" stroke="#FFFFFF" stroke-width="0.5" stroke-miterlimit="10" d="M206.713,195.531
		c0,0.633-0.156,1.318-0.468,2.057c-0.313,0.736-0.803,1.459-1.472,2.17c-0.67,0.709-1.524,1.287-2.564,1.73
		c-1.04,0.441-2.252,0.664-3.636,0.664c-1.05,0-2.004-0.1-2.862-0.299c-0.859-0.199-1.64-0.508-2.341-0.93
		c-0.701-0.42-1.346-0.975-1.933-1.662c-0.525-0.623-0.973-1.322-1.344-2.096s-0.648-1.598-0.834-2.475
		c-0.186-0.879-0.278-1.811-0.278-2.795c0-1.602,0.232-3.035,0.698-4.301c0.466-1.268,1.133-2.35,2.002-3.25
		c0.868-0.9,1.886-1.584,3.052-2.055c1.167-0.471,2.41-0.705,3.731-0.705c1.609,0,3.043,0.32,4.301,0.963
		c1.257,0.643,2.22,1.436,2.89,2.381c0.669,0.945,1.004,1.838,1.004,2.68c0,0.461-0.163,0.867-0.489,1.221
		c-0.325,0.352-0.719,0.529-1.18,0.529c-0.516,0-0.902-0.123-1.16-0.367s-0.545-0.664-0.861-1.262
		c-0.524-0.986-1.142-1.723-1.852-2.211c-0.711-0.488-1.586-0.732-2.626-0.732c-1.654,0-2.973,0.629-3.954,1.885
		c-0.981,1.258-1.472,3.045-1.472,5.359c0,1.547,0.217,2.834,0.65,3.859c0.435,1.027,1.05,1.793,1.846,2.301
		c0.796,0.506,1.728,0.76,2.795,0.76c1.157,0,2.137-0.287,2.937-0.861c0.801-0.574,1.404-1.418,1.812-2.531
		c0.172-0.523,0.384-0.951,0.638-1.281c0.253-0.33,0.66-0.496,1.221-0.496c0.479,0,0.891,0.168,1.234,0.502
		C206.541,194.619,206.713,195.035,206.713,195.531z"/>
	<path fill="#FFFFFF" stroke="#FFFFFF" stroke-width="0.5" stroke-miterlimit="10" d="M210.498,199.697v-15.67
		c0-0.814,0.186-1.424,0.557-1.832c0.371-0.406,0.85-0.609,1.438-0.609c0.605,0,1.097,0.201,1.472,0.604s0.563,1.016,0.563,1.838
		v15.67c0,0.822-0.188,1.438-0.563,1.844c-0.375,0.408-0.866,0.611-1.472,0.611c-0.579,0-1.057-0.205-1.432-0.617
		S210.498,200.51,210.498,199.697z"/>
	<path fill="#FFFFFF" stroke="#FFFFFF" stroke-width="0.5" stroke-miterlimit="10" d="M227.782,181.586
		c2.063,0,3.833,0.418,5.312,1.254s2.598,2.025,3.357,3.568s1.14,3.354,1.14,5.434c0,1.537-0.208,2.936-0.624,4.191
		c-0.416,1.258-1.04,2.348-1.872,3.27c-0.832,0.924-1.854,1.629-3.065,2.117c-1.213,0.488-2.601,0.732-4.165,0.732
		c-1.556,0-2.949-0.252-4.179-0.754c-1.23-0.502-2.257-1.209-3.08-2.123c-0.823-0.912-1.444-2.012-1.865-3.297
		c-0.421-1.283-0.631-2.672-0.631-4.164c0-1.529,0.22-2.93,0.658-4.205s1.074-2.361,1.906-3.256
		c0.832-0.896,1.845-1.582,3.039-2.057C224.906,181.822,226.263,181.586,227.782,181.586z M233.508,191.814
		c0-1.457-0.235-2.719-0.706-3.785c-0.47-1.066-1.142-1.875-2.015-2.422c-0.872-0.547-1.874-0.82-3.005-0.82
		c-0.805,0-1.549,0.15-2.231,0.455c-0.683,0.303-1.271,0.744-1.764,1.322s-0.882,1.318-1.167,2.217
		c-0.284,0.9-0.427,1.912-0.427,3.033c0,1.131,0.143,2.152,0.427,3.066c0.285,0.914,0.688,1.67,1.208,2.271
		c0.52,0.602,1.116,1.053,1.79,1.35c0.674,0.299,1.413,0.449,2.219,0.449c1.031,0,1.979-0.258,2.842-0.773
		c0.864-0.516,1.552-1.313,2.063-2.389S233.508,193.389,233.508,191.814z"/>
	<path fill="#FFFFFF" stroke="#FFFFFF" stroke-width="0.5" stroke-miterlimit="10" d="M246.287,184l7.747,11.721v-11.83
		c0-0.768,0.164-1.344,0.495-1.729c0.33-0.385,0.775-0.576,1.336-0.576c0.579,0,1.035,0.191,1.37,0.576s0.502,0.961,0.502,1.729
		v15.643c0,1.746-0.724,2.619-2.171,2.619c-0.361,0-0.688-0.053-0.977-0.156s-0.561-0.27-0.813-0.496
		c-0.254-0.225-0.489-0.49-0.706-0.793s-0.434-0.613-0.651-0.93l-7.557-11.586v11.654c0,0.76-0.176,1.334-0.528,1.723
		c-0.354,0.389-0.806,0.584-1.357,0.584c-0.569,0-1.026-0.197-1.37-0.59c-0.344-0.395-0.516-0.967-0.516-1.717v-15.344
		c0-0.65,0.072-1.162,0.218-1.533c0.171-0.406,0.456-0.738,0.854-0.996c0.397-0.258,0.827-0.387,1.289-0.387
		c0.361,0,0.671,0.059,0.929,0.176s0.484,0.275,0.679,0.475s0.394,0.457,0.597,0.773S246.07,183.656,246.287,184z"/>
</g>
<g>
	<path fill="#FFFFFF" d="M119.863,116.242c-3.197,1.354-7.371,2.029-12.522,2.029c-6.719,0-12.003-1.727-15.851-5.184
		c-3.848-3.455-5.772-8.06-5.772-13.813c0-6.127,2.163-11.097,6.49-14.909s9.941-5.718,16.844-5.718
		c4.275,0,7.879,0.472,10.812,1.417v8.31c-2.932-1.532-6.271-2.298-10.018-2.298c-4.113,0-7.432,1.131-9.957,3.393
		c-2.525,2.262-3.787,5.326-3.787,9.191c0,3.705,1.191,6.658,3.573,8.857c2.382,2.2,5.589,3.3,9.621,3.3
		c3.848,0,7.371-0.819,10.567-2.458V116.242z"/>
	<path fill="#FFFFFF" d="M165.583,117.604h-9.957L137.577,93.53c-1.059-1.407-1.792-2.467-2.199-3.18h-0.122
		c0.163,1.354,0.244,3.42,0.244,6.199v21.054h-9.315V79.289h10.628l17.377,23.326c0.795,1.051,1.527,2.093,2.199,3.126h0.122
		c-0.163-0.891-0.244-2.645-0.244-5.264V79.289h9.315V117.604z"/>
	<path fill="#FFFFFF" d="M213.686,117.604h-9.957l-18.05-24.073c-1.059-1.407-1.792-2.467-2.198-3.18h-0.123
		c0.163,1.354,0.245,3.42,0.245,6.199v21.054h-9.315V79.289h10.628l17.378,23.326c0.795,1.051,1.527,2.093,2.199,3.126h0.122
		c-0.163-0.891-0.244-2.645-0.244-5.264V79.289h9.315V117.604z"/>
</g>
</svg>
