<?xml version="1.0" encoding="utf-8"?>
<!-- Generator: Adobe Illustrator 15.0.2, SVG Export Plug-In . SVG Version: 6.00 Build 0)  -->
<!DOCTYPE svg PUBLIC "-//W3C//DTD SVG 1.1//EN" "http://www.w3.org/Graphics/SVG/1.1/DTD/svg11.dtd">
<svg version="1.1" xmlns="http://www.w3.org/2000/svg" xmlns:xlink="http://www.w3.org/1999/xlink" x="0px" y="0px" width="250px"
	 height="250px" viewBox="0 0 250 250" enable-background="new 0 0 250 250" xml:space="preserve">
<g id="Background">
</g>
<g id="Guides">
</g>
<g id="Foreground">
	<g>
		<g>
			<defs>
				<path id="SVGID_1_" d="M15.639,18.54c0-7.712,6.252-13.964,13.963-13.964h190.794c7.713,0,13.963,6.252,13.963,13.964v160.202
					c0.002,0.007-218.706,0.005-218.72,0V18.54z"/>
			</defs>
			<use xlink:href="#SVGID_1_"  overflow="visible" fill-rule="evenodd" clip-rule="evenodd" fill="#FFD100"/>
			<clipPath id="SVGID_2_">
				<use xlink:href="#SVGID_1_"  overflow="visible"/>
			</clipPath>
			<g clip-path="url(#SVGID_2_)">
				<g>
					
						<path fill-rule="evenodd" clip-rule="evenodd" fill="none" stroke="#000000" stroke-width="2.4378" stroke-linecap="round" stroke-linejoin="round" stroke-miterlimit="3.8637" d="
						M2.194,112.237c0,0,20.792-8.713,41.41-14.112"/>
					
						<path fill-rule="evenodd" clip-rule="evenodd" fill="none" stroke="#000000" stroke-width="1.5852" stroke-linecap="round" stroke-linejoin="round" stroke-miterlimit="3.8637" d="
						M72.792,147.563c-1.605,0.958-3.489,2.063-5.15,3.032"/>
					
						<path fill-rule="evenodd" clip-rule="evenodd" fill="none" stroke="#000000" stroke-width="1.5852" stroke-linecap="round" stroke-linejoin="round" stroke-miterlimit="3.8637" d="
						M93.736,132.547c-1.848,1.207-2.481,1.475-4.492,2.756"/>
					
						<path fill-rule="evenodd" clip-rule="evenodd" fill="none" stroke="#000000" stroke-width="1.9492" stroke-linecap="round" stroke-linejoin="round" stroke-miterlimit="3.8637" d="
						M63.106,80.097c0,0,4.421,4.856-0.151,9.302c0,0-5.21,7.344-17.885,8.448c0,0-4.689,0.551-5.591-2.985
						c0,0-0.727-3.307,3.915-5.466c0,0,5.658-2.444,7.423-9.21c0,0,1.952-5.26,6.407-5.647c0,0,6.712,0.321,14.344-1.09
						c0,0,10.761-3.442,18.508-3.543c0,0,2.979-0.612,5.606-1.474c0,0,6.173-2.465,13.667-2.652c0,0,3.969-1.049,8.383-5.829"/>
					
						<path fill-rule="evenodd" clip-rule="evenodd" fill="none" stroke="#000000" stroke-width="1.5852" stroke-linecap="round" stroke-linejoin="round" stroke-miterlimit="3.8637" d="
						M143.059,109.086c-1.477,4.622-4.432,11.162-10.127,16.093c0,0-1.924,3.453-5.234,4.649c0,0-6.457,10.249-17.518,9.109
						c0,0-0.182,7.065-7.913,7.635c0,0-8.559,1.615-7.966-10.781c0,0-0.87-3.78,0.282-10.397c0,0,0.386-3.019,0.226-6.67
						c0,0-0.255-5.459,1.076-8.795c0,0,1.336-4.041,5.459-4.52c4.126-0.479,7.792,2.571,7.849,6.659c0,0,1.951,8.639,1.128,16.544
						c0,0-0.204,4.597-0.31,7.797l0.186,2.521"/>
					
						<path fill-rule="evenodd" clip-rule="evenodd" fill="none" stroke="#000000" stroke-width="1.5852" stroke-linecap="round" stroke-linejoin="round" stroke-miterlimit="3.8637" d="
						M94.601,140.596c0,0-2.714,4.346-6.195,13.086c0,0-2.001,4.91-7.979,3.328c0,0-1.241-0.189-2.708-0.627
						c0,0-2.751-0.512-4.023-3.12c0,0-1.321-2.888-0.541-6.577c0,0,1.438-6.241,2.274-11.812c0,0,1.242-7.901,8.486-6.68
						c0,0,5.524,0.902,4.789,8.217c0,0-0.017,3.979-0.873,7.151"/>
					
						<path fill-rule="evenodd" clip-rule="evenodd" fill="none" stroke="#000000" stroke-width="1.9872" stroke-linecap="round" stroke-linejoin="round" stroke-miterlimit="3.8637" d="
						M74.378,154.644c0,0-1.627,1.344-3.882,5.878c0,0-4.471,5.732-9.655,4.486l-4.792-1.546c0,0-6.165-2.43-3.864-7.928
						c0,0,2.252-6.763,10.59-6.295c0,0,5.299,0.059,5.913,3.915"/>
					
						<path fill-rule="evenodd" clip-rule="evenodd" fill="none" stroke="#000000" stroke-width="1.5852" stroke-linecap="round" stroke-linejoin="round" stroke-miterlimit="3.8637" d="
						M105.18,105.199c0,0-0.457-6.257,5.313-7.496c0,0,7.339-1.351,8.749,5.392c0,0,1.369,4.91,2.205,11.046
						c0,0,0.609,4.14,0.654,10.48c0,0-0.114,4.435-1.343,6.688"/>
					
						<path fill-rule="evenodd" clip-rule="evenodd" fill="none" stroke="#000000" stroke-width="1.5852" stroke-linecap="round" stroke-linejoin="round" stroke-miterlimit="3.8637" d="
						M122.233,119.259c0,0,2.792,0.253,5.925,3.534"/>
					<g>
						
							<path fill-rule="evenodd" clip-rule="evenodd" fill="none" stroke="#000000" stroke-width="6.6382" stroke-linecap="round" stroke-linejoin="round" stroke-miterlimit="3.8637" d="
							M52.784,96.251C66.419,90.42,75.51,86.899,86.365,81.16c0,0,13.009-6.346,27.594-15.427c0,0,3.418-2.565,5.893-10.52
							c0,0,1.284-6.654,3.424-10.456c0,0,1.042-3.998,1.484-8.458c0,0,0.176-6.75,5.061-8.968l4.463-1.819
							c0,0,2.947-1.294,4.795,0.329c0,0,5.342-2.742,7.57,1.007c0,0,1.43,3.09-1.334,5.374c0,0-1.436,4.735-0.219,6.682
							c0,0,2.803,3.871,6.572,4.974c0,0,13.664-0.398,19.861,0.747c0,0,11.275,0.457,20.947,3.453c0,0,12.051,2.707,21.691,7.271
							c0,0,4.656,2.026,1.852,8.165c-1.695,3.709-6.246,4.683-6.246,4.683s-2.223,0.494-5.217,0.301c0,0-2.203-0.133-4.99-0.388
							c0,0-4.42-0.382-8.818-1.698"/>
						
							<path fill-rule="evenodd" clip-rule="evenodd" fill="none" stroke="#000000" stroke-width="6.2453" stroke-linecap="round" stroke-linejoin="round" stroke-miterlimit="3.8637" d="
							M183.832,61.067c2.219,1.403,5.275,4.236,6.699,6.649c0,0,4.959,4.136,6.17,7.712c0,0,1.695,5.079-2.064,8.384
							c0,0-1.898,2.687-5.623,1.405l-4.689-1.346c0,0-2.475-0.687-2.328,1.806c0,0,0.949,6.379-5.814,9.009
							c0,0-5.357,2.768-6.568,5.499c0,0-1.871,3.608-11.707,5.976c0,0-1.92,0.403-3.725,1.685c0,0-4.936,4.369-11.646,0.8
							c0,0-3.879,0.35-10.494,4.54c0,0-4.496,3.02-9.806,5.276"/>
					</g>
					
						<path fill-rule="evenodd" clip-rule="evenodd" fill="none" stroke="#000000" stroke-width="2.4378" stroke-linecap="round" stroke-linejoin="round" stroke-miterlimit="3.8637" d="
						M143.867,35.836c0,0,9.863-10.459,15.105-17.706c0,0,13.408-18.763,30.707-28.783c0,0,3.012-1.321,7.273-4.182"/>
					
						<path fill-rule="evenodd" clip-rule="evenodd" fill="none" stroke="#000000" stroke-width="2.4378" stroke-linecap="round" stroke-linejoin="round" stroke-miterlimit="3.8637" d="
						M240.914,29.125c-5.957,5.54-15.537,13.315-30.898,23.756"/>
					
						<path fill-rule="evenodd" clip-rule="evenodd" fill="none" stroke="#000000" stroke-width="2.4378" stroke-linecap="round" stroke-linejoin="round" stroke-miterlimit="3.8637" d="
						M52.39,161.589c-1.607,0.956-34.453,23.241-39.501,23.704"/>
				</g>
				<path fill-rule="evenodd" clip-rule="evenodd" fill="#FFFFFF" d="M16.753,106.318c0,0,17.523-5.747,26.982-8.185
					c0,0-8.102-0.849-3.118-7.083c0,0,7.53-2.269,10.138-12.066c0,0,2.268-5.663,12.235-4.475l8.61-0.849l10.478-2.946l8.949-1.188
					c0,0,13.084-4.538,20.676-2.948c0,0,6.805-3.456,9.69-17.558l2.207-6.342l1.526-9.69l2.777-4.645l6.234-3.224l4.305,0.679
					l4.645-1.251l3.225,2.269l1.08,4.305l8.951-9.968l13.594-16.371l10.137-9.289l20.943-13.002l40.174,46.701l-31.492,23.624
					c0,0,9.182,3.394,6.234,10.646c0,0-2.947,6.807-14.676,5.047l-11.557-2.269l4.645,6.002l2.777,6.403l-2.035,5.154l-3.457,1.929
					l-8.949-1.25l-1.357,2.269l-1.08,5.323l-6.512,3.287l-4.137,4.984l-6.742,4.644l-7.762,2.269l-5.154,2.885l-7.59-0.849
					l-2.207,6.405l-7.252,9.627l-2.375,3.796l-3.457,1.697c0,0-6.574,8.44-16.372,8.44c0,0-3.287,7.592-8.61,7.592
					c-5.324,0-8.102-5.324-8.102-5.324l-2.545,4.815l-3.457,8.439c0,0-5.153,5.726-13.932,0.17l-3.287,4.644l-2.948,3.796
					l-4.984,2.206c0,0-8.78-1.805-8.78-2.375c0-0.571-2.438-0.571-2.438-0.571l-39.085,23.283L1.194,112.066L16.753,106.318z"/>
				<g>
					
						<path fill-rule="evenodd" clip-rule="evenodd" fill="none" stroke="#000000" stroke-width="2.4378" stroke-linecap="round" stroke-linejoin="round" stroke-miterlimit="3.8637" d="
						M2.194,112.237c0,0,20.792-8.713,41.41-14.112"/>
					
						<path fill-rule="evenodd" clip-rule="evenodd" fill="none" stroke="#000000" stroke-width="2.4378" stroke-linecap="round" stroke-linejoin="round" stroke-miterlimit="3.8637" d="
						M72.792,147.563c-1.605,0.958-3.489,2.063-5.15,3.032"/>
					
						<path fill-rule="evenodd" clip-rule="evenodd" fill="none" stroke="#000000" stroke-width="2.4378" stroke-linecap="round" stroke-linejoin="round" stroke-miterlimit="3.8637" d="
						M93.736,132.547c-1.848,1.207-2.481,1.475-4.492,2.756"/>
					
						<path fill-rule="evenodd" clip-rule="evenodd" fill="none" stroke="#000000" stroke-width="2.8018" stroke-linecap="round" stroke-linejoin="round" stroke-miterlimit="3.8637" d="
						M63.106,80.097c0,0,4.421,4.856-0.151,9.302c0,0-5.21,7.344-17.885,8.448c0,0-4.689,0.551-5.591-2.985
						c0,0-0.727-3.307,3.915-5.466c0,0,5.658-2.444,7.423-9.21c0,0,1.952-5.26,6.407-5.647c0,0,6.712,0.321,14.344-1.09
						c0,0,10.761-3.442,18.508-3.543c0,0,2.979-0.612,5.606-1.474c0,0,6.173-2.465,13.667-2.652c0,0,3.969-1.049,8.383-5.829"/>
					
						<path fill-rule="evenodd" clip-rule="evenodd" fill="none" stroke="#000000" stroke-width="2.4378" stroke-linecap="round" stroke-linejoin="round" stroke-miterlimit="3.8637" d="
						M143.059,109.086c-1.477,4.622-4.432,11.162-10.127,16.093c0,0-1.182,2.87-5.234,4.649c0,0-6.457,10.249-17.518,9.109
						c0,0-0.182,7.065-7.913,7.635c0,0-8.559,1.615-7.966-10.781c0,0-0.87-3.78,0.282-10.397c0,0,0.386-3.019,0.226-6.67
						c0,0-0.255-5.459,1.076-8.795c0,0,1.336-4.041,5.459-4.52c4.126-0.479,7.792,2.571,7.849,6.659c0,0,1.951,8.639,1.128,16.544
						c0,0-0.204,4.597-0.31,7.797l0.186,2.521"/>
					
						<path fill-rule="evenodd" clip-rule="evenodd" fill="none" stroke="#000000" stroke-width="2.4378" stroke-linecap="round" stroke-linejoin="round" stroke-miterlimit="3.8637" d="
						M94.601,140.596c0,0-2.714,4.346-6.195,13.086c0,0-2.001,4.91-7.979,3.328c0,0-1.241-0.189-2.708-0.627
						c0,0-2.751-0.512-4.023-3.12c0,0-1.321-2.888-0.541-6.577c0,0,1.438-6.241,2.274-11.812c0,0,1.242-7.901,8.486-6.68
						c0,0,5.524,0.902,4.789,8.217c0,0-0.017,3.979-0.873,7.151"/>
					
						<path fill-rule="evenodd" clip-rule="evenodd" fill="none" stroke="#000000" stroke-width="2.8392" stroke-linecap="round" stroke-linejoin="round" stroke-miterlimit="3.8637" d="
						M74.378,154.644c0,0-1.627,1.344-3.882,5.878c0,0-4.471,5.732-9.655,4.486l-4.792-1.546c0,0-6.165-2.43-3.864-7.928
						c0,0,2.252-6.763,10.59-6.295c0,0,5.299,0.059,5.913,3.915"/>
					
						<path fill-rule="evenodd" clip-rule="evenodd" fill="none" stroke="#000000" stroke-width="2.4378" stroke-linecap="round" stroke-linejoin="round" stroke-miterlimit="3.8637" d="
						M105.18,105.199c0,0-0.457-6.257,5.313-7.496c0,0,7.339-1.351,8.749,5.392c0,0,1.369,4.91,2.205,11.046
						c0,0,0.609,4.14,0.654,10.48c0,0-0.114,4.435-1.343,6.688"/>
					
						<path fill-rule="evenodd" clip-rule="evenodd" fill="none" stroke="#000000" stroke-width="2.4378" stroke-linecap="round" stroke-linejoin="round" stroke-miterlimit="3.8637" d="
						M122.233,119.259c0,0,2.792,0.253,5.925,3.534"/>
					<g>
						
							<path fill-rule="evenodd" clip-rule="evenodd" fill="none" stroke="#000000" stroke-width="2.8018" stroke-linecap="round" stroke-linejoin="round" stroke-miterlimit="3.8637" d="
							M52.784,96.251C66.419,90.42,75.51,86.899,86.365,81.16c0,0,13.009-6.346,27.594-15.427c0,0,3.418-2.565,5.893-10.52
							c0,0,1.284-6.654,3.424-10.456c0,0,1.042-3.998,1.484-8.458c0,0-0.173-7.166,4.712-9.382l4.401-1.931
							c0,0,3.719-1.431,5.617-0.644c0,0,5.117-0.286,7.158,2.505c0,0,1.574,4.041-1.111,5.94c0,0-1.658,4.168-0.441,6.115
							c0,0,2.803,3.871,6.572,4.974c0,0,13.664-0.398,19.861,0.747c0,0,11.275,0.457,20.947,3.453c0,0,12.051,2.707,21.691,7.271
							c0,0,4.656,2.026,1.852,8.165c-1.695,3.709-6.246,4.683-6.246,4.683s-2.223,0.494-5.217,0.301c0,0-2.203-0.133-4.99-0.388
							c0,0-4.42-0.382-8.818-1.698"/>
						
							<path fill-rule="evenodd" clip-rule="evenodd" fill="none" stroke="#000000" stroke-width="2.8018" stroke-linecap="round" stroke-linejoin="round" stroke-miterlimit="3.8637" d="
							M183.832,61.067c2.219,1.403,5.275,4.236,6.699,6.649c0,0,4.959,4.136,6.17,7.712c0,0,1.695,5.079-2.064,8.384
							c0,0-1.898,2.687-5.623,1.405l-4.689-1.346c0,0-2.475-0.687-2.328,1.806c0,0,0.949,6.379-5.814,9.009
							c0,0-5.357,2.768-6.568,5.499c0,0-1.871,3.608-11.707,5.976c0,0-1.92,0.403-3.725,1.685c0,0-4.936,4.369-11.646,0.8
							c0,0-3.879,0.35-10.494,4.54c0,0-4.496,3.02-9.806,5.276"/>
					</g>
					
						<path fill-rule="evenodd" clip-rule="evenodd" fill="none" stroke="#000000" stroke-width="2.4378" stroke-linecap="round" stroke-linejoin="round" stroke-miterlimit="3.8637" d="
						M145.035,34.432c0,0,8.695-9.055,13.938-16.301c0,0,13.408-18.763,30.707-28.783c0,0,3.012-1.321,7.273-4.182"/>
					
						<path fill-rule="evenodd" clip-rule="evenodd" fill="none" stroke="#000000" stroke-width="2.4378" stroke-linecap="round" stroke-linejoin="round" stroke-miterlimit="3.8637" d="
						M240.914,29.125c-5.957,5.54-15.537,13.315-30.898,23.756"/>
					
						<path fill-rule="evenodd" clip-rule="evenodd" fill="none" stroke="#000000" stroke-width="2.4378" stroke-linecap="round" stroke-linejoin="round" stroke-miterlimit="3.8637" d="
						M52.39,161.589c-1.607,0.956-34.453,23.241-39.501,23.704"/>
				</g>
			</g>
			
				<use xlink:href="#SVGID_1_"  overflow="visible" fill-rule="evenodd" clip-rule="evenodd" fill="none" stroke="#000000" stroke-width="0.4545" stroke-miterlimit="3.8637"/>
		</g>
		<g>
			<path fill-rule="evenodd" clip-rule="evenodd" d="M234.465,177.073l-0.039,54.083c0,7.88-6.389,14.269-14.268,14.269H29.805
				c-7.88,0-14.269-6.389-14.269-14.269v-54.083H234.465z"/>
			
				<path fill-rule="evenodd" clip-rule="evenodd" fill="none" stroke="#000000" stroke-width="8.6566" stroke-miterlimit="3.8637" d="
				M15.536,19.247c0-7.88,6.389-14.269,14.269-14.269h190.354c7.879,0,14.268,6.389,14.268,14.269v211.909
				c0,7.88-6.389,14.269-14.268,14.269H29.805c-7.88,0-14.269-6.389-14.269-14.269V19.247z"/>
			<rect x="20.893" y="175.749" fill-rule="evenodd" clip-rule="evenodd" fill="#D71920" width="208.109" height="11.057"/>
			<g>
				<path fill-rule="evenodd" clip-rule="evenodd" fill="#FFFFFF" d="M73.806,226.055c0,4.225-2.073,7.257-6.22,9.096
					c-3.326,1.486-8.098,2.229-14.319,2.229h-8.744c-8.059,0-13.654-1.39-16.784-4.166c-2.659-2.348-3.99-6.259-3.99-11.737v-8.332
					c0-5.869,2.112-10.016,6.338-12.441c3.168-1.839,7.726-2.758,13.673-2.758h10.445c3.834,0,6.828,0.194,8.979,0.586
					c3.169,0.587,5.555,1.683,7.159,3.286c1.292,1.214,2.152,2.759,2.582,4.636c0.275,1.213,0.412,2.994,0.412,5.341H61.423
					c-0.274-1.253-0.449-2.112-0.528-2.582c-0.196-0.783-0.822-1.429-1.878-1.937c-0.665-0.313-1.721-0.528-3.17-0.646
					c-1.447-0.117-3.403-0.177-5.867-0.177h-1.819c-2.699,0-4.813,0.06-6.338,0.177c-1.486,0.117-2.679,0.547-3.579,1.292
					c-0.862,0.703-1.429,1.564-1.702,2.581c-0.275,0.978-0.412,2.426-0.412,4.342v5.399c0,3.834,0.606,6.279,1.82,7.337
					c1.017,0.86,3.286,1.29,6.807,1.29c0.705,0,1.428,0,2.171,0s1.506-0.02,2.289-0.06c0.353,0,0.606,0,0.763,0
					c0.782,0,1.545,0.021,2.289,0.06c0.744,0,1.486,0,2.23,0c2.425,0,4.166-0.196,5.223-0.587c1.369-0.509,2.053-1.486,2.053-2.935
					v-2.875H73.63c0,0.704,0.02,1.35,0.058,1.937C73.728,224.958,73.767,225.507,73.806,226.055z"/>
				<path fill-rule="evenodd" clip-rule="evenodd" fill="#FFFFFF" d="M126.18,210.27c0,2.541-0.861,4.732-2.582,6.572
					c-1.917,2.033-4.617,3.227-8.098,3.579c3.363,0,5.868,0.685,7.51,2.054c1.643,1.369,2.466,3.306,2.466,5.81v8.802h-12.265
					v-7.569c0-1.682-0.705-2.837-2.112-3.462c-1.41-0.665-3.502-0.998-6.28-0.998H89.562v12.029H77.707V198.18h28.931
					c7.082,0,12.108,0.88,15.083,2.641C124.692,202.542,126.18,205.69,126.18,210.27z M113.68,211.735
					c0-1.84-0.371-3.051-1.114-3.638c-1.095-0.861-3.443-1.292-7.042-1.292H89.562v9.859h15.257c3.364,0,5.673-0.314,6.926-0.94
					C113.034,215.061,113.68,213.73,113.68,211.735z"/>
				<polygon fill-rule="evenodd" clip-rule="evenodd" fill="#FFFFFF" points="171.629,237.086 130.844,237.086 130.844,198.18 
					171.336,198.18 171.336,206.806 142.58,206.806 142.58,213.437 169.986,213.437 169.986,220.949 142.58,220.949 142.58,228.812 
					171.629,228.812 				"/>
				<path fill-rule="evenodd" clip-rule="evenodd" fill="#FFFFFF" d="M226.762,224.881c0,3.99-1.996,7.12-5.986,9.39
					c-3.402,1.917-7.414,2.874-12.029,2.874c-0.314,0.039-1.018,0.059-2.113,0.059c-1.057,0.04-1.955,0.06-2.699,0.06
					c-4.342,0-7.199-0.02-8.566-0.06c-1.332,0-2.506-0.039-3.523-0.117c-4.42,0-8.176-1.056-11.266-3.168
					c-3.365-2.27-5.047-5.282-5.047-9.037v-15.023c0-3.404,1.76-6.279,5.279-8.627c3.131-2.074,6.594-3.109,10.389-3.109h18.074
					c4.695,0,8.686,0.978,11.973,2.934c3.676,2.191,5.516,5.125,5.516,8.803V224.881z M214.438,221.301v-7.102
					c0-2.699-0.684-4.752-2.053-6.161c-1.525-1.604-3.934-2.406-7.219-2.406h-9.74c-2.623,0-4.578,0.724-5.871,2.171
					c-1.25,1.448-1.877,3.483-1.877,6.104v7.394c0,2.543,0.627,4.519,1.877,5.926c1.252,1.409,3.209,2.114,5.871,2.114h9.74
					c3.326,0,5.693-0.666,7.102-1.995C213.715,226.016,214.438,224.001,214.438,221.301z"/>
			</g>
		</g>
	</g>
</g>
</svg>
