<?xml version="1.0" encoding="utf-8"?>
<!-- Generator: Adobe Illustrator 15.0.2, SVG Export Plug-In . SVG Version: 6.00 Build 0)  -->
<!DOCTYPE svg PUBLIC "-//W3C//DTD SVG 1.1//EN" "http://www.w3.org/Graphics/SVG/1.1/DTD/svg11.dtd">
<svg version="1.1" id="Layer_1" xmlns="http://www.w3.org/2000/svg" xmlns:xlink="http://www.w3.org/1999/xlink" x="0px" y="0px"
	 width="200px" height="150px" viewBox="0 0 200 150" enable-background="new 0 0 200 150" xml:space="preserve">
<g>
	<g>
		<g>
			<path fill="#F44029" d="M9.396,123.181c0.267-2.744,0.461-5.042,0.584-6.893c0.122-1.852,0.245-4.31,0.368-7.379
				c0.122-3.068,0.184-5.103,0.184-6.104l-0.016-1.403c2.509,0.021,5.545,0.032,9.108,0.032c3.286,0,6.184-0.011,8.694-0.032
				l-0.032,0.524c-0.011,0.128-0.037,0.588-0.079,1.383l-0.097,1.734c-0.021,0.372-0.031,0.747-0.031,1.128
				c-2.054-0.085-3.776-0.127-5.17-0.127c-1.531,0-2.566,0.002-3.104,0.009c-0.537,0.005-1.375,0.028-2.513,0.071l-0.194,3.669
				c1.257,0.033,2.719,0.048,4.39,0.048c0.596,0,2.181-0.036,4.756-0.111c-0.106,1.362-0.208,2.983-0.303,4.866
				c-1.84-0.021-3.254-0.032-4.242-0.032c-1.467,0-3.109,0.038-4.928,0.113l-0.189,3.875h1.834c0.542,0,1.663-0.015,3.364-0.047
				l3.301-0.08c0.489-0.011,1.307-0.053,2.455-0.128c-0.127,1.574-0.234,3.201-0.318,4.883c-2.596-0.021-5.441-0.032-8.537-0.032
				l-7.02,0.017L9.396,123.181z"/>
			<path fill="#F44029" d="M30.208,123.181c0.307-2.415,0.541-5.081,0.705-8.001c0.163-2.92,0.261-5.683,0.292-8.289
				c1.278,0.021,2.381,0.032,3.308,0.032c1.075,0,2.108-0.011,3.1-0.032l-0.16,2.17c0.352-0.394,0.654-0.704,0.91-0.933
				c0.255-0.229,0.571-0.453,0.949-0.671c0.377-0.218,0.779-0.396,1.204-0.534c0.426-0.139,0.891-0.248,1.396-0.326
				c0.505-0.081,1.034-0.12,1.587-0.12c0.767,0,1.514,0.081,2.241,0.247c0.729,0.165,1.338,0.398,1.828,0.702
				c0.488,0.303,0.898,0.682,1.228,1.133c0.33,0.452,0.548,0.938,0.654,1.46c0.106,0.521,0.159,1.058,0.159,1.61
				c0,0.404-0.043,1.276-0.129,2.616l-0.274,5.776c-0.054,1.138-0.081,2.191-0.081,3.159c-1.073-0.021-2.077-0.032-3.013-0.032
				c-1.265,0-2.418,0.011-3.459,0.032c0.097-0.968,0.198-2.406,0.307-4.315c0.106-1.908,0.16-3.252,0.16-4.028
				c0-1.202-0.231-2.039-0.694-2.514c-0.464-0.473-1.047-0.709-1.749-0.709c-0.618,0-1.201,0.201-1.749,0.605
				c-0.549,0.404-0.972,0.992-1.27,1.763c-0.299,0.771-0.509,2.04-0.632,3.805c-0.122,1.767-0.205,3.563-0.248,5.394
				c-1.063-0.021-2.1-0.032-3.109-0.032C32.605,123.149,31.452,123.16,30.208,123.181z"/>
			<path fill="#F44029" d="M65.779,118.092c-0.053,0.426-0.181,1.206-0.383,2.345l-0.415,2.553c-1.67,0.404-3.303,0.605-4.898,0.605
				c-1.159,0-2.175-0.117-3.047-0.351c-1.032-0.276-1.957-0.766-2.776-1.468c-0.84-0.724-1.452-1.579-1.835-2.568
				c-0.457-1.159-0.687-2.457-0.687-3.893c0-1.319,0.224-2.591,0.671-3.814c0.446-1.223,1.106-2.23,1.979-3.022
				c0.872-0.793,1.84-1.324,2.903-1.596c1.064-0.271,2.239-0.406,3.526-0.406c0.755,0,1.516,0.039,2.281,0.12
				c0.767,0.078,1.713,0.251,2.841,0.518l0.031,0.366c0.032,0.383,0.056,0.775,0.072,1.173c0.016,0.399,0.051,1.029,0.104,1.891
				l0.096,1.421c-1.521-0.532-2.866-0.798-4.037-0.798c-0.84,0-1.576,0.163-2.21,0.486c-0.633,0.325-1.101,0.793-1.403,1.404
				c-0.304,0.611-0.455,1.321-0.455,2.13c0,0.818,0.136,1.504,0.407,2.058c0.271,0.554,0.704,0.968,1.3,1.244
				c0.596,0.277,1.25,0.415,1.963,0.415c0.361,0,0.789-0.036,1.284-0.11c0.494-0.075,0.926-0.157,1.292-0.248
				C64.75,118.457,65.216,118.304,65.779,118.092z"/>
			<path fill="#F44029" d="M86.181,123.181c-1.214-0.021-2.226-0.032-3.034-0.032c-1,0-2.006,0.011-3.018,0.032l-0.018-2.186
				c-0.383,0.479-0.707,0.838-0.973,1.078c-0.266,0.237-0.556,0.447-0.869,0.628c-0.314,0.182-0.665,0.34-1.054,0.472
				c-0.388,0.132-0.835,0.237-1.34,0.312s-1.019,0.11-1.539,0.11c-0.84,0-1.635-0.099-2.385-0.294
				c-0.75-0.196-1.409-0.529-1.979-0.997c-0.568-0.469-0.957-1-1.164-1.596c-0.208-0.595-0.312-1.287-0.312-2.074
				c0-0.19,0.017-0.489,0.048-0.893l0.255-3.623c0.074-1.33,0.144-2.803,0.207-4.419c0.043-0.989,0.064-1.926,0.064-2.809
				c1.319,0.021,2.441,0.032,3.366,0.032c0.937,0,1.968-0.011,3.096-0.032l-0.494,6.078c-0.075,0.926-0.115,1.557-0.121,1.893
				c-0.005,0.334-0.008,0.56-0.008,0.677c0,1.118,0.228,1.872,0.68,2.267c0.454,0.394,0.995,0.589,1.624,0.589
				c0.256,0,0.512-0.036,0.768-0.11s0.501-0.182,0.736-0.319c0.202-0.128,0.39-0.287,0.56-0.479
				c0.182-0.202,0.342-0.446,0.479-0.734c0.171-0.351,0.3-0.729,0.385-1.133c0.117-0.564,0.207-1.276,0.271-2.139
				c0.042-0.628,0.099-1.713,0.172-3.255l0.125-3.334c1.37,0.021,2.497,0.032,3.379,0.032c0.987,0,1.981-0.011,2.98-0.032
				c-0.244,2.702-0.435,5.271-0.572,7.706S86.254,119.894,86.181,123.181z"/>
			<path fill="#F44029" d="M105.187,118.362c-0.14,0.639-0.405,2.181-0.798,4.628c-1.234,0.244-2.271,0.406-3.112,0.488
				c-0.84,0.078-1.691,0.117-2.553,0.117c-1.266,0-2.43-0.086-3.493-0.263c-1.063-0.174-1.981-0.486-2.753-0.932
				c-0.771-0.446-1.417-1.002-1.938-1.667c-0.521-0.663-0.918-1.452-1.188-2.365c-0.271-0.915-0.407-1.855-0.407-2.822
				c0-1.36,0.271-2.69,0.814-3.993c0.542-1.302,1.241-2.318,2.098-3.053c0.856-0.732,1.844-1.253,2.96-1.562
				c1.117-0.309,2.26-0.462,3.43-0.462c1.212,0,2.37,0.141,3.47,0.422c1.102,0.282,2.035,0.773,2.801,1.476s1.311,1.495,1.635,2.378
				s0.486,1.834,0.486,2.855c0,0.606-0.068,1.282-0.206,2.027l-11.186,0.015c-0.01,0.171-0.015,0.323-0.015,0.461
				c0,1.144,0.408,1.987,1.228,2.526c0.819,0.541,1.819,0.81,2.999,0.81c0.703,0,1.503-0.082,2.402-0.245
				C102.758,119.036,103.867,118.756,105.187,118.362z M95.373,113.209h5.266c0.011-0.181,0.017-0.335,0.017-0.463
				c0-0.554-0.099-1.025-0.296-1.42c-0.196-0.394-0.479-0.681-0.846-0.861s-0.779-0.271-1.236-0.271
				c-0.319,0-0.628,0.052-0.926,0.151c-0.298,0.102-0.566,0.251-0.806,0.447c-0.239,0.197-0.438,0.422-0.599,0.678
				c-0.159,0.255-0.276,0.503-0.351,0.743C95.522,112.451,95.447,112.784,95.373,113.209z"/>
			<path fill="#F44029" d="M108.176,123.181c0.307-2.415,0.541-5.081,0.705-8.001c0.162-2.92,0.262-5.683,0.293-8.289
				c1.277,0.021,2.379,0.032,3.307,0.032c1.076,0,2.109-0.011,3.1-0.032l-0.16,2.17c0.352-0.394,0.654-0.704,0.91-0.933
				c0.254-0.229,0.572-0.453,0.949-0.671c0.379-0.218,0.779-0.396,1.205-0.534s0.889-0.248,1.395-0.326
				c0.506-0.081,1.035-0.12,1.588-0.12c0.766,0,1.514,0.081,2.242,0.247c0.729,0.165,1.338,0.398,1.826,0.702
				c0.49,0.303,0.898,0.682,1.229,1.133c0.33,0.452,0.549,0.938,0.654,1.46c0.107,0.521,0.16,1.058,0.16,1.61
				c0,0.404-0.045,1.276-0.129,2.616l-0.275,5.776c-0.055,1.138-0.08,2.191-0.08,3.159c-1.074-0.021-2.078-0.032-3.014-0.032
				c-1.264,0-2.418,0.011-3.459,0.032c0.096-0.968,0.197-2.406,0.307-4.315c0.105-1.908,0.16-3.252,0.16-4.028
				c0-1.202-0.232-2.039-0.695-2.514c-0.463-0.473-1.047-0.709-1.75-0.709c-0.617,0-1.199,0.201-1.746,0.605
				c-0.549,0.404-0.975,0.992-1.271,1.763c-0.297,0.771-0.508,2.04-0.631,3.805c-0.123,1.767-0.205,3.563-0.248,5.394
				c-1.063-0.021-2.1-0.032-3.109-0.032C110.574,123.149,109.42,123.16,108.176,123.181z"/>
			<path fill="#F44029" d="M142.023,118.49c-0.191,0.894-0.355,1.766-0.494,2.617l-0.352,1.946
				c-1.053,0.233-1.875,0.383-2.465,0.447c-0.59,0.063-1.162,0.095-1.715,0.095c-0.904,0-1.707-0.077-2.41-0.23
				c-0.701-0.154-1.287-0.437-1.754-0.845c-0.469-0.411-0.787-0.881-0.957-1.413c-0.172-0.532-0.256-1.096-0.256-1.691
				c0-0.106,0.004-0.295,0.016-0.565c0.01-0.272,0.047-0.875,0.111-1.811l0.35-5.521h-2.486c0.051-0.733,0.1-1.701,0.143-2.903
				l0.049-1.484h2.643c0.064-0.49,0.143-1.559,0.238-3.206l2.732-0.56c0.5-0.096,1.564-0.341,3.193-0.733
				c-0.074,1.393-0.129,2.893-0.16,4.499h3.639c-0.086,2.213-0.127,3.675-0.127,4.388h-3.672l-0.193,3.989
				c-0.02,0.596-0.031,0.979-0.031,1.149c0,0.51,0.057,0.936,0.168,1.276c0.111,0.34,0.309,0.585,0.59,0.733
				c0.283,0.148,0.594,0.223,0.934,0.223c0.256,0,0.521-0.018,0.801-0.056C140.832,118.796,141.322,118.681,142.023,118.49z"/>
			<path fill="#F44029" d="M143.658,123.181l0.494-7.084l0.158-4.068c0.01-0.733,0.016-1.484,0.016-2.251
				c0-0.776-0.01-1.737-0.031-2.887c1.287,0.021,2.309,0.032,3.064,0.032c0.883,0,1.898-0.011,3.047-0.032l-0.066,1.802
				c0.414-0.468,0.756-0.815,1.021-1.044c0.268-0.229,0.568-0.435,0.91-0.622c0.342-0.186,0.697-0.323,1.068-0.415
				c0.375-0.09,0.762-0.135,1.166-0.135c0.383,0,0.811,0.053,1.277,0.159c0.012,1.159,0.037,2.116,0.08,2.872l0.111,2.457
				c-0.584-0.17-1.133-0.256-1.641-0.256c-0.639,0-1.189,0.093-1.65,0.28c-0.463,0.185-0.871,0.468-1.229,0.844
				c-0.355,0.379-0.641,0.849-0.854,1.412c-0.211,0.564-0.359,1.458-0.445,2.681c-0.086,1.224-0.127,2.623-0.127,4.197
				c0,0.553,0.021,1.238,0.063,2.058c-1.033-0.021-2.07-0.032-3.113-0.032C145.945,123.149,144.84,123.16,143.658,123.181z"/>
			<path fill="#F44029" d="M166.814,106.477c1.32,0,2.588,0.202,3.807,0.605c1.217,0.404,2.246,0.986,3.088,1.748
				c0.84,0.76,1.459,1.648,1.857,2.664s0.6,2.108,0.6,3.278c0,1.139-0.18,2.22-0.535,3.247c-0.357,1.025-0.961,1.989-1.813,2.888
				c-0.85,0.899-1.932,1.571-3.246,2.019c-1.313,0.446-2.705,0.669-4.172,0.669c-1.352,0-2.648-0.195-3.893-0.589
				s-2.285-0.968-3.119-1.724c-0.836-0.755-1.463-1.659-1.883-2.713c-0.42-1.053-0.631-2.158-0.631-3.317s0.205-2.267,0.615-3.319
				c0.408-1.053,1.057-1.999,1.945-2.84s1.986-1.486,3.295-1.938C164.039,106.704,165.4,106.477,166.814,106.477z M166.703,111.167
				c-0.68,0-1.287,0.175-1.818,0.525c-0.531,0.352-0.934,0.865-1.203,1.541c-0.273,0.675-0.408,1.411-0.408,2.21
				c0,1.17,0.293,2.065,0.877,2.688c0.586,0.623,1.32,0.933,2.203,0.933c0.67,0,1.271-0.178,1.803-0.533
				c0.531-0.356,0.932-0.883,1.205-1.58c0.27-0.695,0.406-1.443,0.406-2.241c0-0.659-0.107-1.255-0.32-1.787
				c-0.211-0.531-0.561-0.957-1.045-1.276S167.352,111.167,166.703,111.167z"/>
		</g>
		<g>
			<path fill="#8ED201" d="M69.353,142.893c0.101-1.09,0.186-2.178,0.255-3.263c0.123-1.856,0.206-3.413,0.251-4.671
				s0.067-2.504,0.067-3.737c1.08-0.164,1.926-0.275,2.537-0.331c0.611-0.057,1.224-0.083,1.835-0.083
				c0.767,0,1.471,0.078,2.114,0.238c0.644,0.159,1.161,0.441,1.552,0.847c0.391,0.403,0.686,0.885,0.882,1.443
				c0.197,0.558,0.295,1.144,0.295,1.755c0,0.559-0.079,1.1-0.239,1.623c-0.159,0.523-0.403,0.997-0.732,1.416
				c-0.33,0.421-0.708,0.731-1.137,0.934c-0.427,0.201-0.904,0.303-1.43,0.303c-0.261,0-0.53-0.025-0.81-0.076
				c-0.279-0.05-0.543-0.123-0.793-0.218c-0.25-0.097-0.459-0.193-0.626-0.292s-0.375-0.241-0.626-0.427l-0.088,2.226
				c-0.038,1.021-0.057,1.792-0.057,2.313c-0.618-0.011-1.147-0.016-1.59-0.016C70.631,142.877,70.076,142.882,69.353,142.893z
				 M73.03,133.256c-0.043,0.239-0.072,0.435-0.088,0.586c-0.017,0.151-0.032,0.356-0.049,0.614
				c-0.016,0.259-0.023,0.464-0.023,0.618c0,0.437,0.067,0.802,0.203,1.098c0.136,0.295,0.325,0.522,0.566,0.686
				c0.242,0.162,0.502,0.244,0.778,0.244c0.292,0,0.561-0.084,0.806-0.252c0.245-0.167,0.439-0.419,0.583-0.754
				s0.215-0.713,0.215-1.133c0-0.569-0.15-1.026-0.45-1.372c-0.301-0.346-0.738-0.519-1.313-0.519
				C73.897,133.073,73.487,133.134,73.03,133.256z"/>
			<path fill="#8ED201" d="M85.068,130.808c0.659,0,1.293,0.101,1.902,0.302c0.608,0.203,1.124,0.493,1.544,0.874
				c0.42,0.38,0.73,0.824,0.93,1.332s0.299,1.055,0.299,1.64c0,0.569-0.089,1.11-0.268,1.623c-0.178,0.514-0.479,0.994-0.905,1.444
				c-0.425,0.449-0.967,0.785-1.623,1.009c-0.657,0.224-1.353,0.335-2.086,0.335c-0.676,0-1.324-0.099-1.947-0.294
				c-0.622-0.197-1.142-0.484-1.56-0.862c-0.417-0.378-0.731-0.83-0.941-1.357c-0.21-0.525-0.314-1.078-0.314-1.659
				c0-0.579,0.102-1.131,0.307-1.659c0.205-0.525,0.529-0.998,0.974-1.419c0.444-0.42,0.993-0.744,1.647-0.97
				C83.681,130.919,84.361,130.808,85.068,130.808z M85.013,133.152c-0.341,0-0.644,0.088-0.91,0.264
				c-0.266,0.176-0.467,0.432-0.602,0.77c-0.136,0.338-0.204,0.707-0.204,1.105c0,0.586,0.146,1.033,0.439,1.345
				c0.292,0.31,0.659,0.467,1.101,0.467c0.335,0,0.636-0.09,0.901-0.268c0.267-0.179,0.467-0.441,0.603-0.79s0.203-0.723,0.203-1.12
				c0-0.33-0.053-0.628-0.159-0.894c-0.106-0.267-0.281-0.479-0.522-0.639C85.62,133.233,85.337,133.152,85.013,133.152z"/>
			<path fill="#8ED201" d="M90.916,139.16l0.247-3.543l0.079-2.033c0.006-0.368,0.009-0.742,0.009-1.125
				c0-0.389-0.006-0.87-0.017-1.444c0.644,0.011,1.154,0.017,1.532,0.017c0.442,0,0.949-0.006,1.523-0.017l-0.033,0.902
				c0.207-0.234,0.379-0.408,0.512-0.523c0.133-0.114,0.284-0.218,0.455-0.311c0.17-0.094,0.348-0.163,0.534-0.208
				s0.38-0.066,0.583-0.066c0.191,0,0.404,0.025,0.639,0.078c0.005,0.581,0.018,1.059,0.039,1.436l0.057,1.23
				c-0.293-0.086-0.566-0.128-0.821-0.128c-0.318,0-0.595,0.047-0.825,0.139c-0.231,0.093-0.436,0.234-0.614,0.424
				c-0.178,0.188-0.319,0.424-0.426,0.705c-0.106,0.282-0.181,0.729-0.224,1.341c-0.043,0.611-0.063,1.312-0.063,2.098
				c0,0.276,0.011,0.619,0.032,1.029c-0.517-0.011-1.035-0.017-1.558-0.017C92.061,139.143,91.507,139.149,90.916,139.16z"/>
			<path fill="#8ED201" d="M108.531,132.81c0.727,0.01,1.422,0.016,2.08,0.016c1.129,0,2.012-0.006,2.648-0.016
				c-0.068,0.729-0.139,1.76-0.211,3.095c-0.07,1.335-0.115,2.343-0.131,3.023c-0.611,0.112-1.117,0.192-1.52,0.244
				c-0.4,0.05-0.885,0.095-1.447,0.135c-0.564,0.04-1.066,0.06-1.508,0.06c-0.723,0-1.434-0.059-2.131-0.176
				c-0.695-0.117-1.32-0.305-1.87-0.565c-0.551-0.261-1.01-0.614-1.376-1.062c-0.367-0.446-0.65-0.976-0.85-1.588
				c-0.201-0.61-0.299-1.244-0.299-1.898c0-1.079,0.268-2.082,0.806-3.008c0.536-0.925,1.308-1.657,2.317-2.198
				c1.006-0.539,2.309-0.809,3.904-0.809c1.164,0,2.453,0.141,3.869,0.423c0,0.776,0.035,1.641,0.104,2.592
				c-0.383-0.127-0.693-0.224-0.93-0.291c-0.236-0.065-0.514-0.128-0.83-0.183c-0.316-0.057-0.617-0.097-0.9-0.124
				c-0.285-0.026-0.539-0.04-0.762-0.04c-0.586,0-1.139,0.085-1.66,0.251c-0.521,0.168-0.969,0.426-1.344,0.774
				c-0.375,0.348-0.655,0.764-0.842,1.248c-0.186,0.484-0.279,0.995-0.279,1.532c0,0.548,0.106,1.035,0.32,1.464
				c0.212,0.428,0.549,0.754,1.012,0.977c0.463,0.225,0.979,0.335,1.547,0.335c0.475,0,0.992-0.068,1.557-0.207l0.092-1.731
				c-0.348-0.017-0.553-0.023-0.617-0.023l-0.846,0.007l0.055-0.98c0.006-0.105,0.014-0.259,0.025-0.458
				C108.525,133.428,108.531,133.155,108.531,132.81z"/>
			<path fill="#8ED201" d="M123.705,139.16c-0.607-0.011-1.113-0.017-1.516-0.017c-0.5,0-1.004,0.006-1.51,0.017l-0.008-1.094
				c-0.193,0.24-0.354,0.42-0.486,0.539c-0.133,0.12-0.279,0.226-0.436,0.315s-0.332,0.169-0.527,0.235
				c-0.193,0.066-0.418,0.118-0.67,0.155s-0.508,0.056-0.77,0.056c-0.42,0-0.816-0.05-1.193-0.147
				c-0.373-0.099-0.703-0.264-0.986-0.498c-0.285-0.233-0.48-0.5-0.584-0.798s-0.156-0.644-0.156-1.037
				c0-0.097,0.01-0.244,0.025-0.447l0.127-1.811c0.037-0.664,0.072-1.4,0.104-2.21c0.021-0.494,0.033-0.962,0.033-1.404
				c0.658,0.011,1.219,0.017,1.682,0.017c0.469,0,0.984-0.006,1.549-0.017l-0.248,3.04c-0.037,0.462-0.057,0.778-0.061,0.945
				c-0.002,0.167-0.004,0.281-0.004,0.339c0,0.558,0.113,0.937,0.34,1.132c0.227,0.198,0.498,0.296,0.813,0.296
				c0.129,0,0.256-0.019,0.383-0.056c0.129-0.037,0.252-0.091,0.369-0.159c0.102-0.064,0.195-0.145,0.279-0.24
				c0.092-0.101,0.172-0.224,0.24-0.366c0.086-0.177,0.15-0.364,0.193-0.566c0.059-0.282,0.102-0.638,0.135-1.069
				c0.021-0.313,0.049-0.855,0.086-1.627l0.063-1.668c0.686,0.011,1.248,0.017,1.689,0.017c0.494,0,0.99-0.006,1.49-0.017
				c-0.123,1.352-0.217,2.636-0.287,3.854C123.795,136.085,123.742,137.516,123.705,139.16z"/>
			<path fill="#8ED201" d="M126.256,133.336c0.102-0.526,0.166-0.891,0.193-1.09c0.025-0.199,0.068-0.512,0.127-0.938
				c1.531-0.334,2.848-0.501,3.949-0.501c0.627,0,1.201,0.069,1.723,0.21s0.93,0.369,1.221,0.684
				c0.293,0.313,0.439,0.762,0.439,1.347c0,0.298-0.039,0.968-0.119,2.011c-0.08,1.042-0.141,2.409-0.184,4.101
				c-0.521-0.011-1.039-0.017-1.557-0.017c-0.5,0-1.033,0.006-1.596,0.017c0.072-0.585,0.152-1.792,0.242-3.622
				c-0.203,0.097-0.361,0.165-0.475,0.207c-0.115,0.043-0.314,0.106-0.602,0.191c-0.287,0.086-0.51,0.157-0.672,0.216
				s-0.303,0.133-0.422,0.224s-0.205,0.184-0.254,0.279c-0.051,0.096-0.076,0.202-0.076,0.319c0,0.18,0.072,0.335,0.215,0.463
				c0.145,0.127,0.373,0.191,0.686,0.191c0.113,0,0.232-0.01,0.359-0.028c0.129-0.019,0.303-0.064,0.527-0.14
				c-0.154,0.41-0.338,1.008-0.551,1.795c-0.457,0.074-0.891,0.111-1.301,0.111c-0.66,0-1.207-0.092-1.646-0.275
				s-0.777-0.479-1.014-0.889c-0.236-0.41-0.355-0.819-0.355-1.229c0-0.25,0.045-0.495,0.133-0.734s0.225-0.473,0.41-0.702
				c0.186-0.229,0.404-0.424,0.654-0.587c0.25-0.161,0.59-0.313,1.025-0.459c0.432-0.143,0.98-0.278,1.646-0.406
				c0.275-0.053,0.529-0.11,0.76-0.172c0.232-0.06,0.396-0.113,0.494-0.158c0.1-0.046,0.18-0.1,0.24-0.16s0.105-0.124,0.131-0.191
				c0.027-0.066,0.041-0.137,0.041-0.211c0-0.203-0.086-0.358-0.256-0.467c-0.17-0.109-0.42-0.164-0.748-0.164
				C128.73,132.562,127.602,132.82,126.256,133.336z"/>
			<path fill="#8ED201" d="M141.334,136.814c-0.096,0.447-0.178,0.883-0.248,1.308l-0.174,0.975
				c-0.527,0.117-0.938,0.191-1.232,0.223c-0.295,0.032-0.582,0.048-0.857,0.048c-0.453,0-0.854-0.038-1.205-0.115
				c-0.352-0.078-0.645-0.219-0.879-0.423c-0.232-0.205-0.393-0.439-0.479-0.707c-0.084-0.266-0.127-0.547-0.127-0.845
				c0-0.054,0.002-0.147,0.008-0.283s0.025-0.438,0.057-0.906l0.174-2.759h-1.244c0.027-0.368,0.051-0.851,0.072-1.452l0.023-0.742
				h1.322c0.031-0.244,0.072-0.778,0.119-1.604l1.365-0.279c0.25-0.048,0.783-0.171,1.598-0.367c-0.037,0.697-0.063,1.447-0.08,2.25
				h1.82c-0.043,1.106-0.064,1.838-0.064,2.194h-1.836l-0.096,1.993c-0.01,0.299-0.016,0.49-0.016,0.574
				c0,0.256,0.027,0.469,0.084,0.639c0.055,0.171,0.152,0.293,0.295,0.368c0.141,0.074,0.297,0.11,0.467,0.11
				c0.127,0,0.26-0.01,0.398-0.027C140.738,136.967,140.984,136.911,141.334,136.814z"/>
			<path fill="#8ED201" d="M150.254,136.75c-0.07,0.319-0.203,1.09-0.4,2.313c-0.615,0.122-1.135,0.203-1.555,0.243
				s-0.846,0.06-1.277,0.06c-0.633,0-1.215-0.043-1.746-0.131s-0.99-0.243-1.377-0.467c-0.385-0.223-0.709-0.501-0.969-0.832
				c-0.26-0.333-0.459-0.727-0.594-1.185c-0.137-0.457-0.203-0.927-0.203-1.411c0-0.68,0.135-1.345,0.406-1.995
				c0.271-0.651,0.621-1.16,1.049-1.527c0.428-0.366,0.922-0.626,1.48-0.78c0.557-0.155,1.129-0.23,1.715-0.23
				c0.605,0,1.186,0.069,1.734,0.21c0.551,0.141,1.018,0.388,1.4,0.738c0.383,0.352,0.656,0.747,0.816,1.189
				c0.164,0.441,0.244,0.917,0.244,1.427c0,0.304-0.035,0.642-0.104,1.013l-5.592,0.009c-0.006,0.085-0.008,0.162-0.008,0.23
				c0,0.572,0.205,0.993,0.615,1.263c0.408,0.271,0.908,0.406,1.498,0.406c0.352,0,0.752-0.041,1.201-0.124
				S149.594,136.947,150.254,136.75z M145.348,134.173h2.633c0.004-0.09,0.008-0.168,0.008-0.231c0-0.276-0.051-0.513-0.148-0.709
				c-0.098-0.197-0.238-0.341-0.422-0.432c-0.184-0.09-0.391-0.136-0.619-0.136c-0.16,0-0.314,0.025-0.463,0.076
				s-0.283,0.125-0.402,0.224c-0.119,0.098-0.221,0.211-0.299,0.339c-0.08,0.127-0.139,0.251-0.176,0.37
				C145.422,133.795,145.383,133.961,145.348,134.173z"/>
			<path fill="#8ED201" d="M152.049,139.16l0.223-3.845l0.127-3.008l0.016-1.293c0.586,0.011,1.102,0.017,1.549,0.017
				c0.504,0,0.996-0.006,1.475-0.017l-0.055,1.062c0.166-0.213,0.305-0.376,0.42-0.491c0.113-0.114,0.254-0.224,0.418-0.326
				c0.164-0.104,0.334-0.187,0.51-0.248c0.176-0.061,0.373-0.11,0.592-0.147c0.217-0.037,0.445-0.055,0.686-0.055
				c0.271,0,0.521,0.021,0.75,0.066s0.426,0.103,0.59,0.172c0.164,0.07,0.309,0.149,0.43,0.239c0.123,0.091,0.232,0.192,0.324,0.308
				c0.092,0.114,0.201,0.28,0.322,0.498c0.234-0.34,0.482-0.599,0.742-0.773c0.262-0.176,0.557-0.305,0.891-0.388
				c0.332-0.081,0.674-0.122,1.025-0.122c0.461,0,0.898,0.065,1.307,0.198c0.41,0.133,0.748,0.363,1.01,0.689
				c0.264,0.328,0.395,0.752,0.395,1.273c0,0.244-0.018,0.614-0.053,1.108c-0.035,0.495-0.082,1.345-0.145,2.549
				c-0.063,1.205-0.096,2.049-0.1,2.533c-0.49-0.011-0.963-0.017-1.42-0.017c-0.559,0-1.143,0.006-1.754,0.017
				c0.055-0.676,0.109-1.522,0.166-2.541s0.084-1.725,0.084-2.118c0-0.345-0.041-0.603-0.119-0.771
				c-0.08-0.17-0.184-0.286-0.309-0.349c-0.125-0.061-0.262-0.093-0.412-0.093c-0.16,0-0.297,0.03-0.416,0.089
				c-0.127,0.064-0.238,0.164-0.336,0.297c-0.127,0.178-0.23,0.4-0.311,0.667c-0.064,0.21-0.115,0.529-0.152,0.958
				c-0.037,0.436-0.066,1.011-0.088,1.723l-0.064,2.139c-0.568-0.011-1.082-0.017-1.537-0.017c-0.469,0-1.018,0.006-1.65,0.017
				c0.049-0.474,0.105-1.269,0.17-2.385c0.064-1.117,0.098-1.865,0.098-2.243c0-0.318-0.033-0.558-0.098-0.718
				c-0.063-0.158-0.15-0.286-0.268-0.383c-0.113-0.095-0.266-0.144-0.457-0.144c-0.207,0-0.389,0.062-0.543,0.184
				c-0.154,0.123-0.285,0.299-0.395,0.527s-0.186,0.543-0.232,0.945c-0.043,0.4-0.086,1.015-0.123,1.839
				c-0.037,0.823-0.061,1.616-0.07,2.377c-0.645-0.011-1.168-0.017-1.566-0.017C153.252,139.143,152.703,139.149,152.049,139.16z"/>
			<path fill="#8ED201" d="M168.002,133.336c0.102-0.526,0.166-0.891,0.191-1.09c0.027-0.199,0.07-0.512,0.129-0.938
				c1.531-0.334,2.848-0.501,3.949-0.501c0.627,0,1.201,0.069,1.723,0.21s0.928,0.369,1.221,0.684
				c0.293,0.313,0.439,0.762,0.439,1.347c0,0.298-0.041,0.968-0.119,2.011c-0.08,1.042-0.141,2.409-0.184,4.101
				c-0.521-0.011-1.039-0.017-1.557-0.017c-0.5,0-1.031,0.006-1.596,0.017c0.072-0.585,0.152-1.792,0.242-3.622
				c-0.203,0.097-0.361,0.165-0.475,0.207c-0.113,0.043-0.314,0.106-0.602,0.191c-0.285,0.086-0.51,0.157-0.672,0.216
				s-0.303,0.133-0.422,0.224s-0.205,0.184-0.254,0.279c-0.051,0.096-0.076,0.202-0.076,0.319c0,0.18,0.072,0.335,0.215,0.463
				c0.145,0.127,0.373,0.191,0.688,0.191c0.111,0,0.23-0.01,0.359-0.028c0.127-0.019,0.303-0.064,0.525-0.14
				c-0.154,0.41-0.338,1.008-0.551,1.795c-0.457,0.074-0.891,0.111-1.301,0.111c-0.658,0-1.209-0.092-1.646-0.275
				c-0.439-0.184-0.777-0.479-1.014-0.889c-0.236-0.41-0.354-0.819-0.354-1.229c0-0.25,0.043-0.495,0.131-0.734
				s0.225-0.473,0.41-0.702c0.186-0.229,0.404-0.424,0.654-0.587c0.25-0.161,0.592-0.313,1.025-0.459
				c0.432-0.143,0.98-0.278,1.646-0.406c0.275-0.053,0.529-0.11,0.76-0.172c0.232-0.06,0.396-0.113,0.496-0.158
				c0.098-0.046,0.178-0.1,0.238-0.16s0.105-0.124,0.133-0.191c0.025-0.066,0.039-0.137,0.039-0.211
				c0-0.203-0.086-0.358-0.256-0.467c-0.17-0.109-0.42-0.164-0.75-0.164C170.479,132.562,169.348,132.82,168.002,133.336z"/>
			<path fill="#8ED201" d="M177.129,139.16l0.143-1.716l0.309-5.964l0.088-3.21c0.74,0.011,1.295,0.017,1.67,0.017
				c0.484,0,1.018-0.006,1.604-0.017l-0.182,2.449l-0.293,6.031l-0.063,2.409c-0.57-0.005-1.084-0.009-1.543-0.009L177.129,139.16z"
				/>
			<path fill="#8ED201" d="M182.953,133.336c0.1-0.526,0.164-0.891,0.191-1.09c0.025-0.199,0.068-0.512,0.127-0.938
				c1.533-0.334,2.85-0.501,3.949-0.501c0.629,0,1.203,0.069,1.725,0.21c0.52,0.141,0.928,0.369,1.221,0.684
				c0.293,0.313,0.438,0.762,0.438,1.347c0,0.298-0.039,0.968-0.119,2.011c-0.078,1.042-0.141,2.409-0.182,4.101
				c-0.521-0.011-1.041-0.017-1.557-0.017c-0.5,0-1.033,0.006-1.598,0.017c0.072-0.585,0.154-1.792,0.242-3.622
				c-0.203,0.097-0.359,0.165-0.475,0.207c-0.113,0.043-0.314,0.106-0.6,0.191c-0.287,0.086-0.512,0.157-0.674,0.216
				c-0.16,0.059-0.303,0.133-0.42,0.224c-0.121,0.091-0.205,0.184-0.256,0.279s-0.076,0.202-0.076,0.319
				c0,0.18,0.072,0.335,0.217,0.463c0.143,0.127,0.371,0.191,0.686,0.191c0.111,0,0.23-0.01,0.357-0.028
				c0.129-0.019,0.305-0.064,0.527-0.14c-0.154,0.41-0.336,1.008-0.551,1.795c-0.457,0.074-0.891,0.111-1.299,0.111
				c-0.66,0-1.209-0.092-1.648-0.275c-0.438-0.184-0.777-0.479-1.012-0.889c-0.238-0.41-0.357-0.819-0.357-1.229
				c0-0.25,0.045-0.495,0.133-0.734s0.225-0.473,0.41-0.702c0.188-0.229,0.404-0.424,0.654-0.587
				c0.25-0.161,0.592-0.313,1.025-0.459c0.434-0.143,0.982-0.278,1.646-0.406c0.277-0.053,0.529-0.11,0.762-0.172
				c0.23-0.06,0.396-0.113,0.494-0.158c0.1-0.046,0.178-0.1,0.24-0.16c0.061-0.061,0.104-0.124,0.131-0.191
				c0.027-0.066,0.039-0.137,0.039-0.211c0-0.203-0.084-0.358-0.254-0.467c-0.17-0.109-0.42-0.164-0.75-0.164
				C185.428,132.562,184.297,132.82,182.953,133.336z"/>
		</g>
	</g>
	<g>
		<circle fill="#FFFFFF" cx="89.421" cy="20.048" r="12.941"/>
		<g>
			<circle fill="#8ED201" cx="89.421" cy="20.048" r="12.941"/>
			<g id="XMLID_1_">
				<g>
					<path fill="#F44029" d="M104.995,18.304c9.26,4.13,16.6,11.81,20.29,21.31c-0.33-0.02-0.69-0.03-1.03-0.03
						c-4.04,0-7.72,1.52-10.5,4.03c-2.37-5.83-6.76-10.62-12.31-13.5c2.28-2.73,3.64-6.24,3.64-10.07
						C105.085,19.454,105.065,18.874,104.995,18.304z"/>
				</g>
				<g>
				</g>
			</g>
		</g>
		<g>
			<circle fill="#8ED201" cx="54.216" cy="55.252" r="12.941"/>
			<g id="XMLID_2_">
				<g>
					<path fill="#F44029" d="M73.758,20.413c0,4.04,1.52,7.72,4.03,10.5c-5.83,2.37-10.62,6.77-13.5,12.32
						c-2.74-2.28-6.24-3.65-10.07-3.65c-0.59,0-1.17,0.03-1.75,0.09c4.13-9.26,11.82-16.6,21.32-20.29
						C73.758,19.723,73.758,20.073,73.758,20.413z"/>
				</g>
				<g>
				</g>
			</g>
		</g>
		<g>
			<circle fill="#8ED201" cx="89.421" cy="90.457" r="12.941"/>
			<g id="XMLID_3_">
				<g>
					<path fill="#F44029" d="M53.547,70.891c0.34,0.02,0.7,0.03,1.04,0.03c4.04,0,7.71-1.52,10.5-4.03
						c2.37,5.83,6.76,10.62,12.32,13.5c-2.28,2.73-3.65,6.24-3.65,10.07c0,0.59,0.03,1.17,0.08,1.74
						C64.587,88.07,57.247,80.391,53.547,70.891z"/>
				</g>
				<g>
				</g>
			</g>
		</g>
		<g>
			<circle fill="#8ED201" cx="124.625" cy="55.252" r="12.941"/>
			<g id="XMLID_4_">
				<g>
					<path fill="#F44029" d="M124.624,70.921c0.59,0,1.17-0.03,1.74-0.09c-4.12,9.26-11.811,16.6-21.3,20.29
						c0.01-0.34,0.02-0.69,0.02-1.03c0-4.04-1.51-7.72-4.02-10.5v-0.01c5.83-2.37,10.6-6.76,13.5-12.3
						C117.294,69.551,120.794,70.921,124.624,70.921z"/>
				</g>
				<g>
				</g>
			</g>
		</g>
	</g>
</g>
</svg>
