<?xml version="1.0" encoding="utf-8"?>
<!-- Generator: Adobe Illustrator 15.0.2, SVG Export Plug-In . SVG Version: 6.00 Build 0)  -->
<!DOCTYPE svg PUBLIC "-//W3C//DTD SVG 1.1//EN" "http://www.w3.org/Graphics/SVG/1.1/DTD/svg11.dtd">
<svg version="1.1" id="Layer_1" xmlns="http://www.w3.org/2000/svg" xmlns:xlink="http://www.w3.org/1999/xlink" x="0px" y="0px"
	 width="200px" height="300px" viewBox="0 0 200 300" enable-background="new 0 0 200 300" xml:space="preserve">
<g>
	<g>
		<g>
			<g id="XMLID_1_">
				<g>
					<path fill="#2E3192" d="M193.704,30.524v181.73c0,14.33-7.9,25.561-17.98,25.561H24.284c-10.09,0-17.99-11.23-17.99-25.561
						V30.524c0-14.33,7.9-25.55,17.99-25.55h151.439C185.804,4.974,193.704,16.194,193.704,30.524z M188.024,212.254V30.524
						c0-10.77-5.631-19.87-12.301-19.87H24.284c-6.67,0-12.31,9.1-12.31,19.87v181.73c0,10.771,5.64,19.88,12.31,19.88h151.439
						C182.394,232.134,188.024,223.024,188.024,212.254z"/>
					<path fill="#FFFFFF" d="M188.024,30.524v181.73c0,10.771-5.631,19.88-12.301,19.88H24.284c-6.67,0-12.31-9.109-12.31-19.88
						V30.524c0-10.77,5.64-19.87,12.31-19.87h151.439C182.394,10.654,188.024,19.754,188.024,30.524z"/>
				</g>
				<g>
				</g>
			</g>
		</g>
		<g>
			<g>
				<path fill="#2E3192" d="M9.138,148.365v65.965c0,11.408,6.772,20.641,15.143,20.641h99.792
					c51.33-44.785,35.873-66.352,66.79-76.982v-28.395c-33.125-3.472-34.438,34.073-61.837,23.978
					c-6.626-22.085,6.249-48.894,8.213-53.868l18.669-47.212c1.966-4.977-1.846-11.146-8.512-13.783l0,0
					c-6.67-2.636-13.667-0.739-15.632,4.236l-20.563,54.783c-5.14,10.402-7.418,9.466-9.61,8.214v-77.95
					c0-5.221-5.522-9.454-12.329-9.454l0,0c-6.809,0-12.328,4.233-12.328,9.454v120.532L9.138,148.365z"/>
				<path fill="#FFFFFF" d="M59.364,80.539c-9.653,0-17.511,7.213-17.511,16.072v49.558c0,8.859,7.857,16.072,17.511,16.072
					c9.656,0,17.51-7.213,17.51-16.072V96.611C76.874,87.752,69.02,80.539,59.364,80.539L59.364,80.539z"/>
				<path fill="#2E3192" d="M59.364,87.165c6.02,0,10.886,4.222,10.886,9.446v49.558c0,5.225-4.866,9.446-10.886,9.446
					c-6,0-10.884-4.222-10.884-9.446V96.611C48.479,91.387,53.364,87.165,59.364,87.165L59.364,87.165z"/>
				<g>
					<path fill="#2E3192" d="M29.013,157.071c-7.801,0-13.912-4.676-13.912-10.645v-37.453c0-5.969,6.111-10.646,13.912-10.646
						s13.911,4.676,13.911,10.646v37.453C42.924,152.396,36.814,157.071,29.013,157.071z"/>
					<path fill="#FFFFFF" d="M29.013,101.828c5.749,0,10.411,3.201,10.411,7.146v37.453c0,3.944-4.662,7.145-10.411,7.145
						c-5.75,0-10.412-3.2-10.412-7.145v-37.453C18.602,105.029,23.263,101.828,29.013,101.828 M29.013,94.828
						c-9.764,0-17.412,6.213-17.412,14.146v37.453c0,7.932,7.648,14.145,17.412,14.145c9.763,0,17.411-6.213,17.411-14.145v-37.453
						C46.424,101.042,38.776,94.828,29.013,94.828L29.013,94.828z"/>
				</g>
			</g>
			<g>
				<path fill="#FFFFFF" d="M18.137,179.908l4.835-0.304c0.106,0.785,0.319,1.385,0.641,1.796c0.523,0.666,1.271,0.999,2.243,0.999
					c0.727,0,1.286-0.171,1.678-0.511c0.394-0.341,0.59-0.734,0.59-1.184c0-0.427-0.189-0.809-0.562-1.145
					c-0.374-0.337-1.242-0.654-2.603-0.954c-2.23-0.501-3.82-1.167-4.769-1.998c-0.958-0.831-1.438-1.889-1.438-3.176
					c0-0.845,0.246-1.645,0.735-2.396c0.49-0.751,1.228-1.343,2.211-1.772c0.983-0.429,2.332-0.645,4.045-0.645
					c2.102,0,3.704,0.391,4.809,1.173c1.104,0.781,1.759,2.025,1.97,3.73l-4.792,0.28c-0.127-0.74-0.395-1.278-0.803-1.616
					c-0.408-0.336-0.971-0.504-1.688-0.504c-0.592,0-1.036,0.125-1.336,0.376c-0.3,0.25-0.449,0.556-0.449,0.914
					c0,0.263,0.124,0.498,0.37,0.707c0.24,0.217,0.809,0.419,1.706,0.606c2.222,0.479,3.813,0.963,4.775,1.452
					c0.961,0.49,1.661,1.099,2.099,1.825c0.438,0.725,0.657,1.537,0.657,2.434c0,1.056-0.292,2.027-0.875,2.918
					c-0.584,0.891-1.399,1.565-2.446,2.025c-1.047,0.461-2.369,0.691-3.961,0.691c-2.798,0-4.735-0.54-5.813-1.617
					S18.28,181.568,18.137,179.908z"/>
				<path fill="#FFFFFF" d="M48.226,180.524h-9.158c0.083,0.734,0.281,1.28,0.597,1.639c0.439,0.517,1.015,0.774,1.728,0.774
					c0.449,0,0.874-0.112,1.279-0.336c0.247-0.143,0.512-0.393,0.796-0.753l4.5,0.415c-0.688,1.197-1.52,2.056-2.492,2.576
					c-0.973,0.52-2.367,0.779-4.185,0.779c-1.579,0-2.82-0.223-3.727-0.668c-0.904-0.443-1.654-1.151-2.249-2.12
					c-0.595-0.969-0.892-2.107-0.892-3.417c0-1.862,0.596-3.37,1.789-4.522c1.193-1.152,2.841-1.728,4.943-1.728
					c1.707,0,3.052,0.258,4.041,0.773c0.987,0.517,1.739,1.265,2.254,2.245c0.517,0.979,0.775,2.255,0.775,3.826V180.524z
					 M43.579,178.337c-0.09-0.883-0.328-1.516-0.712-1.896c-0.386-0.381-0.894-0.573-1.52-0.573c-0.727,0-1.307,0.289-1.74,0.864
					c-0.278,0.359-0.452,0.896-0.528,1.605H43.579z"/>
				<path fill="#FFFFFF" d="M58.867,173.433h4.275v11.256l0.011,0.526c0,0.749-0.16,1.46-0.476,2.139
					c-0.319,0.677-0.743,1.225-1.269,1.645c-0.528,0.418-1.196,0.722-2.009,0.908c-0.812,0.187-1.742,0.279-2.789,0.279
					c-2.394,0-4.038-0.358-4.932-1.076c-0.893-0.719-1.34-1.68-1.34-2.884c0-0.15,0.006-0.353,0.022-0.606l4.433,0.506
					c0.112,0.411,0.284,0.694,0.516,0.852c0.338,0.232,0.76,0.349,1.269,0.349c0.657,0,1.15-0.177,1.475-0.527
					c0.325-0.352,0.489-0.965,0.489-1.841v-1.806c-0.449,0.53-0.898,0.916-1.347,1.155c-0.705,0.374-1.463,0.561-2.278,0.561
					c-1.593,0-2.881-0.695-3.861-2.087c-0.695-0.987-1.042-2.293-1.042-3.916c0-1.854,0.449-3.27,1.347-4.241
					c0.896-0.973,2.072-1.459,3.523-1.459c0.928,0,1.691,0.157,2.294,0.471c0.603,0.313,1.164,0.834,1.689,1.56V173.433z
					 M54.57,179.212c0,0.86,0.182,1.498,0.549,1.913c0.368,0.415,0.85,0.623,1.448,0.623c0.568,0,1.045-0.215,1.431-0.645
					c0.386-0.431,0.578-1.079,0.578-1.947s-0.202-1.532-0.606-1.992c-0.405-0.46-0.898-0.69-1.482-0.69
					c-0.583,0-1.048,0.212-1.396,0.634C54.743,177.53,54.57,178.231,54.57,179.212z"/>
				<path fill="#FFFFFF" d="M78.137,185.35h-4.264v-1.93c-0.636,0.793-1.277,1.358-1.924,1.694
					c-0.647,0.336-1.442,0.505-2.384,0.505c-1.256,0-2.243-0.376-2.957-1.128s-1.071-1.909-1.071-3.473v-7.586h4.589v6.554
					c0,0.748,0.138,1.279,0.416,1.594c0.274,0.313,0.665,0.471,1.166,0.471c0.546,0,0.993-0.209,1.341-0.628
					c0.347-0.419,0.523-1.171,0.523-2.255v-5.735h4.565V185.35z"/>
				<path fill="#FFFFFF" d="M80.632,173.433h4.277v1.952c0.409-0.845,0.834-1.426,1.274-1.744c0.436-0.318,0.977-0.477,1.621-0.477
					c0.672,0,1.409,0.208,2.21,0.628l-1.414,3.254c-0.54-0.225-0.965-0.336-1.28-0.336c-0.598,0-1.063,0.246-1.391,0.739
					c-0.471,0.697-0.706,1.998-0.706,3.906v3.994h-4.591V173.433z"/>
				<path fill="#FFFFFF" d="M90.636,168.898h4.565v3.109h-4.565V168.898z M90.636,173.433h4.565v11.917h-4.565V173.433z"/>
				<path fill="#FFFFFF" d="M110.342,168.898v16.451h-4.275v-1.762c-0.598,0.748-1.146,1.254-1.639,1.516
					c-0.658,0.344-1.391,0.516-2.199,0.516c-1.625,0-2.865-0.617-3.72-1.852c-0.856-1.233-1.285-2.734-1.285-4.499
					c0-1.976,0.473-3.486,1.42-4.534c0.947-1.048,2.148-1.57,3.607-1.57c0.71,0,1.356,0.119,1.937,0.358
					c0.579,0.239,1.092,0.599,1.542,1.078v-5.702H110.342z M105.764,179.358c0-0.937-0.198-1.633-0.593-2.094
					c-0.398-0.46-0.9-0.689-1.506-0.689c-0.53,0-0.976,0.22-1.334,0.662c-0.358,0.44-0.538,1.182-0.538,2.222
					c0,0.973,0.184,1.685,0.554,2.138c0.369,0.453,0.828,0.68,1.375,0.68c0.583,0,1.069-0.229,1.459-0.686
					C105.568,181.134,105.764,180.39,105.764,179.358z"/>
				<path fill="#FFFFFF" d="M116.968,177.293l-4.368-0.46c0.165-0.763,0.403-1.364,0.714-1.801c0.311-0.438,0.758-0.817,1.341-1.14
					c0.418-0.231,0.995-0.411,1.728-0.538c0.734-0.127,1.527-0.19,2.379-0.19c1.368,0,2.468,0.077,3.298,0.229
					c0.831,0.154,1.522,0.474,2.076,0.96c0.391,0.337,0.697,0.813,0.92,1.43c0.225,0.618,0.336,1.207,0.336,1.769v5.263
					c0,0.561,0.035,1.001,0.108,1.318c0.07,0.318,0.226,0.724,0.465,1.217h-4.286c-0.171-0.306-0.284-0.54-0.336-0.701
					s-0.106-0.413-0.157-0.757c-0.6,0.576-1.194,0.987-1.785,1.233c-0.807,0.329-1.747,0.494-2.817,0.494
					c-1.421,0-2.499-0.329-3.236-0.987c-0.738-0.658-1.106-1.47-1.106-2.435c0-0.905,0.267-1.65,0.796-2.233
					c0.531-0.584,1.51-1.018,2.939-1.302c1.713-0.344,2.826-0.585,3.333-0.724c0.509-0.139,1.049-0.32,1.617-0.544
					c0-0.562-0.116-0.954-0.348-1.179c-0.231-0.224-0.641-0.336-1.223-0.336c-0.749,0-1.31,0.119-1.683,0.358
					C117.382,176.426,117.147,176.777,116.968,177.293z M120.928,179.694c-0.628,0.225-1.284,0.424-1.964,0.595
					c-0.928,0.247-1.514,0.49-1.761,0.729c-0.255,0.247-0.38,0.527-0.38,0.841c0,0.359,0.124,0.654,0.374,0.882
					c0.252,0.229,0.619,0.343,1.106,0.343c0.507,0,0.982-0.124,1.42-0.371c0.438-0.246,0.747-0.548,0.931-0.903
					s0.274-0.816,0.274-1.387V179.694z"/>
				<path fill="#FFFFFF" d="M140.355,168.898v16.451h-4.275v-1.762c-0.598,0.748-1.145,1.254-1.639,1.516
					c-0.658,0.344-1.391,0.516-2.199,0.516c-1.625,0-2.863-0.617-3.72-1.852c-0.856-1.233-1.285-2.734-1.285-4.499
					c0-1.976,0.473-3.486,1.42-4.534c0.947-1.048,2.148-1.57,3.607-1.57c0.71,0,1.356,0.119,1.937,0.358
					c0.579,0.239,1.093,0.599,1.542,1.078v-5.702H140.355z M135.778,179.358c0-0.937-0.198-1.633-0.593-2.094
					c-0.398-0.46-0.9-0.689-1.506-0.689c-0.53,0-0.976,0.22-1.334,0.662c-0.358,0.44-0.538,1.182-0.538,2.222
					c0,0.973,0.184,1.685,0.554,2.138s0.828,0.68,1.375,0.68c0.583,0,1.069-0.229,1.459-0.686
					C135.583,181.134,135.778,180.39,135.778,179.358z"/>
				<path fill="#FFFFFF" d="M19.035,191.614h9.515c1.586,0,2.803,0.393,3.653,1.179c0.849,0.785,1.274,1.758,1.274,2.917
					c0,0.973-0.303,1.807-0.911,2.503c-0.403,0.464-0.993,0.831-1.772,1.1c1.182,0.284,2.051,0.772,2.61,1.463
					c0.557,0.693,0.836,1.563,0.836,2.61c0,0.853-0.198,1.62-0.595,2.301c-0.397,0.681-0.939,1.22-1.628,1.614
					c-0.427,0.248-1.069,0.427-1.931,0.541c-1.144,0.149-1.903,0.224-2.276,0.224h-8.776V191.614z M24.162,198.067h2.211
					c0.793,0,1.345-0.138,1.656-0.41c0.309-0.272,0.465-0.667,0.465-1.184c0-0.479-0.156-0.854-0.465-1.122
					c-0.311-0.27-0.852-0.404-1.623-0.404h-2.245V198.067z M24.162,204.53h2.594c0.875,0,1.491-0.154,1.851-0.465
					c0.358-0.312,0.538-0.729,0.538-1.252c0-0.486-0.178-0.877-0.533-1.173s-0.977-0.443-1.867-0.443h-2.583V204.53z"/>
				<path fill="#FFFFFF" d="M36.442,191.614h4.567v3.108h-4.567V191.614z M36.442,196.148h4.567v11.917h-4.567V196.148z"/>
				<path fill="#FFFFFF" d="M56.836,203.24h-9.158c0.083,0.732,0.281,1.278,0.597,1.639c0.441,0.516,1.017,0.774,1.728,0.774
					c0.449,0,0.874-0.113,1.279-0.337c0.247-0.143,0.512-0.394,0.796-0.753l4.5,0.417c-0.688,1.196-1.52,2.055-2.492,2.574
					c-0.973,0.52-2.367,0.781-4.185,0.781c-1.579,0-2.82-0.224-3.727-0.668c-0.904-0.446-1.654-1.153-2.25-2.123
					c-0.593-0.968-0.891-2.106-0.891-3.416c0-1.863,0.596-3.369,1.789-4.522c1.193-1.151,2.841-1.728,4.943-1.728
					c1.707,0,3.052,0.258,4.041,0.773c0.987,0.517,1.739,1.265,2.254,2.244c0.517,0.981,0.775,2.257,0.775,3.828V203.24z
					 M52.19,201.052c-0.09-0.882-0.328-1.515-0.712-1.897c-0.385-0.381-0.893-0.571-1.52-0.571c-0.727,0-1.307,0.288-1.74,0.864
					c-0.278,0.358-0.452,0.895-0.528,1.604H52.19z"/>
				<path fill="#FFFFFF" d="M58.612,196.148h4.253v1.94c0.636-0.792,1.279-1.359,1.931-1.699c0.65-0.341,1.443-0.511,2.378-0.511
					c1.264,0,2.254,0.376,2.968,1.128c0.715,0.752,1.072,1.913,1.072,3.484v7.574h-4.589v-6.554c0-0.749-0.138-1.277-0.416-1.588
					c-0.276-0.311-0.667-0.466-1.166-0.466c-0.554,0-1.004,0.21-1.347,0.629c-0.346,0.419-0.517,1.172-0.517,2.255v5.724h-4.567
					V196.148z"/>
				<path fill="#FFFFFF" d="M86.848,203.24h-9.157c0.084,0.732,0.281,1.278,0.597,1.639c0.441,0.516,1.015,0.774,1.728,0.774
					c0.447,0,0.874-0.113,1.278-0.337c0.246-0.143,0.513-0.394,0.798-0.753l4.499,0.417c-0.69,1.196-1.52,2.055-2.492,2.574
					c-0.972,0.52-2.367,0.781-4.185,0.781c-1.579,0-2.821-0.224-3.725-0.668c-0.906-0.446-1.656-1.153-2.249-2.123
					c-0.597-0.968-0.894-2.106-0.894-3.416c0-1.863,0.597-3.369,1.79-4.522c1.195-1.151,2.841-1.728,4.943-1.728
					c1.707,0,3.052,0.258,4.039,0.773c0.99,0.517,1.74,1.265,2.256,2.244c0.517,0.981,0.774,2.257,0.774,3.828V203.24z
					 M82.203,201.052c-0.089-0.882-0.328-1.515-0.712-1.897c-0.387-0.381-0.893-0.571-1.521-0.571c-0.725,0-1.306,0.288-1.74,0.864
					c-0.275,0.358-0.451,0.895-0.527,1.604H82.203z"/>
				<path fill="#FFFFFF" d="M87.818,204.754l4.532-0.426c0.188,0.54,0.449,0.924,0.787,1.157c0.336,0.229,0.785,0.347,1.345,0.347
					c0.614,0,1.088-0.132,1.424-0.392c0.264-0.195,0.395-0.437,0.395-0.729c0-0.33-0.174-0.582-0.519-0.761
					c-0.246-0.129-0.899-0.286-1.962-0.473c-1.586-0.274-2.689-0.532-3.306-0.767c-0.615-0.234-1.137-0.635-1.558-1.194
					c-0.424-0.561-0.635-1.2-0.635-1.917c0-0.785,0.227-1.461,0.684-2.029c0.457-0.567,1.085-0.991,1.886-1.271
					c0.8-0.281,1.874-0.421,3.221-0.421c1.421,0,2.47,0.108,3.147,0.325c0.677,0.218,1.24,0.554,1.694,1.01
					c0.452,0.456,0.828,1.073,1.128,1.853l-4.332,0.425c-0.113-0.381-0.3-0.661-0.56-0.841c-0.36-0.24-0.793-0.359-1.301-0.359
					c-0.518,0-0.894,0.092-1.13,0.274c-0.234,0.184-0.354,0.406-0.354,0.667c0,0.292,0.151,0.512,0.449,0.662
					c0.3,0.147,0.95,0.282,1.953,0.403c1.52,0.172,2.649,0.409,3.388,0.717c0.741,0.307,1.309,0.743,1.701,1.311
					c0.394,0.569,0.59,1.192,0.59,1.873c0,0.687-0.209,1.356-0.624,2.007c-0.416,0.648-1.071,1.168-1.962,1.552
					c-0.895,0.385-2.113,0.579-3.653,0.579c-2.178,0-3.729-0.312-4.651-0.934C88.672,206.782,88.079,205.898,87.818,204.754z"/>
				<path fill="#FFFFFF" d="M107.851,191.614v4.534h2.515v3.343h-2.515v4.223c0,0.508,0.049,0.845,0.146,1.006
					c0.151,0.256,0.411,0.383,0.787,0.383c0.336,0,0.807-0.097,1.413-0.29l0.336,3.15c-1.129,0.249-2.185,0.373-3.165,0.373
					c-1.136,0-1.974-0.146-2.515-0.438c-0.538-0.29-0.936-0.734-1.193-1.327c-0.259-0.594-0.389-1.557-0.389-2.886v-4.193h-1.682
					v-3.343h1.682v-2.188L107.851,191.614z"/>
				<path fill="#FFFFFF" d="M116.386,200.009l-4.367-0.46c0.165-0.764,0.403-1.364,0.714-1.802s0.758-0.816,1.34-1.139
					c0.419-0.232,0.995-0.412,1.728-0.539c0.735-0.127,1.528-0.19,2.38-0.19c1.367,0,2.468,0.076,3.298,0.23
					c0.832,0.153,1.523,0.473,2.077,0.959c0.39,0.337,0.696,0.813,0.92,1.43c0.226,0.617,0.336,1.208,0.336,1.768v5.264
					c0,0.562,0.035,0.999,0.108,1.318c0.07,0.317,0.225,0.724,0.465,1.218h-4.287c-0.171-0.308-0.285-0.54-0.336-0.701
					c-0.053-0.16-0.106-0.414-0.157-0.758c-0.6,0.577-1.194,0.986-1.785,1.235c-0.808,0.329-1.747,0.494-2.817,0.494
					c-1.421,0-2.499-0.33-3.236-0.988c-0.737-0.66-1.105-1.471-1.105-2.436c0-0.904,0.267-1.649,0.796-2.233
					c0.531-0.583,1.51-1.017,2.939-1.302c1.713-0.345,2.825-0.585,3.333-0.723c0.509-0.139,1.048-0.32,1.616-0.546
					c0-0.56-0.116-0.954-0.347-1.178c-0.231-0.225-0.641-0.336-1.223-0.336c-0.749,0-1.311,0.119-1.683,0.358
					C116.8,199.14,116.565,199.491,116.386,200.009z M120.345,202.41c-0.629,0.224-1.283,0.422-1.964,0.594
					c-0.928,0.247-1.513,0.489-1.761,0.729c-0.255,0.246-0.382,0.526-0.382,0.841c0,0.36,0.125,0.653,0.376,0.882
					c0.252,0.229,0.619,0.343,1.105,0.343c0.508,0,0.982-0.124,1.42-0.369c0.438-0.248,0.747-0.549,0.931-0.904
					s0.274-0.817,0.274-1.387V202.41z"/>
				<path fill="#FFFFFF" d="M127.271,196.148h4.275v1.952c0.411-0.845,0.836-1.427,1.274-1.744c0.436-0.318,0.979-0.478,1.621-0.478
					c0.674,0,1.409,0.209,2.211,0.629l-1.414,3.253c-0.541-0.224-0.966-0.336-1.28-0.336c-0.598,0-1.063,0.248-1.391,0.741
					c-0.471,0.695-0.706,1.996-0.706,3.903v3.996h-4.591V196.148z"/>
				<path fill="#FFFFFF" d="M25.869,214.33h5.094v8.938c0,1.876-0.167,3.304-0.5,4.283c-0.332,0.979-1.002,1.81-2.008,2.49
					c-1.005,0.681-2.295,1.02-3.864,1.02c-1.661,0-2.949-0.225-3.861-0.672c-0.912-0.449-1.618-1.106-2.115-1.971
					c-0.498-0.863-0.792-1.932-0.882-3.204l4.859-0.662c0.008,0.727,0.072,1.265,0.19,1.617c0.121,0.351,0.322,0.634,0.608,0.854
					c0.193,0.14,0.469,0.212,0.83,0.212c0.568,0,0.985-0.211,1.251-0.635c0.265-0.422,0.398-1.132,0.398-2.135V214.33z"/>
				<path fill="#FFFFFF" d="M45.689,230.781h-4.264v-1.931c-0.636,0.793-1.277,1.357-1.924,1.695
					c-0.647,0.337-1.442,0.505-2.384,0.505c-1.258,0-2.243-0.378-2.957-1.128c-0.715-0.752-1.071-1.91-1.071-3.473v-7.586h4.588
					v6.552c0,0.749,0.14,1.28,0.416,1.595c0.278,0.313,0.667,0.471,1.168,0.471c0.545,0,0.993-0.209,1.34-0.628
					c0.347-0.419,0.522-1.171,0.522-2.256v-5.733h4.567V230.781z"/>
				<path fill="#FFFFFF" d="M47.331,227.471l4.534-0.426c0.188,0.538,0.449,0.922,0.785,1.155c0.338,0.231,0.786,0.348,1.347,0.348
					c0.614,0,1.088-0.131,1.424-0.393c0.262-0.193,0.394-0.436,0.394-0.728c0-0.328-0.171-0.582-0.516-0.762
					c-0.248-0.127-0.903-0.284-1.964-0.471c-1.586-0.276-2.688-0.533-3.304-0.769c-0.619-0.234-1.138-0.634-1.561-1.194
					c-0.422-0.56-0.635-1.199-0.635-1.916c0-0.784,0.229-1.461,0.686-2.03c0.457-0.566,1.085-0.99,1.886-1.271
					c0.8-0.279,1.874-0.42,3.221-0.42c1.419,0,2.47,0.109,3.147,0.325c0.677,0.217,1.242,0.554,1.694,1.011
					c0.452,0.455,0.828,1.073,1.128,1.851l-4.332,0.426c-0.111-0.381-0.298-0.662-0.56-0.841c-0.359-0.238-0.793-0.358-1.303-0.358
					c-0.515,0-0.891,0.09-1.128,0.272c-0.234,0.185-0.352,0.408-0.352,0.668c0,0.292,0.149,0.513,0.447,0.661
					c0.3,0.149,0.95,0.284,1.955,0.403c1.517,0.173,2.647,0.411,3.389,0.717c0.739,0.308,1.305,0.744,1.699,1.313
					c0.394,0.569,0.59,1.191,0.59,1.871c0,0.689-0.208,1.356-0.624,2.009c-0.416,0.648-1.071,1.166-1.964,1.55
					c-0.895,0.387-2.111,0.579-3.652,0.579c-2.178,0-3.728-0.311-4.653-0.931C48.186,229.498,47.593,228.614,47.331,227.471z"/>
				<path fill="#FFFFFF" d="M67.365,214.33v4.534h2.515v3.343h-2.515v4.223c0,0.508,0.049,0.844,0.146,1.008
					c0.149,0.255,0.411,0.38,0.785,0.38c0.336,0,0.808-0.097,1.414-0.29l0.338,3.152c-1.131,0.247-2.186,0.371-3.165,0.371
					c-1.137,0-1.975-0.146-2.514-0.438c-0.538-0.291-0.936-0.734-1.194-1.328c-0.259-0.593-0.387-1.557-0.387-2.886v-4.192h-1.683
					v-3.343h1.683v-2.188L67.365,214.33z"/>
				<path fill="#FFFFFF" d="M71.904,214.33h4.566v3.109h-4.566V214.33z M71.904,218.864h4.566v11.917h-4.566V218.864z"/>
				<path fill="#FFFFFF" d="M87.952,226.114l4.342,0.493c-0.238,0.906-0.631,1.688-1.177,2.351
					c-0.546,0.662-1.244,1.176-2.093,1.542c-0.849,0.367-1.929,0.551-3.238,0.551c-1.264,0-2.317-0.117-3.158-0.353
					c-0.842-0.237-1.566-0.618-2.173-1.145c-0.604-0.527-1.079-1.145-1.425-1.856c-0.344-0.709-0.516-1.649-0.516-2.824
					c0-1.226,0.209-2.246,0.628-3.062c0.308-0.598,0.727-1.134,1.256-1.608c0.531-0.475,1.079-0.828,1.639-1.06
					c0.892-0.365,2.032-0.549,3.423-0.549c1.945,0,3.428,0.348,4.448,1.042c1.021,0.698,1.737,1.715,2.149,3.053l-4.297,0.574
					c-0.135-0.51-0.379-0.894-0.736-1.15c-0.355-0.259-0.832-0.389-1.431-0.389c-0.753,0-1.366,0.271-1.834,0.813
					c-0.468,0.541-0.701,1.359-0.701,2.459c0,0.978,0.232,1.722,0.697,2.229c0.463,0.506,1.055,0.761,1.772,0.761
					c0.6,0,1.103-0.153,1.508-0.46C87.446,227.222,87.75,226.749,87.952,226.114z"/>
				<path fill="#FFFFFF" d="M94.24,214.33h4.567v3.109H94.24V214.33z M94.24,218.864h4.567v11.917H94.24V218.864z"/>
				<path fill="#FFFFFF" d="M105.567,222.724l-4.366-0.46c0.163-0.763,0.403-1.364,0.712-1.8c0.311-0.438,0.758-0.819,1.34-1.141
					c0.42-0.23,0.995-0.41,1.729-0.538c0.733-0.127,1.526-0.19,2.379-0.19c1.368,0,2.467,0.076,3.298,0.229
					c0.831,0.152,1.523,0.474,2.075,0.959c0.391,0.338,0.698,0.813,0.922,1.431c0.225,0.618,0.336,1.207,0.336,1.768v5.263
					c0,0.562,0.035,1.001,0.106,1.318c0.07,0.317,0.225,0.726,0.466,1.219h-4.288c-0.171-0.307-0.284-0.539-0.336-0.701
					c-0.051-0.16-0.104-0.414-0.157-0.757c-0.598,0.576-1.193,0.986-1.783,1.234c-0.808,0.328-1.747,0.493-2.817,0.493
					c-1.421,0-2.5-0.328-3.238-0.986c-0.738-0.66-1.104-1.473-1.104-2.437c0-0.904,0.265-1.65,0.796-2.234
					c0.53-0.582,1.51-1.017,2.94-1.301c1.713-0.344,2.824-0.584,3.333-0.723c0.507-0.139,1.047-0.319,1.615-0.546
					c0-0.561-0.114-0.954-0.348-1.178c-0.231-0.224-0.639-0.336-1.221-0.336c-0.749,0-1.311,0.12-1.685,0.358
					C105.981,221.856,105.746,222.207,105.567,222.724z M109.526,225.126c-0.628,0.224-1.283,0.422-1.962,0.593
					c-0.928,0.248-1.515,0.49-1.762,0.731c-0.256,0.246-0.381,0.527-0.381,0.841c0,0.358,0.124,0.652,0.376,0.882
					c0.25,0.228,0.619,0.342,1.104,0.342c0.509,0,0.982-0.124,1.42-0.37c0.439-0.247,0.747-0.549,0.933-0.904
					c0.183-0.354,0.273-0.816,0.273-1.387V225.126z"/>
			</g>
		</g>
	</g>
	<g>
		<path fill="#2E3192" d="M32.348,251.202v18.636h1.691c2.603,0,4.729-0.302,6.376-0.903c1.648-0.603,3.043-1.617,4.186-3.045
			c1.141-1.427,1.886-3.355,2.233-5.787h1.518v22.783h-1.518c-0.55-4.306-2.046-7.144-4.489-8.516
			c-2.444-1.371-5.212-2.056-8.307-2.056h-1.691v13.882c0,2.321,0.166,3.771,0.499,4.35c0.332,0.581,0.982,1.087,1.951,1.521
			c0.968,0.437,2.277,0.653,3.925,0.653h1.952v1.237H9.923v-1.237h1.952c1.707,0,3.08-0.234,4.121-0.702
			c0.752-0.313,1.33-0.848,1.735-1.605c0.318-0.536,0.478-1.941,0.478-4.217v-29.841c0-2.319-0.159-3.77-0.478-4.349
			c-0.318-0.581-0.961-1.088-1.93-1.522c-0.969-0.436-2.277-0.652-3.926-0.652H9.923v-1.237h49.62v13.013h-1.778
			c-0.405-3.056-1.439-5.319-3.102-6.791c-1.663-1.473-4.07-2.51-7.222-3.111c-1.735-0.334-4.944-0.503-9.628-0.503H32.348z"/>
		<path fill="#2E3192" d="M84.541,273.283v12.713c0,2.454,0.195,3.998,0.585,4.634c0.39,0.635,1.077,1.143,2.06,1.521
			c0.983,0.379,2.82,0.569,5.509,0.569v1.237H62.593v-1.237c2.718,0,4.561-0.194,5.53-0.585c0.969-0.391,1.648-0.897,2.039-1.522
			c0.39-0.624,0.585-2.163,0.585-4.617v-29.439c0-2.454-0.195-3.998-0.585-4.634c-0.39-0.637-1.077-1.143-2.06-1.523
			c-0.983-0.379-2.82-0.567-5.509-0.567v-1.237h27.326c7.113,0,12.318,0.379,15.615,1.138c3.296,0.758,5.987,2.157,8.068,4.197
			c2.082,2.042,3.122,4.433,3.122,7.177c0,3.346-1.561,6.11-4.683,8.297c-1.996,1.383-4.788,2.419-8.373,3.11l14.141,15.356
			c1.85,1.984,3.167,3.224,3.947,3.714c1.185,0.691,2.559,1.07,4.121,1.137v1.237h-18.522l-18.953-20.675H84.541z M84.541,251.036
			v19.872h2.472c4.019,0,7.026-0.283,9.022-0.854c1.995-0.567,3.563-1.594,4.706-3.077c1.142-1.483,1.713-3.419,1.713-5.805
			c0-3.457-1.048-6.011-3.145-7.66c-2.097-1.651-5.473-2.477-10.127-2.477H84.541z"/>
		<path fill="#2E3192" d="M185.14,247.557v15.991h-1.604c-1.938-4.371-4.845-7.694-8.719-9.969
			c-3.875-2.275-8.11-3.412-12.708-3.412c-4.396,0-8.054,0.953-10.974,2.86c-2.922,1.906-4.988,4.565-6.202,7.978
			c-1.216,3.414-1.823,6.915-1.823,10.505c0,4.35,0.665,8.163,1.996,11.442c1.33,3.277,3.476,5.688,6.441,7.226
			c2.965,1.539,6.484,2.309,10.562,2.309c1.417,0,2.87-0.117,4.359-0.351c1.488-0.234,3.014-0.574,4.575-1.021v-9.435
			c0-1.783-0.159-2.938-0.478-3.461c-0.317-0.523-0.976-0.998-1.974-1.423c-0.996-0.422-2.205-0.635-3.621-0.635h-1.519v-1.239
			h28.585v1.239c-2.171,0.111-3.681,0.339-4.534,0.686c-0.852,0.346-1.51,0.92-1.974,1.723c-0.26,0.423-0.39,1.461-0.39,3.11v9.435
			c-3.76,1.294-7.671,2.27-11.733,2.929c-4.063,0.656-8.277,0.986-12.643,0.986c-5.582,0-10.215-0.585-13.902-1.756
			c-3.687-1.171-6.938-2.711-9.759-4.618c-2.819-1.907-5.024-4.053-6.614-6.439c-2.026-3.077-3.037-6.524-3.037-10.338
			c0-6.825,3.108-12.59,9.327-17.297c6.215-4.705,14.036-7.058,23.463-7.058c2.921,0,5.553,0.178,7.895,0.535
			c1.272,0.179,3.333,0.686,6.182,1.522c2.848,0.836,4.532,1.254,5.053,1.254c0.81,0,1.562-0.229,2.256-0.686
			c0.693-0.457,1.329-1.321,1.908-2.593H185.14z"/>
	</g>
</g>
</svg>
