<?xml version="1.0" encoding="UTF-8" standalone="no"?>
<svg
   xmlns:dc="http://purl.org/dc/elements/1.1/"
   xmlns:cc="http://creativecommons.org/ns#"
   xmlns:rdf="http://www.w3.org/1999/02/22-rdf-syntax-ns#"
   xmlns:svg="http://www.w3.org/2000/svg"
   xmlns="http://www.w3.org/2000/svg"
   xmlns:sodipodi="http://sodipodi.sourceforge.net/DTD/sodipodi-0.dtd"
   xmlns:inkscape="http://www.inkscape.org/namespaces/inkscape"
   version="1.0"
   width="397.000000pt"
   height="336.000000pt"
   viewBox="0 0 397.000000 336.000000"
   preserveAspectRatio="xMidYMid meet"
   id="svg2"
   inkscape:version="0.48.5 r10040"
   sodipodi:docname="FCN.svg">
  <defs
     id="defs38" />
  <sodipodi:namedview
     pagecolor="#ffffff"
     bordercolor="#666666"
     borderopacity="1"
     objecttolerance="10"
     gridtolerance="10"
     guidetolerance="10"
     inkscape:pageopacity="0"
     inkscape:pageshadow="2"
     inkscape:window-width="1680"
     inkscape:window-height="984"
     id="namedview36"
     showgrid="false"
     inkscape:zoom="1.5893067"
     inkscape:cx="244.13529"
     inkscape:cy="146.84531"
     inkscape:window-x="0"
     inkscape:window-y="27"
     inkscape:window-maximized="1"
     inkscape:current-layer="layer2" />
  <metadata
     id="metadata4">
Created by potrace 1.11, written by Peter Selinger 2001-2013
<rdf:RDF>
  <cc:Work
     rdf:about="">
    <dc:format>image/svg+xml</dc:format>
    <dc:type
       rdf:resource="http://purl.org/dc/dcmitype/StillImage" />
  </cc:Work>
</rdf:RDF>
</metadata>
  <g
     inkscape:groupmode="layer"
     id="layer2"
     inkscape:label="Layer#1"
     style="display:inline">
    <path
       style="fill:#386f90;fill-opacity:1;stroke:none"
       inkscape:connector-curvature="0"
       d="m 113.7,16.1 c -12.6,1.8 -30.4,6.4 -43.1,11 -12.8,4.7 -42.2,19.1 -43,21.1 -1.4,3.6 5,22.1 13.8,39.9 14.4,29.2 23.4,59.7 27.9,94.9 1.1,8.6 2,17.8 2,20.5 0,3.9 3.3,19.7 4.3,20.7 0.1,0.2 5.1,-2.1 10.9,-5 29.2,-14.6 61.6,-21.6 87.7,-18.7 15.3,1.6 26,4.9 44.1,13.6 8.5,4.1 18.7,8.3 22.7,9.4 35.8,9.8 84.1,1.3 133.7,-23.5 7.2,-3.6 13.6,-6.9 14.2,-7.5 0.9,-0.7 -0.2,-3.2 -4.3,-9.7 -24.2,-38.3 -42,-96.1 -47.4,-153.9 l -1.2,-13.2 -5.1,3 c -15.9,9.4 -41.4,18.7 -60,21.9 -7.4,1.3 -16.3,2 -24.1,2 -21.2,0 -37.1,-3.9 -56,-13.6 -19.8,-10.2 -31.7,-13.4 -53,-13.9 -8.9,-0.3 -17.6,0.1 -24.1,1 z m 217.8,18.5 c -0.5,7.9 1.4,34.6 3.4,47.8 5.2,35.6 17.8,71.6 34.3,98.1 4,6.4 4.9,8.6 3.9,9.3 -5,3.3 -19.2,10.5 -28.4,14.4 -24.9,10.4 -47.8,15 -70.9,14.1 -19.2,-0.8 -29.2,-3.5 -50.4,-13.6 -18.1,-8.7 -22.8,-10.4 -34.1,-12.5 -30,-5.7 -62.2,-0.4 -95.8,15.5 -6.7,3.1 -12.2,5.3 -12.2,4.8 0,-1.7 10,-21 15.6,-29.9 11.7,-19 30.1,-39.3 44.3,-48.9 8.8,-6 21,-11.5 31.1,-14.2 9,-2.3 14.9,-2.5 44,-1.8 12.7,0.3 15.6,0 22.9,-1.9 22.7,-6.1 44,-20.9 63,-43.7 7.8,-9.4 20.8,-28.5 25.7,-37.9 1.6,-3.1 3.1,-5.6 3.4,-5.6 0.3,0 0.3,2.7 0.2,6 z"
       id="path3017" />
    <path
       style="fill:#db2d32;fill-opacity:1;stroke:none"
       inkscape:connector-curvature="0"
       d="m 252.1,125.5 c -5.3,3.4 -9.2,9.3 -10.8,16.6 -1.9,8 -1.6,23.1 0.5,30.4 4.7,16.4 21.6,23 34.2,13.4 3.6,-2.8 8.8,-12.6 9.8,-18.6 l 0.6,-3.7 -7.4,0 -7.4,0 -0.7,3 c -0.7,3.7 -4.8,8 -7.6,8 -9.3,0 -12.2,-25.2 -3.9,-34.4 2.7,-3 2.9,-3 5.6,-1.6 1.5,0.8 3.7,3.4 4.8,5.7 l 1.9,4.3 6.8,0 c 7.8,0 7.8,0.1 5.2,-9.1 -1.9,-6.7 -7.2,-13.5 -12.1,-15.5 -1.8,-0.8 -5.9,-1.4 -9.1,-1.4 -4.7,0 -6.7,0.6 -10.4,2.9 z"
       id="path3019" />
    <path
       style="fill:#db2d32;fill-opacity:1;stroke:none"
       inkscape:connector-curvature="0"
       d="m 200.3,156.6 0,32 7.5,0 7.5,0 0,-10.5 0,-10.4 8.1,-0.3 8.1,-0.3 0,-7.5 0,-7.5 -8.1,-0.3 -8.1,-0.3 0,-6.4 0,-6.5 10,0 10,0 0,-7 0,-7 -17.5,0 -17.5,0 0,32 z"
       id="path3021" />
    <path
       style="fill:#db2d32;fill-opacity:1;stroke:none"
       inkscape:connector-curvature="0"
       d="m 293.3,156.6 0,32 7,0 7,0 0.2,-16.5 0.3,-16.4 7.5,16.4 7.4,16.5 7.3,0 7.3,0 0,-32 0,-32 -7.6,0 -7.6,0 0.3,16 c 0.2,8.8 0.2,16 -0.1,16 -0.3,-0.1 -3.8,-7.3 -7.9,-16 l -7.4,-16 -6.8,0 -6.9,0 0,32 z"
       id="path3023" />
    <path
       style="fill:#386f90;fill-opacity:1;stroke:none"
       inkscape:connector-curvature="0"
       d="m 9.4,32.7 -2.2,6.4 4.1,3.7 c 2.2,2 3.7,3.9 3.2,4.2 -0.4,0.2 4.3,25.1 10.5,55.3 6.2,30.1 15.4,75.2 20.5,100 l 9.2,45.3 10.1,0 c 5.6,0 10.4,-0.2 10.7,-0.5 C 75.7,246.8 64.3,204.9 50.1,153.9 35.9,102.8 23.3,57.6 22.2,53.3 c -1.3,-4.6 -2.6,-7.7 -3.4,-7.7 -1,0 -1,-1.1 0.3,-5 L 20.7,35.5 16.1,31 11.6,26.4 9.4,32.7 z"
       id="path3025" />
    <path
       style="fill:#db2d32;fill-opacity:1;stroke:none"
       inkscape:connector-curvature="0"
       d="m 19.4,128.6 c -7.2,18.6 -9.6,33.3 -8.8,53.9 0.8,21.4 4.7,36.6 14.1,54.6 3.9,7.7 5.6,10.1 7.4,10.3 1.6,0.3 4.4,3.5 9.7,11.5 l 7.5,11.2 0,-10.9 c 0,-10 -0.9,-15.5 -9.9,-59.5 -10,-48.4 -15.9,-76.7 -16.5,-78.6 -0.1,-0.5 -1.7,2.8 -3.5,7.5 z"
       id="path3027" />
    <path
       style="fill:#db2d32;fill-opacity:1;stroke:none"
       inkscape:connector-curvature="0"
       d="m 142.2,208.1 c -18.8,3.1 -36.6,8.8 -54.4,17.7 -5.5,2.8 -10.1,5.1 -10.2,5.2 -0.1,0.1 0.9,4.2 2.2,9.1 2.3,8.1 2.5,11 2.6,28.5 l 0,19.5 7.6,-20.3 7.6,-20.2 16.1,0.2 16,0.3 2.8,7.5 c 1.6,4.1 4.1,10.6 5.5,14.4 l 2.6,7 1.2,-4 c 3.1,-10.4 10.1,-18.5 20,-23.1 5,-2.3 7.7,-2.8 16.1,-3.1 14.3,-0.6 22.2,1.8 30.2,9.2 l 3.2,3 0,-5.7 0,-5.7 16.9,0 17,0 0.3,5.2 0.3,5.1 4.7,-7 c 2.5,-3.8 5.8,-9.3 7.2,-12 l 2.5,-5.1 -6.7,-1.2 c -11.5,-2.1 -22.1,-5.9 -37.3,-13.1 -20.1,-9.5 -29.8,-12 -49.9,-12.5 -10.3,-0.2 -18.4,0.1 -24.1,1.1 z"
       id="path3029" />
    <path
       style="font-size:medium;font-style:normal;font-variant:normal;font-weight:normal;font-stretch:normal;text-indent:0;text-align:start;text-decoration:none;line-height:normal;letter-spacing:normal;word-spacing:normal;text-transform:none;direction:ltr;block-progression:tb;writing-mode:lr-tb;text-anchor:start;baseline-shift:baseline;color:#000000;fill:#386f90;fill-opacity:1;stroke:none;stroke-width:6.16101122;marker:none;visibility:visible;display:inline;overflow:visible;enable-background:accumulate;font-family:Sans;-inkscape-font-specification:Sans"
       d="m 253.28474,232.66876 c -2.40143,5.40653 -6.5029,9.86643 -10.35568,14.90637 l 2.27092,-0.0117 0.13535,13.24681 c 5.43249,-5.54197 16.44519,-19.36047 20.15358,-27.70945 z"
       id="path4015"
       inkscape:connector-curvature="0"
       sodipodi:nodetypes="cccccc" />
    <path
       style="fill:#386f90;fill-opacity:1;stroke:none"
       inkscape:connector-curvature="0"
       d="m 277.1,243.1 -3.7,6.5 4.3,0 c 3.8,0 4.9,-0.6 11.1,-6.5 l 7,-6.4 -7.5,0 -7.5,-0.1 -3.7,6.5 z"
       id="path3031" />
    <path
       style="fill:#386f90;fill-opacity:1;stroke:none"
       inkscape:connector-curvature="0"
       d="m 173.1,253.7 c -14.7,2.2 -23.4,11.2 -25.8,26.6 -2.6,16.6 3.3,31.4 15.1,37.7 4.7,2.6 6.6,3 16,3.4 13.2,0.6 19.2,-1.1 25.1,-7 3.6,-3.6 7.8,-11.2 7.8,-14.2 0,-1.1 -16.7,-6.4 -17.3,-5.5 -0.1,0.2 -1.2,2.5 -2.5,5 -2.7,5.3 -5.4,6.9 -11.7,6.9 -5.4,0 -10,-3.5 -11.6,-8.9 -0.6,-2.1 -1,-7.6 -0.8,-12.3 0.4,-7.4 0.7,-8.9 3.2,-12.1 5.4,-7.1 15.6,-6.9 20.5,0.3 1.3,1.9 2.9,3.4 3.5,3.3 0.7,-0.1 4.7,-0.9 8.9,-1.8 l 7.7,-1.7 -2.4,-4.8 c -6.2,-12.3 -18.7,-17.5 -35.7,-14.9 z"
       id="path3033" />
    <path
       style="fill:#386f90;fill-opacity:1;stroke:none"
       inkscape:connector-curvature="0"
       d="m 273.4,253.7 c -17.3,3 -26.3,14.2 -26.4,33.4 -0.1,12.5 2,18.2 9.2,25.6 6.8,7 12.3,8.9 25.1,8.9 10.4,0 17.4,-1.9 23.2,-6.3 14.7,-11.2 15.2,-43 0.8,-54.8 -7,-5.9 -20.6,-8.7 -31.9,-6.8 z m 15.7,16.9 c 4.5,2.8 6.2,7.3 6.2,17 0,13.1 -3.2,18 -12.4,18.8 -10.8,0.9 -15.6,-4.9 -15.6,-18.8 0,-13.1 4.2,-18.9 14,-19 2.8,0 5.7,0.8 7.8,2 z"
       id="path3035" />
    <path
       style="fill:#386f90;fill-opacity:1;stroke:none"
       inkscape:connector-curvature="0"
       d="m 11.3,287.6 0,33 9.5,0 9.5,0 0.2,-18.2 0.3,-18.3 12.4,18.2 12.4,18.3 9.9,0 9.8,0 0,-33 0,-33 -9.5,0 -9.5,0 0,18 c 0,17.1 -0.5,20.3 -2.6,16.2 -0.5,-1 -5.8,-9.1 -11.9,-18 l -11,-16.2 -9.7,0 -9.8,0 0,33 z"
       id="path3037" />
    <path
       style="fill:#386f90;fill-opacity:1;stroke:none"
       inkscape:connector-curvature="0"
       d="m 101.4,257 c -0.5,1.2 -5.7,14.9 -11.4,30.2 -5.8,15.3 -11,29.1 -11.6,30.6 l -1.1,2.8 10.5,0 10.4,0 1.6,-5.5 1.6,-5.5 11.9,0 11.9,0 1.7,5.5 1.8,5.5 10.3,0 c 5.7,0 10.3,-0.3 10.3,-0.7 0,-0.3 -5.5,-15.2 -12.1,-33 l -12.2,-32.3 -11.4,0 c -11,0 -11.4,0.1 -12.2,2.4 z m 12.6,38.4 c -3.8,0.2 -7.2,0.1 -7.5,-0.2 -0.3,-0.3 0.7,-4.7 2.3,-9.8 4.8,-16 4.2,-15.9 8.4,-2.3 l 3.7,12 -6.9,0.3 z"
       id="path3039" />
    <path
       style="fill:#386f90;fill-opacity:1;stroke:none"
       inkscape:connector-curvature="0"
       d="m 218.3,287.6 0,33 10,0 10,0 0,-33 0,-33 -10,0 -10,0 0,33 z"
       id="path3041" />
    <path
       style="fill:#386f90;fill-opacity:1;stroke:none"
       inkscape:connector-curvature="0"
       d="m 323.3,287.6 0,33 9.5,0 9.5,0 0.2,-18.1 0.3,-18 12.3,18 12.3,18.1 9.9,0 10,0 0,-33 0,-33 -10,0 -10,0 -0.2,17.9 -0.3,17.9 -12,-17.6 -12,-17.7 -9.7,-0.3 -9.8,-0.3 0,33.1 z"
       id="path3043" />
    <path
       style="font-size:medium;font-style:normal;font-variant:normal;font-weight:normal;font-stretch:normal;text-indent:0;text-align:start;text-decoration:none;line-height:normal;letter-spacing:normal;word-spacing:normal;text-transform:none;direction:ltr;block-progression:tb;writing-mode:lr-tb;text-anchor:start;baseline-shift:baseline;color:#000000;fill:#386f90;fill-opacity:1;stroke:none;stroke-width:6.16101122;marker:none;visibility:visible;display:inline;overflow:visible;enable-background:accumulate;font-family:Sans;-inkscape-font-specification:Sans"
       d="m 22.211538,117.43887 c -6.604559,9.01134 -9.412973,16.59956 -10.809102,21.25823 -10.7838745,35.98413 -3.9160863,77.74246 12.60711,108.40978 2.819019,0.0232 3.12982,0.0476 7.025317,0.0585 5.525265,6.7638 11.669656,17.99155 18.464497,23.62404 -0.07202,-4.85697 -0.09959,-6.18807 -0.147022,-10.05151 -9.514889,-10.72021 -9.593293,-10.35192 -17.102705,-24.28065 -15.018824,-27.85747 -19.366706,-61.43404 -9.558447,-94.1627 1.267182,-4.22839 1.134223,-5.31472 2.846921,-9.38504 z"
       id="path4017"
       inkscape:connector-curvature="0"
       sodipodi:nodetypes="csccccsscc" />
  </g>
</svg>
