<?xml version="1.0" encoding="utf-8"?>
<!-- Generator: Adobe Illustrator 15.0.2, SVG Export Plug-In . SVG Version: 6.00 Build 0)  -->
<!DOCTYPE svg PUBLIC "-//W3C//DTD SVG 1.1//EN" "http://www.w3.org/Graphics/SVG/1.1/DTD/svg11.dtd">
<svg version="1.1" id="Layer_1" xmlns="http://www.w3.org/2000/svg" xmlns:xlink="http://www.w3.org/1999/xlink" x="0px" y="0px"
	 width="250px" height="200px" viewBox="0 0 250 200" enable-background="new 0 0 250 200" xml:space="preserve">
<g>
	<g>
		<g>
			<g>
				<path fill="#003D9B" d="M12.821,189.045v-2.49h5.714v5.104c-1.094,0.746-2.061,1.252-2.902,1.521
					c-0.841,0.27-1.838,0.404-2.992,0.404c-1.42,0-2.579-0.242-3.474-0.727c-0.896-0.484-1.589-1.205-2.082-2.162
					c-0.493-0.959-0.739-2.059-0.739-3.299c0-1.307,0.269-2.441,0.808-3.408c0.539-0.967,1.328-1.699,2.367-2.201
					c0.811-0.385,1.902-0.578,3.274-0.578c1.322,0,2.312,0.119,2.967,0.359c0.656,0.238,1.2,0.609,1.633,1.113
					s0.758,1.143,0.976,1.914l-3.567,0.637c-0.147-0.451-0.396-0.797-0.747-1.035c-0.351-0.24-0.799-0.359-1.343-0.359
					c-0.811,0-1.457,0.281-1.938,0.844c-0.482,0.564-0.723,1.455-0.723,2.674c0,1.295,0.244,2.221,0.73,2.775
					c0.487,0.555,1.166,0.834,2.037,0.834c0.414,0,0.808-0.061,1.184-0.18c0.375-0.121,0.806-0.324,1.29-0.613v-1.127H12.821z"/>
				<path fill="#003D9B" d="M20.613,193.381v-11.969h6.164c1.143,0,2.017,0.098,2.621,0.295c0.604,0.195,1.091,0.559,1.461,1.09
					c0.37,0.529,0.555,1.176,0.555,1.938c0,0.664-0.142,1.238-0.425,1.719c-0.283,0.482-0.673,0.873-1.168,1.172
					c-0.315,0.191-0.749,0.348-1.298,0.473c0.44,0.148,0.761,0.295,0.962,0.441c0.136,0.1,0.333,0.309,0.591,0.631
					c0.258,0.32,0.431,0.568,0.518,0.742l1.791,3.469h-4.179l-1.977-3.658c-0.25-0.473-0.474-0.781-0.669-0.922
					c-0.267-0.186-0.569-0.277-0.906-0.277h-0.327v4.857H20.613z M24.328,186.262h1.56c0.168,0,0.495-0.055,0.979-0.164
					c0.245-0.049,0.445-0.174,0.6-0.375s0.232-0.432,0.232-0.693c0-0.387-0.122-0.684-0.367-0.891s-0.705-0.311-1.38-0.311h-1.625
					V186.262z"/>
				<path fill="#003D9B" d="M40.759,191.405h-4.198l-0.583,1.977h-3.776l4.498-11.969h4.034l4.497,11.969h-3.873L40.759,191.405z
					 M39.992,188.817l-1.321-4.301l-1.307,4.301H39.992z"/>
				<path fill="#003D9B" d="M46.264,181.413h3.453l4.506,6.621v-6.621h3.486v11.969h-3.486l-4.482-6.572v6.572h-3.478V181.413z"/>
			</g>
			<g>
				<path fill="#003D9B" d="M73.162,191.405h-4.198l-0.583,1.977h-3.776l4.498-11.969h4.034l4.497,11.969h-3.873L73.162,191.405z
					 M72.395,188.817l-1.321-4.301l-1.307,4.301H72.395z"/>
				<path fill="#003D9B" d="M78.224,181.413h3.698v9.021h5.771v2.947h-9.47V181.413z"/>
				<path fill="#003D9B" d="M88.937,181.413h3.706v11.969h-3.706V181.413z"/>
				<path fill="#003D9B" d="M102.069,191.405h-4.198l-0.583,1.977h-3.776l4.498-11.969h4.034l4.497,11.969h-3.873L102.069,191.405z
					 M101.302,188.817l-1.321-4.301l-1.307,4.301H101.302z"/>
				<path fill="#003D9B" d="M107.155,181.413h3.453l4.506,6.621v-6.621h3.486v11.969h-3.486l-4.482-6.572v6.572h-3.478V181.413z"/>
				<path fill="#003D9B" d="M120.17,181.413h10.466v2.393l-6.719,7.004h6.963v2.572h-11.355v-2.482l6.648-6.932h-6.003V181.413z"/>
				<path fill="#003D9B" d="M139.319,191.405h-4.198l-0.584,1.977h-3.775l4.498-11.969h4.034l4.497,11.969h-3.873L139.319,191.405z
					 M138.552,188.817l-1.32-4.301l-1.308,4.301H138.552z"/>
			</g>
			<g>
				<path fill="#003D9B" d="M151.162,181.413h3.453l4.507,6.621v-6.621h3.485v11.969h-3.485l-4.482-6.572v6.572h-3.478V181.413z"/>
				<path fill="#003D9B" d="M171.741,191.405h-4.198l-0.584,1.977h-3.775l4.498-11.969h4.034l4.497,11.969h-3.873L171.741,191.405z
					 M170.974,188.817l-1.32-4.301l-1.308,4.301H170.974z"/>
				<path fill="#003D9B" d="M184.535,188.483l3.241,0.979c-0.218,0.91-0.561,1.67-1.028,2.279c-0.469,0.609-1.05,1.068-1.743,1.379
					c-0.694,0.311-1.577,0.465-2.649,0.465c-1.301,0-2.363-0.189-3.188-0.566c-0.825-0.379-1.536-1.043-2.135-1.994
					c-0.599-0.953-0.898-2.17-0.898-3.656c0-1.979,0.526-3.5,1.58-4.564c1.053-1.063,2.543-1.594,4.47-1.594
					c1.507,0,2.692,0.305,3.555,0.914s1.504,1.545,1.923,2.809l-3.266,0.727c-0.114-0.365-0.234-0.633-0.359-0.801
					c-0.207-0.283-0.46-0.5-0.759-0.652c-0.3-0.152-0.635-0.229-1.005-0.229c-0.838,0-1.479,0.336-1.926,1.01
					c-0.338,0.5-0.507,1.287-0.507,2.357c0,1.326,0.201,2.234,0.604,2.727c0.402,0.492,0.969,0.738,1.698,0.738
					c0.707,0,1.242-0.199,1.604-0.596C184.109,189.817,184.372,189.239,184.535,188.483z"/>
				<path fill="#003D9B" d="M189.201,181.413h3.706v11.969h-3.706V181.413z"/>
				<path fill="#003D9B" d="M194.577,187.405c0-1.953,0.544-3.475,1.633-4.563c1.088-1.09,2.604-1.633,4.547-1.633
					c1.992,0,3.526,0.533,4.604,1.604c1.077,1.07,1.616,2.568,1.616,4.494c0,1.398-0.235,2.545-0.706,3.441
					c-0.471,0.895-1.151,1.592-2.041,2.09s-1.999,0.746-3.327,0.746c-1.35,0-2.467-0.215-3.351-0.645
					c-0.885-0.43-1.602-1.109-2.151-2.041C194.852,189.969,194.577,188.803,194.577,187.405z M198.275,187.422
					c0,1.207,0.224,2.076,0.673,2.604s1.061,0.791,1.833,0.791c0.795,0,1.409-0.258,1.845-0.775
					c0.436-0.516,0.653-1.445,0.653-2.783c0-1.127-0.228-1.949-0.682-2.469c-0.454-0.521-1.071-0.781-1.85-0.781
					c-0.745,0-1.344,0.266-1.796,0.793C198.501,185.329,198.275,186.202,198.275,187.422z"/>
				<path fill="#003D9B" d="M208.476,181.413h3.453l4.506,6.621v-6.621h3.486v11.969h-3.486l-4.481-6.572v6.572h-3.478V181.413z"/>
				<path fill="#003D9B" d="M229.054,191.405h-4.198l-0.583,1.977h-3.776l4.498-11.969h4.034l4.497,11.969h-3.872L229.054,191.405z
					 M228.287,188.817l-1.321-4.301l-1.307,4.301H228.287z"/>
				<path fill="#003D9B" d="M234.183,181.413h3.698v9.021h5.771v2.947h-9.47V181.413z"/>
			</g>
		</g>
		<g>
			<path fill="#003D9B" d="M39.151,160.815v-7.525h28.86v15.422c-5.525,2.254-10.411,3.787-14.657,4.602s-9.284,1.221-15.11,1.221
				c-7.174,0-13.022-0.732-17.543-2.195c-4.521-1.465-8.026-3.645-10.513-6.539c-2.488-2.895-3.731-6.219-3.731-9.969
				c0-3.949,1.36-7.383,4.082-10.303s6.707-5.137,11.957-6.648c4.095-1.168,9.606-1.752,16.533-1.752
				c6.679,0,11.674,0.361,14.987,1.084c3.312,0.725,6.061,1.848,8.246,3.369c2.185,1.521,3.827,3.451,4.927,5.785l-18.017,1.926
				c-0.742-1.365-2-2.41-3.772-3.135c-1.773-0.723-4.034-1.084-6.782-1.084c-4.096,0-7.359,0.85-9.792,2.553
				s-3.649,4.396-3.649,8.082c0,3.914,1.23,6.711,3.69,8.389c2.459,1.678,5.889,2.518,10.287,2.518c2.088,0,4.082-0.182,5.978-0.543
				s4.067-0.979,6.514-1.852v-3.404H39.151z"/>
			<path fill="#003D9B" d="M105.284,167.946H84.08l-2.946,5.971h-19.07l22.717-36.174h20.373l22.711,36.174h-19.558L105.284,167.946
				z M101.41,160.124l-6.671-13.004l-6.602,13.004H101.41z"/>
			<path fill="#003D9B" d="M122.95,137.743h17.44l22.758,20.014v-20.014h17.605v36.174h-17.605l-22.634-19.861v19.861H122.95
				V137.743z"/>
			<path fill="#003D9B" d="M218.521,167.946h-21.204l-2.946,5.971h-19.069l22.717-36.174h20.372l22.712,36.174h-19.558
				L218.521,167.946z M214.646,160.124l-6.671-13.004l-6.602,13.004H214.646z"/>
		</g>
	</g>
	<g>
		
			<ellipse fill="#FFFFFF" stroke="#003D9B" stroke-width="5" stroke-miterlimit="10" cx="124.08" cy="66.967" rx="73.5" ry="60.553"/>
		<path fill="#FF0000" d="M70.458,96.103c-10.23-9-28.667-53.332,29.333-77.333L70.458,96.103z"/>
		<g>
			<g>
				<polygon fill="#003D9B" points="142.619,58.104 137.494,36.249 133.119,36.249 129.994,24.229 118.167,24.229 115.042,36.249 
					110.667,36.249 105.542,58.104 				"/>
				<rect x="119.75" y="48.354" fill="#FFFFFF" width="7.875" height="9.75"/>
			</g>
			<g>
				<polygon fill="#003D9B" points="164.34,104.776 83.82,104.778 90.498,83.903 157.663,83.903 				"/>
				<g>
					<rect x="110.049" y="102.479" fill="#FFFFFF" width="28.063" height="2.299"/>
					<rect x="111.049" y="98.305" fill="#FFFFFF" width="26.063" height="2.299"/>
					<rect x="114.018" y="85.305" fill="#FFFFFF" width="20.125" height="2.299"/>
					<rect x="113.111" y="89.68" fill="#FFFFFF" width="21.938" height="2.299"/>
					<rect x="112.08" y="93.803" fill="#FFFFFF" width="24" height="2.299"/>
				</g>
			</g>
			<g>
				<polygon fill="#003D9B" points="153.918,81.333 94.242,81.333 101.189,60.354 146.971,60.354 				"/>
				<g>
					<rect x="115.122" y="77.246" fill="#FFFFFF" width="17.917" height="2.299"/>
					<rect x="118.08" y="64.204" fill="#FFFFFF" width="12" height="2.299"/>
					<rect x="117.06" y="68.613" fill="#FFFFFF" width="14.041" height="2.299"/>
					<rect x="119.018" y="60.354" fill="#FFFFFF" width="10" height="2.299"/>
					<rect x="116.101" y="72.996" fill="#FFFFFF" width="15.959" height="2.299"/>
				</g>
			</g>
		</g>
		<path fill="#FF0000" d="M177.701,96.104c10.23-9,28.668-53.334-29.332-77.334L177.701,96.104z"/>
	</g>
</g>
</svg>
