<?xml version="1.0" encoding="utf-8"?>
<!-- Generator: Adobe Illustrator 15.0.2, SVG Export Plug-In . SVG Version: 6.00 Build 0)  -->
<!DOCTYPE svg PUBLIC "-//W3C//DTD SVG 1.0//EN" "http://www.w3.org/TR/2001/REC-SVG-20010904/DTD/svg10.dtd">
<svg version="1.0" id="Layer_1" xmlns="http://www.w3.org/2000/svg" xmlns:xlink="http://www.w3.org/1999/xlink" x="0px" y="0px"
	 width="270px" height="300px" viewBox="0 0 270 300" enable-background="new 0 0 270 300" xml:space="preserve">
<g>
	<g>
		<path fill-rule="evenodd" clip-rule="evenodd" fill="#E20A17" d="M20.81,0.366c76.129,0,152.249,0,228.379,0
			c11.909,1.558,18.622,8.312,20.388,20.014c0,86.417,0,172.82,0,259.24c-1.775,11.754-8.529,18.53-20.575,20.014
			c-76.066,0-152.123,0-228.192,0c-11.788-1.491-18.442-8.117-20.387-19.453c0-86.79,0-173.57,0-260.362
			C2.378,8.494,9.017,1.853,20.81,0.366z M9.962,21.502C9.307,26.479,9.775,31.921,9.775,37.4c0,75.035,0,151.045,0,225.947
			c0,5.594-0.673,11.459,0.188,16.086c0.753,4.054,3.461,7.583,6.92,9.539c3.816,2.158,8.845,1.684,14.963,1.684
			c67.616,0,132.344,0,199.387,0c5.953,0,11.579,0.472,16.647,0c4.885-0.455,8.23-3.534,10.101-6.547
			c3.6-5.798,2.058-21.053,2.058-31.05c-0.001-72.594,0-144.5,0-216.22c0-5.624,0.688-11.605-0.188-16.459
			c-0.723-4.008-3.285-7.318-6.359-9.166c-3.547-2.131-8.22-1.871-13.654-1.871c-62.64,0-124.609,0-186.668,0
			c-10.348,0-21.041-0.749-31.236,0c-0.13,0.01-0.189,0.188-0.187,0.188C15.833,10.282,10.878,14.545,9.962,21.502z"/>
		<path fill-rule="evenodd" clip-rule="evenodd" fill="#FFFFFF" d="M21.746,9.531c-0.002,0,0.057-0.177,0.187-0.188
			c10.195-0.749,20.888,0,31.236,0c62.059,0,124.028,0,186.668,0c5.435,0,10.107-0.261,13.654,1.871
			c3.074,1.848,5.637,5.157,6.359,9.166c0.875,4.854,0.188,10.835,0.188,16.459c0,71.72-0.001,143.626,0,216.22
			c0,9.997,1.542,25.252-2.058,31.05c-1.87,3.013-5.216,6.092-10.101,6.547c-5.068,0.472-10.694,0-16.647,0
			c-67.042,0-131.771,0-199.387,0c-6.119,0-11.147,0.475-14.963-1.684c-3.459-1.956-6.167-5.485-6.92-9.539
			c-0.861-4.627-0.188-10.492-0.188-16.086c0-74.902,0-150.913,0-225.947c0-5.479-0.468-10.922,0.188-15.898
			C10.878,14.545,15.833,10.282,21.746,9.531z M18.005,23.372c-1.177,3.561-0.561,9.793-0.561,15.338c0,16.053,0,33.721,0,48.07
			c0,58.266,0,117.188,0,175.82c0,10.782-1.073,18.776,7.482,20.387c3.916,0.738,8.832,0.188,13.466,0.188
			c64.578-0.001,128.729,0,193.215,0c4.867,0,9.896,0.579,13.654-0.188c8.905-1.815,7.295-12.439,7.295-23.192
			c0-74.031,0-146.6,0-219.961c0-11.278,1.506-21.255-7.669-22.82c-3.981-0.679-8.79-0.187-13.468-0.187
			c-60.05,0-119.299,0-178.625,0c-9.036,0-18.451-0.664-27.496,0c-0.143,0.011-0.173,0.185-0.187,0.187
			C21.612,17.61,19.251,19.601,18.005,23.372z"/>
		<path fill-rule="evenodd" clip-rule="evenodd" fill="#FFFFFF" d="M162.401,140.273c1.263,1.37,2.009,3.09,2.993,4.864
			c0.882,1.589,2.477,3.467,2.806,5.05c0.77,3.712-1.304,9.744-2.245,12.345c-3.756,10.38-12.435,17.358-25.064,18.143
			c-19.001,1.181-30.057-9.341-37.783-20.013c5.16,2.542,11.898,7.822,18.892,10.662c3.263,1.324,10.697,3.484,8.978-2.993
			c-15.342,2.752-24.415-8.022-33.667-14.589c-4.741-3.365-10.637-6.374-11.41-13.28c-0.353-3.155,1.66-6.841,1.31-9.539
			c-0.247-1.898-1.97-3.806-3.18-5.612c-0.948-1.415-2.932-3.87-2.993-5.611c-0.078-2.246,1.544-3.054,2.619-4.488
			c1.434-0.312,3.496,0.004,3.554-1.684c-0.012-1.048-1.754-0.365-2.619-0.561c-2.317-3.706-5.619-7.308-6.172-11.784
			c-0.296-2.398,0.481-4.285,1.684-5.611c4.269-4.707,14.466-4.662,23.941-5.424c9.966-0.803,18.006-3.401,25.251-3.928
			c7.604-0.553,13.513,2.715,15.712,7.108c-0.333,0.353-1.234,0.138-1.123,0.935c-0.123,2.119,0.196,3.707-0.374,5.237
			c-0.524,1.406-2.58,2.434-1.123,3.928c3.438-0.553,3.06-4.922,3.367-8.604c4.132,5.072,9.344,19.199-0.748,21.51
			c-0.083-5.283-1.918-9.476-4.676-12.158c-0.712-0.692-1.954-1.698-2.992-2.058c-6.555-2.267-15.446,2.127-21.697-0.748
			c-0.949,1.109-1.767,2.349-2.619,3.554c9.382-0.12,27.114-4.231,28.992,5.05c-0.071,0.677-1.153,0.343-1.123,1.123
			c-0.834,3.218-2.645,5.459-3.928,8.229c1.467,1.45,2.639-0.21,3.367-1.683c0.99-2.005,2.125-3.994,1.871-6.36
			c0.315,2.948,3.152,7.965,1.87,11.223c-0.455,1.156-4.649,3.923-6.733,3.554c-1.61-0.286-1.918-2.03-3.555-3.367
			c-1.188-0.971-2.97-1.855-5.237-2.058c-4.123-0.368-9.78,1.002-11.97-0.187c-0.847-0.46-1.127-0.5-1.123-2.432
			c-1.692,0.989-3.08,2.283-3.741,4.303c1.401,0.93,2.237-0.483,3.553-0.562c1.848-0.109,2.734,0.971,3.928,1.123
			c1.451,0.184,2.951-0.247,4.302-0.188c5.996,0.264,13.018,2.334,14.029,7.856c1.889,10.32-13.494,10.487-22.259,9.539
			c-3.029-0.328-5.961-1.631-7.855,0.561c0.543,2.948,6.266,0.716,6.733,3.741c-1.588,0.84-4.537-0.515-6.546,0.188
			c0.6,1.209,3.169,1.442,2.992,2.805c-2.635,2.487-8.98,0.371-13.093,0.749c3.347,3.379,11.662,4.575,18.892,3.553
			c-2.395-0.723-5.532-0.703-8.417-0.935c1.99-0.503,4.681-0.307,5.799-1.683c0.553-0.577,0.283-1.373,0.187-2.245
			c1.587-0.657,2.4-2.088,3.554-3.179c11.873-0.227,25.932,0.22,23.006-13.654c0.83-1.238,1.908-1.557,2.805-2.619
			c1.72-2.031,2.287-4.758,3.741-7.107c1.082-1.746,2.884-2.785,3.928-4.489c1.613-2.632,2.32-6.083,1.497-10.101
			c4.917-6.56,2.509-16.977-0.936-23.941c-3.557-7.194-6.515-13.143-17.208-11.783c0.191-8.444-0.168-17.626-0.187-26.186
			c-0.015-6.574,2.748-14.577,8.604-14.963c3.283-0.217,6.834,1.863,8.603,3.554c6.185,5.91,7.117,21.457,6.547,34.416
			c-0.201,4.574-1.777,9.785-0.562,14.403c1.043,3.963,3.729,7.501,5.05,11.409c3.002,8.877,2.729,21.155-2.244,27.495
			c0.743,0.38,1.923,0.321,2.618,0.748c-0.288,12.618-3.444,22.367-8.043,30.675C158.526,148.993,162.155,146.324,162.401,140.273z
			 M140.518,90.521c1.78,3.329-2.923,11.196-0.187,11.596c2.904,0.426,3.217-10.82,1.31-12.157c-0.374,0-0.749,0-1.123,0
			C140.518,90.146,140.518,90.333,140.518,90.521z M138.461,106.606c-0.195,3.115-1.355,4.823-2.432,6.92
			c-0.645,1.256-2.169,3.125-0.561,4.302c1.673-0.379,2.831-2.842,3.553-4.862c0.646-1.804,1.859-5.387-0.187-6.36
			C138.71,106.606,138.585,106.606,138.461,106.606z M141.267,168.517c-2.013,2.053-4.803,3.895-5.051,6.921
			c2.814,1.695,6.151-1.147,8.23-3.554c3.713-4.297,6.978-12.305,1.683-15.898C149.325,162.118,144.523,165.195,141.267,168.517z"/>
		<path fill-rule="evenodd" clip-rule="evenodd" fill="#FFFFFF" d="M147.063,76.306c0.752,4.322-2.428,7.437-0.935,10.661
			c2.506-0.487,1.283-4.703,2.807-6.172c2.895,5.154,5.345,13.776,3.179,21.136c-3.408-10.496-10.337-18.485-23.193-18.517
			c-5.874-0.015-12.139,1.641-18.331,2.618c-8.108,1.281-16.304,2.036-23.754,3.367c-0.306-4.026-3.024-7.525-1.497-12.158
			c0.893-2.706,5.678-4.556,9.914-4.489c4.167,0.065,8.713,1.742,13.653,1.496c3.977-0.198,8.049-1.015,12.158-1.31
			c4.383-0.314,8.748-0.368,12.906-0.561c1.774-0.083,4.202-0.438,5.798-0.187C142.616,72.637,145.464,75.043,147.063,76.306z"/>
		<path fill-rule="evenodd" clip-rule="evenodd" fill="#E20A17" d="M140.518,89.959c0.374,0,0.749,0,1.123,0
			c1.908,1.337,1.595,12.583-1.31,12.157c-2.736-0.4,1.967-8.267,0.187-11.596C140.518,90.333,140.518,90.146,140.518,89.959z"/>
		<path fill-rule="evenodd" clip-rule="evenodd" fill="#E20A17" d="M138.834,106.606c2.046,0.973,0.832,4.556,0.187,6.36
			c-0.722,2.021-1.88,4.483-3.553,4.862c-1.608-1.177-0.083-3.045,0.561-4.302c1.077-2.098,2.237-3.806,2.432-6.92
			C138.585,106.606,138.71,106.606,138.834,106.606z"/>
		<path fill-rule="evenodd" clip-rule="evenodd" fill="#FFFFFF" d="M31.098,197.322c3.616,0,7.232,0,10.849,0
			c0,19.639,0,39.278,0,58.918c8.105,0,16.21,0,24.316,0c0,4.552,0,9.103,0,13.654c-11.784,0-23.568,0-35.352,0
			c0-24.004,0-48.009,0-72.012C30.895,197.617,30.88,197.354,31.098,197.322z"/>
		<path fill-rule="evenodd" clip-rule="evenodd" fill="#FFFFFF" d="M76.549,197.322c3.616,0,7.232,0,10.848,0
			c0,24.377,0,48.756,0,73.134c-3.678,0-7.357,0-11.035,0c0-24.191,0-48.383,0-72.573C76.346,197.617,76.331,197.354,76.549,197.322
			z"/>
		<path fill-rule="evenodd" clip-rule="evenodd" fill="#FFFFFF" d="M97.685,197.322c10.563,0.866,22.68-1.999,29.74,2.244
			c7.853,4.719,11.535,16.961,11.971,29.553c0.582,16.811-1.886,35.549-14.776,40.214c-7.488,2.71-16.744,0.292-27.122,1.123
			c0-24.191,0-48.383,0-72.573C97.481,197.617,97.467,197.354,97.685,197.322z M108.72,211.537c0,15.088,0,30.177,0,45.264
			c5.771-0.22,11.671,0.863,14.964-2.057c4.105-3.64,4.785-15.023,4.488-22.445c-0.347-8.7-1.236-17.811-6.733-20.388
			c-3.164-1.483-8.373-0.721-12.532-0.936C108.689,211.007,108.705,211.271,108.72,211.537z"/>
		<path fill-rule="evenodd" clip-rule="evenodd" fill="#FFFFFF" d="M149.683,197.322c12.345,0,24.689,0,37.035,0
			c0.433,4.117,0.064,9.037,0.188,13.467c-8.356,0.436-17.52,0.063-26.186,0.187c0,4.738,0,9.477,0,14.216
			c7.73,0.436,16.271,0.063,24.315,0.187c0,4.489,0,8.978,0,13.467c-7.246,0-17.069,0.003-24.315,0c0,5.924,0,11.847,0,17.77
			c8.666,0.437,18.143,0.063,27.121,0.187c0,4.552,0,9.103,0,13.655c-12.781,0-25.563,0-38.344,0c0-24.191,0-48.383,0-72.573
			C149.48,197.617,149.464,197.354,149.683,197.322z"/>
		<path fill-rule="evenodd" clip-rule="evenodd" fill="#FFFFFF" d="M197.939,197.322c11.103,1.223,23.579-2.242,31.984,1.495
			c12.809,5.697,12.153,36.5-2.618,39.467c1.469,2.317,3.429,4.335,4.862,6.921c4.199,7.575,7.303,17.036,11.036,25.251
			c-4.364,0-8.729,0-13.093,0c-3.025-6.698-6.776-15.242-10.474-22.633c-2.043-4.083-3.542-8.263-10.475-7.294
			c-0.437,9.601-0.063,20.013-0.188,29.927c-3.682-0.122-7.852,0.244-11.222-0.188c0-24.128,0-48.257,0-72.386
			C197.737,197.617,197.722,197.354,197.939,197.322z M208.975,211.537c0,5.361,0,10.724,0,16.086
			c5.785-0.779,11.251,1.345,15.525-0.936c4.443-2.371,4.03-13.448-0.561-15.338c-3.982-1.638-9.799,0.452-14.776-0.374
			C208.944,211.007,208.96,211.271,208.975,211.537z"/>
		<path fill-rule="evenodd" clip-rule="evenodd" fill="#E20A17" d="M108.907,210.976c4.159,0.215,9.368-0.548,12.532,0.936
			c5.498,2.577,6.386,11.688,6.733,20.388c0.297,7.422-0.383,18.806-4.488,22.445c-3.293,2.92-9.192,1.837-14.964,2.057
			c0-15.087,0-30.176,0-45.264C108.705,211.271,108.689,211.007,108.907,210.976z"/>
		<path fill-rule="evenodd" clip-rule="evenodd" fill="#E20A17" d="M209.163,210.976c4.978,0.826,10.794-1.264,14.776,0.374
			c4.591,1.89,5.004,12.967,0.561,15.338c-4.274,2.28-9.74,0.156-15.525,0.936c0-5.362,0-10.725,0-16.086
			C208.96,211.271,208.944,211.007,209.163,210.976z"/>
		<path fill-rule="evenodd" clip-rule="evenodd" fill="#E20A17" d="M25.113,17.013c0.014-0.002,0.044-0.176,0.187-0.187
			c9.045-0.664,18.46,0,27.496,0c59.326,0,118.575,0,178.625,0c4.678,0,9.486-0.492,13.468,0.187
			c9.175,1.565,7.669,11.542,7.669,22.82c0,73.362,0,145.93,0,219.961c0,10.753,1.61,21.377-7.295,23.192
			c-3.759,0.768-8.787,0.188-13.654,0.188c-64.487,0-128.638-0.001-193.215,0c-4.635,0-9.551,0.55-13.466-0.188
			c-8.555-1.61-7.482-9.604-7.482-20.387c0-58.632,0-117.554,0-175.82c0-14.349,0-32.017,0-48.07c0-5.545-0.616-11.777,0.561-15.338
			C19.251,19.601,21.612,17.61,25.113,17.013z M154.732,151.496c4.599-8.308,7.755-18.057,8.043-30.675
			c-0.695-0.427-1.875-0.368-2.618-0.748c4.973-6.34,5.246-18.618,2.244-27.495c-1.321-3.908-4.006-7.446-5.05-11.409
			c-1.215-4.618,0.36-9.829,0.562-14.403c0.569-12.959-0.362-28.506-6.547-34.416c-1.769-1.69-5.32-3.771-8.603-3.554
			c-5.856,0.386-8.619,8.39-8.604,14.963c0.018,8.56,0.378,17.742,0.187,26.186c10.692-1.36,13.65,4.589,17.208,11.783
			c3.445,6.964,5.853,17.381,0.936,23.941c0.823,4.018,0.116,7.469-1.497,10.101c-1.044,1.704-2.846,2.743-3.928,4.489
			c-1.454,2.35-2.021,5.076-3.741,7.107c-0.897,1.063-1.976,1.381-2.805,2.619c2.926,13.874-11.133,13.427-23.006,13.654
			c-1.154,1.091-1.967,2.522-3.554,3.179c0.096,0.872,0.367,1.668-0.187,2.245c-1.118,1.376-3.809,1.18-5.799,1.683
			c2.885,0.232,6.022,0.212,8.417,0.935c-7.229,1.021-15.544-0.174-18.892-3.553c4.113-0.377,10.458,1.739,13.093-0.749
			c0.177-1.363-2.392-1.596-2.992-2.805c2.01-0.703,4.958,0.653,6.546-0.188c-0.467-3.024-6.19-0.792-6.733-3.741
			c1.895-2.192,4.826-0.889,7.855-0.561c8.765,0.948,24.148,0.781,22.259-9.539c-1.012-5.521-8.034-7.592-14.029-7.856
			c-1.351-0.059-2.851,0.371-4.302,0.188c-1.194-0.152-2.081-1.232-3.928-1.123c-1.316,0.079-2.152,1.492-3.553,0.562
			c0.661-2.02,2.048-3.314,3.741-4.303c-0.005,1.932,0.275,1.972,1.123,2.432c2.189,1.188,7.847-0.181,11.97,0.187
			c2.267,0.203,4.049,1.086,5.237,2.058c1.636,1.337,1.944,3.082,3.555,3.367c2.084,0.369,6.278-2.398,6.733-3.554
			c1.282-3.257-1.555-8.274-1.87-11.223c0.255,2.366-0.88,4.355-1.871,6.36c-0.728,1.473-1.9,3.133-3.367,1.683
			c1.283-2.771,3.093-5.012,3.928-8.229c-0.03-0.779,1.051-0.446,1.123-1.123c-1.877-9.282-19.609-5.17-28.992-5.05
			c0.853-1.205,1.67-2.445,2.619-3.554c6.25,2.875,15.142-1.519,21.697,0.748c1.039,0.36,2.28,1.366,2.992,2.058
			c2.758,2.682,4.594,6.875,4.676,12.158c10.092-2.311,4.88-16.438,0.748-21.51c-0.308,3.682,0.07,8.051-3.367,8.604
			c-1.457-1.494,0.599-2.522,1.123-3.928c0.57-1.53,0.251-3.118,0.374-5.237c-0.111-0.797,0.79-0.583,1.123-0.935
			c-2.199-4.393-8.108-7.662-15.712-7.108c-7.245,0.527-15.285,3.125-25.251,3.928c-9.475,0.763-19.672,0.717-23.941,5.424
			c-1.203,1.326-1.98,3.213-1.684,5.611c0.554,4.477,3.855,8.078,6.172,11.784c0.865,0.195,2.607-0.487,2.619,0.561
			c-0.058,1.688-2.12,1.372-3.554,1.684c-1.074,1.435-2.696,2.243-2.619,4.488c0.061,1.741,2.045,4.197,2.993,5.611
			c1.21,1.806,2.933,3.713,3.18,5.612c0.351,2.698-1.662,6.384-1.31,9.539c0.773,6.906,6.669,9.915,11.41,13.28
			c9.252,6.566,18.325,17.341,33.667,14.589c1.719,6.477-5.715,4.317-8.978,2.993c-6.993-2.839-13.731-8.119-18.892-10.662
			c7.726,10.672,18.781,21.194,37.783,20.013c12.629-0.785,21.308-7.763,25.064-18.143c0.941-2.601,3.014-8.633,2.245-12.345
			c-0.329-1.583-1.924-3.46-2.806-5.05c-0.984-1.773-1.73-3.494-2.993-4.864C162.155,146.324,158.526,148.993,154.732,151.496z
			 M139.77,72.19c-1.597-0.25-4.024,0.104-5.798,0.187c-4.158,0.193-8.523,0.247-12.906,0.561c-4.108,0.294-8.181,1.112-12.158,1.31
			c-4.94,0.246-9.486-1.431-13.653-1.496c-4.236-0.067-9.021,1.783-9.914,4.489c-1.528,4.633,1.191,8.132,1.497,12.158
			c7.45-1.331,15.646-2.086,23.754-3.367c6.192-0.977,12.458-2.633,18.331-2.618c12.856,0.032,19.785,8.021,23.193,18.517
			c2.166-7.359-0.285-15.981-3.179-21.136c-1.523,1.469-0.3,5.685-2.807,6.172c-1.493-3.224,1.688-6.339,0.935-10.661
			C145.464,75.043,142.616,72.637,139.77,72.19z M30.911,197.883c0,24.003,0,48.008,0,72.012c11.784,0,23.567,0,35.352,0
			c0-4.552,0-9.103,0-13.654c-8.105,0-16.21,0-24.316,0c0-19.64,0-39.279,0-58.918c-3.616,0-7.232,0-10.849,0
			C30.88,197.354,30.895,197.617,30.911,197.883z M76.362,197.883c0,24.19,0,48.382,0,72.573c3.678,0,7.357,0,11.035,0
			c0-24.378,0-48.757,0-73.134c-3.616,0-7.232,0-10.848,0C76.331,197.354,76.346,197.617,76.362,197.883z M97.498,197.883
			c0,24.19,0,48.382,0,72.573c10.377-0.831,19.634,1.587,27.122-1.123c12.891-4.665,15.358-23.403,14.776-40.214
			c-0.436-12.592-4.118-24.834-11.971-29.553c-7.06-4.243-19.176-1.378-29.74-2.244C97.467,197.354,97.481,197.617,97.498,197.883z
			 M149.496,197.883c0,24.19,0,48.382,0,72.573c12.781,0,25.563,0,38.344,0c0-4.553,0-9.104,0-13.655
			c-8.978-0.124-18.456,0.25-27.121-0.187c0-5.923,0-11.846,0-17.77c7.246,0.003,17.069,0,24.315,0c0-4.489,0-8.978,0-13.467
			c-8.044-0.124-16.585,0.249-24.315-0.187c0-4.739,0-9.478,0-14.216c8.667-0.123,17.83,0.249,26.186-0.187
			c-0.123-4.43,0.246-9.35-0.188-13.467c-12.345,0-24.69,0-37.035,0C149.464,197.354,149.48,197.617,149.496,197.883z
			 M197.753,197.883c0,24.129,0,48.258,0,72.386c3.37,0.432,7.541,0.065,11.222,0.188c0.125-9.914-0.249-20.326,0.188-29.927
			c6.933-0.969,8.431,3.211,10.475,7.294c3.698,7.391,7.449,15.935,10.474,22.633c4.363,0,8.729,0,13.093,0
			c-3.733-8.215-6.837-17.676-11.036-25.251c-1.433-2.586-3.393-4.604-4.862-6.921c14.771-2.967,15.426-33.77,2.618-39.467
			c-8.406-3.737-20.882-0.272-31.984-1.495C197.722,197.354,197.737,197.617,197.753,197.883z"/>
		<path fill-rule="evenodd" clip-rule="evenodd" fill="#E20A17" d="M146.128,155.986c5.294,3.594,2.03,11.602-1.683,15.898
			c-2.079,2.406-5.416,5.249-8.23,3.554c0.249-3.026,3.039-4.868,5.051-6.921C144.523,165.195,149.325,162.118,146.128,155.986z"/>
	</g>
</g>
</svg>
