<?xml version="1.0" encoding="UTF-8" standalone="no"?>
<svg
   xmlns:dc="http://purl.org/dc/elements/1.1/"
   xmlns:cc="http://creativecommons.org/ns#"
   xmlns:rdf="http://www.w3.org/1999/02/22-rdf-syntax-ns#"
   xmlns:svg="http://www.w3.org/2000/svg"
   xmlns="http://www.w3.org/2000/svg"
   xmlns:sodipodi="http://sodipodi.sourceforge.net/DTD/sodipodi-0.dtd"
   xmlns:inkscape="http://www.inkscape.org/namespaces/inkscape"
   version="1.0"
   width="620.000000pt"
   height="549.000000pt"
   viewBox="0 0 620.000000 549.000000"
   preserveAspectRatio="xMidYMid meet"
   id="svg2"
   inkscape:version="0.48.5 r10040"
   sodipodi:docname="MNR.svg">
  <defs
     id="defs66" />
  <sodipodi:namedview
     pagecolor="#ffffff"
     bordercolor="#666666"
     borderopacity="1"
     objecttolerance="10"
     gridtolerance="10"
     guidetolerance="10"
     inkscape:pageopacity="0"
     inkscape:pageshadow="2"
     inkscape:window-width="1680"
     inkscape:window-height="984"
     id="namedview64"
     showgrid="false"
     showguides="true"
     inkscape:guide-bbox="true"
     inkscape:zoom="0.70710678"
     inkscape:cx="227.20394"
     inkscape:cy="393.41538"
     inkscape:window-x="0"
     inkscape:window-y="27"
     inkscape:window-maximized="1"
     inkscape:current-layer="layer2">
    <sodipodi:guide
       orientation="1,0"
       position="69.246094,56.574219"
       id="guide4053" />
    <sodipodi:guide
       orientation="1,0"
       position="662.9961,109.64453"
       id="guide3135" />
  </sodipodi:namedview>
  <metadata
     id="metadata4">
Created by potrace 1.11, written by Peter Selinger 2001-2013
<rdf:RDF>
  <cc:Work
     rdf:about="">
    <dc:format>image/svg+xml</dc:format>
    <dc:type
       rdf:resource="http://purl.org/dc/dcmitype/StillImage" />
  </cc:Work>
</rdf:RDF>
</metadata>
  <g
     inkscape:groupmode="layer"
     id="layer1"
     inkscape:label="Layer"
     style="display:none">
    <g
       style="fill:#000000;stroke:none"
       transform="matrix(0.1,0,0,-0.1,-5.6,550.9)"
       id="g6">
      <path
         inkscape:connector-curvature="0"
         d="m 5600,5053 c -30,-27 -31,-31 -41,-153 -22,-277 -68,-370 -185,-370 -72,0 -143,28 -382,150 -231,118 -272,130 -474,130 -165,0 -288,-15 -648,-80 -359,-65 -587,-91 -847,-97 -345,-9 -512,15 -689,96 -129,59 -178,64 -290,30 -94,-29 -156,-29 -192,-1 -51,42 -116,82 -132,82 -10,0 -25,-20 -39,-55 -28,-68 -54,-101 -94,-122 l -31,-16 35,34 c 45,42 77,105 85,163 6,39 4,45 -14,51 -27,8 -83,-7 -119,-32 -51,-35 -58,-37 -29,-5 l 30,32 -60,0 c -49,1 -56,3 -39,12 11,6 22,13 24,15 8,6 -52,63 -66,63 -8,0 -33,-20 -57,-45 -25,-25 -52,-45 -61,-45 -9,0 -57,-21 -107,-46 -92,-48 -188,-126 -213,-173 -7,-15 -52,-66 -99,-115 -47,-49 -86,-97 -86,-107 0,-16 8,-18 65,-15 36,2 65,0 65,-4 0,-4 -9,-15 -19,-24 -17,-16 -25,-16 -56,-6 -47,15 -60,4 -60,-53 0,-28 8,-53 24,-75 21,-31 27,-33 60,-28 109,18 121,18 136,6 8,-7 15,-17 15,-23 0,-5 -8,-3 -18,6 -25,23 -60,21 -99,-5 -37,-26 -39,-34 -17,-66 39,-56 109,-64 169,-18 22,17 55,28 106,35 41,6 101,22 134,36 35,14 80,25 108,25 54,0 79,10 119,48 16,14 28,21 28,15 0,-6 -16,-25 -35,-41 -35,-31 -53,-36 -154,-46 -30,-3 -59,-10 -65,-16 -7,-7 23,-8 95,-4 172,11 206,-10 218,-138 l 7,-73 31,65 c 19,38 32,57 32,44 1,-27 -41,-110 -79,-156 -23,-28 -46,-42 -93,-57 -103,-31 -446,-170 -532,-214 -85,-45 -155,-100 -155,-124 0,-29 63,-103 94,-111 21,-6 32,-15 34,-30 2,-15 13,-24 30,-28 15,-3 35,-10 45,-15 9,-5 28,-7 42,-3 16,4 25,2 25,-6 0,-21 86,51 142,118 74,90 123,123 185,125 36,2 48,-2 48,-13 0,-8 -54,-52 -120,-97 -249,-172 -440,-335 -477,-406 -12,-24 -21,-69 -25,-123 -5,-72 -3,-87 12,-104 10,-11 24,-20 30,-20 7,0 15,-8 18,-19 6,-23 82,-34 110,-15 10,6 26,10 35,8 20,-5 31,2 60,40 17,22 22,42 22,91 l 0,62 79,76 c 87,85 126,106 291,156 278,84 381,132 555,255 59,42 117,76 129,76 11,0 93,-14 181,-31 323,-63 566,-37 1009,108 77,25 175,60 218,79 106,45 193,67 237,59 96,-17 111,-26 153,-92 71,-112 143,-154 339,-197 30,-7 54,-53 44,-85 -3,-11 -24,-35 -45,-54 -75,-64 -88,-127 -44,-215 41,-82 96,-111 166,-86 95,33 181,126 208,227 6,20 14,37 19,37 4,0 38,-31 74,-69 85,-87 86,-105 16,-174 -28,-27 -55,-61 -60,-74 -24,-63 3,-147 66,-202 35,-30 43,-33 87,-29 128,13 258,176 246,308 -4,40 -19,72 -68,153 -68,108 -101,171 -149,278 -28,64 -31,68 -82,87 -30,11 -70,23 -89,27 -23,5 -54,27 -96,69 -97,97 -98,102 -95,301 3,206 -12,293 -70,412 -21,45 -62,106 -89,136 -28,30 -50,60 -50,66 0,27 47,36 180,35 207,-1 265,-18 494,-149 83,-46 179,-94 214,-106 122,-40 320,-23 397,36 40,30 79,102 107,200 18,65 22,105 23,215 0,117 -3,141 -22,182 -30,66 -54,76 -93,41 z"
         id="path8" />
      <path
         inkscape:connector-curvature="0"
         d="m 600,1800 0,-910 220,0 220,0 0,677 c 0,372 3,674 6,670 5,-5 253,-1314 254,-1339 0,-5 76,-8 169,-8 153,0 170,2 175,18 3,9 59,310 126,667 66,358 122,655 124,660 3,6 5,-295 5,-667 l 1,-678 220,0 220,0 0,910 0,910 -337,-2 -337,-3 -96,-538 c -54,-309 -98,-530 -102,-520 -6,16 -188,1037 -188,1056 0,4 -153,7 -340,7 l -340,0 0,-910 z"
         id="path10" />
      <path
         inkscape:connector-curvature="0"
         d="m 2550,1800 0,-910 220,0 220,0 0,563 c 0,309 4,555 9,547 4,-8 77,-261 161,-562 l 153,-548 259,0 258,0 0,910 0,910 -220,0 -220,0 -2,-562 -3,-563 -149,545 c -82,300 -151,553 -154,563 -4,16 -25,17 -268,17 l -264,0 0,-910 z"
         id="path12" />
      <path
         inkscape:connector-curvature="0"
         d="m 4060,1801 0,-911 235,0 235,0 0,366 0,366 94,-4 c 169,-7 177,-22 187,-358 5,-170 12,-263 23,-303 9,-32 16,-60 16,-62 0,-3 115,-5 255,-5 143,0 255,4 255,9 0,5 -13,23 -29,40 -15,16 -32,45 -36,63 -4,18 -10,146 -14,283 -8,273 -18,325 -77,402 -29,39 -107,79 -176,92 l -43,7 55,17 c 168,50 251,183 253,407 2,264 -98,413 -320,477 -49,14 -127,17 -485,21 l -428,4 0,-911 z m 679,541 c 54,-28 81,-87 81,-182 0,-62 -5,-86 -26,-127 -34,-70 -81,-93 -187,-93 l -77,0 0,216 0,217 86,-6 c 53,-4 100,-13 123,-25 z"
         id="path14" />
      <path
         inkscape:connector-curvature="0"
         d="m 930,718 c -14,-8 -30,-29 -37,-48 -24,-70 -9,-181 27,-200 32,-17 98,-12 119,9 38,38 39,176 3,221 -21,26 -79,35 -112,18 z"
         id="path16" />
      <path
         inkscape:connector-curvature="0"
         d="m 2373,720 c -12,-5 -26,-17 -31,-27 -29,-55 -24,-181 9,-214 21,-21 87,-26 119,-9 39,21 53,138 25,205 -19,48 -69,66 -122,45 z"
         id="path18" />
      <path
         inkscape:connector-curvature="0"
         d="m 5034,718 c -32,-15 -44,-51 -44,-132 0,-98 20,-126 89,-126 57,0 82,22 84,72 2,30 -1,33 -30,36 -29,3 -32,1 -35,-30 -2,-21 -8,-33 -18,-33 -12,0 -15,16 -15,85 0,69 3,85 15,85 8,0 16,-10 18,-22 3,-19 10,-23 38,-23 31,0 35,3 30,20 -3,11 -8,28 -11,38 -10,36 -76,52 -121,30 z"
         id="path20" />
      <path
         inkscape:connector-curvature="0"
         d="m 610,590 0,-130 30,0 30,0 1,93 1,92 19,-90 c 10,-49 18,-91 19,-92 0,-2 11,-3 24,-3 22,0 25,6 36,73 20,116 29,122 29,20 l 1,-93 30,0 30,0 0,130 0,130 -50,0 c -49,0 -49,0 -56,-37 -3,-21 -9,-54 -13,-73 l -8,-35 -11,53 c -7,29 -12,62 -12,72 0,17 -7,20 -50,20 l -50,0 0,-130 z"
         id="path22" />
      <path
         inkscape:connector-curvature="0"
         d="m 1080,707 c 0,-11 26,-137 45,-224 5,-20 12,-23 49,-23 l 43,0 26,123 c 15,67 27,126 27,130 0,4 -15,7 -34,7 l -34,0 -13,-92 c -14,-102 -21,-96 -34,27 l -7,65 -34,0 c -21,0 -34,-5 -34,-13 z"
         id="path24" />
      <path
         inkscape:connector-curvature="0"
         d="m 1280,590 0,-130 35,0 35,0 0,130 0,130 -35,0 -35,0 0,-130 z"
         id="path26" />
      <path
         inkscape:connector-curvature="0"
         d="m 1380,590 0,-130 30,0 30,0 1,93 1,92 13,-55 c 7,-30 16,-72 19,-92 6,-32 11,-38 31,-38 20,0 25,6 31,38 3,20 12,62 19,92 l 13,55 1,-92 1,-93 30,0 30,0 0,130 0,130 -50,0 c -45,0 -50,-2 -51,-22 0,-13 -6,-45 -13,-73 l -12,-50 -14,73 -13,72 -49,0 -48,0 0,-130 z"
         id="path28" />
      <path
         inkscape:connector-curvature="0"
         d="m 1660,590 0,-130 35,0 35,0 0,130 0,130 -35,0 -35,0 0,-130 z"
         id="path30" />
      <path
         inkscape:connector-curvature="0"
         d="m 1760,590 0,-130 81,0 80,0 -3,28 c -3,25 -7,27 -51,30 -43,3 -48,5 -45,25 2,18 11,23 46,25 37,3 42,6 42,27 0,21 -5,24 -42,27 -35,2 -43,7 -43,23 0,16 8,21 43,23 37,3 42,6 42,28 0,23 -2,24 -75,24 l -75,0 0,-130 z"
         id="path32" />
      <path
         inkscape:connector-curvature="0"
         d="m 1940,590 0,-130 30,0 29,0 3,78 3,77 24,-77 24,-78 39,0 38,0 0,130 0,130 -35,0 -35,0 -1,-72 c -1,-78 -1,-79 -30,35 -9,35 -12,37 -49,37 l -40,0 0,-130 z"
         id="path34" />
      <path
         inkscape:connector-curvature="0"
         d="m 2140,695 c 0,-20 5,-25 25,-25 l 25,0 0,-105 0,-105 35,0 34,0 3,103 c 3,97 4,102 26,105 16,3 22,10 22,28 0,24 -2,24 -85,24 -84,0 -85,0 -85,-25 z"
         id="path36" />
      <path
         inkscape:connector-curvature="0"
         d="m 2630,590 0,-130 30,0 29,0 3,78 3,77 24,-77 24,-78 39,0 38,0 0,130 0,130 -35,0 -35,0 -1,-72 -1,-73 -20,73 -20,72 -39,0 -39,0 0,-130 z"
         id="path38" />
      <path
         inkscape:connector-curvature="0"
         d="m 2850,610 c 0,-132 10,-150 85,-150 75,0 85,18 85,150 l 0,110 -30,0 -30,0 0,-94 c 0,-101 -5,-126 -25,-126 -20,0 -25,25 -25,126 l 0,94 -30,0 -30,0 0,-110 z"
         id="path40" />
      <path
         inkscape:connector-curvature="0"
         d="m 3050,590 0,-130 80,0 80,0 0,30 c 0,29 -2,30 -45,30 -41,0 -45,2 -45,25 0,23 4,25 40,25 36,0 40,3 40,25 0,23 -4,25 -40,25 -36,0 -40,3 -40,25 0,23 4,25 45,25 41,0 45,2 45,25 0,25 -1,25 -80,25 l -80,0 0,-130 z"
         id="path42" />
      <path
         inkscape:connector-curvature="0"
         d="m 3224,698 c 3,-13 16,-71 28,-130 l 22,-108 42,0 c 49,0 43,-11 77,148 l 25,113 -37,-3 -36,-3 -12,-83 c -6,-46 -13,-86 -16,-88 -2,-3 -8,24 -11,58 -14,116 -14,118 -53,118 -32,0 -35,-2 -29,-22 z"
         id="path44" />
      <path
         inkscape:connector-curvature="0"
         d="m 3451,683 c -16,-60 -51,-207 -51,-215 0,-5 15,-8 34,-8 28,0 35,4 38,23 2,15 11,23 29,25 21,2 28,-2 33,-22 5,-22 12,-26 42,-26 25,0 35,4 32,13 -3,6 -18,65 -34,130 l -28,117 -43,0 c -40,0 -43,-2 -52,-37 z"
         id="path46" />
      <path
         inkscape:connector-curvature="0"
         d="m 3720,589 0,-130 33,3 c 31,3 32,4 35,56 2,28 6,52 11,52 18,0 31,-28 31,-67 0,-42 1,-43 34,-43 l 33,0 -5,53 c -2,28 -10,58 -18,66 -11,12 -10,16 3,27 24,17 23,82 -2,100 -12,9 -45,14 -87,14 l -68,0 0,-131 z"
         id="path48" />
      <path
         inkscape:connector-curvature="0"
         d="m 3930,590 0,-130 81,0 80,0 -3,28 c -3,24 -7,27 -45,30 -38,3 -43,6 -43,28 0,21 4,24 40,24 36,0 40,3 40,25 0,23 -4,25 -40,25 -36,0 -40,3 -40,25 0,23 4,25 40,25 36,0 40,3 40,25 0,24 -2,25 -75,25 l -75,0 0,-130 z"
         id="path50" />
      <path
         inkscape:connector-curvature="0"
         d="m 4110,590 0,-130 35,0 35,0 0,49 0,48 39,7 c 67,10 93,76 50,130 -19,24 -27,26 -90,26 l -69,0 0,-130 z"
         id="path52" />
      <path
         inkscape:connector-curvature="0"
         d="m 4312,604 c 4,-134 10,-144 88,-144 73,0 84,18 88,151 l 4,109 -36,0 -35,0 -3,-107 c -2,-88 -6,-108 -18,-108 -12,0 -16,20 -18,108 l -3,107 -35,0 -36,0 4,-116 z"
         id="path54" />
      <path
         inkscape:connector-curvature="0"
         d="m 4520,590 0,-130 64,0 c 49,0 69,5 90,21 33,26 36,81 6,102 -18,13 -19,16 -5,27 20,16 19,74 -1,94 -11,12 -35,16 -85,16 l -69,0 0,-130 z"
         id="path56" />
      <path
         inkscape:connector-curvature="0"
         d="m 4730,590 0,-130 75,0 75,0 0,30 c 0,28 -2,30 -40,30 l -40,0 0,100 0,100 -35,0 -35,0 0,-130 z"
         id="path58" />
      <path
         inkscape:connector-curvature="0"
         d="m 4900,590 0,-130 30,0 30,0 0,130 0,130 -30,0 -30,0 0,-130 z"
         id="path60" />
      <path
         inkscape:connector-curvature="0"
         d="m 5204,590 -31,-131 36,3 c 29,2 37,8 39,26 3,17 10,22 33,22 24,0 29,-4 29,-25 0,-22 4,-25 35,-25 21,0 35,5 35,13 0,6 -13,64 -28,127 l -27,115 -45,3 -45,3 -31,-131 z"
         id="path62" />
    </g>
  </g>
  <g
     inkscape:groupmode="layer"
     id="layer2"
     inkscape:label="Layer#1"
     style="display:inline">
    <path
       style="fill:#dc2b30;stroke:none;fill-opacity:1"
       id="path8-0"
       d="m 554.4,45.6 c -3,2.7 -3.1,3.1 -4.1,15.3 -2.2,27.7 -6.8,37 -18.5,37 -7.2,0 -14.3,-2.8 -38.2,-15 -23.1,-11.8 -27.2,-13 -47.4,-13 -16.5,0 -28.8,1.5 -64.8,8 -35.9,6.5 -58.7,9.1 -84.7,9.7 -34.5,0.9 -51.2,-1.5 -68.9,-9.6 -12.9,-5.9 -17.8,-6.4 -29,-3 -9.4,2.9 -15.6,2.9 -19.2,0.1 -5.1,-4.2 -11.6,-8.2 -13.2,-8.2 -1,0 -2.5,2 -3.9,5.5 -2.8,6.8 -5.4,10.1 -9.4,12.2 l -3.1,1.6 3.5,-3.4 c 4.5,-4.2 7.7,-10.5 8.5,-16.3 0.6,-3.9 0.4,-4.5 -1.4,-5.1 -2.7,-0.8 -8.3,0.7 -11.9,3.2 -5.1,3.5 -5.8,3.7 -2.9,0.5 l 3,-3.2 -6,0 c -4.9,-0.1 -5.6,-0.3 -3.9,-1.2 1.1,-0.6 2.2,-1.3 2.4,-1.5 0.8,-0.6 -5.2,-6.3 -6.6,-6.3 -0.8,0 -3.3,2 -5.7,4.5 -2.5,2.5 -5.2,4.5 -6.1,4.5 -0.9,0 -5.7,2.1 -10.7,4.6 -9.2,4.8 -18.8,12.6 -21.3,17.3 -0.7,1.5 -5.2,6.6 -9.9,11.5 -4.7,4.9 -8.6,9.7 -8.6,10.7 0,1.6 0.8,1.8 6.5,1.5 3.6,-0.2 6.5,0 6.5,0.4 0,0.4 -0.9,1.5 -1.9,2.4 -1.7,1.6 -2.5,1.6 -5.6,0.6 -4.7,-1.5 -6,-0.4 -6,5.3 0,2.8 0.8,5.3 2.4,7.5 2.1,3.1 2.7,3.3 6,2.8 10.9,-1.8 12.1,-1.8 13.6,-0.6 0.8,0.7 1.5,1.7 1.5,2.3 0,0.5 -0.8,0.3 -1.8,-0.6 -2.5,-2.3 -6,-2.1 -9.9,0.5 -3.7,2.6 -3.9,3.4 -1.7,6.6 3.9,5.6 10.9,6.4 16.9,1.8 2.2,-1.7 5.5,-2.8 10.6,-3.5 4.1,-0.6 10.1,-2.2 13.4,-3.6 3.5,-1.4 8,-2.5 10.8,-2.5 5.4,0 7.9,-1 11.9,-4.8 1.6,-1.4 2.8,-2.1 2.8,-1.5 0,0.6 -1.6,2.5 -3.5,4.1 -3.5,3.1 -5.3,3.6 -15.4,4.6 -3,0.3 -5.9,1 -6.5,1.6 -0.7,0.7 2.3,0.8 9.5,0.4 17.2,-1.1 20.6,1 21.8,13.8 l 0.7,7.3 3.1,-6.5 c 1.9,-3.8 3.2,-5.7 3.2,-4.4 0.1,2.7 -4.1,11 -7.9,15.6 -2.3,2.8 -4.6,4.2 -9.3,5.7 -10.3,3.1 -44.6,17 -53.2,21.4 -8.5,4.5 -15.5,10 -15.5,12.4 0,2.9 6.3,10.3 9.4,11.1 2.1,0.6 3.2,1.5 3.4,3 0.2,1.5 1.3,2.4 3,2.8 1.5,0.3 3.5,1 4.5,1.5 0.9,0.5 2.8,0.7 4.2,0.3 1.6,-0.4 2.5,-0.2 2.5,0.6 0,2.1 8.6,-5.1 14.2,-11.8 7.4,-9 12.3,-12.3 18.5,-12.5 3.6,-0.2 4.8,0.2 4.8,1.3 0,0.8 -5.4,5.2 -12,9.7 -24.9,17.2 -44,33.5 -47.7,40.6 -1.2,2.4 -2.1,6.9 -2.5,12.3 -0.5,7.2 -0.3,8.7 1.2,10.4 1,1.1 2.4,2 3,2 0.7,0 1.5,0.8 1.8,1.9 0.6,2.3 8.2,3.4 11,1.5 1,-0.6 2.6,-1 3.5,-0.8 2,0.5 3.1,-0.2 6,-4 1.7,-2.2 2.2,-4.2 2.2,-9.1 l 0,-6.2 7.9,-7.6 c 8.7,-8.5 12.6,-10.6 29.1,-15.6 27.8,-8.4 38.1,-13.2 55.5,-25.5 5.9,-4.2 11.7,-7.6 12.9,-7.6 1.1,0 9.3,1.4 18.1,3.1 32.3,6.3 56.6,3.7 100.9,-10.8 7.7,-2.5 17.5,-6 21.8,-7.9 10.6,-4.5 19.3,-6.7 23.7,-5.9 9.6,1.7 11.1,2.6 15.3,9.2 7.1,11.2 14.3,15.4 33.9,19.7 3,0.7 5.4,5.3 4.4,8.5 -0.3,1.1 -2.4,3.5 -4.5,5.4 -7.5,6.4 -8.8,12.7 -4.4,21.5 4.1,8.2 9.6,11.1 16.6,8.6 9.5,-3.3 18.1,-12.6 20.8,-22.7 0.6,-2 1.4,-3.7 1.9,-3.7 0.4,0 3.8,3.1 7.4,6.9 8.5,8.7 8.6,10.5 1.6,17.4 -2.8,2.7 -5.5,6.1 -6,7.4 -2.4,6.3 0.3,14.7 6.6,20.2 3.5,3 4.3,3.3 8.7,2.9 12.8,-1.3 25.8,-17.6 24.6,-30.8 -0.4,-4 -1.9,-7.2 -6.8,-15.3 -6.8,-10.8 -10.1,-17.1 -14.9,-27.8 -2.8,-6.4 -3.1,-6.8 -8.2,-8.7 -3,-1.1 -7,-2.3 -8.9,-2.7 -2.3,-0.5 -5.4,-2.7 -9.6,-6.9 -9.7,-9.7 -9.8,-10.2 -9.5,-30.1 0.3,-20.6 -1.2,-29.3 -7,-41.2 -2.1,-4.5 -6.2,-10.6 -8.9,-13.6 -2.8,-3 -5,-6 -5,-6.6 0,-2.7 4.7,-3.6 18,-3.5 20.7,0.1 26.5,1.8 49.4,14.9 8.3,4.6 17.9,9.4 21.4,10.6 12.2,4 32,2.3 39.7,-3.6 4,-3 7.9,-10.2 10.7,-20 1.8,-6.5 2.2,-10.5 2.3,-21.5 0,-11.7 -0.3,-14.1 -2.2,-18.2 -3,-6.6 -5.4,-7.6 -9.3,-4.1 z"
       inkscape:connector-curvature="0" />
    <path
       style="fill:#000000;stroke:none"
       id="path10-3"
       d="m 54.4,370.9 0,91 22,0 22,0 0,-67.7 c 0,-37.2 0.3,-67.4 0.6,-67 0.5,0.5 25.3,131.4 25.4,133.9 0,0.5 7.6,0.8 16.9,0.8 15.3,0 17,-0.2 17.5,-1.8 0.3,-0.9 5.9,-31 12.6,-66.7 6.6,-35.8 12.2,-65.5 12.4,-66 0.3,-0.6 0.5,29.5 0.5,66.7 l 0.1,67.8 22,0 22,0 0,-91 0,-91 -33.7,0.2 -33.7,0.3 -9.6,53.8 c -5.4,30.9 -9.8,53 -10.2,52 -0.6,-1.6 -18.8,-103.7 -18.8,-105.6 0,-0.4 -15.3,-0.7 -34,-0.7 l -34,0 0,91 z"
       inkscape:connector-curvature="0" />
    <path
       style="fill:#dc2b30;stroke:none;fill-opacity:1"
       id="path12-9"
       d="m 249.4,370.9 0,91 22,0 22,0 0,-56.3 c 0,-30.9 0.4,-55.5 0.9,-54.7 0.4,0.8 7.7,26.1 16.1,56.2 l 15.3,54.8 25.9,0 25.8,0 0,-91 0,-91 -22,0 -22,0 -0.2,56.2 -0.3,56.3 -14.9,-54.5 c -8.2,-30 -15.1,-55.3 -15.4,-56.3 -0.4,-1.6 -2.5,-1.7 -26.8,-1.7 l -26.4,0 0,91 z"
       inkscape:connector-curvature="0" />
    <path
       style="fill:#000000;stroke:none"
       id="path14-3"
       d="m 400.4,370.8 0,91.1 23.5,0 23.5,0 0,-36.6 0,-36.6 9.4,0.4 c 16.9,0.7 17.7,2.2 18.7,35.8 0.5,17 1.2,26.3 2.3,30.3 0.9,3.2 1.6,6 1.6,6.2 0,0.3 11.5,0.5 25.5,0.5 14.3,0 25.5,-0.4 25.5,-0.9 0,-0.5 -1.3,-2.3 -2.9,-4 -1.5,-1.6 -3.2,-4.5 -3.6,-6.3 -0.4,-1.8 -1,-14.6 -1.4,-28.3 -0.8,-27.3 -1.8,-32.5 -7.7,-40.2 -2.9,-3.9 -10.7,-7.9 -17.6,-9.2 l -4.3,-0.7 5.5,-1.7 c 16.8,-5 25.1,-18.3 25.3,-40.7 0.2,-26.4 -9.8,-41.3 -32,-47.7 -4.9,-1.4 -12.7,-1.7 -48.5,-2.1 l -42.8,-0.4 0,91.1 z m 67.9,-54.1 c 5.4,2.8 8.1,8.7 8.1,18.2 0,6.2 -0.5,8.6 -2.6,12.7 -3.4,7 -8.1,9.3 -18.7,9.3 l -7.7,0 0,-21.6 0,-21.7 8.6,0.6 c 5.3,0.4 10,1.3 12.3,2.5 z"
       inkscape:connector-curvature="0" />
    <flowRoot
       xml:space="preserve"
       id="flowRoot4045"
       style="font-size:10px;font-style:normal;font-variant:normal;font-weight:500;font-stretch:normal;line-height:125%;letter-spacing:-0.20000000000000001px;word-spacing:0px;fill:#000000;fill-opacity:1;stroke:none;font-family:WenQuanYi Zen Hei;-inkscape-font-specification:WenQuanYi Zen Hei Medium"
       transform="matrix(0.8,0,0,0.8,-2.3242642,-54.82998)"><flowRegion
         id="flowRegion4047"><rect
           id="rect4049"
           width="246.81061"
           height="97.849731"
           x="69.395149"
           y="655.40771"
           style="font-style:normal;font-variant:normal;font-weight:500;font-stretch:normal;fill:#000000;fill-opacity:1;font-family:WenQuanYi Zen Hei;-inkscape-font-specification:WenQuanYi Zen Hei Medium" /></flowRegion><flowPara
         id="flowPara4051"
         style="font-size:42px;font-style:normal;font-variant:normal;font-weight:bold;font-stretch:normal;fill:#000000;fill-opacity:1;font-family:OldSansBlack;-inkscape-font-specification:OldSansBlack Bold"><flowSpan
   style="letter-spacing:-1.37999999999999989px;-inkscape-font-specification:OldSansBlack Bold;font-family:OldSansBlack;font-weight:bold;font-style:normal;font-stretch:normal;font-variant:normal;font-size:42px;fill:#000000"
   id="flowSpan4073">MOVIMIENT</flowSpan>O</flowPara></flowRoot>    <flowRoot
       xml:space="preserve"
       id="flowRoot3093"
       style="font-size:10px;font-style:normal;font-variant:normal;font-weight:500;font-stretch:normal;line-height:125%;letter-spacing:-15.81999969px;word-spacing:0px;fill:#000000;fill-opacity:1;stroke:none;font-family:OldSansBlack;-inkscape-font-specification:OldSansBlack Medium"
       transform="scale(0.8,0.8)"><flowRegion
         id="flowRegion3095"><rect
           id="rect3097"
           width="130.5"
           height="43"
           x="315.5"
           y="594.25"
           style="font-style:normal;font-variant:normal;font-weight:500;font-stretch:normal;font-family:OldSansBlack;-inkscape-font-specification:OldSansBlack Medium" /></flowRegion><flowPara
         id="flowPara3099" /></flowRoot>    <flowRoot
       xml:space="preserve"
       id="flowRoot3101"
       style="fill:black;stroke:none;stroke-opacity:1;stroke-width:1px;stroke-linejoin:miter;stroke-linecap:butt;fill-opacity:1;font-family:Nimbus Sans L;font-style:normal;font-weight:normal;font-size:10px;line-height:125%;letter-spacing:-15.81999968999999950px;word-spacing:0px;-inkscape-font-specification:Nimbus Sans L;font-stretch:normal;font-variant:normal"><flowRegion
         id="flowRegion3103"><rect
           id="rect3105"
           width="82.25"
           height="76.75"
           x="318.5"
           y="679.75" /></flowRegion><flowPara
         id="flowPara3107"></flowPara></flowRoot>    <flowRoot
       transform="matrix(0.8,0,0,0.8,196.26949,-54.551245)"
       style="font-size:10px;font-style:normal;font-variant:normal;font-weight:500;font-stretch:normal;line-height:125%;letter-spacing:-1.27999996999999999px;word-spacing:0px;fill:#dc2b30;fill-opacity:1;stroke:none;font-family:WenQuanYi Zen Hei;-inkscape-font-specification:WenQuanYi Zen Hei Medium"
       id="flowRoot3117"
       xml:space="preserve"><flowRegion
         id="flowRegion3119"><rect
           style="font-style:normal;font-variant:normal;font-weight:500;font-stretch:normal;letter-spacing:-1.27999996999999999px;fill:#dc2b30;fill-opacity:1;font-family:WenQuanYi Zen Hei;-inkscape-font-specification:WenQuanYi Zen Hei Medium"
           y="655.40771"
           x="69.395149"
           height="97.849731"
           width="246.81061"
           id="rect3121" /></flowRegion><flowPara
         style="font-size:42px;font-style:normal;font-variant:normal;font-weight:bold;font-stretch:normal;letter-spacing:-1.27999996999999999px;fill:#dc2b30;fill-opacity:1;font-family:OldSansBlack;-inkscape-font-specification:OldSansBlack Bold"
         id="flowPara3123">NUEVA</flowPara></flowRoot>    <flowRoot
       xml:space="preserve"
       id="flowRoot3127"
       style="font-size:10px;font-style:normal;font-variant:normal;font-weight:500;font-stretch:normal;line-height:125%;letter-spacing:-1.27999996999999999px;word-spacing:0px;fill:#000000;fill-opacity:1;stroke:none;font-family:WenQuanYi Zen Hei;-inkscape-font-specification:WenQuanYi Zen Hei Medium"
       transform="matrix(0.8,0,0,0.8,302.80224,-54.551245)"><flowRegion
         id="flowRegion3129"><rect
           id="rect3131"
           width="246.81061"
           height="97.849731"
           x="69.395149"
           y="655.40771"
           style="font-style:normal;font-variant:normal;font-weight:500;font-stretch:normal;letter-spacing:-1.27999996999999999px;fill:#000000;fill-opacity:1;font-family:WenQuanYi Zen Hei;-inkscape-font-specification:WenQuanYi Zen Hei Medium" /></flowRegion><flowPara
         id="flowPara3133"
         style="font-size:42px;font-style:normal;font-variant:normal;font-weight:bold;font-stretch:normal;letter-spacing:-1.27999996999999999px;fill:#000000;fill-opacity:1;font-family:OldSansBlack;-inkscape-font-specification:OldSansBlack Bold">REPUBLICA</flowPara></flowRoot>  </g>
</svg>
