<?xml version="1.0" encoding="utf-8"?>
<!-- Generator: Adobe Illustrator 15.0.2, SVG Export Plug-In . SVG Version: 6.00 Build 0)  -->
<!DOCTYPE svg PUBLIC "-//W3C//DTD SVG 1.1//EN" "http://www.w3.org/Graphics/SVG/1.1/DTD/svg11.dtd">
<svg version="1.1" id="Layer_1" xmlns="http://www.w3.org/2000/svg" xmlns:xlink="http://www.w3.org/1999/xlink" x="0px" y="0px"
	 width="300px" height="300px" viewBox="0 0 300 300" enable-background="new 0 0 300 300" xml:space="preserve">
<g>
	<g id="XMLID_1_">
		<g>
			<path fill="#1B1464" d="M299.755,150.004c0,82.713-67.037,149.75-149.75,149.75V0.254
				C232.718,0.254,299.755,67.292,299.755,150.004z"/>
			<path fill="#C1272D" d="M150.004,0.254v299.5c-82.713,0-149.75-67.037-149.75-149.75C0.254,67.292,67.292,0.254,150.004,0.254z"
				/>
		</g>
		<g>
		</g>
	</g>
	<g>
		<g>
			<g>
				<rect x="75.124" y="49.105" fill="#FFFFFF" width="149.749" height="8.496"/>
				<g>
					<path fill="#FFFFFF" d="M149.999,52.918c-8.64,0-15.667-7.026-15.667-15.666c0-8.637,7.027-15.665,15.667-15.665
						c8.639,0,15.666,7.028,15.666,15.665C165.665,45.892,158.638,52.918,149.999,52.918z M149.999,29.553
						c-4.246,0-7.701,3.454-7.701,7.699s3.455,7.701,7.701,7.701c4.245,0,7.7-3.456,7.7-7.701S154.244,29.553,149.999,29.553z"/>
				</g>
			</g>
			<g>
				<g>
					<path fill="#FFFFFF" d="M87.325,77.12c-6.039,0-10.952-4.914-10.952-10.953s4.913-10.952,10.952-10.952
						s10.953,4.913,10.953,10.952S93.364,77.12,87.325,77.12z M87.325,61.587c-2.525,0-4.58,2.056-4.58,4.58
						c0,2.525,2.055,4.581,4.58,4.581s4.58-2.056,4.58-4.581C91.905,63.643,89.851,61.587,87.325,61.587z"/>
				</g>
				<g>
					<rect x="84.936" y="73.934" fill="#FFFFFF" width="4.779" height="85.627"/>
				</g>
				<path fill="#FFFFFF" d="M123.141,159.561c-24.455,30.268-57.26,18.902-70.892,0H123.141z"/>
				<g>
					<path fill="#FFFFFF" d="M55.97,161.949c-0.235,0-0.472-0.034-0.706-0.105c-1.263-0.389-1.969-1.728-1.58-2.987l26.884-87.063
						c0.391-1.264,1.736-1.957,2.988-1.579c1.262,0.391,1.968,1.729,1.579,2.988l-26.883,87.063
						C57.935,161.292,56.988,161.949,55.97,161.949z"/>
				</g>
				<g>
					<path fill="#FFFFFF" d="M118.787,162.905c-1.021,0-1.965-0.656-2.282-1.684L89.622,74.157c-0.39-1.26,0.317-2.598,1.578-2.988
						c1.253-0.387,2.599,0.314,2.989,1.579l26.884,87.064c0.389,1.261-0.318,2.598-1.579,2.986
						C119.259,162.871,119.022,162.905,118.787,162.905z"/>
				</g>
			</g>
			<g>
				<g>
					<path fill="#FFFFFF" d="M211.932,77.12c-6.04,0-10.952-4.914-10.952-10.953s4.912-10.952,10.952-10.952
						c6.039,0,10.952,4.913,10.952,10.952S217.971,77.12,211.932,77.12z M211.932,61.587c-2.525,0-4.58,2.056-4.58,4.58
						c0,2.525,2.055,4.581,4.58,4.581c2.524,0,4.58-2.056,4.58-4.581C216.512,63.643,214.456,61.587,211.932,61.587z"/>
				</g>
				<g>
					<rect x="209.541" y="73.934" fill="#FFFFFF" width="4.779" height="85.627"/>
				</g>
				<path fill="#FFFFFF" d="M247.746,159.561c-24.455,30.268-57.259,18.902-70.892,0H247.746z"/>
				<g>
					<path fill="#FFFFFF" d="M180.575,161.949c-0.234,0-0.472-0.034-0.706-0.105c-1.263-0.389-1.968-1.728-1.58-2.987l26.884-87.063
						c0.391-1.264,1.736-1.957,2.989-1.579c1.262,0.391,1.967,1.729,1.578,2.988l-26.883,87.063
						C182.54,161.292,181.594,161.949,180.575,161.949z"/>
				</g>
				<g>
					<path fill="#FFFFFF" d="M243.391,162.905c-1.019,0-1.961-0.656-2.278-1.684l-26.885-87.064c-0.39-1.26,0.317-2.598,1.579-2.988
						c1.252-0.387,2.598,0.314,2.988,1.579l26.885,87.064c0.386,1.261-0.317,2.598-1.58,2.986
						C243.862,162.871,243.626,162.905,243.391,162.905z"/>
				</g>
			</g>
		</g>
		<g>
			<path fill="#FFFFFF" d="M50.415,198.996h28.808l11.11,29.759l11.03-29.759h28.79v48.911h-17.938v-37.301l-13.823,37.301H82.152
				l-13.798-37.301v37.301H50.415V198.996z"/>
		</g>
		<g>
			<path fill="#FFFFFF" d="M172.818,246.235v-48.909h36.509c6.769,0,11.943,0.396,15.521,1.2c3.578,0.8,6.463,2.283,8.656,4.456
				c2.191,2.165,3.287,4.807,3.287,7.922c0,2.713-0.839,5.053-2.516,7.023c-1.677,1.97-3.984,3.563-6.919,4.789
				c-1.871,0.777-4.435,1.421-7.692,1.935c2.608,0.601,4.51,1.2,5.701,1.801c0.807,0.402,1.974,1.26,3.504,2.573
				c1.531,1.313,2.554,2.325,3.067,3.036l10.609,14.174h-24.752l-11.709-14.945c-1.482-1.935-2.805-3.191-3.964-3.771
				c-1.581-0.759-3.37-1.136-5.368-1.136h-1.935v19.853H172.818z M194.819,217.143h9.236c0.999,0,2.934-0.222,5.804-0.668
				c1.45-0.2,2.635-0.709,3.553-1.531c0.92-0.825,1.379-1.771,1.379-2.839c0-1.581-0.726-2.791-2.177-3.637
				c-1.45-0.844-4.175-1.267-8.173-1.267h-9.622V217.143z"/>
		</g>
	</g>
</g>
</svg>
