<?xml version="1.0" encoding="utf-8"?>
<!-- Generator: Adobe Illustrator 15.0.2, SVG Export Plug-In . SVG Version: 6.00 Build 0)  -->
<!DOCTYPE svg PUBLIC "-//W3C//DTD SVG 1.1//EN" "http://www.w3.org/Graphics/SVG/1.1/DTD/svg11.dtd">
<svg version="1.1" id="Layer_1" xmlns="http://www.w3.org/2000/svg" xmlns:xlink="http://www.w3.org/1999/xlink" x="0px" y="0px"
	 width="180px" height="150px" viewBox="0 0 180 150" enable-background="new 0 0 180 150" xml:space="preserve">
<sodipodi:namedview  width="549.99969px" height="975px" id="base" inkscape:window-y="-4" inkscape:window-x="-4" inkscape:window-height="712" inkscape:window-width="1024" inkscape:current-layer="layer7" inkscape:document-units="px" inkscape:pageshadow="2" inkscape:pageopacity="0.0" inkscape:cy="480.51902" inkscape:cx="95.807324" inkscape:zoom="0.43169689" objecttolerance="10" guidetolerance="10" gridtolerance="10000" bordercolor="#666666" borderopacity="1.0" pagecolor="#ffffff">
	</sodipodi:namedview>
<g id="layer4" inkscape:groupmode="layer" inkscape:label="Piezas">
</g>
<g id="layer5" inkscape:groupmode="layer" inkscape:label="Muebles">
</g>
<g id="layer6" inkscape:groupmode="layer" inkscape:label="Ornamentos">
</g>
<g>
	<g id="XMLID_1_">
		<g>
			<polygon fill="#003399" points="4.838,48.685 102.245,3.44 175.176,48.685 134.34,48.685 109.716,146.554 21.05,146.554 
				45.675,48.685 			"/>
		</g>
		<g>
		</g>
	</g>
	<g>
		<g>
			<path fill="#FFFF33" stroke="#003399" stroke-width="3" stroke-miterlimit="10" d="M152.973,100.835l2.016-11.215l3.629-15.658
				h14.655l-11.409,49.232h-14.331L137.078,96.39l-2.015,11.215l-3.613,15.59h-14.656l11.409-49.232h14.332L152.973,100.835z"/>
		</g>
		<g>
			<path fill="#FFFF33" d="M44.669,121.829L57.197,75.06h19.634c11.712,0,15.717,6.171,13.142,15.785
				c-2.696,10.068-9.607,16.434-21.319,16.434H61.92l-3.897,14.551H44.669z M70.388,96.366c3.111,0,5.758-1.429,6.837-5.456
				c1.165-4.353-2.979-4.936-5.808-4.936h-3.791l-2.783,10.392H70.388z"/>
			<path fill="#FFFF33" d="M74.773,121.829l27.125-46.769h13.579l2.07,46.769h-13.296l0.069-6.172H91.024l-3.181,6.172H74.773z
				 M104.798,89.156l-8.619,16.758h8.431L104.798,89.156z"/>
		</g>
	</g>
</g>
</svg>
="g18"><path
           stroke-miterlimit="10"
           d="m 152.973,100.835 2.016,-11.215 3.629,-15.658 h 14.655 l -11.409,49.232 h -14.331 l -10.455,-26.804 -2.015,11.215 -3.613,15.59 h -14.656 l 11.409,-49.232 h 14.332 l 10.438,26.872 z"
           id="path20"
           inkscape:connector-curvature="0"
           style="fill:#ffff33;stroke:#003399;stroke-width:3;stroke-miterlimit:10" /></g><g
         id="g22"><path
           d="M 44.669,121.829 57.197,75.06 h 19.634 c 11.712,0 15.717,6.171 13.142,15.785 -2.696,10.068 -9.607,16.434 -21.319,16.434 H 61.92 L 58.023,121.83 H 44.669 z M 70.388,96.366 c 3.111,0 5.758,-1.429 6.837,-5.456 1.165,-4.353 -2.979,-4.936 -5.808,-4.936 h -3.791 l -2.783,10.392 h 5.545 z"
           id="path24"
           inkscape:connector-curvature="0"
           style="fill:#ffff33" /><path
           d="M 74.773,121.829 101.898,75.06 h 13.579 l 2.07,46.769 h -13.296 l 0.069,-6.172 H 91.024 l -3.181,6.172 h -13.07 z m 30.025,-32.673 -8.619,16.758 h 8.431 l 0.188,-16.758 z"
           id="path26"
           inkscape:connector-curvature="0"
           style="fill:#ffff33" /></g></g></g></svg>