<?xml version="1.0" encoding="utf-8"?>
<!-- Generator: Adobe Illustrator 15.0.2, SVG Export Plug-In . SVG Version: 6.00 Build 0)  -->
<!DOCTYPE svg PUBLIC "-//W3C//DTD SVG 1.0//EN" "http://www.w3.org/TR/2001/REC-SVG-20010904/DTD/svg10.dtd">
<svg version="1.0" id="Layer_1" xmlns="http://www.w3.org/2000/svg" xmlns:xlink="http://www.w3.org/1999/xlink" x="0px" y="0px"
	 width="250px" height="300px" viewBox="0 0 250 300" enable-background="new 0 0 250 300" xml:space="preserve">
<g>
	<g>
		<g>
			<path fill="#1364A6" d="M28.134,192.021h12.085c3.268,0,5.781,0.261,7.539,0.783s3.078,1.276,3.962,2.262
				c0.883,0.986,1.482,2.18,1.796,3.581c0.313,1.401,0.47,3.572,0.47,6.51v4.089c0,2.996-0.305,5.182-0.912,6.554
				c-0.608,1.373-1.725,2.426-3.349,3.161c-1.625,0.734-3.749,1.102-6.371,1.102h-3.22v18.906h-12V192.021z M40.134,200.054v11.947
				c0.342,0.02,0.636,0.029,0.883,0.029c1.103,0,1.867-0.275,2.295-0.826c0.427-0.552,0.641-1.697,0.641-3.438v-3.855
				c0-1.604-0.247-2.648-0.74-3.132C42.717,200.296,41.691,200.054,40.134,200.054z"/>
			<path fill="#1364A6" d="M76.84,192.021l6.862,46.947H71.439l-0.645-8.438h-4.292l-0.722,8.438H53.375l6.121-46.947H76.84z
				 M70.48,222.208c-0.607-5.317-1.217-11.89-1.827-19.718c-1.223,8.989-1.991,15.563-2.303,19.718H70.48z"/>
			<path fill="#1364A6" d="M85.856,192.021h8.494c5.662,0,9.495,0.223,11.501,0.667c2.004,0.445,3.638,1.58,4.902,3.408
				c1.264,1.825,1.895,4.74,1.895,8.742c0,3.653-0.445,6.109-1.339,7.365c-0.894,1.257-2.65,2.011-5.272,2.262
				c2.375,0.6,3.971,1.402,4.788,2.407s1.325,1.928,1.524,2.769c0.2,0.841,0.299,3.156,0.299,6.945v12.382h-11.144v-15.601
				c0-2.513-0.195-4.069-0.584-4.669c-0.39-0.599-1.411-0.898-3.064-0.898v21.168h-12V192.021z M97.856,200.054v10.439
				c1.349,0,2.294-0.188,2.836-0.565s0.813-1.6,0.813-3.668v-2.581c0-1.488-0.262-2.465-0.784-2.929S99.243,200.054,97.856,200.054z
				"/>
			<path fill="#1364A6" d="M141.583,192.021v9.396h-7.126v37.552h-12v-37.552h-7.097v-9.396H141.583z"/>
			<path fill="#1364A6" d="M156.435,192.021v46.947h-11.999v-46.947H156.435z"/>
			<path fill="#1364A6" d="M161.368,192.021h8.979c5.796,0,9.715,0.271,11.758,0.813c2.042,0.541,3.596,1.431,4.66,2.667
				c1.064,1.238,1.729,2.615,1.995,4.133s0.398,4.499,0.398,8.945v16.441c0,4.215-0.194,7.032-0.584,8.453s-1.068,2.532-2.038,3.335
				c-0.969,0.802-2.166,1.363-3.592,1.682c-1.424,0.318-3.571,0.479-6.44,0.479h-15.136V192.021z M173.368,200.054v30.883
				c1.729,0,2.793-0.354,3.192-1.059c0.398-0.705,0.599-2.624,0.599-5.756v-18.239c0-2.126-0.066-3.489-0.2-4.089
				c-0.133-0.6-0.437-1.039-0.912-1.319C175.572,200.195,174.68,200.054,173.368,200.054z"/>
			<path fill="#1364A6" d="M221.17,219.511c0,4.718-0.109,8.057-0.328,10.02c-0.218,1.962-0.902,3.755-2.052,5.378
				c-1.15,1.625-2.703,2.871-4.66,3.74c-1.958,0.871-4.237,1.306-6.841,1.306c-2.47,0-4.688-0.41-6.655-1.232
				c-1.967-0.82-3.549-2.053-4.745-3.696c-1.197-1.643-1.911-3.432-2.139-5.365c-0.228-1.933-0.342-5.315-0.342-10.149v-8.031
				c0-4.718,0.109-8.057,0.328-10.02c0.218-1.961,0.902-3.755,2.052-5.378c1.15-1.624,2.702-2.871,4.66-3.741
				c1.957-0.87,4.238-1.305,6.841-1.305c2.471,0,4.688,0.41,6.655,1.232c1.967,0.821,3.549,2.055,4.746,3.696
				c1.196,1.644,1.909,3.433,2.138,5.365c0.228,1.933,0.342,5.316,0.342,10.149V219.511z M209.17,204.085
				c0-2.185-0.119-3.582-0.355-4.19c-0.238-0.609-0.728-0.914-1.469-0.914c-0.627,0-1.107,0.247-1.439,0.74
				s-0.498,1.947-0.498,4.364v21.922c0,2.726,0.108,4.407,0.327,5.045c0.219,0.639,0.728,0.958,1.525,0.958
				c0.816,0,1.34-0.368,1.567-1.103c0.229-0.734,0.342-2.483,0.342-5.248V204.085z"/>
		</g>
		<g>
			<path fill="#1364A6" d="M4.122,245.338h13.633c3.687,0,6.521,0.283,8.504,0.852s3.473,1.389,4.469,2.462
				c0.997,1.073,1.673,2.373,2.025,3.897c0.354,1.525,0.531,3.888,0.531,7.085v4.45c0,3.262-0.344,5.639-1.028,7.133
				c-0.687,1.493-1.945,2.641-3.778,3.439c-1.833,0.8-4.229,1.199-7.187,1.199h-3.633v20.576H4.122V245.338z M17.658,254.08v13.002
				c0.386,0.021,0.718,0.032,0.997,0.032c1.243,0,2.105-0.3,2.588-0.9c0.482-0.599,0.724-1.846,0.724-3.74v-4.197
				c0-1.745-0.278-2.881-0.836-3.408C20.573,254.344,19.415,254.08,17.658,254.08z"/>
			<path fill="#1364A6" d="M59.065,245.338l7.74,51.094H52.972l-0.727-9.183h-4.842l-0.813,9.183H32.596l6.904-51.094H59.065z
				 M51.891,278.191c-0.685-5.787-1.372-12.941-2.062-21.461c-1.379,9.784-2.245,16.938-2.598,21.461H51.891z"/>
			<path fill="#1364A6" d="M92.867,245.338v10.226h-8.038v40.868H71.294v-40.868h-8.006v-10.226H92.867z"/>
			<path fill="#1364A6" d="M96.086,245.338h9.581c6.388,0,10.711,0.242,12.973,0.727c2.262,0.483,4.104,1.719,5.53,3.708
				c1.426,1.987,2.139,5.16,2.139,9.515c0,3.977-0.504,6.649-1.512,8.016c-1.007,1.368-2.989,2.188-5.947,2.462
				c2.679,0.652,4.479,1.526,5.4,2.619c0.922,1.095,1.495,2.1,1.721,3.015c0.226,0.914,0.338,3.435,0.338,7.559v13.475h-12.571
				v-16.978c0-2.734-0.221-4.43-0.659-5.082c-0.439-0.651-1.592-0.979-3.457-0.979v23.038H96.086V245.338z M109.621,254.08v11.361
				c1.522,0,2.589-0.205,3.2-0.616c0.61-0.41,0.916-1.739,0.916-3.992v-2.809c0-1.62-0.296-2.683-0.885-3.188
				C112.263,254.332,111.186,254.08,109.621,254.08z"/>
			<path fill="#1364A6" d="M145.217,245.338v51.094h-13.536v-51.094H145.217z"/>
			<path fill="#1364A6" d="M181.712,275.257c0,5.133-0.123,8.768-0.37,10.903c-0.246,2.136-1.018,4.087-2.314,5.854
				c-1.298,1.768-3.049,3.124-5.257,4.071s-4.78,1.421-7.717,1.421c-2.786,0-5.289-0.448-7.507-1.342
				c-2.219-0.895-4.003-2.236-5.354-4.024c-1.35-1.788-2.154-3.733-2.411-5.838c-0.258-2.104-0.386-5.786-0.386-11.045v-8.743
				c0-5.133,0.123-8.768,0.37-10.903c0.245-2.135,1.018-4.087,2.314-5.854c1.297-1.767,3.049-3.125,5.257-4.07
				c2.207-0.947,4.779-1.421,7.716-1.421c2.786,0,5.289,0.447,7.508,1.341c2.219,0.896,4.003,2.236,5.354,4.024
				c1.351,1.789,2.154,3.735,2.411,5.839c0.257,2.104,0.386,5.785,0.386,11.045V275.257z M168.177,258.466
				c0-2.377-0.135-3.897-0.402-4.561c-0.269-0.661-0.819-0.993-1.655-0.993c-0.708,0-1.25,0.269-1.624,0.806
				c-0.376,0.535-0.563,2.119-0.563,4.748v23.859c0,2.967,0.124,4.797,0.37,5.492c0.246,0.693,0.82,1.041,1.721,1.041
				c0.921,0,1.511-0.399,1.768-1.2c0.258-0.798,0.387-2.703,0.387-5.711V258.466z"/>
			<path fill="#1364A6" d="M214.156,245.338v10.226h-8.037v40.868h-13.537v-40.868h-8.005v-10.226H214.156z"/>
			<path fill="#1364A6" d="M238.137,245.338l7.741,51.094h-13.835l-0.726-9.183h-4.842l-0.814,9.183h-13.994l6.905-51.094H238.137z
				 M230.963,278.191c-0.686-5.787-1.373-12.941-2.062-21.461c-1.38,9.784-2.245,16.938-2.599,21.461H230.963z"/>
		</g>
	</g>
	<g>
		<circle fill="#F57C1F" cx="124.655" cy="93.845" r="91.35"/>
		<g>
			<path fill="#FFFFFF" d="M124.655,174.715c-44.592,0-80.87-36.278-80.87-80.871c0-44.591,36.278-80.869,80.87-80.869
				c44.591,0,80.869,36.278,80.869,80.869C205.524,138.437,169.246,174.715,124.655,174.715z M124.655,15.99
				c-42.93,0-77.854,34.926-77.854,77.854c0,42.93,34.925,77.855,77.854,77.855c42.928,0,77.854-34.926,77.854-77.855
				C202.509,50.916,167.583,15.99,124.655,15.99z"/>
		</g>
		<g id="XMLID_1_">
			<g>
				<path fill="#FFFFFF" d="M166.112,25.513c-3.926-1.182-7.973,2.388-9.047,6.031C160.086,29.542,162.24,26.665,166.112,25.513z
					 M166.715,71.343c3.48-10.868,2.382-17.695-1.641-22.417c-5.205-6.116-15.319-8.697-26.706-11.954
					c-15.421-4.403-27.719-7.038-44.63-7.237c0.223-1.93,0.729-3.57,1.483-4.97c3.655-6.779,13.094-7.816,24.239-7.479
					c10.349,0.313,22.17,1.81,32.176,0.989c4.022-0.338,8.908-0.959,13.262,0.603c-5.82,1.212-10.808,3.257-12.056,9.041
					c3.021-3.745,8.034-8.256,13.872-7.237c8.558,7.876-1.689,16.182-9.65,18.099c6.043,1.212,10.199-4.674,14.475-7.237
					C172.197,44.263,178.91,66.252,166.715,71.343z"/>
				<path fill="#FFFFFF" d="M173.952,36.369c-0.802-1.345-1.152-3.142-1.454-4.988c-0.259-1.61-0.488-3.257-0.959-4.662
					c4.427-1.604,8.504-3.558,9.65-8.443c2.78,5.145-0.266,8.105-3.221,11.248C176.081,31.525,174.229,33.606,173.952,36.369z"/>
				<path fill="#FFFFFF" d="M101.579,109.948c-9.945,2.557-17.188-1.87-22.315-6.031C81.58,110.207,94.155,114.64,101.579,109.948z
					 M148.622,127.438c-5.38,4.849-13.51,8.793-22.918,9.649c-10.971,0.995-17.78-2.768-24.728-2.412
					c15.144,6.52,41.132,4.258,48.852-7.237C149.424,127.438,149.02,127.438,148.622,127.438z M146.203,93.664
					c-9.981-0.729-10.464,8.021-13.866,13.866c-0.693-0.229-1.327-0.519-1.912-0.862c-6.881-4.059-6.496-15.777-6.532-25.065
					c-1.483,2.4,0.061,4.801-1.809,6.031c-14.246-0.833-20.596-9.565-27.14-18.093c-0.229,4.662,5.38,6.67,4.825,9.649
					c-6.972,0.332-9.294-3.974-13.269-6.634c1.538,6.905,9.945,6.941,16.278,9.046c-2.871,5.651-10.916,6.26-17.484,6.634
					c7.641,3.432,15.53-1.737,19.299-6.031c1.906,2.72,6.001,3.245,8.438,5.428c-0.356,6.477-5.145,8.522-9.644,10.856
					c7.659,0.223,9.571-5.301,11.459-10.856c1.954,1.267,5.838,0.597,7.84,1.809c-0.639,9.041,2.244,14.565,7.273,17.937
					c2.069,1.393,4.499,2.418,7.201,3.172c0.772,9.01-2.949,13.54-4.825,19.902c4.572-4.27,6.242-11.447,6.031-20.505
					c6.085-3.559,7.804-11.489,10.253-18.696c4.771,0.742,6.212-1.833,9.65-2.413c-1.526,5.621,0.042,13.166,3.619,15.675
					c-5.398-8.721-1.906-17.273,1.381-25.125c0.802-1.924,1.592-3.799,2.238-5.627c3.986-1.236,6.073-4.378,9.046-6.634
					c0.875,6.164,3.504,10.561,9.041,12.062c-3.347-3.685-9.179-8.093-7.834-14.475c1.864,4.765,4.529,8.739,9.65,10.253
					c-4.131-4.722-10.229-7.466-9.046-17.49c2.135-1.483,3.432-3.805,4.825-6.031c4.529,4.011,15.331,6.899,22.315,3.016
					c-2.105,4.541-3.806,9.101-5.289,13.624c-6.436,19.589-8.86,38.472-23.063,52.115c-3.842,3.691-8.95,5.82-12.659,9.649
					c-3.77,3.872-6.206,9.077-7.702,15.102c-3.221,12.906-2.147,29.612-0.742,45.209c-40.607,0-73.477,1.073-73.579,2.406
					c2.274-12.605,7.141-26.7,6.031-42.211c-1.285-17.87-12.617-32.14-12.062-48.249c0.175-5.211,2.37-13.425,1.809-21.712
					c-1.272-18.739-6.543-34.558,14.475-34.377c19.046,0.163,36.066,10.645,48.852,18.087c-4.36,0.869-7.237,3.221-8.443,7.237
					c2.636-3.866,11.93-9.945,14.475-1.803c-0.567,2.654-4.65,1.791-6.031,3.619c2.974,1.821,5.941-2.66,7.841-1.815
					c0.054,0.133,0.108,0.265,0.163,0.392c2.738,7.074-6.478,6.514-9.813,9.264c5.126,0.898,8.461-3.185,10.856-3.016
					C148.495,83.887,147.886,89.315,146.203,93.664z M146.812,137.69c-0.066-0.735-0.181-1.429-1.206-1.206
					c-3.878,5.567-13.202,5.693-21.712,6.634C133.188,145.332,142.048,142.003,146.812,137.69z"/>
				<path d="M149.828,127.438c-7.72,11.495-33.708,13.757-48.852,7.237c6.948-0.356,13.757,3.407,24.728,2.412
					c9.408-0.856,17.538-4.801,22.918-9.649C149.02,127.438,149.424,127.438,149.828,127.438z"/>
				<path d="M174.555,45.409c0.223,3.396,0.929,6.314,0.597,10.259c2.816-0.205,3.606-2.424,4.222-4.825
					C178.035,48.769,175.942,47.448,174.555,45.409z M165.074,48.925c4.023,4.722,5.121,11.549,1.641,22.417
					c12.195-5.09,5.482-27.08,4.825-39.799l0.959-0.163c0.302,1.846,0.651,3.643,1.454,4.988c0.277-2.762,2.129-4.843,4.017-6.845
					l0.41,0.38c-2.515,3.04-4.029,6.712-3.824,10.687c0.489,9.451,18.944,19.191,28.949,12.665
					c6.568-4.288,6.019-12.273,6.634-22.918l0.567-0.048c1.285,3.625,1.454,8.106,0.036,13.317
					c-2.093,7.671-9.004,15.88-11.459,22.918c-0.199,0.573-0.392,1.146-0.579,1.719l-0.488-0.157
					c1.483-4.523,3.184-9.083,5.289-13.624c-6.984,3.884-17.786,0.995-22.315-3.016c-1.393,2.226-2.69,4.547-4.825,6.031
					c-1.182,10.024,4.915,12.768,9.046,17.49c-5.121-1.514-7.786-5.488-9.65-10.253c-1.345,6.381,4.487,10.79,7.834,14.475
					c-5.537-1.501-8.166-5.898-9.041-12.062c-2.973,2.256-5.06,5.398-9.046,6.634c-0.646,1.828-1.436,3.703-2.238,5.627
					l-0.524-0.187c2.714-6.266,3.498-14.227,3.968-21.121c-2.081,4.674-10.018,9.505-16.278,6.031
					c11.761,3.649,19.197-9.933,14.595-15.144L165.074,48.925z"/>
				<path fill="#FFFFFF" d="M134.75,108.138c1.062-6.978,3.003-13.075,10.856-13.268
					C143.803,101.106,142.977,108.319,134.75,108.138z"/>
				<path d="M165.002,18.661c3.003,1.417,5.114,3.588,5.935,6.852c6.93-0.7,13.799-11.327,5.428-15.078
					c-3.48,0.94-4.24,4.602-6.634,6.634c-1.303-4.843,6.453-6.652,4.222-8.443c-0.115-0.024-0.229-0.042-0.344-0.06l0.151-0.911
					c6.091,1.707,9.782,5.929,9.836,15.446c10.85-6.483,23.467-3.094,27.11,7.189l-0.567,0.048
					c-5.808-13.305-23.805-10.018-31.76-0.434l-0.41-0.38c2.955-3.143,6.001-6.104,3.221-11.248
					c-1.146,4.885-5.223,6.839-9.65,8.443c0.471,1.405,0.7,3.052,0.959,4.662l-0.959,0.163c-4.276,2.563-8.431,8.45-14.475,7.237
					c7.961-1.917,18.208-10.223,9.65-18.099c-5.838-1.019-10.85,3.492-13.872,7.237c1.249-5.784,6.236-7.828,12.056-9.041
					L165.002,18.661z"/>
				<path d="M129.961,107.378c-5.03-3.372-7.913-8.896-7.273-17.937c-2.002-1.212-5.886-0.542-7.84-1.809
					c-1.888,5.555-3.8,11.079-11.459,10.856c4.499-2.334,9.288-4.379,9.644-10.856c-2.437-2.184-6.532-2.708-8.438-5.428
					c-3.77,4.294-11.658,9.463-19.299,6.031c6.568-0.374,14.613-0.983,17.484-6.634c-6.333-2.105-14.74-2.141-16.278-9.046
					c3.975,2.66,6.296,6.966,13.269,6.634c0.555-2.979-5.054-4.987-4.825-9.649c6.544,8.528,12.895,17.261,27.14,18.093
					c1.87-1.23,0.326-3.631,1.809-6.031c0.036,9.288-0.35,21.006,6.532,25.065L129.961,107.378z"/>
				<path fill="#FFFFFF" d="M199.283,44.209c-4.819,1.399-13.438-2.974-15.741-6.556c-0.284-0.446-0.47-0.875-0.543-1.285
					c-0.868-4.952,5.826-7.195,4.222-10.253c-6.134,3.601-6.544,8.112-4.228,11.863c5.024,8.178,22.966,12.773,22.924-3.42
					C202.612,37.895,204.102,42.804,199.283,44.209z M203.504,53.255c-10.005,6.526-28.46-3.214-28.949-12.665
					c-0.205-3.975,1.309-7.647,3.824-10.687c7.955-9.583,25.952-12.871,31.76,0.434C209.523,40.982,210.072,48.967,203.504,53.255z"
					/>
				<path fill="#FFFFFF" d="M170.937,25.513c-0.82-3.263-2.931-5.434-5.935-6.852c-10.223-4.825-30.74-0.904-45.535-1.544
					c-3.287-0.145-6.296-0.513-8.841-1.254c3.679-8.667,15.747-6.073,27.743-6.64c12.412-0.573,25.723-2.334,35.24-0.657
					c0.115,0.018,0.229,0.036,0.344,0.06c2.231,1.792-5.524,3.601-4.222,8.443c2.394-2.032,3.154-5.693,6.634-6.634
					C184.736,14.186,177.866,24.813,170.937,25.513z"/>
				<path d="M162.493,52.049c3.214,3.185-4.342,8.202-7.84,6.634C157.59,56.802,162.234,56.615,162.493,52.049z"/>
				<path fill="#FFFFFF" d="M154.653,58.684c3.498,1.568,11.055-3.45,7.84-6.634C162.234,56.615,157.59,56.802,154.653,58.684z
					 M166.715,58.081c-0.471,6.894-1.254,14.854-3.968,21.121c-2.558,5.88-6.815,10.265-14.125,10.838
					c1.815-6.984,1.803-13.407-0.247-18.612c-1.116-2.834-2.835-5.308-5.187-7.322c-10.199-8.703-34.697-18.226-48.846-19.293
					c-4.258-0.326-7.466,0.006-10.856,0.597c-0.223-7.804,3.323-13.63,11.459-14.475c20.699-2.123,50.348,9.722,65.136,14.475
					c-4.632,2.406-9.849,4.222-9.656,11.459c2.437-4.3,5.054-11.049,11.465-9.644c1.375,0.301,2.412,0.917,3.142,1.743
					c4.602,5.211-2.834,18.793-14.595,15.144C156.697,67.585,164.634,62.754,166.715,58.081z"/>
				<path fill="#FFFFFF" d="M179.374,50.843c-0.615,2.4-1.405,4.62-4.222,4.825c0.332-3.944-0.374-6.863-0.597-10.259
					C175.942,47.448,178.035,48.769,179.374,50.843z"/>
				<path d="M86.501,150.356c1.11,15.512-3.757,29.606-6.031,42.211c-0.446-10.367,3.498-19.528,4.222-30.155
					c0.284-4.252,0.356-9.059,0-13.866c-1.055-13.859-10.283-26.555-11.459-41.017c-0.784-9.553,1.9-19.77,1.207-29.546
					c-0.814-11.375-6.447-28.31,7.237-31.965c-0.048-9.095,3.848-14.239,10.856-16.284c0.47-1.972,1.134-3.757,1.996-5.337
					l0.693,0.368c-0.754,1.399-1.26,3.04-1.483,4.97c16.911,0.199,29.208,2.834,44.63,7.237
					c11.387,3.257,21.501,5.838,26.706,11.954l-0.042,0.042c-0.73-0.826-1.767-1.441-3.142-1.743
					c-6.411-1.405-9.029,5.343-11.465,9.644c-0.193-7.237,5.024-9.053,9.656-11.459c-14.788-4.752-44.437-16.598-65.136-14.475
					c-8.136,0.844-11.682,6.67-11.459,14.475c3.39-0.591,6.598-0.923,10.856-0.597c14.149,1.067,38.647,10.591,48.846,19.293
					c2.352,2.014,4.071,4.487,5.187,7.322l-0.796,0.308c-0.054-0.127-0.108-0.259-0.163-0.392c-1.9-0.844-4.867,3.637-7.841,1.815
					c1.381-1.828,5.464-0.965,6.031-3.619c-2.545-8.142-11.839-2.063-14.475,1.803c1.206-4.017,4.083-6.369,8.443-7.237
					c-12.786-7.442-29.805-17.924-48.852-18.087c-21.018-0.181-15.747,15.639-14.475,34.377c0.561,8.287-1.634,16.501-1.809,21.712
					C73.884,118.216,85.217,132.486,86.501,150.356z"/>
				<path d="M101.579,109.948c-7.424,4.692-19.999,0.259-22.315-6.031C84.391,108.078,91.634,112.505,101.579,109.948z"/>
				<path d="M165.002,18.661l-0.103,0.217c-4.354-1.562-9.24-0.941-13.262-0.603c-10.006,0.82-21.827-0.676-32.176-0.989
					l0.006-0.169C134.262,17.757,154.779,13.836,165.002,18.661z"/>
				<path fill="#FFFFFF" d="M43.675,201.017c0.772,3.547,2.05,11.833-3.016,11.459c-0.971-2.78-0.971-9.281,0-12.062
					C42.372,199.913,42.227,201.265,43.675,201.017z"/>
				<path d="M166.112,25.513c-3.872,1.152-6.025,4.029-9.047,6.031C158.139,27.901,162.186,24.331,166.112,25.513z"/>
				<path d="M173.608,8.565c-9.517-1.677-22.828,0.084-35.24,0.657c-11.996,0.567-24.064-2.026-27.743,6.64
					c2.545,0.742,5.554,1.11,8.841,1.254l-0.006,0.169c-11.146-0.338-20.584,0.7-24.239,7.479l-0.693-0.368
					c2.611-4.801,7.063-7.75,13.685-8.534c4.891-10.367,18.998-7.533,38.599-8.443c10.772-0.5,20.289-1.635,26.947,0.235
					L173.608,8.565z"/>
				<path d="M145.606,94.87c-7.853,0.193-9.794,6.291-10.856,13.268C142.977,108.319,143.803,101.106,145.606,94.87z
					 M148.622,77.983c-2.395-0.169-5.729,3.914-10.856,3.016c3.335-2.75,12.551-2.189,9.813-9.264l0.796-0.308
					c2.05,5.205,2.063,11.628,0.247,18.612c7.31-0.573,11.567-4.958,14.125-10.838l0.524,0.187
					c-3.287,7.853-6.779,16.405-1.381,25.125c-3.577-2.509-5.145-10.054-3.619-15.675c-3.438,0.579-4.879,3.154-9.65,2.413
					c-2.449,7.207-4.167,15.138-10.253,18.696c0.211,9.059-1.459,16.236-6.031,20.505c1.876-6.363,5.597-10.892,4.825-19.902
					c-2.702-0.754-5.132-1.779-7.201-3.172l0.464-0.711c0.585,0.344,1.218,0.633,1.912,0.862
					c3.402-5.844,3.884-14.595,13.866-13.866C147.886,89.315,148.495,83.887,148.622,77.983z"/>
				<path d="M156.462,141.309c-0.477,1.225-0.869,2.485-1.188,3.77l-0.482-0.126c1.496-6.025,3.932-11.23,7.702-15.102
					c3.709-3.83,8.817-5.958,12.659-9.649c14.203-13.643,16.627-32.526,23.063-52.115l0.488,0.157
					c-3.57,11.019-4.348,21.32-8.468,30.849c-3.806,8.799-9.125,18.021-16.887,24.728
					C166.094,130.091,159.544,133.409,156.462,141.309z"/>
				<path d="M145.606,136.484c1.025-0.223,1.14,0.471,1.206,1.206c-4.764,4.313-13.624,7.642-22.918,5.428
					C132.404,142.178,141.728,142.051,145.606,136.484z"/>
				<path d="M182.993,37.979l0.549-0.326c2.304,3.582,10.922,7.955,15.741,6.556c4.819-1.405,3.329-6.314,6.634-9.65
					C205.959,50.752,188.017,46.157,182.993,37.979z"/>
				<path d="M182.993,37.979c-2.316-3.751-1.906-8.263,4.228-11.863c1.604,3.058-5.09,5.301-4.222,10.253
					c0.073,0.41,0.259,0.838,0.543,1.285L182.993,37.979z"/>
				<path d="M155.274,145.079c-3.383,13.594,1.417,30.258-1.225,45.083c-1.405-15.597-2.479-32.303,0.742-45.209L155.274,145.079z"
					/>
				<path fill="#FFFFFF" d="M97.96,210.667c0-3.42,0-6.833,0-10.253C103.726,199.015,104.058,212.096,97.96,210.667z"/>
			</g>
			<g>
			</g>
		</g>
	</g>
</g>
</svg>
