<?xml version="1.0" encoding="utf-8"?>
<!-- Generator: Adobe Illustrator 15.0.2, SVG Export Plug-In . SVG Version: 6.00 Build 0)  -->
<!DOCTYPE svg PUBLIC "-//W3C//DTD SVG 1.1//EN" "http://www.w3.org/Graphics/SVG/1.1/DTD/svg11.dtd">
<svg version="1.1" id="Layer_1" xmlns="http://www.w3.org/2000/svg" xmlns:xlink="http://www.w3.org/1999/xlink" x="0px" y="0px"
	 width="250px" height="250px" viewBox="0 0 250 250" enable-background="new 0 0 250 250" xml:space="preserve">
<g>
	<path fill="#005EAB" d="M125,249.627c-68.72,0-124.62-55.91-124.62-124.63c0-68.72,55.9-124.62,124.62-124.62
		c68.72,0,124.62,55.9,124.62,124.62C249.62,193.717,193.72,249.627,125,249.627z"/>
	<path fill="#FFFFFF" d="M125,11.137c-62.78,0-113.86,51.08-113.86,113.86S62.22,238.857,125,238.857
		c62.78,0,113.86-51.08,113.86-113.86S187.78,11.137,125,11.137z"/>
	<path fill="#005EAB" d="M160.67,24.247c41.48,14.67,71.19,54.24,71.19,100.76c0,46.49-29.71,86.07-71.19,100.74l-0.05-0.15v-201.2
		L160.67,24.247z"/>
	<path fill="#005EAB" d="M89.38,24.567v201.2c-41.5-14.649-71.24-54.25-71.24-100.76c0-46.5,29.7-86.05,71.14-100.74L89.38,24.567z"
		/>
	<path fill="#005EAB" d="M97.03,140.057V70.097h30.74c7.99,0,14.381,1.65,19.16,4.95c4.78,3.29,7.181,7.71,7.181,13.25
		c0,8.47-5.141,13.99-15.4,16.55c5.271,1.91,8.68,4.021,10.24,6.311c1.55,2.279,2.609,6.729,3.17,13.319
		c0.66,7.86,2,13.051,4.03,15.58H133.63c-1.43-3.239-2.14-7.29-2.14-12.14l-0.11-4.16l-0.1-5.22c0-8.07-3.32-12.101-9.95-12.101
		h-3.56v33.62H97.03z"/>
	<path fill="#FFFFFF" d="M117.77,100.647h4.19c7.85,0,11.78-4.021,11.78-12.05c0-8.02-3.931-12.04-11.78-12.04h-4.19V100.647z"/>
	<path fill="#FFFFFF" d="M29.16,155.287v-69.96h30.36c17.22,0,25.83,6.85,25.83,20.55c0,13.84-9.57,20.76-28.71,20.76h-7.07v28.65
		H29.16z"/>
	<path fill="#005EAB" d="M49.57,120.177h4.59c7.43,0,11.14-4.88,11.14-14.649c0-9.16-3.71-13.74-11.14-13.74h-4.59V120.177z"/>
	<rect x="185.78" y="85.327" fill="#FFFFFF" width="20.739" height="69.96"/>
</g>
</svg>
