<?xml version="1.0" encoding="utf-8"?>
<!-- Generator: Adobe Illustrator 15.0.2, SVG Export Plug-In . SVG Version: 6.00 Build 0)  -->
<!DOCTYPE svg PUBLIC "-//W3C//DTD SVG 1.1//EN" "http://www.w3.org/Graphics/SVG/1.1/DTD/svg11.dtd">
<svg version="1.1" id="Layer_1" xmlns="http://www.w3.org/2000/svg" xmlns:xlink="http://www.w3.org/1999/xlink" x="0px" y="0px"
	 width="300px" height="500px" viewBox="0 0 300 500" enable-background="new 0 0 300 500" xml:space="preserve">
<g>
	<g>
		<path fill="#228336" d="M219.201,148.175c8.822,2.661,16.271,6.695,24.402,10.048c-9.679,31.74-19.406,86.669-5.025,120.571
			c9.656,7.632,26.154,1.584,33.014-4.308c-7.881,18.598-25.125,50.787-49.52,55.979c-34.012,7.238-37.203-26.635-33.73-58.85
			c-22.924,17.67-38.752,55.607-74.638,63.873c-25.349,5.836-40.651-10.86-38.756-37.317c1.055-14.726,6.065-29.979,10.048-44.498
			c4.062-14.81,11.294-29.05,12.919-41.626c2.982-23.123-5.797-38.81-29.426-30.142c-20.972,7.693-40.585,33.397-52.391,47.367
			c9.313-24.132,25.844-46.238,42.343-66.744c16.362-20.335,36.486-38.796,63.155-47.367c21.064-6.77,31.921,7.107,30.144,29.425
			c-1.642,20.596-13.101,36.129-20.095,55.261c-6.813,18.632-15.261,38.961-17.225,58.131c-1.669,16.291,4.55,26.457,20.095,20.814
			c10.24-3.718,19.374-17.759,26.553-27.273C183.922,221.249,203.271,182.698,219.201,148.175z"/>
		<g>
			<g>
				<path fill="#FF9500" d="M243.604,12.535c-4.832,0.525-8.135-0.478-8.612-4.306C237.127,0.32,250.771,6.028,243.604,12.535z"/>
				<path fill="#FF9500" d="M227.096,9.664c0.957,2.63,1.697,5.479,2.154,8.612c-2.709,2.795-6.213,4.793-8.613,7.895
					c-3.596-0.471-3.74-4.393-5.74-6.458C217.861,15.263,221.971,11.953,227.096,9.664z"/>
				<path fill="#FF9500" d="M250.777,35.5c-1.539,1.33-5.256,0.484-7.894,0.717c-1.354-4.664-2.239-12.687-0.719-17.942
					C251.127,11.48,250.912,26.704,250.777,35.5z"/>
				<path fill="#FF9500" d="M234.99,19.712c-1.393,5.067-2.979,9.938-4.307,15.071c-4.357-0.186-5.687-3.404-7.896-5.741
					C225.609,24.837,229.557,14.686,234.99,19.712z"/>
				<path fill="#FF9500" d="M240.012,20.429c0.859,5.741,2.902,18.617-5.738,17.224C233.174,31.984,233.512,18.539,240.012,20.429z"
					/>
				<path fill="#FF9500" d="M211.307,24.018c6.303,7.898,2.074,18.389-5.74,21.53c-1.508-3.04-3.131-5.959-4.307-9.33
					C203.789,31.331,208.096,28.222,211.307,24.018z"/>
				<path fill="#FF9500" d="M225.662,47.701c-1.77,7.083-5.072,12.633-8.613,17.942c-4.414-3.239-6.912-8.399-10.049-12.917
					c3.051-5.801,6.732-10.972,12.918-13.636C221.641,42.153,224.055,44.522,225.662,47.701z"/>
				<path fill="#FF9500" d="M193.365,44.831c1.807,3.696,2.619,8.386,5.023,11.483c-2.896,5.718-5.896,11.329-10.767,15.07
					c-0.979-4.761-4.976-6.506-5.74-11.482C184.799,53.966,189.172,49.49,193.365,44.831z"/>
				<path fill="#FF9500" d="M238.578,49.136c-0.438,7.697-1.406,14.859-2.869,21.53c-3.754,2.045-8.559-0.334-12.201-0.718
					C226.781,61.943,226.188,43.344,238.578,49.136z"/>
				<path fill="#FF9500" d="M252.932,50.571c-0.447,8.642,0.918,19.098-0.717,26.555c-4.879-0.146-8.551-1.497-12.918-2.153
					c1.047-8.52,0.039-19.1,2.152-26.554C243.906,47.886,249.91,49.347,252.932,50.571z"/>
				<path fill="#FF9500" d="M215.615,76.408C213.424,82.832,210.48,88.5,207,93.632c-5.867-4.179-10.385-9.71-14.352-15.789
					c2.707-5.667,6.067-10.678,10.764-14.354C208.842,66.435,211.143,72.505,215.615,76.408z"/>
				<path fill="#FF9500" d="M174.707,69.948c4.32,2.409,8.684,7.302,8.609,11.483c-0.096,5.753-8.918,10.624-9.328,16.507
					C161.217,91.573,169.434,78.865,174.707,69.948z"/>
				<path fill="#FF9500" d="M233.553,83.584c-2.354,6.256-3.756,13.466-6.457,19.378c-5.477-1.459-9.604-4.269-14.354-6.458
					c-0.082-5.669,5.818-11.346,7.895-17.225C226.238,79.418,229.297,82.102,233.553,83.584z"/>
				<path fill="#FF9500" d="M250.777,87.173c0.604,7.54-1.711,12.163-2.15,18.66c-5.375-0.604-11.564-0.397-15.074-2.871
					c1.627-6.507,2.059-14.211,5.025-19.378C243.459,83.968,246.949,85.74,250.777,87.173z"/>
				<path fill="#FF9500" d="M188.342,87.173c5.623,5.382,10.611,11.398,15.07,17.942c-3.012,6.319-5.578,13.081-7.895,20.096
					c-7.211-5.468-12.103-13.256-17.941-20.096C180.166,98.135,185.223,93.625,188.342,87.173z"/>
				<path fill="#FF9500" d="M161.068,95.786c11.756,7.102,7.623,21.477,0.719,30.859
					C153.484,116.098,151.131,106.443,161.068,95.786z"/>
				<path fill="#FF9500" d="M224.227,110.856c-0.74,7.875-2.871,14.356-5.024,20.813c-6.445-0.254-11.892-1.506-17.226-2.871
					c0.521-8.578,3.291-13.604,5.742-21.53C213.877,107.808,219.646,108.738,224.227,110.856z"/>
				<path fill="#FF9500" d="M245.756,113.728c-1.373,10.348-4.4,19.045-6.459,28.708c-5.873-1.303-9.725-4.63-13.635-7.896
					c1.42-7.907,4.244-14.413,6.457-21.53C236.525,113.389,242.51,112.188,245.756,113.728z"/>
				<path fill="#FF9500" d="M175.422,114.445c3.184,2.878,16.863,15.566,17.227,20.095c0.427,5.324-5.471,8.067-6.461,14.354
					c-8.539-3.181-13.916-9.526-20.813-14.354C167.287,126.403,172.547,121.616,175.422,114.445z"/>
				<path fill="#FF9500" d="M214.896,138.846c-1.826,7.743-5.959,13.181-9.33,19.378c-5.91-1.267-10.256-4.099-15.072-6.459
					c2.164-5.969,4.738-11.528,7.895-16.507C203.678,136.668,209.674,137.371,214.896,138.846z"/>
				<path fill="#FF9500" d="M181.883,158.941c-1.773,6.838-4.891,12.335-8.611,17.225c-7.096-1.756-11.881-5.822-17.227-9.33
					c1.205-6.69,3.705-12.085,5.742-17.942C170.332,150.396,175.705,155.071,181.883,158.941z"/>
				<path fill="#FF9500" d="M201.26,165.4c-1.584,7.508-5.064,13.117-8.611,18.66c-3.907,0.412-9.785-3.029-13.637-5.024
					c1.58-7.75,5.703-12.956,8.611-19.377C192.799,160.941,197.033,163.167,201.26,165.4z"/>
				<path fill="#FF9500" d="M168.965,189.083c-1.732,5.207-4.125,9.751-6.459,14.354c-7.568-2.719-12.522-8.051-18.66-12.201
					c0.723-6.694,3.683-11.15,6.46-15.789C157.516,179.001,162.941,184.34,168.965,189.083z"/>
				<path fill="#FF9500" d="M185.471,195.543c-0.184,5.403-5.641,11.521-7.895,17.224c-4.76-0.982-8.244-3.238-11.482-5.74
					c1.98-5.676,4.723-10.586,7.178-15.791C178.465,191.543,182.314,193.197,185.471,195.543z"/>
				<path fill="#FF9500" d="M156.045,215.638c-1.602,7.725-5.621,13.037-9.328,18.659c-3.472-5.158-14.084-9.24-15.071-15.788
					c-0.891-5.899,5.114-9.956,6.459-16.508C145.754,204.877,150.488,210.669,156.045,215.638z"/>
				<path fill="#FF9500" d="M172.553,221.379c-2.732,7.316-7.281,12.815-10.047,20.096c-4.033-0.514-7.699-1.392-10.766-2.871
					c1.398-8.648,6.391-13.705,9.328-20.813C165.91,217.976,168.75,220.157,172.553,221.379z"/>
				<path fill="#FF9500" d="M128.774,231.426c4.086,4.646,14.447,8.221,15.071,14.354c0.584,5.748-6.254,8.359-7.895,14.354
					c-4.217-3.198-8.876-5.954-12.2-10.048C125.524,243.966,127.351,237.896,128.774,231.426z"/>
				<path fill="#FF9500" d="M155.328,247.932c-1.008,6.861-9.271,17.675-16.506,22.968c1.635-10.086,7.614-15.832,10.764-24.404
					C151.918,246.558,154.002,246.867,155.328,247.932z"/>
				<path fill="#FF9500" d="M121.597,259.417c3.956,0.589,5.851,3.239,8.613,5.022c-0.009,1.906,0.271,4.099-0.718,5.023
					C123.721,269.256,122.691,264.303,121.597,259.417z"/>
			</g>
		</g>
	</g>
	<g>
		<g enable-background="new    ">
			<path fill="#EF1C25" d="M54.95,345.447h17.908v34.604c0,3.432-0.535,6.672-1.604,9.72c-1.07,3.049-2.748,5.715-5.032,7.998
				c-2.285,2.283-4.682,3.887-7.191,4.811c-3.486,1.293-7.673,1.939-12.559,1.939c-2.827,0-5.91-0.198-9.251-0.594
				c-3.342-0.396-6.135-1.181-8.379-2.355c-2.245-1.175-4.299-2.844-6.161-5.009c-1.862-2.164-3.137-4.395-3.823-6.69
				c-1.109-3.695-1.664-6.969-1.664-9.819v-34.604h17.908v35.428c0,3.167,0.878,5.642,2.635,7.422
				c1.756,1.782,4.193,2.672,7.31,2.672c3.09,0,5.513-0.877,7.27-2.632c1.756-1.755,2.635-4.242,2.635-7.462V345.447z"/>
			<path fill="#EF1C25" d="M84.981,403.528v-58.081h29.912c5.547,0,9.786,0.476,12.718,1.426c2.932,0.951,5.295,2.714,7.092,5.289
				c1.796,2.575,2.694,5.712,2.694,9.41c0,3.223-0.687,6.002-2.061,8.34c-1.375,2.337-3.265,4.232-5.669,5.685
				c-1.533,0.925-3.634,1.691-6.303,2.298c2.138,0.715,3.695,1.429,4.672,2.142c0.66,0.477,1.616,1.494,2.87,3.054
				c1.254,1.561,2.092,2.763,2.514,3.608l8.691,16.83h-20.279l-9.593-17.749c-1.215-2.298-2.298-3.79-3.249-4.478
				c-1.294-0.897-2.76-1.347-4.397-1.347h-1.585v23.573H84.981z M103.007,368.98h7.567c0.818,0,2.403-0.264,4.754-0.792
				c1.188-0.238,2.159-0.845,2.912-1.822c0.753-0.978,1.129-2.101,1.129-3.368c0-1.875-0.594-3.314-1.783-4.318
				c-1.189-1.004-3.421-1.506-6.696-1.506h-7.884V368.98z"/>
			<path fill="#EF1C25" d="M147.975,345.447h16.76l21.869,32.133v-32.133h16.916v58.081h-16.916l-21.752-31.891v31.891h-16.877
				V345.447z"/>
			<path fill="#EF1C25" d="M244.645,382.49v-12.083h27.734v24.762c-5.309,3.619-10.004,6.081-14.084,7.389
				c-4.082,1.308-8.922,1.961-14.521,1.961c-6.893,0-12.514-1.175-16.857-3.525c-4.346-2.351-7.713-5.851-10.104-10.499
				s-3.584-9.984-3.584-16.007c0-6.339,1.307-11.852,3.922-16.541c2.615-4.688,6.443-8.246,11.488-10.677
				c3.936-1.875,9.232-2.813,15.889-2.813c6.418,0,11.217,0.582,14.4,1.744s5.824,2.965,7.924,5.407
				c2.1,2.443,3.678,5.541,4.734,9.291l-17.313,3.09c-0.713-2.191-1.922-3.869-3.625-5.031c-1.705-1.162-3.877-1.743-6.518-1.743
				c-3.936,0-7.072,1.367-9.41,4.101s-3.506,7.059-3.506,12.976c0,6.286,1.182,10.775,3.545,13.47s5.66,4.041,9.885,4.041
				c2.008,0,3.924-0.29,5.746-0.871s3.908-1.571,6.26-2.972v-5.468H244.645z"/>
		</g>
		<g enable-background="new    ">
			<path fill="#EF1C25" d="M16.955,412.658h23.603l9.103,35.34l9.038-35.34h23.588v58.081H67.588v-44.294l-11.326,44.294H42.958
				l-11.304-44.294v44.294H16.955V412.658z"/>
			<path fill="#EF1C25" d="M140.398,461.151h-20.375l-2.831,9.588H98.866l21.83-58.081h19.577l21.825,58.081h-18.793
				L140.398,461.151z M136.675,448.593l-6.411-20.88l-6.344,20.88H136.675z"/>
			<path fill="#EF1C25" d="M179.471,412.658h17.986v58.081h-17.986V412.658z"/>
			<path fill="#EF1C25" d="M219.82,412.658h50.793v11.608l-32.605,33.993h33.793v12.479h-55.109v-12.044l32.262-33.637H219.82
				V412.658z"/>
		</g>
	</g>
</g>
</svg>
