<?xml version="1.0" encoding="utf-8"?>
<!-- Generator: Adobe Illustrator 15.0.2, SVG Export Plug-In . SVG Version: 6.00 Build 0)  -->
<!DOCTYPE svg PUBLIC "-//W3C//DTD SVG 1.1//EN" "http://www.w3.org/Graphics/SVG/1.1/DTD/svg11.dtd">
<svg version="1.1" id="Layer_1" xmlns="http://www.w3.org/2000/svg" xmlns:xlink="http://www.w3.org/1999/xlink" x="0px" y="0px"
	 width="200px" height="200px" viewBox="0 0 200 200" enable-background="new 0 0 200 200" xml:space="preserve">
<g>
	<g>
		<path fill="#0000FF" d="M168.128,124.37c0,37.598-30.474,68.066-68.063,68.066c-37.593,0-68.067-30.469-68.067-68.066
			c0-37.59,30.475-68.064,68.067-68.064C137.654,56.306,168.128,86.78,168.128,124.37z"/>
		<path fill="#FFFFFF" d="M152.011,124.37c0,28.694-23.259,51.95-51.946,51.95c-28.691,0-51.951-23.256-51.951-51.95
			c0-28.688,23.259-51.947,51.951-51.947C128.752,72.423,152.011,95.683,152.011,124.37z"/>
		<path fill="#FF0000" d="M134,124.367c0,18.75-15.191,33.946-33.935,33.946c-18.746,0-33.942-15.196-33.942-33.946
			c0-18.741,15.197-33.938,33.942-33.938C118.809,90.43,134,105.626,134,124.367z"/>
		<circle fill="#FFFF00" cx="100.063" cy="124.37" r="17.708"/>
	</g>
	<g>
		<path fill="#0000FF" d="M60.431,28.511c-3.462,9.121-13.578,13.493-30.808,13.493c-17.227,0-24.105-4.372-20.643-13.493
			l7.652-20.163h17.388l-6.796,17.909c-1.277,3.363-2.866,7.551,5.59,7.551c8.218,0,9.807-4.188,11.084-7.551l6.796-17.909h17.388
			L60.431,28.511z"/>
		<path fill="#0000FF" d="M109.852,20.593c0.135-1.195-0.063-4.831-7.258-4.831c-8.14,0-12.495,4.602-14.172,9.024
			c-1.678,4.417-0.818,9.021,7.322,9.021c5.852,0,9.048-2.393,11.25-5.479h17.072c-2.517,6.63-14.44,13.675-30.959,13.675
			c-18.256,0-25.762-7.504-22.073-17.218C74.965,14.427,88.792,7.563,106.18,7.563c15.475,0.049,22.207,4.79,20.584,13.029H109.852z
			"/>
		<path fill="#0000FF" d="M141.07,8.348h17.785l9.762,17.586h0.16l6.674-17.586h16.438L179.412,41.22h-16.913l-10.495-17.955h-0.158
			l-6.811,17.955h-16.444L141.07,8.348z"/>
	</g>
</g>
</svg>
