<?xml version="1.0" encoding="utf-8"?>
<!-- Generator: Adobe Illustrator 15.0.2, SVG Export Plug-In . SVG Version: 6.00 Build 0)  -->
<!DOCTYPE svg PUBLIC "-//W3C//DTD SVG 1.1//EN" "http://www.w3.org/Graphics/SVG/1.1/DTD/svg11.dtd">
<svg version="1.1" id="Layer_1" xmlns="http://www.w3.org/2000/svg" xmlns:xlink="http://www.w3.org/1999/xlink" x="0px" y="0px"
	 width="260px" height="300px" viewBox="0 0 260 300" enable-background="new 0 0 260 300" xml:space="preserve">
<g>
	<g>
		<path fill="#FFFFFF" d="M256.588,269.556c0,13.208-11.334,23.911-25.317,23.911H28.729c-13.983,0-25.318-10.703-25.318-23.911
			V30.445c0-13.207,11.335-23.912,25.318-23.912h202.542c13.983,0,25.317,10.705,25.317,23.912V269.556z"/>
		<path fill="none" stroke="#50A700" stroke-width="3" stroke-miterlimit="10" d="M256.588,269.556
			c0,13.208-11.334,23.911-25.317,23.911H28.729c-13.983,0-25.318-10.703-25.318-23.911V30.445
			c0-13.207,11.335-23.912,25.318-23.912h202.542c13.983,0,25.317,10.705,25.317,23.912V269.556z"/>
	</g>
	<g>
		<path fill="#50A700" d="M90.911,259.439c0,18.565-11.049,27.473-33.56,27.473c-22.51,0-33.661-8.907-33.661-27.473v-41.067h22.716
			v36.474c0,6.845,0,15.377,11.05,15.377c10.737,0,10.737-8.532,10.737-15.377v-36.474h22.718V259.439z"/>
		<path fill="#50A700" d="M98.344,218.372h23.232l21.479,35.818h0.206v-35.818h21.478v66.946h-22.097l-22.614-36.567h-0.207v36.567
			H98.344V218.372z"/>
		<path fill="#50A700" d="M172.479,218.372h61.026v17.158h-38.31v8.346h34.799v15.938h-34.799v8.346h39.445v17.158h-62.162V218.372z
			"/>
	</g>
	<g>
		<g>
			<g id="XMLID_1_">
				<g>
					<path fill="#FFFFFF" d="M36.463,92.439c-3.773-7.792-0.277-13.949,1.389-16.236c0.261-0.359,0.539-0.703,0.833-1.029
						l-0.212-0.196c-3.136-7.481-0.588-12.985,3.332-15.844c1.013-0.735,2.14-1.323,3.349-1.715l-0.065-0.196
						c2.107-4.508,6.86-7.563,12.12-7.808c0.212,0,0.425,0,0.653,0c1.715,0,4.263,0.31,6.926,1.715v-0.016
						c0.735-0.359,1.519-0.67,2.352-0.915c1.258-0.359,2.564-0.555,3.888-0.555c3.479,0,8.673,1.291,13.606,7.399l27.915,34.987
						c0.229-0.653,0.49-1.454,0.784-2.434c0.327-1.143,0.621-2.14,1.013-3.021c0.441-1.078,0.85-2.222,1.241-3.316
						c1.977-5.488,4.982-13.786,14.456-13.786c0.294,0,0.604,0,0.915,0.032c0.098-0.016,0.196-0.016,0.294-0.016
						c4.655,0,8.494,1.878,11.091,5.423c1.862,2.532,2.793,5.488,3.626,8.085c0.408,1.29,0.833,2.63,1.323,3.838
						c0.392,0.898,0.686,1.895,1.029,3.038c0.277,0.964,0.539,1.764,0.768,2.434l27.882-34.955
						c4.966-6.158,10.159-7.432,13.639-7.432c1.323,0,2.63,0.18,3.888,0.539c0.85,0.245,1.633,0.556,2.352,0.915
						c0.017,0.016,0.017,0,0.017,0c2.646-1.389,5.194-1.699,6.909-1.699c0.229,0,0.441,0,0.653,0.016
						c5.26,0.229,10.013,3.3,12.12,7.792c0.049,0.082,0.082,0.18,0.114,0.261c1.144,0.392,2.205,0.947,3.169,1.65
						c3.985,2.907,6.533,8.51,3.201,16.138c0.262,0.294,0.507,0.604,0.752,0.931c1.666,2.287,5.161,8.461,1.388,16.236
						c-0.131,0.311-0.311,0.621-0.522,0.915l-20.956,30.348c-2.271,16.138-11.304,27.719-29.059,37.323l-5.161,6.158l27.539,39.169
						v0.833H64.623v-1.095l27.539-39.186l-5.161-6.157c-17.755-9.589-26.788-21.169-29.058-37.323L36.986,93.338
						C36.774,93.044,36.61,92.75,36.463,92.439z"/>
					<path fill="#50A700" d="M16.487,172.704V49.987c0-19.192,15.174-34.742,33.893-34.742h159.256
						c18.719,0,33.893,15.55,33.893,34.742v122.717c0,19.192-15.174,34.743-33.893,34.743H197.01v-0.833l-27.539-39.169l5.161-6.158
						c17.755-9.604,26.788-21.185,29.059-37.323l20.956-30.348c0.212-0.294,0.392-0.604,0.522-0.915
						c3.773-7.775,0.278-13.949-1.388-16.236c-0.245-0.327-0.49-0.637-0.752-0.931c3.332-7.628,0.784-13.23-3.201-16.138
						c-0.964-0.703-2.025-1.258-3.169-1.65c-0.032-0.082-0.065-0.18-0.114-0.261c-2.107-4.492-6.86-7.563-12.12-7.792
						c-0.212-0.016-0.425-0.016-0.653-0.016c-1.715,0-4.263,0.31-6.909,1.699c0,0,0,0.016-0.017,0
						c-0.719-0.359-1.502-0.67-2.352-0.915c-1.258-0.359-2.564-0.539-3.888-0.539c-3.479,0-8.673,1.274-13.639,7.432l-27.882,34.955
						c-0.229-0.669-0.49-1.47-0.768-2.434c-0.344-1.144-0.638-2.14-1.029-3.038c-0.49-1.208-0.915-2.548-1.323-3.838
						c-0.833-2.597-1.764-5.554-3.626-8.085c-2.597-3.544-6.436-5.423-11.091-5.423c-0.098,0-0.196,0-0.294,0.016
						c-0.311-0.032-0.621-0.032-0.915-0.032c-9.474,0-12.479,8.297-14.456,13.786c-0.392,1.094-0.8,2.238-1.241,3.316
						c-0.392,0.882-0.686,1.878-1.013,3.021c-0.294,0.98-0.555,1.781-0.784,2.434L84.632,57.044
						c-4.933-6.109-10.127-7.399-13.606-7.399c-1.323,0-2.63,0.196-3.888,0.555c-0.833,0.245-1.617,0.556-2.352,0.915v0.016
						c-2.663-1.405-5.21-1.715-6.926-1.715c-0.229,0-0.441,0-0.653,0c-5.259,0.245-10.013,3.299-12.12,7.808l0.065,0.196
						c-1.209,0.392-2.336,0.98-3.349,1.715c-3.92,2.859-6.468,8.363-3.332,15.844l0.212,0.196c-0.294,0.327-0.572,0.67-0.833,1.029
						c-1.666,2.287-5.162,8.444-1.389,16.236c0.147,0.311,0.311,0.604,0.523,0.898l20.957,30.349
						c2.27,16.154,11.303,27.734,29.058,37.323l5.161,6.157l-27.539,39.186v1.095H50.38
						C31.661,207.447,16.487,191.896,16.487,172.704z"/>
				</g>
				<g>
				</g>
			</g>
		</g>
	</g>
	<g>
		<g>
			<g>
				<path fill="#50A700" d="M76.243,207.174l-4.164-2.345l26.64-37.896l-8.032-9.587c-17.382-9.164-25.649-19.761-27.521-35.283
					L41.577,90.796c-0.061-0.089-0.116-0.184-0.164-0.28c-2.723-5.626-0.237-10.023,0.959-11.654
					c1.621-2.211,3.761-3.529,5.723-3.529v4.402c0.103,0,0.16-0.013,0.162-0.015c-0.322,0.083-1.473,0.818-2.329,2.448
					c-0.614,1.163-1.421,3.532-0.068,6.456l21.787,31.553c0.197,0.285,0.317,0.607,0.355,0.94
					c1.611,14.554,9.027,24.015,25.591,32.651c0.285,0.147,0.534,0.346,0.73,0.582l9.344,11.151c0.612,0.73,0.656,1.722,0.115,2.493
					L76.243,207.174z"/>
			</g>
			<g>
				<path fill="#50A700" d="M79.739,122.561L45.563,77c-0.028-0.037-0.054-0.075-0.081-0.113c-4.64-7.078-3.183-11.872-0.271-13.999
					c2.734-1.995,6.717-1.715,9.694,0.685c0.14,0.113,0.268,0.241,0.374,0.38l38.604,49.743l-4.038,2.511L51.418,66.694
					c-1.101-0.798-2.323-0.962-3.096-0.396c-1.324,0.966-1.454,3.976,1.365,8.305l34.136,45.505L79.739,122.561z"/>
			</g>
			<g>
				<path fill="#50A700" d="M97.929,110.005L62.523,62.242c-0.04-0.055-0.078-0.108-0.112-0.166
					c-1.386-2.279-3.053-3.489-4.687-3.422c-1.277,0.058-2.56,0.938-3.128,2.142c-0.29,0.62-0.61,1.827,0.503,2.95l-3.679,2.922
					c-2.086-2.105-2.595-4.937-1.357-7.576c1.31-2.792,4.22-4.689,7.412-4.833c2.084-0.093,6.056,0.515,9.201,5.627l35.351,47.686
					L97.929,110.005z"/>
			</g>
			<g>
				<path fill="#50A700" d="M185.377,207.442l-27.539-39.18c-0.544-0.771-0.498-1.763,0.115-2.491l9.342-11.153
					c0.198-0.236,0.447-0.435,0.729-0.581c16.567-8.638,23.981-18.096,25.595-32.651c0.035-0.334,0.158-0.655,0.354-0.941
					l21.787-31.552c1.353-2.925,0.546-5.294-0.068-6.456c-0.858-1.631-2.008-2.366-2.328-2.448c0.002,0.001,0.058,0.014,0.16,0.014
					V75.6c1.964,0,4.105,1.319,5.724,3.53c1.196,1.63,3.682,6.027,0.959,11.653c-0.048,0.096-0.103,0.191-0.166,0.281
					l-21.587,31.266c-1.872,15.525-10.141,26.12-27.521,35.284l-8.033,9.586l26.639,37.897L185.377,207.442z"/>
			</g>
			<g>
				<path fill="#50A700" d="M181.876,122.829l-4.08-2.453l34.137-45.505c2.819-4.33,2.688-7.34,1.364-8.305
					c-0.771-0.566-1.996-0.402-3.097,0.396l-38.426,49.512l-4.039-2.51l38.604-49.744c0.108-0.139,0.235-0.268,0.377-0.38
					c2.974-2.398,6.96-2.68,9.691-0.686c2.913,2.128,4.369,6.923-0.271,14c-0.025,0.038-0.051,0.077-0.08,0.114L181.876,122.829z"/>
			</g>
			<g>
				<path fill="#50A700" d="M163.691,110.274l-4.099-2.435l35.351-47.686c3.144-5.112,7.105-5.721,9.201-5.628
					c3.194,0.144,6.103,2.042,7.413,4.833c1.236,2.641,0.729,5.472-1.359,7.577l-3.677-2.923c1.113-1.122,0.791-2.33,0.501-2.95
					c-0.564-1.203-1.849-2.084-3.126-2.141c-1.625-0.074-3.302,1.142-4.687,3.421c-0.033,0.058-0.07,0.112-0.112,0.166
					L163.691,110.274z"/>
			</g>
			<g>
				<path fill="#50A700" d="M147.754,103.514c-0.47,0-0.934-0.046-1.393-0.141c-5.024-1.014-6.835-7.097-8.035-11.12
					c-0.263-0.878-0.509-1.704-0.693-2.124c-0.007-0.018-0.016-0.036-0.023-0.054c-0.634-1.554-1.113-3.071-1.581-4.539
					c-1.737-5.462-2.571-6.925-5.14-6.784c-0.146,0.008-0.292,0.004-0.437-0.012c-2.064-0.219-3.18,2.193-5.049,7.366
					c-0.433,1.203-0.883,2.445-1.395,3.7c-0.008,0.018-0.016,0.037-0.023,0.055c-0.188,0.419-0.431,1.246-0.692,2.123
					c-1.199,4.024-3.009,10.106-8.036,11.121c-3.269,0.662-6.761-1.022-10.677-5.145c-0.044-0.047-0.087-0.097-0.127-0.146
					L76.255,62.451c-2.154-2.664-4.325-3.929-5.943-3.459c-1.318,0.383-2.301,1.854-2.301,2.913h-4.917c0-2.64,1.996-6.026,5.7-7.1
					c2.226-0.645,6.669-0.842,11.455,5.076l28.146,35.298c3.564,3.73,5.324,3.726,5.78,3.634c2.122-0.43,3.696-5.709,4.367-7.963
					c0.319-1.074,0.571-1.926,0.857-2.578c0.475-1.171,0.907-2.365,1.323-3.519c1.94-5.371,3.951-10.924,10.085-10.406
					c6.715-0.233,8.425,5.188,9.948,9.983c0.441,1.383,0.898,2.813,1.465,4.211c0.285,0.651,0.537,1.503,0.858,2.576
					c0.669,2.254,2.242,7.532,4.365,7.963c0.454,0.093,2.214,0.1,5.78-3.634L181.36,60.16c4.797-5.929,9.238-5.73,11.464-5.087
					c3.702,1.073,5.701,4.46,5.701,7.1h-4.918c0-1.059-0.983-2.529-2.299-2.912c-1.62-0.471-3.791,0.796-5.954,3.471l-28.188,35.352
					c-0.04,0.051-0.082,0.099-0.127,0.146C153.673,101.773,150.621,103.514,147.754,103.514z"/>
			</g>
		</g>
	</g>
</g>
</svg>
