<?xml version="1.0" encoding="utf-8"?>
<!-- Generator: Adobe Illustrator 15.0.2, SVG Export Plug-In . SVG Version: 6.00 Build 0)  -->
<!DOCTYPE svg PUBLIC "-//W3C//DTD SVG 1.1//EN" "http://www.w3.org/Graphics/SVG/1.1/DTD/svg11.dtd">
<svg version="1.1" id="Layer_1" xmlns="http://www.w3.org/2000/svg" xmlns:xlink="http://www.w3.org/1999/xlink" x="0px" y="0px"
	 width="198px" height="252px" viewBox="0 0 198 252" enable-background="new 0 0 198 252" xml:space="preserve">
<rect width="198" height="252"/>
<circle fill="#F7403A" cx="99" cy="102.001" r="35"/>
<rect x="92.687" y="13.167" fill="#8ED300" width="12.627" height="44.036"/>
<rect x="45.441" y="32.736" transform="matrix(0.7071 -0.7071 0.7071 0.7071 -23.5586 52.6332)" fill="#F9DF42" width="12.627" height="44.036"/>
<rect x="10.167" y="95.686" fill="#F99D0D" width="44.037" height="12.627"/>
<rect x="45.44" y="127.226" transform="matrix(-0.7071 -0.7071 0.7071 -0.7071 -17.1902 291.3683)" fill="#EE2737" width="12.628" height="44.037"/>
<rect x="92.685" y="146.796" fill="#8433B3" width="12.628" height="44.036"/>
<rect x="139.93" y="127.228" transform="matrix(-0.7072 0.707 -0.707 -0.7072 355.1867 151.3908)" fill="#007CCB" width="12.628" height="44.036"/>
<rect x="143.796" y="95.687" fill="#75D0DF" width="44.036" height="12.628"/>
<rect x="139.932" y="32.737" transform="matrix(0.707 0.7072 -0.7072 0.707 81.5637 -87.3792)" fill="#0DAF2B" width="12.628" height="44.036"/>
<g>
	<path fill="#FFFFFF" d="M39.613,215.81h5.831v2.381c1.322-1.114,2.521-1.89,3.593-2.325c1.074-0.437,2.172-0.654,3.296-0.654
		c2.304,0,4.259,0.805,5.865,2.414c1.351,1.366,2.026,3.389,2.026,6.065v15.356h-5.768v-10.176c0-2.773-0.124-4.615-0.373-5.525
		c-0.248-0.91-0.682-1.604-1.299-2.08c-0.619-0.477-1.382-0.715-2.291-0.715c-1.18,0-2.191,0.395-3.036,1.184
		c-0.845,0.79-1.432,1.882-1.759,3.275c-0.17,0.726-0.255,2.297-0.255,4.714v9.323h-5.831V215.81z"/>
	<path fill="#FFFFFF" d="M67.263,206.24c1.022,0,1.899,0.371,2.63,1.111c0.731,0.74,1.098,1.638,1.098,2.69
		c0,1.04-0.363,1.927-1.087,2.659c-0.724,0.733-1.591,1.101-2.599,1.101c-1.036,0-1.92-0.374-2.65-1.122
		c-0.732-0.747-1.098-1.655-1.098-2.723c0-1.025,0.362-1.901,1.086-2.627C65.367,206.604,66.24,206.24,67.263,206.24z
		 M64.348,215.81h5.83v23.237h-5.83V215.81z"/>
	<path fill="#FFFFFF" d="M85.514,215.211c2.192,0,4.254,0.549,6.184,1.645c1.929,1.097,3.435,2.585,4.517,4.464
		c1.082,1.88,1.624,3.909,1.624,6.087c0,2.193-0.545,4.244-1.634,6.151c-1.09,1.908-2.574,3.399-4.454,4.475
		c-1.879,1.075-3.951,1.612-6.215,1.612c-3.332,0-6.176-1.185-8.532-3.556c-2.357-2.371-3.535-5.251-3.535-8.64
		c0-3.631,1.331-6.656,3.994-9.077C79.797,216.265,82.481,215.211,85.514,215.211z M85.61,220.7c-1.812,0-3.32,0.63-4.525,1.891
		c-1.205,1.26-1.808,2.872-1.808,4.837c0,2.022,0.596,3.66,1.786,4.913s2.699,1.879,4.525,1.879c1.825,0,3.345-0.633,4.557-1.9
		s1.818-2.897,1.818-4.892c0-1.993-0.596-3.612-1.786-4.858C88.986,221.323,87.464,220.7,85.61,220.7z"/>
	<path fill="#FFFFFF" d="M101.726,215.81h5.831v2.381c1.322-1.114,2.52-1.89,3.594-2.325c1.073-0.437,2.172-0.654,3.295-0.654
		c2.304,0,4.258,0.805,5.865,2.414c1.351,1.366,2.026,3.389,2.026,6.065v15.356h-5.768v-10.176c0-2.773-0.124-4.615-0.373-5.525
		c-0.248-0.91-0.682-1.604-1.3-2.08s-1.381-0.715-2.29-0.715c-1.179,0-2.191,0.395-3.036,1.184c-0.846,0.79-1.432,1.882-1.758,3.275
		c-0.171,0.726-0.256,2.297-0.256,4.714v9.323h-5.831V215.81z"/>
	<path fill="#FFFFFF" d="M129.375,206.24c1.022,0,1.899,0.371,2.631,1.111c0.73,0.74,1.097,1.638,1.097,2.69
		c0,1.04-0.362,1.927-1.086,2.659c-0.725,0.733-1.591,1.101-2.599,1.101c-1.036,0-1.921-0.374-2.651-1.122
		c-0.731-0.747-1.097-1.655-1.097-2.723c0-1.025,0.361-1.901,1.086-2.627C127.479,206.604,128.353,206.24,129.375,206.24z
		 M126.46,215.81h5.831v23.237h-5.831V215.81z"/>
	<path fill="#FFFFFF" d="M150.937,219.056l-3.609,3.609c-1.467-1.452-2.798-2.179-3.994-2.179c-0.655,0-1.168,0.139-1.538,0.417
		c-0.37,0.277-0.555,0.623-0.555,1.035c0,0.313,0.117,0.603,0.353,0.865c0.234,0.264,0.814,0.623,1.74,1.079l2.136,1.067
		c2.25,1.111,3.795,2.243,4.635,3.396s1.261,2.506,1.261,4.058c0,2.064-0.759,3.788-2.275,5.169
		c-1.516,1.381-3.549,2.071-6.098,2.071c-3.389,0-6.095-1.324-8.116-3.973l3.589-3.908c0.683,0.798,1.484,1.441,2.402,1.933
		c0.919,0.491,1.733,0.737,2.445,0.737c0.77,0,1.389-0.185,1.858-0.556c0.47-0.37,0.705-0.797,0.705-1.281
		c0-0.897-0.848-1.772-2.542-2.627l-1.965-0.982c-3.759-1.894-5.639-4.265-5.639-7.112c0-1.837,0.708-3.407,2.125-4.71
		s3.229-1.954,5.436-1.954c1.51,0,2.93,0.331,4.262,0.993C148.883,216.866,150.011,217.816,150.937,219.056z"/>
	<path fill="#FFFFFF" d="M155.786,207.244h5.831v8.565h3.46v5.019h-3.46v18.219h-5.831v-18.219h-2.99v-5.019h2.99V207.244z"/>
	<path fill="#FFFFFF" d="M184.471,215.81h5.831v23.237h-5.831v-2.456c-1.138,1.082-2.279,1.861-3.424,2.339
		c-1.145,0.477-2.386,0.715-3.723,0.715c-3.001,0-5.597-1.164-7.786-3.492c-2.19-2.327-3.285-5.222-3.285-8.682
		c0-3.588,1.06-6.528,3.179-8.821c2.119-2.292,4.692-3.438,7.723-3.438c1.394,0,2.701,0.264,3.925,0.79
		c1.223,0.527,2.354,1.317,3.392,2.371V215.81z M178.342,220.594c-1.803,0-3.3,0.637-4.491,1.911
		c-1.192,1.274-1.788,2.908-1.788,4.901c0,2.008,0.605,3.66,1.819,4.955c1.214,1.296,2.707,1.944,4.48,1.944
		c1.831,0,3.35-0.638,4.556-1.912s1.81-2.943,1.81-5.008c0-2.022-0.604-3.66-1.81-4.913S180.187,220.594,178.342,220.594z"/>
	<g>
		<path fill="#FFFFFF" d="M7.834,197.949h7.769v26.298c0,2.266,0.198,3.868,0.594,4.807c0.396,0.939,1.051,1.69,1.963,2.252
			c0.912,0.562,2.013,0.842,3.304,0.842c1.364,0,2.539-0.313,3.525-0.938c0.985-0.626,1.667-1.423,2.046-2.39
			c0.377-0.967,0.566-2.813,0.566-5.539v-25.331h7.769v24.246c0,4.092-0.23,6.93-0.691,8.515c-0.461,1.586-1.341,3.115-2.64,4.59
			s-2.797,2.566-4.493,3.276c-1.696,0.709-3.668,1.063-5.917,1.063c-2.949,0-5.515-0.677-7.699-2.031
			c-2.184-1.355-3.746-3.051-4.686-5.087c-0.94-2.037-1.41-5.479-1.41-10.326V197.949z"/>
	</g>
</g>
</svg>
