<?xml version="1.0" encoding="utf-8"?>
<!-- Generator: Adobe Illustrator 15.0.2, SVG Export Plug-In . SVG Version: 6.00 Build 0)  -->
<!DOCTYPE svg PUBLIC "-//W3C//DTD SVG 1.1//EN" "http://www.w3.org/Graphics/SVG/1.1/DTD/svg11.dtd">
<svg version="1.1" id="Layer_1" xmlns="http://www.w3.org/2000/svg" xmlns:xlink="http://www.w3.org/1999/xlink" x="0px" y="0px"
	 width="200px" height="200px" viewBox="0 0 200 200" enable-background="new 0 0 200 200" xml:space="preserve">
<g>
	<g>
		<path fill="#ED1C24" d="M61.597,141.318c24.994,0,49.987,0,74.981,0c5.59,0,5.59-8.668,0-8.668c-24.994,0-49.987,0-74.981,0
			C56.007,132.65,56.007,141.318,61.597,141.318L61.597,141.318z"/>
	</g>
	<g>
		<path fill="#ED1C24" d="M49.77,192.848c32.879,0,65.756,0,98.634,0c7.354,0,7.354-8.668,0-8.668c-32.878,0-65.755,0-98.634,0
			C42.417,184.18,42.417,192.848,49.77,192.848L49.77,192.848z"/>
	</g>
	<g>
		<g>
			<path fill="#2E3192" d="M20.742,178.07h-6.485L2.309,148.033h7.889l7.314,18.23l7.327-18.23h7.899L20.742,178.07z"/>
		</g>
		<g>
			<path fill="#2E3192" d="M43.139,178.07h-7.722v-30.037h7.722V178.07z"/>
		</g>
		<g>
			<path fill="#2E3192" d="M60.671,178.467c-4.238,0-7.889-1.496-10.849-4.447c-2.962-2.951-4.463-6.6-4.463-10.846
				c0-4.32,1.529-8.029,4.544-11.023c4.939-4.906,11.878-5.906,19.924-2.531l0.354,0.146v8.418l-0.864-0.492
				c-3.19-1.816-6.006-2.738-8.368-2.738c-2.327,0-4.131,0.73-5.515,2.232c-1.377,1.496-2.075,3.555-2.075,6.119
				c0,2.443,0.711,4.334,2.173,5.781c1.442,1.43,3.413,2.154,5.858,2.154c2.18,0,4.85-0.857,7.936-2.547l0.855-0.469v8.393
				l-0.403,0.129C66.166,177.887,63.102,178.467,60.671,178.467z"/>
		</g>
		<g>
			<path fill="#2E3192" d="M86.874,178.07h-7.723v-22.744h-6.937v-7.293h21.644v7.293h-6.984V178.07z"/>
		</g>
		<g>
			<path fill="#2E3192" d="M109.783,178.422c-4.575,0-8.399-1.461-11.366-4.342c-2.973-2.885-4.48-6.6-4.48-11.039
				c0-4.414,1.564-8.111,4.65-10.992c3.074-2.869,6.771-4.322,10.987-4.322c4.647,0,8.552,1.463,11.604,4.348
				c3.061,2.895,4.612,6.6,4.612,11.01c0,4.383-1.535,8.076-4.563,10.977C118.205,176.955,114.355,178.422,109.783,178.422z
				 M109.685,154.643c-2.316,0-4.133,0.76-5.554,2.322c-1.455,1.596-2.193,3.699-2.193,6.252c0,2.402,0.752,4.416,2.232,5.982
				c1.492,1.58,3.328,2.348,5.613,2.348c2.408,0,4.293-0.756,5.763-2.314c1.458-1.547,2.197-3.629,2.197-6.191
				c0-2.518-0.724-4.561-2.151-6.068c-1.441-1.525-3.313-2.287-5.727-2.328L109.685,154.643z"/>
		</g>
		<path fill="#2E3192" d="M145.044,165.693c1.957-0.936,3.347-2.191,4.135-3.738c0.852-1.672,1.283-3.314,1.283-4.879
			c0-2.76-0.963-4.984-2.861-6.615c-1.873-1.611-4.434-2.428-7.613-2.428h-10.613v30.037h7.723v-10.982l7.75,10.982h8.962
			L145.044,165.693z M137.986,161.281h-1.421v-7.523h1.514c1.583,0,2.821,0.32,3.714,0.957c0.893,0.639,1.339,1.5,1.339,2.586
			C143.132,159.953,141.416,161.281,137.986,161.281z"/>
		<g>
			<path fill="#2E3192" d="M163.881,178.07h-7.723v-30.037h7.723V178.07z"/>
		</g>
		<path fill="#2E3192" d="M184.784,148.033h-5.852l-12.688,30.037h7.828l2.389-5.676h10.927l2.438,5.676h7.866L184.784,148.033z
			 M178.279,166.582l3.581-8.512l3.658,8.512H178.279z"/>
	</g>
	<g>
		<path fill="#ED1C24" d="M88.686,129.087c-8.091-13.292-23.26-16.037-31.679-32.073c-6.028-9.969-3.283-27.161,2.495-30.05
			c2.052,8.478,4.768,15.892,6.646,19.359C78.835,103.355,94.175,121.141,88.686,129.087"/>
		<path fill="#ED1C24" d="M140.771,62.485c-10.911-14.447-35.904-28.461-33.882-55.333c-30.05,26.294,5.49,58.222,8.957,74.836
			c5.057,21.526-8.09,38.863-20.936,47.098C122.059,126.486,158.465,94.269,140.771,62.485z"/>
		<path fill="#ED1C24" d="M91.863,128.22c22.538-14.88,22.394-34.24,14.736-52.876c-3.467-14.591-24.56-18.781-20.948-51.576
			C53.616,41.97,63.625,75.994,72.505,87.334C78.593,96.545,99.088,114.351,91.863,128.22"/>
	</g>
</g>
</svg>
