<?xml version="1.0" encoding="utf-8"?>
<!-- Generator: Adobe Illustrator 15.0.2, SVG Export Plug-In . SVG Version: 6.00 Build 0)  -->
<!DOCTYPE svg PUBLIC "-//W3C//DTD SVG 1.1//EN" "http://www.w3.org/Graphics/SVG/1.1/DTD/svg11.dtd">
<svg version="1.1" id="Layer_1" xmlns="http://www.w3.org/2000/svg" xmlns:xlink="http://www.w3.org/1999/xlink" x="0px" y="0px"
	 width="558px" height="720px" viewBox="0 0 558 720" enable-background="new 0 0 558 720" xml:space="preserve">
<g>
	<g>
		<g>
			<path fill="#FFFFFF" d="M36,715.096c-17.093,0-31-13.906-31-31V36C5,18.906,18.907,5,36,5h486c17.094,0,31,13.907,31,31v648.096
				c0,17.094-13.906,31-31,31H36z"/>
			<path fill="#00A3E6" d="M522,10c14.336,0,26,11.664,26,26v142.236v363.624v142.236c0,14.336-11.664,26-26,26H305.984h-53.969H36
				c-14.336,0-26-11.664-26-26V541.859V178.236V36c0-14.336,11.664-26,26-26h216.016h53.969H522 M522,0H305.984h-53.969H36
				C16.118,0,0,16.118,0,36v142.236v363.624v142.236c0,19.883,16.118,36,36,36h216.016h53.969H522c19.882,0,36-16.117,36-36V541.859
				V178.236V36C558,16.118,541.882,0,522,0L522,0z"/>
		</g>
	</g>
	<g>
		<path fill="#00A3E6" d="M481.338,178.397c0-0.282,0.009-0.586,0.009-0.904c0-0.049,0-0.197,0-0.446
			c-0.017-26.848-10.313-53.577-31-74.069c-20.684-20.471-47.655-30.674-74.742-30.684c-27.163,0.01-54.199,10.183-74.911,30.698
			c-0.827,0.811-1.717,1.755-2.73,2.839l-9.701,10.393l-9.701-10.393c-1.015-1.084-1.903-2.028-2.731-2.839
			c-20.712-20.515-47.746-30.688-74.911-30.698c-27.088,0.01-54.059,10.212-74.741,30.684c-20.688,20.493-30.986,47.221-31,74.069
			c0,0.249,0,0.397,0,0.446c0,0.318,0.007,0.623,0.007,0.904c0,1.294-0.012,2.612-0.012,3.963
			c0.13,16.372,0.545,43.454,25.492,85.929c24.309,41.082,72.528,95.922,167.561,163.517v0.052c0.012-0.007,0.023-0.017,0.035-0.026
			c0.012,0.01,0.024,0.02,0.036,0.026v-0.052c95.031-67.595,143.251-122.436,167.561-163.517
			c24.947-42.476,25.362-69.558,25.493-85.929C481.352,181.009,481.338,179.691,481.338,178.397z"/>
	</g>
	<path id="cabeza" fill="#FFFFFF" d="M323.249,169.845c4.673,19.316-7.258,38.747-26.583,43.386
		c-19.337,4.646-38.755-7.269-43.405-26.605c-4.629-19.325,7.276-38.756,26.604-43.385
		C299.193,138.593,318.62,150.503,323.249,169.845z"/>
	<path fill="#FFFFFF" d="M482.071,163.039c-1.035-7.662-2.643-15.311-5.391-22.629c-75.552,21.506-143.771,61.208-187.334,132.67
		c-8.666,14.213-16.191,29.287-22.711,44.968c-13.241-62.987-34.223-123.541-66.837-177.674
		c-12.293-20.405-28.56-42.859-45.154-60.182c-10.492,4.973-19.948,12.555-28.666,21.183c-4.246,4.206-8.912,8.159-12.28,12.838
		c3.206,2.675,9.126,7.946,11.743,10.802c64.62,70.482,87.448,168.305,96.138,260.511c19.312,16.417,25.66,33.665,51.41,51.98
		l7.98-0.435c0.164-0.117,7.129-4.365,7.292-4.48c8.601-105.135,49.198-207.136,153.435-253.246
		C454.531,173.668,468.704,168.03,482.071,163.039z"/>
	<g>
		<path fill="#00A3E6" d="M118.536,634.731h5.313l-11.638,28.198h-4.314l-11.64-28.198h5.44l8.439,21.519L118.536,634.731z"/>
		<path fill="#00A3E6" d="M127.357,638.373v-4.599h5.199v4.599H127.357z M127.551,662.729v-21.115h4.844v21.115H127.551z"/>
		<path fill="#00A3E6" d="M145.944,663.122c-3,0-6.318-1.075-8.962-3.147l2.163-3.283c2.282,1.722,4.761,2.599,6.92,2.599
			c2.079,0,3.279-0.877,3.279-2.278v-0.082c0-1.642-2.239-2.196-4.717-2.96c-3.123-0.878-6.602-2.155-6.602-6.203v-0.073
			c0-3.994,3.318-6.438,7.521-6.438c2.638,0,5.521,0.92,7.754,2.401l-1.916,3.436c-2.042-1.242-4.197-2-5.961-2
			c-1.882,0-2.957,0.878-2.957,2.121v0.082c0,1.52,2.275,2.158,4.757,2.953c3.076,0.957,6.559,2.363,6.559,6.162v0.083
			C153.782,660.932,150.341,663.122,145.944,663.122z"/>
		<path fill="#00A3E6" d="M158.776,638.373v-4.599h5.198v4.599H158.776z M158.97,662.729v-21.115h4.841v21.115H158.97z"/>
		<path fill="#00A3E6" d="M180.162,663.213c-6.439,0-11.199-4.92-11.199-10.96c0-6.075,4.8-11.078,11.278-11.078
			c6.476,0,11.242,4.915,11.242,10.995C191.482,658.213,186.679,663.213,180.162,663.213z M180.162,645.41
			c-3.88,0-6.357,3.035-6.357,6.76c0,3.765,2.677,6.842,6.436,6.842c3.921,0,6.398-3.04,6.398-6.759
			C186.639,648.493,183.964,645.41,180.162,645.41z M178.318,638.93l4.243-6.557l4.404,1.96l-4.884,4.597H178.318z"/>
		<path fill="#00A3E6" d="M201.222,662.729h-4.837v-21.115h4.837v3.276c1.363-1.998,3.319-3.715,6.603-3.715
			c4.753,0,7.515,3.195,7.515,8.113v13.44h-4.841v-11.997c0-3.281-1.643-5.163-4.514-5.163c-2.802,0-4.763,1.965-4.763,5.24V662.729
			z"/>
		<path fill="#00A3E6" d="M242.912,663.213c-6.277,0-10.914-4.92-10.914-10.96c0-6.038,4.637-11.078,10.956-11.078
			c3.997,0,6.478,1.477,8.438,3.64l-2.999,3.24c-1.478-1.562-3.035-2.645-5.481-2.645c-3.516,0-6.075,3.035-6.075,6.76
			c0,3.802,2.594,6.842,6.317,6.842c2.287,0,3.961-1.085,5.479-2.639l2.917,2.877C249.471,661.573,247.036,663.213,242.912,663.213z
			"/>
		<path fill="#00A3E6" d="M265.411,663.213c-6.436,0-11.196-4.92-11.196-10.96c0-6.075,4.801-11.078,11.275-11.078
			c6.481,0,11.247,4.915,11.247,10.995C276.737,658.213,271.935,663.213,265.411,663.213z M265.411,645.41
			c-3.875,0-6.357,3.035-6.357,6.76c0,3.765,2.679,6.842,6.436,6.842c3.924,0,6.403-3.04,6.403-6.759
			C271.893,648.493,269.215,645.41,265.411,645.41z"/>
		<path fill="#00A3E6" d="M286.471,662.729h-4.834v-21.115h4.834v3.276c1.366-1.998,3.322-3.715,6.602-3.715
			c4.764,0,7.525,3.195,7.525,8.113v13.44h-4.844v-11.997c0-3.281-1.637-5.163-4.521-5.163c-2.799,0-4.762,1.965-4.762,5.24V662.729
			z"/>
		<path fill="#00A3E6" d="M338.844,634.731h5.314l-11.633,28.198h-4.318l-11.643-28.198h5.445l8.434,21.519L338.844,634.731z"/>
		<path fill="#00A3E6" d="M358.504,662.729v-2.599c-1.438,1.722-3.641,3.04-6.842,3.04c-3.996,0-7.516-2.278-7.516-6.519v-0.08
			c0-4.562,3.637-6.8,8.561-6.8c2.563,0,4.195,0.355,5.836,0.88v-0.524c0-2.914-1.844-4.514-5.201-4.514
			c-2.357,0-4.115,0.52-6.033,1.316l-1.326-3.878c2.32-1.037,4.605-1.757,8.043-1.757c6.242,0,9.273,3.278,9.273,8.912v12.521
			H358.504z M358.623,653.773c-1.236-0.48-2.955-0.839-4.836-0.839c-3.039,0-4.84,1.235-4.84,3.394v0.082
			c0,2.003,1.801,3.121,4.078,3.121c3.197,0,5.598-1.803,5.598-4.439V653.773z"/>
		<path fill="#00A3E6" d="M369.328,662.729v-29.195h4.838v29.195H369.328z"/>
		<path fill="#00A3E6" d="M390.52,663.213c-6.438,0-11.199-4.92-11.199-10.96c0-6.075,4.803-11.078,11.281-11.078
			c6.473,0,11.232,4.915,11.232,10.995C401.834,658.213,397.039,663.213,390.52,663.213z M390.52,645.41
			c-3.881,0-6.359,3.035-6.359,6.76c0,3.765,2.682,6.842,6.441,6.842c3.92,0,6.396-3.04,6.396-6.759
			C396.998,648.493,394.318,645.41,390.52,645.41z"/>
		<path fill="#00A3E6" d="M411.578,662.729h-4.834v-21.115h4.834v4.76c1.322-3.16,3.762-5.318,7.484-5.16v5.122h-0.283
			c-4.244,0-7.201,2.757-7.201,8.358V662.729z"/>
		<path fill="#00A3E6" d="M432.283,659.25c2.365,0,4.039-0.875,5.721-2.517l2.836,2.517c-1.998,2.398-4.76,3.963-8.637,3.963
			c-6.119,0-10.832-4.446-10.832-10.998c0-6.082,4.27-11.04,10.314-11.04c6.721,0,10.121,5.281,10.121,11.394
			c0,0.443-0.041,0.842-0.08,1.326h-15.521C426.768,657.33,429.166,659.25,432.283,659.25z M437.002,650.691
			c-0.316-3.118-2.158-5.562-5.357-5.562c-2.961,0-5.043,2.286-5.475,5.562H437.002z"/>
		<path fill="#00A3E6" d="M453.904,663.122c-2.998,0-6.32-1.075-8.957-3.147l2.158-3.283c2.279,1.722,4.762,2.599,6.92,2.599
			c2.082,0,3.279-0.877,3.279-2.278v-0.082c0-1.642-2.234-2.196-4.719-2.96c-3.117-0.878-6.6-2.155-6.6-6.203v-0.073
			c0-3.994,3.316-6.438,7.521-6.438c2.637,0,5.518,0.92,7.756,2.401l-1.918,3.436c-2.041-1.242-4.199-2-5.955-2
			c-1.885,0-2.959,0.878-2.959,2.121v0.082c0,1.52,2.275,2.158,4.756,2.953c3.08,0.957,6.557,2.363,6.557,6.162v0.083
			C461.744,660.932,458.305,663.122,453.904,663.122z"/>
	</g>
	<g>
		<path fill="#00A3E6" d="M37.831,467.504h43.248l31.689,90.5l31.694-90.5h42.454l-56.608,144.035H94.433L37.831,467.504z"/>
		<path fill="#00A3E6" d="M199.396,467.504h39.19V611.69h-39.19V467.504z"/>
		<path fill="#00A3E6" d="M252.924,467.422h43.303l31.727,90.605l31.72-90.605h42.503l-56.665,144.2h-35.915L252.924,467.422z"/>
		<path fill="#00A3E6" d="M423.397,467.504h37.311l59.461,144.187H478.66l-10.166-25.559h-53.872l-9.985,25.559h-40.699
			L423.397,467.504z M457.324,555.239l-15.568-40.702l-15.765,40.702H457.324z"/>
	</g>
</g>
</svg>
