<?xml version="1.0" encoding="utf-8"?>
<!-- Generator: Adobe Illustrator 15.0.2, SVG Export Plug-In . SVG Version: 6.00 Build 0)  -->
<!DOCTYPE svg PUBLIC "-//W3C//DTD SVG 1.1//EN" "http://www.w3.org/Graphics/SVG/1.1/DTD/svg11.dtd">
<svg version="1.1" id="Layer_1" xmlns="http://www.w3.org/2000/svg" xmlns:xlink="http://www.w3.org/1999/xlink" x="0px" y="0px"
	 width="300px" height="230px" viewBox="0 0 300 230" enable-background="new 0 0 300 230" xml:space="preserve">
<g>
	<g>
		<circle fill="#ED1C24" cx="148.046" cy="33.627" r="29.796"/>
		<path fill="#ED1C24" d="M157.171,69.479l55.45,51.239l30.533-29.48l1.299-4.607c0,0-1.241-2.403-2.295-5.366
			c-1.051-2.97-1.182-3.21-1.97-8.066c-0.166-4.494-3.176-12.697-3.944-14.946c-0.429-1.717,1.855-3.407,5.813,0.305
			c3.956,3.709,3.949,8.642,4.643,10.143c0.692,1.504,2.628,1.177,4.893-0.567c2.263-1.746,4.286-4.89,6.775-8.945
			c2.488-4.053,6.474-12.976,8.001-15.848c1.528-2.872,4.994-0.472,5.27,1.257c0.275,1.727-2.358,6.94-7.478,19.644
			c0.722,1.647,5.761-9.82,7.019-13.445c1.262-3.629,3.514-7.715,6.387-6.326c2.876,1.393,1.271,4.712-0.363,8.674
			c-1.635,3.964-6.327,13.581-5.699,14.124c0.63,0.544,3.856-5.332,5.877-8.963c2.02-3.634,3.539-6.29,5.328-6.429
			c1.79-0.137,3.063,2.107,2.501,3.493c-0.562,1.386-1.811,3.125-8.854,16.82c0.727,0.946,6.304-6.059,7.77-8.125
			c1.467-2.065,3.025-2.145,4.302-0.696c1.274,1.45-0.447,3.43-3.602,7.491c-3.15,4.065-7.173,9.072-7.173,9.072
			s-1.599,3.105-4.217,7.055c-2.617,3.945-12.523,10.634-12.523,10.634l-38.815,57.139c-7.653,11.673-10.704,4.387-16.377,0.585
			l-58.024-45.332l-58.024,45.332c-5.673,3.802-8.724,11.088-16.377-0.585L34.478,97.622c0,0-9.905-6.689-12.523-10.634
			c-2.618-3.95-4.216-7.055-4.216-7.055s-4.022-5.007-7.174-9.072c-3.153-4.061-4.876-6.042-3.602-7.491
			c1.276-1.449,2.836-1.37,4.303,0.696c1.466,2.066,7.042,9.071,7.77,8.125c-7.045-13.696-8.293-15.435-8.855-16.82
			c-0.562-1.385,0.712-3.629,2.502-3.493c1.789,0.139,3.309,2.795,5.328,6.429c2.021,3.631,5.247,9.508,5.877,8.963
			c0.628-0.543-4.065-10.16-5.7-14.124c-1.633-3.962-3.238-7.281-0.362-8.674c2.873-1.389,5.125,2.697,6.387,6.326
			c1.258,3.625,6.297,15.092,7.018,13.445c-5.119-12.704-7.752-17.917-7.478-19.644c0.276-1.729,3.742-4.129,5.271-1.257
			c1.527,2.872,5.513,11.795,8,15.848c2.49,4.055,4.514,7.199,6.776,8.945c2.264,1.744,4.2,2.071,4.893,0.567
			c0.693-1.5,0.687-6.434,4.643-10.143c3.958-3.711,6.242-2.021,5.813-0.305c-0.768,2.249-3.777,10.452-3.943,14.946
			c-0.789,4.856-0.919,5.097-1.971,8.066c-1.053,2.963-2.295,5.366-2.295,5.366l1.3,4.607l30.533,29.48l55.45-51.239
			C138.22,69.479,146.817,70.961,157.171,69.479L157.171,69.479z"/>
	</g>
	<g>
		<path fill="#ED1C24" d="M28.872,204.173l6.76-32.055h16.951l7.365,32.055h0.202l5.045-32.055h18.161l-12.309,46.33H50.464
			l-6.256-31.146h-0.201l-6.257,31.146H17.168l-12.311-46.33H23.02l5.65,32.055H28.872z"/>
		<path fill="#ED1C24" d="M90.42,218.448v-46.33h18.768v46.33H90.42z"/>
		<path fill="#ED1C24" d="M120.689,218.448v-46.33h21.114l12.183,28.551v-28.551h17.556v46.33h-20.709l-12.588-28.615v28.615
			H120.689z"/>
		<path fill="#ED1C24" d="M177.999,218.448l17.558-46.33h23.609l17.557,46.33h-19.978l-1.918-8.11h-14.934l-1.916,8.11H177.999z
			 M212.607,201.253l-5.145-19.66h-0.203l-5.146,19.66H212.607z"/>
		<path fill="#ED1C24" d="M295.143,219.875l-11.302,6.294l-10.291-7.137c-3.364,0.217-5.617,0.325-6.76,0.325
			c-9.485,0-16.145-1.828-19.979-5.484c-3.834-3.654-5.751-9.851-5.751-18.589s1.917-14.935,5.751-18.591
			c3.834-3.655,10.493-5.482,19.979-5.482c9.483,0,16.144,1.827,19.978,5.482c3.835,3.656,5.751,9.853,5.751,18.591
			c0,8.997-2.018,15.271-6.054,18.817L295.143,219.875z M260.433,195.284c0,6.532,0.336,10.749,1.009,12.652
			c0.808,2.164,2.589,3.244,5.349,3.244c2.757,0,4.54-1.08,5.348-3.244c0.672-1.903,1.009-6.12,1.009-12.652
			c0-6.531-0.337-10.749-1.009-12.653c-0.808-2.162-2.591-3.244-5.348-3.244c-2.76,0-4.541,1.082-5.349,3.244
			C260.769,184.535,260.433,188.753,260.433,195.284z"/>
	</g>
</g>
</svg>
