<svg
    xmlns:dc="http://purl.org/dc/elements/1.1/"
    xmlns:cc="http://creativecommons.org/ns#"
    xmlns:rdf="http://www.w3.org/1999/02/22-rdf-syntax-ns#"
    xmlns:svg="http://www.w3.org/2000/svg"
    xmlns="http://www.w3.org/2000/svg" version="1.1" width="981.5" height="1076.6" viewBox="0 0 981.485 1076.607" xml:space="preserve">
    <metadata>
        <rdf:RDF>
            <cc:Work rdf:about="">
                <dc:format>image/svg+xml</dc:format>
                <dc:type rdf:resource="http://purl.org/dc/dcmitype/StillImage"/>
                <dc:title/>
            </cc:Work>
        </rdf:RDF>
    </metadata>
    <defs/>
    <g>
        <radialGradient cx="301.8" cy="504" r="470.4" gradientUnits="userSpaceOnUse" gradientTransform="matrix(1.043,0,0,-1.145,175.8696,1116.0782)">
            <stop style="stop-color:#000;stop-opacity:1" offset="0"/>
            <stop style="stop-color:#000;stop-opacity:0" offset="1"/>
        </radialGradient>
        <rect width="980.4" height="1076.5" x="0.4" y="0.7" style="fill:#e0e0e0;stroke:url(#rect2675_1_);stroke-width:0.7234"/>
        
        <path d="m 510 1027 c -2.1 -1.1 -5.2 -2.8 -6.9 -3.7 -1.7 -1 -9.8 -4.3 -17.9 -7.4 -8.1 -3.1 -22.8 -9.4 -32.7 -14 -16.5 -7.7 -24.8 -10.6 -43.5 -15.1 -8.6 -2.1 -63.4 -1.8 -84.1 0.4 -24.1 2.6 -53.7 0.1 -74.5 -6.2 -5.6 -1.7 -11.5 -3.1 -13.2 -3.1 -1.7 -0 -13 -4.2 -25.2 -9.3 -12.2 -5.1 -23.1 -9.3 -24.2 -9.3 -1.2 0 -4.4 -2.4 -7.3 -5.3 -3 -3.1 -7.8 -6 -11.6 -6.9 -4.1 -1 -8.7 -3.9 -12.6 -7.9 -3.4 -3.5 -7 -6.3 -8 -6.3 -4.1 0 -49.2 -32 -65.9 -46.8 -9.8 -8.7 -23.5 -19.9 -30.3 -24.9 -31.7 -23.2 -30 -21.5 -25.4 -23.8 4.1 -2 10.6 -12.6 10.6 -17.3 0 -1.7 1.4 -5.4 3.1 -8.2 1.7 -2.8 3.1 -7.3 3.1 -10.1 0 -5.8 -4.4 -27.1 -6.4 -31 -2.6 -5.1 -1.4 -9.1 4.7 -15.1 l 6.1 -6 -0.9 -11.8 -0.9 -11.8 h 4.2 c 6.1 0 13.3 -7.7 13.3 -14.3 0 -4.2 -3 -9 -16.2 -25.9 L 31.4 665.1 48.5 636 c 9.4 -16 34.6 -58.8 56.1 -95.2 l 38.9 -66.1 h 148 148 l 0.5 -5.1 c 0.3 -3.1 -0.2 -5.1 -1.4 -5.1 -1.4 0 -1.4 -0.5 -0 -2.2 1 -1.2 2.1 -3.5 2.5 -5.1 0.4 -1.6 1.1 -4.3 1.6 -6.1 0.7 -2.4 -0 -3.6 -3 -5 -4.4 -2 -5.3 -6.7 -1.8 -9.6 1.2 -1 1.9 -2.9 1.4 -4.1 -0.5 -1.2 -0.3 -2.2 0.5 -2.3 0.7 -0 3.3 -1.8 5.7 -3.9 l 4.4 -3.9 -3.6 -3 c -3.3 -2.7 -3.4 -3.1 -0.9 -4 4.2 -1.6 6.4 -6.7 4.1 -9.4 -1.5 -1.8 -1.3 -2.7 1 -4.4 2.5 -1.8 2.7 -3 1.4 -8.1 -1.4 -5.7 -1.8 -6 -7.7 -6.2 -14.1 -0.5 -14 -0.4 -15.8 -5.1 -1.2 -3.3 -3.1 -4.8 -7 -5.6 -2.9 -0.6 -6.1 -1.8 -7.2 -2.7 -1.1 -0.9 -4.8 -1.2 -8.2 -0.7 -5.5 0.7 -6.2 0.5 -5.4 -2 0.6 -1.9 -0.5 -3.8 -3.4 -6 l -4.3 -3.2 3.7 -6.5 c 4 -7.1 3.1 -9.1 -4.2 -9.2 -3.1 -0 -3.5 -0.6 -2.7 -4.3 0.5 -2.4 0.3 -6.6 -0.6 -9.4 -2 -7 -12.6 -19.8 -21.4 -26.1 -4 -2.9 -8.3 -7 -9.4 -9.1 -2.4 -4.5 -2.8 -4.6 -9.7 -2.1 -4.4 1.5 -5.4 1.4 -7.1 -1 -1.1 -1.5 -4.3 -3.2 -7.2 -3.8 -3.7 -0.8 -5.3 -2 -5.6 -4.5 -0.3 -1.9 -2.1 -4.5 -4.1 -5.8 -2 -1.3 -4 -3.7 -4.4 -5.4 -1 -3.7 -5.3 -3.9 -9 -0.5 -2.4 2.2 -3.4 2.2 -7.5 0.4 -2.6 -1.2 -5.4 -3.9 -6.2 -6.3 -0.8 -2.3 -2.8 -4.9 -4.5 -5.8 -1.7 -0.9 -5.2 -5.2 -7.9 -9.5 -3.9 -6.3 -5.6 -7.8 -9.1 -7.8 -3.7 0 -5.1 -1.4 -9.5 -9.4 -2.8 -5.2 -7.2 -11.3 -9.6 -13.6 -2.5 -2.3 -5.4 -7 -6.5 -10.4 -1.6 -5 -3 -6.4 -7.4 -7.5 -2.9 -0.8 -7 -1.1 -9 -0.7 -2.6 0.5 -5 -0.6 -8.1 -3.8 -2.5 -2.5 -5.5 -4.5 -6.7 -4.5 -1.2 0 -3.2 -1.1 -4.3 -2.5 -1.9 -2.3 2.1 -2.4 49.3 -1.4 l 51.4 1.1 1 -30.8 c 0.6 -16.9 1 -47.5 1 -67.8 V 57.1 h 57.3 c 31.5 0 124.5 0.5 206.7 1 l 149.4 1 1.2 88 1.2 88 -8 133.8 c -4.4 73.6 -8 137.4 -8 141.8 0 9.8 2.5 11.3 11.1 6.5 5.4 -3 6.5 -3.2 10 -1.3 3.2 1.7 4.6 1.8 7.1 0.2 2.2 -1.4 3.9 -1.4 6 -0.3 1.9 1 4.3 1.1 6.8 0.1 2.8 -1.1 4.7 -0.8 7.3 1 2.7 1.9 5.9 2.2 14.9 1.5 11 -0.9 11.5 -0.8 14.4 3.1 2.9 4 3.2 4 10.3 2.3 6.1 -1.5 7.8 -1.5 10.7 0.5 1.9 1.3 5 2.4 6.9 2.4 2.3 0 4.3 1.6 5.9 4.6 1.5 2.9 6.6 7.1 13.6 11.2 6.2 3.6 11.6 6.8 11.9 7.1 0.4 0.3 -0.2 2.3 -1.2 4.5 -2.4 5.2 -0 8.4 6.2 8.4 5 0 7.5 -4.2 7.5 -12.7 0 -2.6 1.4 -6.5 3.1 -8.7 1.7 -2.2 3.1 -6.2 3.1 -9 v -5 l 7 0.8 c 4.3 0.5 7 0.2 7 -0.8 0 -1.8 -8.9 -9.7 -10.9 -9.7 -0.7 0 -2.5 -2 -4 -4.5 -1.5 -2.5 -5 -5.6 -7.9 -7 -4.7 -2.3 -7.3 -7.2 -3.7 -7.2 1.7 0 18 13.4 22.5 18.5 4.1 4.6 17.5 12 24.2 13.4 8.2 1.7 12.9 4.5 23 14 5.1 4.7 10 8.6 11 8.6 2 0 2.1 0.9 0.8 5.8 -0.6 2.4 -2.1 3.5 -4.6 3.5 -2.7 0 -4.3 1.4 -5.8 5.2 -1.6 3.7 -5.6 7.4 -14.7 13.2 -6.9 4.4 -13.5 9.5 -14.8 11.2 -1.2 1.7 -7.3 7 -13.6 11.8 -6.3 4.7 -13.2 11 -15.4 13.9 -2.4 3.2 -6.4 6.1 -10 7.2 -3.3 1 -7.1 3.6 -8.6 5.7 -8.2 12 -16.5 18.6 -39.8 31.7 -5.1 2.8 -14.3 9.7 -20.4 15.3 -16.1 14.7 -17.4 15.6 -27.8 19.8 -5.2 2.1 -12.9 5.4 -17.2 7.5 -4.3 2 -10.3 4.7 -13.4 6 -4.5 1.8 -6.2 3.7 -8.4 9.5 -2.7 7.1 -2.7 7.3 0.6 11.8 1.8 2.5 3.4 5.4 3.4 6.4 0 1 -3.6 5.6 -7.9 10.2 -7.1 7.5 -7.8 8.8 -6.8 13.4 1.3 6.1 12.2 25.8 18.4 33.2 4.2 5.1 4.3 5.5 1.9 9.1 -1.5 2.2 -2.5 7.1 -2.5 11.6 0 9.5 -3.4 12.7 -12.3 11.5 -5.5 -0.7 -6.2 -0.4 -11.4 6.4 -3 3.9 -9.4 10.5 -14.2 14.5 -6.2 5.2 -8.7 8.4 -8.7 11.1 0 3.6 -0.2 3.6 -2.8 1.2 -4.2 -3.8 -7.7 -3.1 -10.4 2.1 -2.8 5.4 -2.7 5.4 -8.4 2.4 -5.5 -2.8 -10.1 -1.7 -12.7 3.2 l -2 3.8 -3.5 -3.3 c -6.6 -6.2 -14.2 0.2 -12.6 10.5 0.5 2.9 0.2 5.2 -0.5 5.2 -2.4 0 -3.5 6.3 -1.5 8.6 1 1.2 3.7 2.3 6 2.4 4 0.1 4 0.1 0.6 1.5 -5.3 2.1 -4.2 5.3 3.6 10.4 6.2 4 6.8 4.8 4.6 6.6 -1.4 1.1 -7.6 2.4 -13.9 2.8 -11.4 0.7 -11.5 0.8 -21.5 9.8 -10.4 9.4 -15.1 17.6 -15.1 26.3 0 3.8 -0.6 4.6 -3.6 4.6 -2 0 -4.9 -1.4 -6.5 -3.1 -1.7 -1.9 -4.8 -3.1 -7.8 -3.1 -6.8 0 -18.2 6.7 -22.7 13.2 -2.2 3.2 -8 7.8 -14.4 11.2 -8.6 4.7 -11.1 6.9 -12.4 11.1 -1.1 3.2 -4.1 6.8 -7.9 9.4 -5.3 3.5 -6.6 5.5 -8.5 13.2 -2.1 8.2 -2.1 9.4 0.3 13.5 3 5.3 1.7 6.8 -3.6 4 l 0 0 z" style="fill:#f8fae8"/>

        <path style="fill:#eeeeee;stroke:#646464" id="Alta Verapaz" d="m 426.8 660.5 c 2.2 -0.1 8.1 -0.1 11.7 0.8 4.1 1 6.5 0.6 9.3 -0.8 2.6 -1.3 3.6 4.9 6.2 6.2 4.3 2.1 4.4 2.5 6.2 6.2 2.2 4.5 4.4 2.8 5.4 -1.6 0.9 -3.6 5.1 -2.4 6.2 -7 1.3 -5.4 4.2 -4.4 6.2 -2.3 2.6 2.6 3.5 3.9 8.6 3.9 3.7 0 5.7 -1.6 10.1 -1.6 3.8 0 6.1 2.3 10.1 2.3 3.5 0 6.8 1 10.9 0 4.1 -1 6.9 0.8 10.9 0.8 5.1 0 6 -1.3 10.1 -2.3 3.9 -1 6.9 -0.7 10.1 -2.3 4.3 -2.1 2 5.2 1.6 7 -0.9 3.7 -2.3 4.4 -2.3 9.3 0 3.5 -2.4 5.7 -3.9 8.6 -1.4 2.8 -4.1 5.1 -5.4 7.8 -2.4 4.7 3.6 0.3 4.7 -0.8 2.6 -2.6 7.6 -1.4 10.1 -0.8 3.4 0.8 5 2.2 8.6 3.1 3.7 0.9 2.7 -3.9 7.8 -3.9 3.2 0 3.2 -4.4 8.6 -3.1 4 1 8 -0.5 10.1 -1.6 2.5 -1.3 4.3 4 7 4.7 3.4 0.9 8.3 0.1 10.9 0.8 3.4 0.9 3.2 3.7 7 4.7 0.3 0.1 4.1 -6.4 4.7 -7 3 -3 6.3 -0.1 8.6 -4.7 1.3 -2.6 3.7 -4.5 5.4 -6.2 2.4 -2.4 3.7 -5.5 5.4 -7.8 2 -2.7 2.3 -8 2.3 -11.7 0 -3.4 0.7 -3.8 2.3 -5.4 0 -3.4 10.8 0.7 3.9 -6.2 -3.9 -3.9 2.7 -5.4 5.4 -5.4 3.2 0 -1.6 -7.4 -1.6 -9.3 0 -4 3 -3.4 0.8 -7.8 -1.6 -3.2 -1.8 -5.4 -0.8 -9.3 0.6 -2.6 -5.2 0.9 -7.8 1.6 -2.7 0.7 -4.3 -4 -7 -4.7 -1.5 -0.4 3.1 -4.6 3.1 -7 0 -2 -5.8 -4.2 -7 -5.4 -1.7 -1.7 -4.7 0.8 -7 0.8 -1.1 0 -4.4 -6.5 -4.7 -7 -1 -2.1 -1.9 -1.9 -3.1 -3.1 l 28 -34.2 c -1.9 -3.7 0.5 -8.4 1.6 -12.4 0.2 -1 7.6 -2.2 9.3 -3.9 3.5 -3.5 7 2 7 -5.4 0 -2.9 4.8 -2.4 7.8 -3.9 4.4 -2.2 4.7 -2.1 4.7 -7.8 0 -1.7 0.6 -0.8 0.9 -1.7 0 0 -3.1 -0.5 -5.5 1.9 -3.9 3.9 -4.3 0.8 -8.6 0.8 -5.7 0 -6.2 0.5 -6.2 -5.4 0 -3.9 0 -7.8 0 -11.7 0 -5.4 -2 -5.1 -7 -3.9 -3.1 0.8 -7.1 -0.2 -10.9 0.8 -4 1 -6.3 2.3 -10.1 2.3 -4.2 0 -6.5 -0.6 -10.1 -2.3 -1.7 -0.8 -5.6 -6.1 -6.2 -6.2 -1.6 -0.4 -7.7 -3.4 -9.3 0 -0.5 1 -2.3 7 -3.9 7.8 -3.2 1.6 -5 6.2 -8.6 6.2 -3.7 0 -8.4 0.5 -10.9 -0.8 -0.4 -0.2 -8.4 -2.3 -8.6 -3.1 -0.7 -2.9 -5.4 -5.1 -5.4 -6.2 0 -3.9 -3.5 -5.5 -7 -4.7 -4 1 -5 0.8 -7 -3.1 -1.4 -2.7 -0.2 -9.3 -3.1 -8.6 -4 1 -2.7 2.6 -7.8 3.9 -1.6 0.4 -2.3 -3.5 -3.9 -3.1 -2.4 0.6 -7.8 5.6 -8.6 5.4 -1 -0.2 -4.7 -3.3 -7 -3.9 -4.2 -1 -5.6 -2 -10.1 -3.1 -2.9 -0.7 -6.7 -0.7 -10.1 -1.6 -3 -0.8 -5.7 -2.4 -8.6 -3.1 -2.9 -0.7 -5.7 -2.3 -10.1 -2.3 -3.5 0 -7.9 -0.8 -10.9 -0.8 -4.3 0 -6.4 -0.8 -10.9 -0.8 -3.2 0 -8.4 0.1 -11.7 -0.8 -3.3 -0.8 -4.5 -0.7 -6.9 -1.3 -0.7 1.5 -3.2 1.8 -2.6 4.2 1 3.9 2 7 -3.9 7 -4 0 -8.4 -1.1 -10.1 2.3 -2.7 5.4 -2.7 0.8 -6.2 0.8 -1.3 0 -8.4 4.2 -9.3 2.3 -1.2 -2.5 -6.9 -2.8 -6.2 -5.4 1.8 -7.2 -0.2 -3.5 -4.7 -4.7 -3.8 -1 -5.7 -0.1 -9.3 0.8 -3.3 0.8 -5.1 2.4 -7 6.2 -2.5 4.9 -3.3 3.9 -7.8 3.9 -2.5 0 -10.6 1.1 -7 4.7 1.7 1.7 5.4 3.9 1.6 7.8 -0.5 0.5 -6 5.7 -3.9 7.8 1.8 1.8 6.2 2.1 6.2 4.7 0 5.7 -0.3 6.4 -4.7 8.6 -3.8 1.9 -3.5 2.3 -4.7 7 -1.3 5.1 -2 5.9 -5.4 9.3 -1 1 -7.2 5.4 -3.9 6.2 2.5 0.6 8.9 0.2 6.2 5.4 -0.7 1.4 -1.7 7.4 -1.6 7.8 0.6 2.2 2.1 6.3 4.7 7 2.9 0.7 6.9 2.3 10.1 2.3 3.3 0 8.1 0.1 10.9 1.6 2.3 1.2 5.6 1.8 7 4.7 1.5 3 -1.8 9.3 1.6 10.1 2.5 0.6 7.2 2 8.6 4.7 0.9 1.9 5.7 8.3 2.3 11.7 0 0.5 0.2 2.9 0 3.1 -1.4 1.4 -6.9 4.5 -7.8 6.2 -0.6 1.2 -1.8 7.3 -3.9 7.8 -0.6 0.1 -10.2 0.1 -10.9 0.8 -2.1 2.1 -3.5 5.6 -2.3 10.1 0.8 3.1 1.9 5.3 5.4 6.2 2.7 0.7 6.4 0.9 9.3 2.3 2.1 1 5.6 3.2 8.6 3.9 2.9 0.7 5.8 2.3 9.3 2.3 3.5 0 8.3 -0.8 11.7 0 0.8 0.2 8.6 2.3 8.6 3.9 0 5.6 -1.1 5.5 -3.1 9.3 z" />

        <path  style="fill:#eeeeee;stroke:#646464" id="Baja Verapaz" d="m 396.4 756.2 c 1.5 1.5 5 2.4 7.8 3.1 3.3 0.8 8.8 -0.3 10.9 -0.8 3.7 -0.9 7.1 -2.4 10.1 -3.9 2.5 -1.2 8.9 0 11.7 0 3 0 5.1 -4.4 7 -6.2 2.5 -2.5 5 6.2 5.4 7 0.8 1.7 1.1 2.8 1.6 4.7 3 -0.7 6.4 -0.6 10.1 -1.6 0.8 -0.2 11 -1.1 10.9 -1.6 -0.9 -3.5 -4.9 -4.4 -1.6 -7.8 2.6 -2.6 3.7 -3.7 6.2 -6.2 2.1 -2.1 4.4 -2.9 7 -5.4 2.4 -2.4 5.3 -4.4 7.8 -6.2 2.4 -1.8 4.6 -3.9 7.8 -7 1.8 -1.8 4.2 -3.3 7 -4.7 3.8 -1.9 6.7 -2.8 9.3 -5.4 2.5 -2.5 5.7 -3.3 8.6 -6.2 2.1 -2.1 4.4 -2.9 7 -5.4 2.6 -2.6 11.9 -3.7 9.3 -6.2 l -1.5 -0.8 c 1.3 -2.7 4 -4.9 5.4 -7.8 1.4 -2.9 3.9 -5 3.9 -8.6 0 -4.9 1.4 -5.7 2.3 -9.3 0.5 -1.8 2.7 -9.1 -1.6 -7 -3.2 1.6 -6.2 1.4 -10.1 2.3 -4.1 1 -5 2.3 -10.1 2.3 -4 0 -6.8 -1.8 -10.9 -0.8 -4.1 1 -7.4 0 -10.9 0 -4 0 -6.3 -2.3 -10.1 -2.3 -4.4 0 -6.4 1.6 -10.1 1.6 -5 0 -6 -1.3 -8.6 -3.9 -2 -2 -4.9 -3 -6.2 2.3 -1.1 4.6 -5.3 3.4 -6.2 7 -1.1 4.3 -3.2 6 -5.4 1.6 -1.8 -3.7 -1.9 -4.1 -6.2 -6.2 -2.6 -1.3 -3.6 -7.5 -6.2 -6.2 -2.8 1.4 -5.2 1.8 -9.3 0.8 -3.5 -0.9 -9.5 -0.9 -11.7 -0.8 -1.8 3.6 -3 5.5 -4.7 7.8 -2.1 2.8 -1.3 8.5 -4.7 9.3 -6.8 1.7 -0.7 -4.5 -4.7 -5.4 -2.5 -0.6 -7.2 -0.8 -10.9 -0.8 -4.3 0 -7 -0.7 -7 -4.7 0 -3.5 0.7 -8 -0.8 -10.9 -0.6 -1.1 -2.4 -7 -3.9 -7.8 -3.6 -1.8 -5.2 -2.1 -7.8 3.1 -1 2 -3.8 8.2 -5.4 7.8 -0.5 -0.1 -8.5 -4.7 -9.3 -1.6 -1.5 6 3.1 4.8 3.1 7.8 0 2.3 -0.4 7.6 -3.9 9.3 -6.3 3.1 -2.3 -3.1 -7 -3.1 -3.5 0 -6.1 1.9 -7 5.4 -0.7 3 -0.9 7.1 0 10.9 0.9 3.7 2.3 5.4 3.9 8.6 1.8 3.5 2.8 4.2 3.9 8.6 0.9 3.6 2.4 4.7 5.4 7.8 2.3 2.3 5.4 3.8 7.8 6.2 3 3 5.9 2 8.6 4.7 1.7 1.7 5.4 3 5.4 6.2 0 6 1.7 5.7 3.1 8.6 0.9 1.7 1.7 6.7 3.9 7.8 0.9 0.4 7.3 11.6 1.6 10.1 z"/>

        <path style="fill:#eeeeee;stroke:#646464" id="Chimaltenango" d="m 287.6 866 c 1.8 0.1 7 3.2 8.6 1.5 4.5 -4.5 4.5 -1.6 4.7 -1.6 2.6 0 3.2 3.8 7 0 3.4 -3.4 4 -6.6 5.4 -0.8 0.8 3.2 2.3 5.4 2.3 10.1 0 5.4 5.1 -2.5 5.4 -3.9 0.9 -3.6 3.2 -5.9 7 -7.8 2.7 -1.4 4.3 -4.8 5.4 -7 1.7 -3.5 3.9 -2.3 3.9 -7.8 0 -4.4 2.3 -6.9 3.9 -10.1 1.9 -3.8 3.4 -5.3 7 -6.2 3.9 -1 6 -2.9 7 -7 1.1 -4.5 1.9 -5.7 4.7 -8.6 2.7 -2.7 3.9 -2.8 3.9 -7.8 0 -3.9 -1.6 -5.2 -1.6 -10.1 l 0.9 -2.8 2.9 -1.1 c 1.4 -2.8 3.1 -4.7 6.2 -7 1.9 -1.4 6.1 -3.3 7 -7 0.5 -2.1 -0.5 -8.4 0.8 -10.9 1.3 -2.5 6 -5.3 7.8 -6.2 3.5 -1.7 6.1 -7.5 7.6 -7.4 1.5 0.1 -2.2 -0.5 -5.9 -2.5 -2.3 -0.8 -6.9 -0.8 -10.9 -0.8 -4.4 0 -4.4 -2.2 -7.8 -3.9 -1.7 -0.9 -7.9 -3.1 -10.9 -1.6 -2.4 1.2 -7 2.4 -9.3 0 -2.4 -2.4 -3.3 -3.1 -8.6 -3.1 -4.2 0 -6.5 0.6 -10.1 2.3 -2 1 -7.3 4.1 -10.9 2.3 -3.4 -1.7 -4.2 -4.5 -7.8 -5.4 -1.9 -0.5 -7.6 -1.3 -8.6 2.3 -0.7 2.8 2.3 7 -0.8 10.1 -2.6 2.6 -3.1 4.1 -3.1 9.3 0 2.9 4.6 6.2 3.1 7 -0.4 0.6 -5.5 0.4 -5.9 0.4 l -1.2 0.2 c -0.4 0.6 -0.8 0.9 -1.6 2.3 -0.6 1.3 -2.7 6.6 -3.9 7.8 -3.1 3.1 -1.8 4.5 -0.8 8.6 0.9 3.7 -1.6 6.6 -1.6 8.6 0 3.9 -0.7 6.9 -3.1 9.3 -1.4 1.4 -4.7 5.8 -4.7 9.3 0 3.9 0.1 8 0.8 10.9 1 4.1 1.4 15.4 -1.6 12.4 0 0 -1.1 2 -1.3 3.6 -0.2 1.6 -0.4 5.3 -0.2 6.7 0.2 1.4 0.4 2.9 2.8 4 2.5 1.1 4.1 2.1 5 3.7 0.9 1.6 1.8 3.3 1.3 4.3 -0.5 1.1 -0.6 1.2 -0.6 1.2 z" />

        <path  style="fill:#eeeeee;stroke:#646464" id="Chiquimula" d="m 729.3 746.9 c -0.6 -1.2 -1.3 -2.9 -2.3 -3.9 -1.6 -1.6 -4.4 -5 -7.8 -1.6 -1.9 1.9 -2.7 5.1 -4.7 7 -2.2 2.2 -3.4 5.4 -7.8 5.4 -4.4 0 -5.5 -4.5 -7.8 -3.9 -3.7 0.9 -4.5 3.1 -7.8 3.9 -3.8 1 -6 -1.6 -8.6 -1.6 -2.8 0 -9.2 1.2 -11.7 0 -2.5 -1.2 -8.1 -3.5 -9.3 1.6 -1.5 6.2 -3.4 6.5 -8.6 7.8 -1.8 0.5 -2.4 0.2 -4.7 0.8 -3.3 0.8 -7.8 2.5 -11.7 1.6 -3.6 -0.9 -5.3 -2.1 -9.3 -3.1 -1.5 -0.4 -7.2 -4 -7.8 -3.9 -2.6 0.7 -4 2.5 -7 5.4 -1.4 1.4 -6.2 4.1 -5.4 7 0.7 3 1.6 5.9 1.6 10.1 0 4.1 -2.2 8.9 -4.9 11.7 3.7 -0.9 4.9 -5.1 6.2 -5.4 3.7 -0.9 6.2 -1.3 6.2 3.9 0 4.8 -0.3 6.6 2.3 9.3 3 3 1.9 3.2 0.8 7.8 -0.8 3.1 -3.9 5.2 -3.9 9.3 0 4.2 -1.5 6.1 -3.1 9.3 -1.3 2.6 -3.8 5.1 -4.7 8.6 -0.7 2.7 9.8 1.1 7.8 3.1 -0.5 0.1 0.7 0.2 0.7 0.2 -0.3 0 8.6 -2.6 11.6 -4.1 0.7 -0.3 0.8 9.9 0.8 10.9 0 3.7 3.8 4.6 5.4 6.2 1.8 1.8 9.2 -1.1 10.9 -1.6 4 -1 8.2 0.6 10.1 1.6 2.8 1.4 3.9 4.1 3.9 7.8 0 1.6 -4 5 -4.7 7.8 -0.8 3.2 1.2 2.9 1.6 3.9 l 2.2 -3.6 5.3 -0.1 3.3 3 4.7 1.2 3.1 -2.1 1.9 -4.2 1.8 -3.6 1.9 -0.5 5.7 6.2 2.3 0.7 1.4 -3.7 0.6 -4 0.2 -3.3 3.2 -2.1 3.9 -1.7 2.8 -4.7 2.7 -1.9 3 -0.8 2.5 -4 5.9 -7.4 2.8 -3.1 7.2 -0.3 5.1 0.9 4.9 -3.3 2.1 -7.3 -0.4 -5.7 -0 -4.7 4.1 -5.5 0.6 -3.6 -3.4 -4.1 -10.4 -17.6 -5 -7.6 -3.5 -8.4 -0.3 -4.1 4.8 -6.5 3.6 -2.6 2.7 -2.6 z" />

        <path style="fill:#eeeeee;stroke:#646464" id="El Progreso" d="m 540.3 696.3 c 2.5 2.5 -6.7 3.6 -9.3 6.2 -2.6 2.6 -4.9 3.3 -7 5.4 -2.9 2.9 -6 3.7 -8.6 6.2 -2.6 2.6 -5.5 3.5 -9.3 5.4 -2.8 1.4 -5.2 2.9 -7 4.7 -3.1 3.1 -5.4 5.2 -7.8 7 -2.5 1.9 -5.4 3.9 -7.8 6.2 -2.6 2.6 -4.9 3.3 -7 5.4 -2.6 2.6 -3.7 3.7 -6.2 6.2 -3.4 3.4 0.7 4.3 1.6 7.8 0.1 0.5 -10.1 1.4 -10.9 1.6 -3.7 0.9 -7.1 0.8 -10.1 1.6 -6.8 1.7 -1 6.1 0.8 7 3.5 1.7 7.7 1.6 11.7 1.6 1.2 0 2 3.2 2.3 3.9 3.8 0 -3.7 6.7 -5.4 10.1 -1.9 3.8 2.7 6.6 3.9 7.8 2.8 2.8 2.1 5.3 5.4 7 3.5 1.8 3.7 3 7 4.7 2.6 1.3 6.6 1.7 9.3 2.3 2.5 0.6 5.8 3.3 8.6 4.7 4.7 2.3 5.1 -6.2 5.4 -7.8 0.2 -0.8 9.6 -2.2 10.1 -2.3 3.5 -0.9 8.3 -0.9 10.9 -1.6 3.7 -0.9 4.9 -3.4 7 -5.4 2.8 -2.8 3.8 -3.7 7.8 -4.7 4.6 -1.2 5.1 -3.7 8.6 -5.4 2.5 -1.3 3.6 -5.9 5.4 -7.8 2.7 -2.7 5.5 -3.9 7 -7 1.9 -3.8 6.4 -5.9 8.6 -7 3.8 -1.9 5.3 -1.7 7.8 0.8 0.3 0.3 0.8 -0.7 0.8 -0.7 1.8 -3.6 2.3 -3.5 6.2 -5.4 0.8 -0.4 6.3 -9.3 3.1 -10.1 -2.9 -0.7 -5.4 -2.8 -6.2 -6.2 -1 -3.8 -1.5 -5.4 -3.1 -8.6 -0.4 -0.9 -5 -7.3 -0.8 -6.2 2.5 0.6 5.9 2.6 10.1 1.6 4.8 -1.2 8.5 0.7 5.4 -2.3 -1.5 -1.5 -3.2 -5.1 -5.4 -6.2 -1.8 -0.9 -6.1 -3 -7 -4.7 -1.2 -2.3 -2.5 -4.8 -4.7 -7 -1.6 -1.6 -6.3 -8.4 -7 -8.6 0 0 -0.3 0.9 -1.2 0.8 -0.9 -0.1 -3.7 -1.1 -3.7 -1.1 l -2.6 -1 -2.7 -1.1 -3 -0.7 -3.8 -0.3 -3 0.8 -1.1 1.1 -1.6 0.9 -1.4 0.4 z" />

        <path style="fill:#eeeeee;stroke:#646464" id="Escuintla" d="m 182.6 955.3 c 0.6 -2.3 3 -6 3.9 -9.3 1.1 -4.4 3.3 -4.8 6.2 -7.8 3.2 -3.2 3.9 -3.9 3.9 -9.3 0 -4.2 4.6 -5.4 7.8 -7 4.3 -2.2 1.6 -7.7 0.8 -9.3 -1.4 -2.9 -2.3 -6.9 -3.1 -10.1 -0.9 -3.4 -0.7 -7.4 0 -10.1 0.9 -3.5 8.3 -1.6 8.6 -1.6 2.5 0.6 0.6 6.4 3.1 7 6.6 1.6 4.2 -3.3 3.1 -5.4 -1.9 -3.8 0.3 -5.8 2.3 -7.8 3.2 -3.2 3.6 -5.2 6.2 -7.8 2.5 -2.5 5.3 -2.2 7.8 -4.7 0.3 -0.3 -2.9 7.9 -3.1 8.6 -0.6 2.3 0.7 7.1 0 10.1 -0.8 3.3 7.1 0 10.1 1.6 4.5 2.3 5 -1.5 6.2 -3.9 0.2 -0.4 5.4 5.1 6.2 5.4 2.3 1.2 7.3 1.8 9.3 2.3 3.4 0.8 8.1 0 11.7 0 2.1 0 4.6 -6.2 5.4 -7.8 1.6 -3.1 0.8 -7.7 0 -10.9 -1 -4 2.7 -4.2 4.7 -6.2 1.3 -1.3 1.9 -2.4 2.3 -4.1 l 0.1 -0.5 c 0 -3.4 7.7 3.2 10.1 0.8 4.5 -4.5 4.5 -1.6 4.7 -1.6 2.6 0 3.2 3.8 7 0 3.4 -3.4 4 -6.6 5.4 -0.8 0.8 3.2 2.3 5.4 2.3 10.1 0 5.4 5.1 -2.5 5.4 -3.9 0.9 -3.6 3.2 -5.9 7 -7.8 2.7 -1.4 4.3 -4.8 5.4 -7 1.7 -3.5 2.9 -2.6 3.1 -3.8 0 0 4.7 0.9 6.2 3.8 1.4 2.7 3.1 3.9 4.7 7 1.6 3.1 2.3 4.4 3.1 8.6 1.6 7.8 2.4 1.5 4.7 -1.6 2.5 -3.3 4 -4 7 -7 0.7 -0.7 6.5 -6.5 7.8 -1.6 1.1 4.4 2.4 4.3 6.2 2.3 0.7 -0.4 9.3 -3.6 9.3 -4.7 l -0.3 -3.6 c -1.6 3.1 7.3 4.1 8.1 7.5 1 4 4.4 4.5 7 3.9 4.7 -1.2 4.1 0.8 4.7 3.1 0.9 3.5 -3.4 7.6 -4.7 10.1 -1.6 3.2 -2.9 3.9 -3.9 7.8 -0.7 2.8 3.2 6 3.9 8.6 1.1 4.2 3.7 3.9 4.7 7.8 1.1 4.3 -1.5 6.7 -2.3 10.1 -1 4 -4.9 5.6 0.8 7 2.3 0.6 6.9 -1.6 10.1 -0.8 4.8 1.2 3 -6.3 7.8 -1.6 3.5 3.5 -2.8 5 -4.7 5.4 -3.9 1 -3.6 5.4 -9.3 5.4 -5.6 0 -4.3 4.6 -3.1 7 1.6 3.2 4.6 1.1 3.1 7 -1.2 4.8 -1.6 7.4 -5.4 9.3 -3.8 1.9 -3.1 5.5 -3.1 10.1 0 3.8 -3.1 4.9 -3.1 9.3 0 4.5 1.4 6.5 2.3 10.1 0.6 2.3 -0.5 1.6 -0.8 2.3 0 0 -21.9 -0 -23.7 0.7 -1.7 0.8 -15.1 -0.2 -15.1 -0.2 0 0 -5.1 -1.8 -8.3 -0.1 -3.2 1.7 -11.7 0.8 -11.7 0.8 l -14.6 0.8 -8.1 1.2 -4.3 0.7 h -7.5 l -5 -1.3 -7.9 0.8 -7 -0.9 -5.3 -0.2 -6.6 -1.6 -6.8 -0.4 -6.3 -1 -4.2 -2.3 -6.1 -1.3 -4 -1.1 -2.7 -1.3 -6.8 -0.3 -3.3 -0.5 -3 -2.2 -5.3 -1.4 -3.9 -1.2 -2.7 -2.6 -5.5 -1.4 -4.2 -2 -3.6 -1.5 -6.1 -2.9 -7.5 -2.2 -5.9 -2.2 -2.5 -1.8 1 -1.5 z" />

        <path style="fill:#eeeeee;stroke:#646464" id="Guatemala" d="m 385.1 855.4 c -0.8 -4 -1.1 -3.3 -1.1 -6.6 0 -5.4 3.9 -5.3 3.9 -9.3 0 -3.6 -3.4 -13.5 -0.8 -10.9 0.5 0.5 5.9 5.7 7.8 3.9 2.6 -2.6 5.1 -2.7 1.6 -6.2 -2 -2 -3.1 -5.5 -3.9 -8.6 -0.4 -1.6 -0.2 -9.3 -2.3 -9.3 -7.1 0 -2.6 -2.4 -5.4 -6.2 -3.2 -4.3 -2.9 -2 -7.8 -0.8 -6 1.5 -3 -2.3 -6.2 -3.9 -1.2 -0.6 -4.7 -1.3 -4.7 -2.3 1.4 -2.8 3.1 -4.7 6.2 -7 1.9 -1.4 6.1 -3.3 7 -7 0.5 -2.1 -0.5 -8.4 0.8 -10.9 1.3 -2.5 6 -5.3 7.8 -6.2 3.5 -1.7 7.6 -10.5 9.3 -7 l -0.2 -0.4 c 1.5 1.5 4.4 2 7.2 2.7 3.3 0.8 8.8 -0.3 10.9 -0.8 3.7 -0.9 7.1 -2.4 10.1 -3.9 2.5 -1.2 8.9 0 11.7 0 3 0 5.1 -4.4 7 -6.2 2.5 -2.5 5 6.2 5.4 7 0.8 1.7 1.1 2.8 1.6 4.7 0 0 -2.5 0.5 -3.2 1.8 -0.7 1.3 1.2 3.8 3.2 4.7 2 1 10.9 2 10.9 2 0 0 2.2 -0.4 3.4 2.6 0 0 0.4 1.2 1.5 1.8 0 0 0.2 1.9 -2.8 4.7 l -2.4 2.9 c 0 0 -2.7 2.7 -1.3 5.6 0 0 1.8 2.9 3.9 4.1 l 3.8 5.8 c 0 0 3.8 2.4 4.6 3 0.8 0.7 4.6 3.1 5 3.2 0.4 0.2 5 1.2 6.4 1.5 1.4 0.3 3.4 0.8 5 1.8 1.5 0.9 3.4 2 3.4 2 -2.1 3.5 -2.4 4.6 -3.3 8.3 -1 3.8 -2.7 6 -6.2 7.8 -2.5 1.2 -6.1 3.3 -3.9 7.8 1.1 2.1 4.9 5.8 0 7 -2.9 0.7 -1.6 7.8 -4.7 7.8 -4.2 0 -7.8 0.7 -7.8 4.7 0 1.6 0.5 12.1 -3.9 7.8 -2 -2 -1.1 -7.1 -3.9 -7.8 -3.8 -1 -5.4 -0.4 -9.3 1.6 -3 1.5 -6 2.9 -7 7 -0.5 1.9 -0.1 8.2 -2.3 9.3 -3.8 1.9 -3.4 4.2 -2.3 8.6 0.6 2.4 1.6 7 0 10.1 -1.1 2.1 -4.2 6.4 -7 7.8 -3.2 1.6 -5.4 2.3 -8.6 3.9 -3.8 1.9 -5.4 3.9 -8.6 6.2 -3.1 2.3 -8.4 10.8 -9.3 7 0.2 -3.6 1.8 -3.4 0.8 -7.8 -1 -3.9 -3.6 -3.6 -4.7 -7.8 -0.6 -2.6 -4.6 -5.7 -3.9 -8.6 1 -3.9 2.3 -4.6 3.9 -7.8 1.3 -2.6 5.5 -6.6 4.7 -10.1 -0.6 -2.4 0.1 -4.3 -4.7 -3.1 -2.6 0.7 -6 0.2 -7 -3.9 -0.8 -3.4 -8.6 -4.3 -8.2 -8.2 z"/>

        <path style="fill:#eeeeee;stroke:#646464" id="Huehuetenango" d="m 52.7 626.4 c -0.8 -3.4 4.3 7 7.8 7 l 0.8 26.4 16.3 4.7 13.2 -14 3.1 0.8 13.2 -10.9 12.4 4.7 h 19.4 -0.8 l 7.8 1.6 c 0 1.3 0 2.6 0 3.9 0 3.1 4.6 3.8 6.2 5.4 1.7 1.7 4.9 3.6 7 4.7 3.1 1.6 3.9 -3.7 3.9 4.7 0 2.8 3 6 3.9 7.8 0.6 1.2 9.5 1.4 10.1 1.6 3.9 1 3.3 3.9 7.8 3.9 4.3 0 4.1 3.3 6.2 5.4 1.5 1.5 1.6 6.6 1.6 9.3 l -0.8 -0.8 1 0.4 10.6 4.3 16.3 -2.3 1.6 -16.3 c 2.6 2.6 5.6 -6.2 9.3 -6.2 5.2 0 5.4 -2.4 3.9 -5.4 -1.9 -3.8 5.2 -2.3 6.2 -2.3 3.5 0 4.7 0 8.6 0 3.7 0 5 -3 8.6 -3.9 4.8 -1.2 5.2 1.8 8.6 -1.6 1.7 -1.7 3.2 -7.2 3.9 -8.6 1.7 -3.3 3.9 -1.5 3.9 -6.2 1.1 -2.3 -6.3 -7.1 -7 -7.8 -1.4 -1.4 -8.7 0.8 -10.9 0.8 -5.1 0 -6 -1 -7.8 -4.7 -1.4 -2.8 -4.4 -3.6 -6.2 -5.4 -0.8 -0.8 -2.1 -0.5 -3.1 -0.8 l -3.9 -31.9 c -2.4 -2.4 6.9 -1.5 9.3 -3.9 2.5 -2.5 -1.4 -2.6 -2.3 -6.2 -0.4 -1.5 8.5 -3.5 10.1 -3.9 4.1 -1 5.4 -2.6 5.4 -7 0 -1.6 6.5 -5.7 7 -6.2 2.5 -2.5 2.6 -3.6 7 -4.7 1.4 -0.3 3.1 -8.4 3.1 -10.1 0 -4.1 3.9 -4.8 3.9 -8.6 0 -3.5 -6.8 -1.5 -10.1 -2.3 -3.6 -0.9 5.9 -4.4 8.6 -7 0.9 -0.9 -0.5 -2.6 -0.8 -3.9 l 16.3 6.2 1.6 -15.6 5.4 -14 c 2 -2 -5.9 -4.5 -4.7 -7 2.3 -4.6 -6.1 -3.1 -8.6 -3.1 -0.3 0 -5.1 -5.9 -5.4 -6.2 -3 -3 -4.3 -2.2 -3.1 -7 1.1 -4.3 3.9 -3.1 3.9 -8.6 0 -1 0 -2.1 0 -3.1 H 142.1 L 52.7 626.4 z"/>        

        <path style="fill:#eeeeee;stroke:#646464;" id="Izabal" d="m 718.4 515.9 c -0.6 -0.6 -1.9 -3.6 -3.1 -3.9 -3.4 -0.9 -5.5 0.8 -9.3 0.8 -4.3 0 -6.4 -0.8 -10.9 -0.8 -2.2 0 -11 -0.2 -11.7 2.3 -1.1 4.6 -1.9 5 -4.7 7.8 l 0.8 0.8 c -1.4 1 -4.7 0.6 -4.7 2.3 0 5.7 -0.3 5.6 -4.7 7.8 -3 1.5 -7.8 1 -7.8 3.9 0 7.4 -3.5 1.9 -7 5.4 -1.7 1.7 -9.1 2.9 -9.3 3.9 -1 4.1 -3.4 8.7 -1.6 12.4 l -28 34.2 c 1.2 1.2 2.1 1 3.1 3.1 0.3 0.5 3.5 7 4.7 7 2.3 0 5.3 -2.4 7 -0.8 1.2 1.2 7 3.4 7 5.4 0 2.4 -4.7 6.6 -3.1 7 2.7 0.7 4.3 5.3 7 4.7 2.6 -0.6 8.4 -4.1 7.8 -1.6 -1 3.9 -0.8 6.2 0.8 9.3 2.2 4.4 -0.8 3.7 -0.8 7.8 0 1.9 4.7 9.3 1.6 9.3 -2.8 0 -9.3 1.6 -5.4 5.4 6.9 6.9 -3.9 2.8 -3.9 6.2 -1.6 1.6 -2.3 2 -2.3 5.4 0 3.7 -0.3 9 -2.3 11.7 -1.7 2.3 -3.1 5.4 -5.4 7.8 -1.7 1.7 -4.1 3.6 -5.4 6.2 -3 1.3 -0.7 1.5 -0.7 1.5 2.7 0.4 6.2 1.7 8.5 1.7 3.6 0 6.5 -3.6 8.6 -4.7 2.6 -1.3 6.6 1.8 10.1 0 3.4 -1.7 5.6 -3.1 10.1 -3.1 4.4 0 7.3 -2.5 10.1 -3.9 2.8 -1.4 5.7 -4.1 7.8 -6.2 2.6 -2.6 2.6 -4.9 5.4 -7.8 2.4 -2.4 7.5 -1.6 10.9 -1.6 5.5 0 5.3 -2.4 6.2 -6.2 0.8 -3.1 7.1 0.1 9.3 2.3 3.2 3.2 5.1 0.3 6.2 -0.8 1.9 -1.9 3.5 4.8 6.2 5.4 1.3 0.3 2.9 -5.7 4.7 1.6 0.8 3.3 0.8 7.1 0.8 10.9 0 2.2 -6.2 4.2 -7.8 5.4 -3.4 2.5 -3 4.3 1.6 5.4 2.3 0.6 2.7 6.8 3.1 8.6 0.9 3.6 1.8 1.8 -0.8 7 -2 4 3.5 5.7 5.4 6.2 0.3 0.1 2.9 3.7 3.1 3.9 l 8.6 -2.5 7.9 -4.2 9.9 -4.1 8.4 -3 7.6 -3.9 3.6 -3.9 6.4 -4.4 8.4 -7.7 9.5 -8.3 7.8 -5.3 8.9 -4.2 6.6 -5.4 5.3 -2.9 9 -6.2 5.7 -4.6 4.2 -6.1 2.6 -4.8 4.4 -2.6 6.7 -1.8 3.4 -1.7 2.5 -4.6 5.4 -6.3 6.7 -4.6 5.8 -5 4.8 -3.4 4.6 -3.6 3.6 -4.4 9.8 -7.8 4.9 -2.8 6.3 -4.1 2.8 -2 2.8 -2.9 2.9 -4.2 0.8 -4.2 2.5 -0.6 5 -0.3 1.8 -1.8 v -3.2 l 0.9 -2.4 c 0 0 0.7 -2.6 -5.1 -4.1 0 0 -17.1 -14.4 -17.6 -14.8 -0.5 -0.4 -6.6 -4.3 -6.6 -4.3 0 0 -9.5 -3.7 -10.4 -3.3 -0.8 0.4 -17 -7.2 -17.7 -9 0 0 -13.7 -12.3 -14 -12.6 l -12.1 -9.4 c 0 0 -3.1 -1.3 -2.4 1.9 l 3 3.6 c 0 0 7.1 4.6 8.2 5.9 l 3.7 5.1 c 0 0 2 2.1 3.3 2.2 l 7 5.6 c 0 0 5.2 4.1 1 4.6 l -8.4 -0.5 -3.9 -0.4 v 5 c 0 0 -0.2 4.9 -1.2 5.6 -1 0.7 -3.6 6.5 -3.6 6.5 l -1.4 6.1 -0.6 5.6 c 0 0 -1.2 4.1 -2.7 5.1 -1.5 1 -5.8 1.7 -7.2 1.2 -1.5 -0.5 -3.5 -1.1 -3.8 -2.7 0 0 -0.9 -2.6 0.7 -5.7 l 1.1 -4.2 -9.1 -5.4 -9.2 -5.9 c 0 0 -5.9 -4.6 -7 -6.5 -1.1 -1.9 -1.6 -2.6 -1.6 -2.6 0 0 -2.5 -3 -4.5 -2.5 -2 0.6 -7.1 -1.2 -7.2 -2.6 0 0 -2.5 -2.3 -5.3 -1.3 -2.8 1 -7.3 1.6 -7.3 1.6 0 0 -5.6 1.8 -6.6 -1 l -2.6 -3.4 c 0 0 -2 -3.2 -5.3 -2.2 l -2.4 -1.9 -9.1 0.6 -8.9 0 -4.9 -4.6 -4.9 2.1 -3.8 0.4 -4.1 -2.4 -2.3 0.2 -4.6 3.1 -4.1 -0.9 -4.3 -3 -3.6 1.1 -7.7 5.1 -3.7 0.2 -1.1 -2 z"/>

        <path style="fill:#eeeeee;stroke:#646464" id="Jalapa" d="m 475.5 844.9 c 0.5 -2.2 0.4 -5.5 3.4 -6.2 4.9 -1.2 1.1 -4.9 0 -7 -2.2 -4.5 1.4 -6.5 3.9 -7.8 3.5 -1.7 5.3 -4 6.2 -7.8 0.9 -3.7 1.1 -4.7 3.3 -8.2 0 0 5.2 3.3 6.2 -0.5 l 1.3 -5.6 c 0 0 1.2 -1.1 2.5 -1.3 l 10.3 -1.9 5.7 -0.6 c 0 0 5.2 -1.2 6.6 -2.6 0 0 5.7 -6.8 7.5 -6.8 1.8 -0 5.3 -1.8 5.3 -1.8 0 0 4.6 -3.5 5.1 -3.9 0.5 -0.4 3.9 -1.9 3.8 -3.6 -0.1 -1.6 2.3 -4.2 2.3 -4.2 l 3 -2.8 c 0 0 4.6 -3.6 4.7 -5 0.1 -1.4 4.2 -4.5 4.2 -4.5 0 0 4.6 -3 6.5 -3.4 1.9 -0.4 2.8 -1 4.3 0.5 1.5 1.6 1.7 1.2 1.7 1.2 -1.8 3.6 -2.7 5.3 -2.7 9.3 0 0.8 8.9 2.2 9.3 2.3 3.1 0.8 5.5 5.5 6.2 7 1.4 2.9 1.9 6.1 3.1 8.6 1.5 3.1 4.2 4.2 8.3 3.8 5.7 -0.4 6.4 -0.8 6.4 -0.8 l 1.3 -0.6 c 3.1 -1.7 3.4 -4.5 4.7 -4.8 3.7 -0.9 6.2 -1.3 6.2 3.9 0 4.8 -0.3 6.6 2.3 9.3 3 3 1.9 3.2 0.8 7.8 -0.8 3.1 -3.9 5.2 -3.9 9.3 0 4.2 -1.5 6.1 -3.1 9.3 -1.3 2.6 -3.8 5.1 -4.7 8.6 -0.7 2.7 9.8 1.1 7.8 3.1 0 2.1 2.1 8 1.6 8.6 -2.5 2.5 -4.9 2.1 -8.6 3.9 -2 1 -5.7 4.7 -8.6 4.7 -5 0 -6.2 -3.9 -9.3 -3.9 -4.5 0 -5.1 -1.6 -10.1 -1.6 -7.4 0 -3.9 3.1 -7 6.2 -2.4 2.4 -6.9 1.9 -7.8 5.4 -1.2 4.6 -2 4.4 -7 3.1 -3.6 -0.9 -4.8 -2.4 -7.8 -3.9 -5 -2.5 -5 -2 -6.2 3.1 -0.9 3.7 -1.5 6 -7 4.7 -2.5 -0.6 -6.9 -1.5 -10.1 -2.3 -2.5 -0.6 -6.1 -2.2 -7.8 -3.9 -2 -2 -3.8 -3.1 -6.2 -5.4 -1.5 -1.5 -3.6 -5.4 -6.2 -5.4 -2.6 0 -9 -0.9 -10.9 0 -3.2 1.6 -5.6 4.7 -8.6 5.4 -2.7 0.7 -6.8 0.9 -5.4 -4.7 0.8 -3 -6.2 -9.3 -7 -6.2 z" />

        <path style="fill:#eeeeee;stroke:#646464" id="Jutiapa" d="m 530.2 866.1 c 0 4 -0.2 4.8 -1.6 7.5 -1 1.9 -3.1 6.2 -6.2 7 -0.7 0.2 -11.1 2.9 -10.1 3.9 3.2 3.2 2.3 3.1 -2.3 3.1 -5 0 -6.6 2 -10.9 3.1 -4.8 1.2 -5 0.5 -6.2 5.4 -0.6 2.3 -3.4 8.3 0.8 9.3 3.1 0.8 6.9 1.3 10.9 2.3 4.3 1.1 4.3 4.6 7.8 5.4 3.4 0.8 4.5 2.3 7.8 3.9 0.7 0.3 7.3 3.1 7 4.7 -0.2 1.1 -4.4 6.7 -3.9 7.8 0.9 1.7 5.4 5.2 5.4 7 0 1.1 0.2 7 -1.6 9.3 -3.4 4.5 -3.6 3.2 -9.3 4.7 -4.9 1.2 -2.3 4 -2.3 8.6 0 5.4 -1.3 6.5 -3.1 10.1 -0.7 1.4 -3.7 8.1 -4.7 6.2 -2.2 -4.5 -2.1 -2.5 -7.8 -3.9 -2.9 -0.7 -5.5 -3.9 -7.8 -3.9 -2.7 0 -9 1.1 -10.9 -0.8 -2.1 -2.1 -8.6 -5.3 -8.6 -2.3 0 3.6 -0.7 8.6 0.8 11.7 1.7 3.4 7.9 3.4 8.6 4.7 1.9 3.8 -1.4 2.2 0 7.8 0.8 3.2 0 7.1 0 10.1 0 4.1 0.6 6.8 3.1 9.3 2.4 2.4 1.7 7.2 2.5 9.1 0 0 11.7 5.2 22.4 9.7 l 3.9 1.4 c 0 0 1.9 0.7 1.1 -2.1 -0.8 -2.8 -1.8 -5.3 -1.8 -5.3 l -0.8 -3.8 1.8 -3 1.8 -5.1 -0.6 -3.1 2.7 -4.7 4 -2.6 4.6 -2.9 4.7 -3.2 1 -4.2 0.5 -4.1 5.3 -4 4.2 -2.1 5.4 -2.7 6 -2.6 2.8 -4.8 3.2 -4 2.9 -4.3 4 -1.3 4.2 -2.2 3.4 -3.3 6.4 0.4 4.4 1.6 3.7 3.6 4.4 2 5.5 -1.2 1.1 -8.1 1.9 -8.2 3.9 -6.3 4.5 -5.2 6.9 -5.7 3.8 -3.6 2.8 -2.5 2.3 -0.7 5.2 0.3 6.4 0.1 4.5 -1.1 4.5 -1.1 4.6 -1.8 2.9 -7.1 v -2.5 l -9 -5.4 -0.8 -1.4 0.9 -3.5 -1.2 -1.9 -6.9 -0.7 -3.4 -1.7 1.5 -5.5 3.1 -0.4 1.6 -2.7 -2.3 -3.3 0.4 -7.6 1.3 -2.1 3 -1.9 2.9 1 3.3 3.8 3 1.6 2.5 -1.6 0.1 -1.8 0.3 -0.6 1.4 -0.4 c -0.4 -1 -2.4 -0.7 -1.6 -3.9 0.7 -2.8 4.7 -6.2 4.7 -7.8 0 -3.6 -1.1 -6.4 -3.9 -7.8 -2 -1 -6.1 -2.6 -10.1 -1.6 -1.7 0.4 -9.1 3.4 -10.9 1.6 -1.6 -1.6 -5.4 -2.5 -5.4 -6.2 0 -1 -0.1 -11.2 -0.8 -10.9 -3.4 1.7 -9.2 2.6 -10 3.2 l -1.6 0.6 c 0 2.1 2.1 8 1.6 8.6 -2.5 2.5 -4.9 2.1 -8.6 3.9 -2 1 -5.7 4.7 -8.6 4.7 -5 0 -6.2 -3.9 -9.3 -3.9 -4.5 0 -5.1 -1.6 -10.1 -1.6 -7.4 0 -3.9 3.1 -7 6.2 -2.4 2.4 -6.9 1.9 -7.8 5.4 -1.2 4.6 -2 4.4 -7 3.1 -3.6 -0.9 -4.8 -2.4 -7.8 -3.9 -5 -2.5 -5 -2 -6.2 3.1 -0.9 3.7 -1.5 6 -7 4.7 -2.5 -0.6 -0.8 -0.1 -4 -0.9 -2.5 -0.6 -5.5 -4.1 -3.8 -0.4 z"/>

        <path style="fill:#eeeeee;stroke:#646464" id="Petén" d="m 718.5 516.1 1.2 -23.5 2.2 -31.7 2 -33.3 1.9 -31.7 1.5 -25.3 1.9 -32.1 1.9 -31.5 1.8 -30.3 1.9 -31.5 0.5 -12 -0.4 -36.9 -0.5 -37.1 -1.1 -92.4 -0.1 -11.7 -6.6 1.2 -17.2 0.1 -138.4 -0.5 -125.1 -0.9 -37.9 0.3 -81.6 -0.3 -11.6 0.7 -0.5 22.1 v 62.6 l -0.3 49.8 -103.4 -1.6 v 1.4 c 0.4 2 0.3 2.1 0.8 3.9 1.6 6.4 1.6 2.7 7 5.4 2.1 1 6.5 2.9 7.8 5.4 1 2.1 2.3 7.1 5.4 3.9 4 -4 5.4 -0.8 10.1 -0.8 7 0 4.2 2.1 6.2 6.2 0.3 1.3 0.8 3.9 1.6 5.4 1.1 2.2 2.8 4.9 5.4 6.2 2.6 1.3 4.6 2.7 5.4 6.2 0.9 3.7 2.9 4.2 4.7 7.8 0.1 0.2 4.1 8.6 4.7 8.6 3 0 8.1 -0.4 10.1 1.6 1.9 1.9 1.9 5.8 3.9 7.8 1.2 1.2 3.5 6 5.4 7 1.8 0.9 6.2 2.9 6.2 5.4 0 4.5 1.9 6.1 5.4 7 2.3 0.6 6.8 5.4 7.8 4.7 1.8 -1.3 4.6 -7 7.8 -6.2 5.9 1.5 -0.4 2 3.1 5.4 1.2 1.2 5.7 3.3 6.2 5.4 0.7 2.6 0.3 7.8 3.9 7.8 3.2 0 8.6 -0.7 9.3 2.3 0.8 3.2 3.2 5.4 7.8 3.1 0.1 -0 8.6 -3.9 9.3 -0.8 1.2 4.9 1.5 3.8 4.7 7 2.2 2.2 5.8 4.8 8.6 6.2 2.8 1.4 3.8 3 6.2 5.4 0.3 0.3 0.6 0.5 0.8 0.8 1.3 2.7 2.8 4.4 5.4 7 1.4 1.4 4.7 5.6 4.7 7.8 0 1.3 0.3 2.6 0 3.9 0.6 1.1 2.2 0.3 1.6 3.1 -0.1 0.2 -3 11.5 -0.8 10.9 0.2 -0 10.5 -1 10.1 0.8 -0.7 2.7 -2.9 2.6 -4.7 6.2 -0.8 1.5 -4.4 9.3 -0.8 9.3 2.1 0 9.7 2 6.2 5.4 -3.2 3.2 -4.5 2.4 -1.6 3.9 3.6 1.8 5.2 1.2 10.1 0 4.6 -1.2 5.8 -0.4 8.6 2.3 3 3 4.8 0.1 9.3 2.3 3 1.5 1.6 7.8 3.1 8.6 2.7 1.3 5.9 0.5 10.1 1.6 3.5 0.9 10.9 -2.9 10.9 0.8 0 2.9 3.6 6.5 1.6 8.6 -0.3 0.3 -7.4 4.8 -6.2 5.4 3.1 1.6 6.5 3.6 3.1 7 -0.8 0.8 -8.9 5.1 -7.8 6.2 0.5 0.5 7.1 4.6 7 4.7 -2.3 1.1 -6.2 6.2 -7 6.2 -5.1 0 -7.3 -0.3 -3.9 3.1 5.3 5.3 -2.3 2.4 -2.3 7.8 0 6.4 -0.5 5.6 3.9 7.8 4 2 6 1.8 2.3 5.4 -2 2 0.6 5.5 -0.8 6.2 -2.3 1.2 -7.3 6.2 -4.7 6.2 4.2 0 7 2.6 3.1 7.8 l 1.7 -1.2 c 0 3.4 6.1 3.1 9.3 3.9 3.3 0.8 8.5 0.8 11.7 0.8 4.5 0 6.6 0.8 10.9 0.8 3 0 7.3 0.8 10.9 0.8 4.4 0 7.2 1.6 10.1 2.3 2.8 0.7 5.6 2.4 8.6 3.1 3.4 0.9 7.2 0.8 10.1 1.6 4.5 1.1 5.9 2.1 10.1 3.1 2.3 0.6 6 3.6 7 3.9 0.8 0.2 6.2 -4.8 8.6 -5.4 1.6 -0.4 2.3 3.5 3.9 3.1 5.1 -1.3 3.8 -2.9 7.8 -3.9 2.9 -0.7 1.8 5.8 3.1 8.6 2 3.9 3 4.1 7 3.1 3.5 -0.9 7 0.7 7 4.7 0 1.1 4.7 3.3 5.4 6.2 0.2 0.8 8.2 2.9 8.6 3.1 2.5 1.3 7.2 0.8 10.9 0.8 3.5 0 5.4 -4.6 8.6 -6.2 1.6 -0.8 3.4 -6.8 3.9 -7.8 1.7 -3.4 7.7 -0.4 9.3 0 0.6 0.2 4.5 5.4 6.2 6.2 3.6 1.8 5.9 2.3 10.1 2.3 3.8 0 6.1 -1.3 10.1 -2.3 3.8 -0.9 7.8 0 10.9 -0.8 5 -1.2 7 -1.5 7 3.9 0 3.9 0 7.8 0 11.7 0 5.9 0.5 5.4 6.2 5.4 4.2 0 4.7 3.1 8.6 -0.8 2.4 -2.4 6.6 -1.1 8.6 -3.1 2.8 -2.8 3.5 -3.2 4.7 -7.8 0.6 -2.6 9.4 -2.3 11.7 -2.3 4.5 0 6.6 0.8 10.9 0.8 3.8 0 5.9 -1.6 9.3 -0.8 1.2 0.3 2.5 3.3 3.1 3.9 z" />

        <path style="fill:#eeeeee;stroke:#646464" id="Quetzaltenango" d="m 193.4 693.2 c -0.5 0.3 -1 0.5 -1.6 0.8 -1.8 0.9 -8.6 3.3 -8.6 7 0 4.1 1.6 6.6 1.6 10.1 0 3.9 0 7.8 0 11.7 0 4.3 1.6 7.4 1.6 10.1 0 2.3 -5.2 9.6 -3.1 10.1 2.6 0.6 8.8 -0.1 7.8 3.9 -1 3.9 -2.3 7 3.1 7 1.8 0 10.5 -1.2 11.7 0 1.9 1.9 2.4 4.7 3.9 7.8 0.8 1.6 7.7 6.5 7 9.3 -0.3 0.8 -0.6 1.5 -0.8 2.3 -1 4.1 -5.2 3.7 -6.2 7.8 -1.1 4.4 -1.7 4.1 -4.7 7 -1.4 1.4 -6 4.3 -7 6.2 -0.3 0.7 -3.9 8.4 -4.7 8.6 -2.6 0.6 -7.6 0.7 -10.1 3.1 -2.1 2.1 -7.1 2.6 -8.6 5.4 -1.5 3 -5.6 7.3 -7 1.6 -1.2 -5 -3.7 -2.9 -4.7 0.8 -0.1 0.6 -3.9 12.3 -5.4 6.2 -0.3 -1.2 -0.5 -9.2 -3.1 -8.6 -3.2 0.8 -4.6 -0.6 -1.6 -4.7 1.1 -1.4 7 -8.1 3.1 -10.1 -3.5 -1.8 -3 -0.9 -6.2 2.3 -0.2 0.2 -5 7.9 -5.4 7.8 -2.5 -0.6 -7.8 -1.8 -7.8 0.8 0 3.5 -0.1 7.9 -1.6 10.9 -1.1 2.2 -5 5.4 -5.4 6.2 -1.6 3.3 0.7 7.1 -0.8 10.1 -1.8 3.7 -3.5 7.4 -6.2 10.1 -3 3 -4.7 1.7 -8.6 0.8 -1 -0.3 -9.5 0.6 -10.1 0 -1.7 -1.7 -3.7 -4.7 -7 -4.7 -4.2 0 -7.9 -1.6 -11.7 -1.6 -4.5 0 -7.1 -1.6 -10.1 -2.3 -3.5 -0.9 -6.8 -8 -9.3 -5.4 0 -1 -4 -6.3 -6.2 -7.8 -1.4 -2.8 -4 -4 -6.2 -6.2 -3 -3 -2 -5.3 -0.8 -7.8 1.1 -2.2 5.5 -5.8 7 -7.8 1.2 -1.6 6.9 -2.3 8.6 -3.1 3.6 -1.8 3.7 -4.7 9.3 -4.7 4.3 0 6.4 0.8 10.9 0.8 3 0 5.7 -3.2 8.6 -3.9 3.2 -0.8 6.4 2.5 7.8 3.9 2 2 6.9 1.7 9.3 2.3 4.3 1.1 7.5 -2.8 9.3 -4.7 3.1 -3.1 3.1 -3.7 3.1 -9.3 0 -3.7 2.5 -5.9 3.9 -8.6 1.4 -2.7 1.8 -6.8 3.1 -9.3 2 -4 1.3 -6 3.9 -8.6 2.8 -2.8 4.8 -3.6 8.6 -5.4 2.3 -1.2 0.1 -5.2 0.8 -7.8 0.5 -2.2 5.2 -5 6.2 -7 1.3 -2.6 0.9 -8.9 1.6 -11.7 0.8 -3.3 3.1 -5.2 3.9 -8.6 0.1 -0.5 0 -1 0 -1.6 0.3 -1 -7.6 -8.4 -7.8 -8.6 -2.4 -2.4 -1.6 -6.8 -0.8 -10.1 0.2 -0.8 7.8 -3.5 8.6 -3.9 3.4 -1.7 5.6 -2 9.3 -3.9 1.8 -0.9 4.2 -5 5.4 -6.2 2.9 -2.9 4.2 -3 6.2 -7 0 0 2.6 2.5 3.1 2.7 0.6 0.2 4 0.5 4.4 0.7 0.4 0.2 2.4 2.5 3 3.4 0.5 0.9 2.2 3 2.4 5 0.2 2 0.3 4.5 0.3 4.5 l 0.8 1.5 z" />

        <path style="fill:#eeeeee;stroke:#646464" id="Quiché" d="m 442.5 474.2 c -0.6 2.4 -4.5 3.8 -3.9 6.2 1 3.9 2 7 -3.9 7 -4 0 -8.4 -1.1 -10.1 2.3 -2.7 5.4 -2.7 0.8 -6.2 0.8 -1.3 0 -8.4 4.2 -9.3 2.3 -1.2 -2.5 -6.9 -2.8 -6.2 -5.4 1.8 -7.2 -0.2 -3.5 -4.7 -4.7 -3.8 -1 -5.7 -0.1 -9.3 0.8 -3.3 0.8 -5.1 2.4 -7 6.2 -2.5 4.9 -3.3 3.9 -7.8 3.9 -2.5 0 -10.6 1.1 -7 4.7 1.7 1.7 5.4 3.9 1.6 7.8 -0.5 0.5 -6 5.7 -3.9 7.8 1.8 1.8 6.2 2.1 6.2 4.7 0 5.7 -0.3 6.4 -4.7 8.6 -3.8 1.9 -3.5 2.3 -4.7 7 -1.3 5.1 -2 5.9 -5.4 9.3 -1 1 -7.2 5.4 -3.9 6.2 2.5 0.6 8.9 0.2 6.2 5.4 -0.7 1.4 -1.7 7.4 -1.6 7.8 0.6 2.2 2.1 6.3 4.7 7 2.9 0.7 6.9 2.3 10.1 2.3 3.3 0 8.1 0.1 10.9 1.6 2.3 1.2 5.6 1.8 7 4.7 1.5 3 -1.8 9.3 1.6 10.1 2.5 0.6 7.2 2 8.6 4.7 0.9 1.9 5.7 8.3 2.3 11.7 0 0.5 0.2 2.9 0 3.1 -1.4 1.4 -6.9 4.5 -7.8 6.2 -0.6 1.2 -1.8 7.3 -3.9 7.8 -0.6 0.1 -10.2 0.1 -10.9 0.8 -2.1 2.1 -3.5 5.6 -2.3 10.1 0.8 3.1 1.9 5.3 5.4 6.2 2.7 0.7 6.4 0.9 9.3 2.3 2.1 1 5.6 3.2 8.6 3.9 2.9 0.7 5.8 2.3 9.3 2.3 3.5 0 8.3 -0.8 11.7 0 0.8 0.2 8.6 2.3 8.6 3.9 0 5.6 -1.2 5.5 -3.1 9.3 -1.8 3.6 -2.9 5.4 -4.7 7.8 -2.1 2.8 -1.3 8.5 -4.7 9.3 -6.8 1.7 -0.7 -4.5 -4.7 -5.4 -2.5 -0.6 -7.2 -0.8 -10.9 -0.8 -4.3 0 -7 -0.7 -7 -4.7 0 -3.5 0.7 -8 -0.8 -10.9 -0.6 -1.1 -2.4 -7 -3.9 -7.8 -3.6 -1.8 -5.2 -2.1 -7.8 3.1 -1 2 -3.8 8.2 -5.4 7.8 -0.5 -0.1 -8.5 -4.7 -9.3 -1.6 -1.5 6 3.1 4.8 3.1 7.8 0 2.3 -0.4 7.6 -3.9 9.3 -6.3 3.1 -2.3 -3.1 -7 -3.1 -3.5 0 -6.1 1.9 -7 5.4 -0.7 3 -0.9 7.1 0 10.9 0.9 3.7 2.3 5.4 3.9 8.6 1.8 3.5 2.8 4.2 3.9 8.6 0.9 3.6 2.4 4.7 5.4 7.8 2.3 2.3 5.4 3.8 7.8 6.2 3 3 5.9 2 8.6 4.7 1.7 1.7 5.4 3 5.4 6.2 0 6 1.7 5.7 3.1 8.6 0.9 1.7 1.7 6.7 3.9 7.8 0.9 0.4 7.3 11.6 1.6 10.1 -4.3 0 -4.1 -1.6 -7 -2.3 -2.9 -0.7 -6.9 -0.8 -10.9 -0.8 -4.4 0 -4.4 -2.2 -7.8 -3.9 -1.7 -0.9 -7.9 -3.1 -10.9 -1.6 -2.4 1.2 -7 2.4 -9.3 0 -2.4 -2.4 -3.3 -3.1 -8.6 -3.1 -4.2 0 -6.5 0.6 -10.1 2.3 -2 1 -7.3 4.1 -10.9 2.3 -3.4 -1.7 -4.2 -4.5 -7.8 -5.4 -1.9 -0.5 -7.6 -1.3 -8.6 2.3 -0.7 2.8 2.3 7 -0.8 10.1 -2.6 2.6 -3.1 4.1 -3.1 9.3 0 2.9 4.6 6.2 3.1 7 -3.5 1.8 -8.9 -1.2 -11.7 1.6 -2.6 0 -2.1 -0.2 -4.7 2.3 -2.1 2.1 -3.4 6.7 -7 3.1 -1.6 -1.6 -4.6 -5.5 0 -7.8 6.8 -3.4 2.4 -3.9 0 -6.2 -2 -2 -3.1 -3.8 -5.4 -6.2 -2 -2 -3.1 -3.8 -5.4 -6.2 -1.9 -1.9 -3.1 -4.6 -5.4 -7 -1.3 -1.3 -4.9 -4 -5.4 -6.2 -1.2 -4.8 -2.7 -3.5 -5.4 -6.2 -1.5 -1.5 -4.8 -3.6 -5.4 -6.2 -0.5 -2 -3.3 -6.7 -1.6 -10.1 2.1 -4.3 0.8 -7 0.8 -11.7 0 -4.1 1.9 -9 6.2 -4.7 1.8 1.8 8.1 5.4 7 3.1 -1.4 -2.9 0.5 -7.9 -2.3 -9.3 -2.6 -1.3 -4.6 -3.1 -9.3 -3.1 -4.7 0 -5.2 -1.1 -7 -4.7 -1.3 -2.7 -3.1 -3.8 -4.7 -7 -1.3 -2.6 -2.2 -8.3 -1.6 -10.9 l -0.9 -2.6 c -1.9 -3.8 5.2 -2.3 6.2 -2.3 3.5 0 4.7 0 8.6 0 3.7 0 5 -3 8.6 -3.9 4.8 -1.2 5.2 1.8 8.6 -1.6 1.7 -1.7 3.2 -7.2 3.9 -8.6 1.7 -3.3 3.9 -1.5 3.9 -6.2 1.1 -2.3 -6.3 -7.1 -7 -7.8 -1.4 -1.4 -8.7 0.8 -10.9 0.8 -5.1 0 -6 -1 -7.8 -4.7 -1.4 -2.8 -4.4 -3.6 -6.2 -5.4 -0.8 -0.8 -2.1 -0.5 -3.1 -0.8 l -3.9 -31.9 c -2.4 -2.4 6.9 -1.5 9.3 -3.9 2.5 -2.5 -1.4 -2.6 -2.3 -6.2 -0.4 -1.5 8.5 -3.5 10.1 -3.9 4.1 -1 5.4 -2.6 5.4 -7 0 -1.6 6.5 -5.7 7 -6.2 2.5 -2.5 2.6 -3.6 7 -4.7 1.4 -0.3 3.1 -8.4 3.1 -10.1 0 -4.1 3.9 -4.8 3.9 -8.6 0 -3.5 -6.8 -1.5 -10.1 -2.3 -3.6 -0.9 5.9 -4.4 8.6 -7 0.9 -0.9 -0.5 -2.6 -0.8 -3.9 l 16.3 6.2 1.6 -15.6 5.4 -14 c 2 -2 -5.9 -4.5 -4.7 -7 2.3 -4.6 -6.1 -3.1 -8.6 -3.1 -0.3 0 -5.1 -5.9 -5.4 -6.2 -3 -3 -4.3 -2.2 -3.1 -7 1.1 -4.3 3.9 -3.1 3.9 -8.6 0 -1 0 -2.1 0 -3.1 l 160.4 1.8 z" />

        <path style="fill:#eeeeee;stroke:#646464" id="Retalhuleu" d="m 153.8 938.2 c 0.5 -0.5 4.4 -8.8 5.4 -10.9 1.6 -3.3 1.8 -6.6 3.1 -9.3 2.1 -4.1 3.1 -5.2 3.1 -10.9 0 -3.9 0 -7.8 0 -11.7 0 -3.4 3.3 -5.9 4.7 -8.6 2 -4 1.8 -6.6 0 -10.1 -2 -4.1 0.3 -7.4 2.3 -10.1 2.3 -3.1 1.6 -7.8 1.6 -11.7 0 -4 -0 -8 -0.8 -10.9 -0.9 -3.8 -2.6 -5.1 -1.6 -9.3 0.5 -1.9 4.4 -5.9 5.4 -7 2.7 -2.7 2.3 -5.6 2.3 -10.1 0 -3.5 3 -6.1 4.7 -7.8 3.1 -3.1 5.1 -1.8 6.2 -6.2 0.1 -0.5 -0.6 -0.2 -0.6 -0.2 -2.6 0.6 -3.6 0.3 -6.5 2.2 -2.1 2.1 -7.1 2.6 -8.6 5.4 -1.5 3 -5.6 7.3 -7 1.6 -1.2 -5 -3.7 -2.9 -4.7 0.8 -0.1 0.6 -3.9 12.3 -5.4 6.2 -0.3 -1.2 -0.5 -9.2 -3.1 -8.6 -3.2 0.8 -4.6 -0.6 -1.6 -4.7 1.1 -1.4 7 -8.1 3.1 -10.1 -3.5 -1.8 -3 -0.9 -6.2 2.3 -0.2 0.2 -5 7.9 -5.4 7.8 -2.5 -0.6 -7.8 -1.8 -7.8 0.8 0 3.5 -0.1 7.9 -1.6 10.9 -1.1 2.2 -5 5.4 -5.4 6.2 -1.6 3.3 0.7 7.1 -0.8 10.1 -1.8 3.7 -3.5 7.4 -6.2 10.1 -3 3 -4.7 1.7 -8.6 0.8 -1 -0.3 -9.5 0.6 -10.1 0 -1.7 -1.7 -3.7 -4.7 -7 -4.7 -4.2 0 -7.9 -1.6 -11.7 -1.6 -4.5 0 -7.1 -1.6 -10.1 -2.3 -3.5 -0.9 -6.8 -8 -9.3 -5.4 v -1.6 c 0 2.4 -1 5.3 -4.7 6.2 -3.4 0.8 -4.2 7.5 -5.4 7.8 -3 0.8 -8.6 -3.8 -9.3 -0.8 -0.5 1.9 -7.3 9.5 -8.6 7 v 2.7 l 7.4 3.1 4.3 4 6.4 4.7 6.2 4.2 3.5 3.4 4.5 3.3 2.6 2.2 6.2 6.9 6 4.6 4.8 3.9 2.2 2.6 6.1 4.5 4.1 4.3 3.8 1.8 4.1 3.9 5.1 2.1 4.9 3.7 4.1 3.8 3.8 1.6 4.4 3.6 3.9 2.8 4.7 2 3.2 2.6 5.4 2.3 4.2 3.8 z" />

        <path style="fill:#eeeeee;stroke:#646464" id="Sacatepéquez" d="m 336.4 853 c 0.4 -2.2 0.7 -1 0.9 -4.2 0.3 -4.4 2.3 -6.9 3.9 -10.1 1.9 -3.8 3.4 -5.3 7 -6.2 3.9 -1 6 -2.9 7 -7 1.1 -4.5 1.9 -5.7 4.7 -8.6 2.7 -2.7 3.9 -2.8 3.9 -7.8 0 -3.9 -1.6 -5.2 -1.6 -10.1 0 -5.9 7.4 -2.1 8.6 -1.6 3.3 1.6 0.3 5.4 6.2 3.9 4.8 -1.2 4.5 -3.5 7.8 0.8 2.9 3.8 -1.7 6.2 5.4 6.2 2.1 0 1.9 7.8 2.3 9.3 0.8 3 1.9 6.5 3.9 8.6 3.5 3.5 1.1 3.6 -1.6 6.2 -1.8 1.8 -7.3 -3.4 -7.8 -3.9 -2.6 -2.6 0.8 7.2 0.8 10.9 0 4.1 -3.9 3.9 -3.9 9.3 0 3.3 1.6 6.6 1.6 10.9 0 1.1 -8.6 4.3 -9.3 4.7 -3.9 1.9 -5.1 2 -6.2 -2.3 -1.2 -5 -7.1 0.9 -7.8 1.6 -3 3 -4.5 3.7 -7 7 -2.3 3.1 -3.1 9.4 -4.7 1.6 -0.8 -4.2 -1.5 -5.4 -3.1 -8.6 -1.6 -3.1 -3.3 -4.3 -4.7 -7 -1.5 -2.9 -3.7 -2.9 -6.4 -3.6 z" />

        <path style="fill:#eeeeee;stroke:#646464" id="San Marcos" d="m 37.9 850.3 c 1.2 2.5 8.1 -5.1 8.6 -7 0.8 -3 6.3 1.5 9.3 0.8 1.3 -0.3 2.1 -6.9 5.4 -7.8 3.6 -0.9 4.7 -3.9 4.7 -6.2 0 -1 -5.6 -5.1 -6.2 -6.2 -1.4 -2.8 -4 -4 -6.2 -6.2 -3 -3 -2 -5.3 -0.8 -7.8 1.1 -2.2 5.5 -5.8 7 -7.8 1.2 -1.6 6.9 -2.3 8.6 -3.1 3.6 -1.8 3.7 -4.7 9.3 -4.7 4.3 0 6.4 0.8 10.9 0.8 3 0 5.7 -3.2 8.6 -3.9 3.2 -0.8 6.4 2.5 7.8 3.9 2 2 6.9 1.7 9.3 2.3 4.3 1.1 7.5 -2.8 9.3 -4.7 3.1 -3.1 3.1 -3.7 3.1 -9.3 0 -3.7 2.5 -5.9 3.9 -8.6 1.4 -2.7 1.8 -6.8 3.1 -9.3 2 -4 1.3 -6 3.9 -8.6 2.8 -2.8 4.8 -3.6 8.6 -5.4 2.3 -1.2 0.1 -5.2 0.8 -7.8 0.5 -2.2 5.2 -5 6.2 -7 1.3 -2.6 0.9 -8.9 1.6 -11.7 0.8 -3.3 3.1 -5.2 3.9 -8.6 0.1 -0.5 0 -1 0 -1.6 0.3 -1 -7.6 -8.4 -7.8 -8.6 -2.4 -2.4 -1.6 -6.8 -0.8 -10.1 0.2 -0.8 7.8 -3.5 8.6 -3.9 3.4 -1.7 5.6 -2 9.3 -3.9 1.8 -0.9 4.2 -5 5.4 -6.2 2.9 -2.9 4.2 -3 6.2 -7 0 0 0.3 -0.3 -2.3 -0.8 -0.7 -0.1 -9.5 -0.4 -10.1 -1.6 -0.9 -1.8 -3.9 -5 -3.9 -7.8 0 -8.4 -0.8 -3.1 -3.9 -4.7 -2.1 -1.1 -5.3 -3 -7 -4.7 -1.6 -1.6 -6.2 -2.4 -6.2 -5.4 0 -1.3 0 -2.6 0 -3.9 l -7.8 -1.6 h 0.8 -19.4 l -12.4 -4.7 -13.2 10.9 -3.1 -0.8 -13.2 14 -16.3 -4.7 -0.8 -26.4 c -3.5 0 -8.6 -10.4 -7.8 -7 l -24.1 38.9 33.4 42.8 c 0 0 1 7.6 -6.5 14.1 -7.3 6.3 -7.7 -3.9 -11.1 5.3 -0.1 0.3 -0.3 0.5 -0.3 0.8 0.8 11.7 1.1 18.7 1.1 18.7 0 0 -0.4 4.3 -2.1 5.4 -1.7 1.1 -6.7 4.3 -6.7 4.3 0 0 -3.8 5.5 -3.5 8.4 0.3 2.9 5.1 10.3 4.9 14 -0.2 3.7 2 10.8 2 10.8 l 2 10.7 c 0 0 0.6 3.5 -2.1 7.7 -2.6 4.2 -3.9 6.8 -3.9 6.8 l -1.2 7.1 -2.6 5.5 -2.7 4.9 -8.8 4 2.5 3.7 2.5 2.9 4.8 2.4 4.2 3.9 1.8 1.5 1.5 -0.7" />        

        <path style="fill:#eeeeee;stroke:#646464" id="Santa Rosa" d="m 487.6 1017.3 c -0.9 -1.9 -0.1 -6.7 -2.5 -9.1 -2.6 -2.6 -3.1 -5.2 -3.1 -9.3 0 -3 0.8 -6.9 0 -10.1 -1.4 -5.6 1.9 -4 0 -7.8 -0.7 -1.3 -6.9 -1.3 -8.6 -4.7 -1.5 -3 -0.8 -8.1 -0.8 -11.7 0 -3 6.5 0.2 8.6 2.3 1.9 1.9 8.2 0.8 10.9 0.8 2.3 0 4.9 3.2 7.8 3.9 5.6 1.4 5.5 -0.6 7.8 3.9 0.9 1.9 4 -4.9 4.7 -6.2 1.8 -3.6 3.1 -4.7 3.1 -10.1 0 -4.5 -2.6 -7.3 2.3 -8.6 5.7 -1.4 5.9 -0.1 9.3 -4.7 1.8 -2.4 1.6 -8.3 1.6 -9.3 0 -1.8 -4.6 -5.3 -5.4 -7 -0.5 -1.1 3.7 -6.7 3.9 -7.8 0.3 -1.6 -6.3 -4.3 -7 -4.7 -3.3 -1.6 -4.4 -3 -7.8 -3.9 -3.5 -0.9 -3.4 -4.4 -7.8 -5.4 -4 -1 -7.7 -1.5 -10.9 -2.3 -4.1 -1 -1.4 -7 -0.8 -9.3 1.2 -4.9 1.5 -4.3 6.2 -5.4 4.3 -1.1 5.9 -3.1 10.9 -3.1 4.6 0 5.6 0.1 2.3 -3.1 -1 -1 9.4 -3.7 10.1 -3.9 3.1 -0.8 5.1 -5.1 6.2 -7 2.1 -3.3 1.6 -7.5 1.6 -7.5 l -2.6 -1 c -2.5 -0.6 -6.1 -2.2 -7.8 -3.9 -2 -2 -3.8 -3.1 -6.2 -5.4 -1.5 -1.5 -3.6 -5.4 -6.2 -5.4 -2.6 0 -9 -0.9 -10.9 0 -3.2 1.6 -5.6 4.7 -8.6 5.4 -2.7 0.7 -6.8 0.9 -5.4 -4.7 0.8 -3 -6.2 -9.2 -7 -6.2 0 0 1.2 1.1 -1.2 1.6 -4.1 0.9 -7.7 -0.5 -7.8 4.7 -0 1.6 0.5 12.1 -3.9 7.8 -2 -2 -1.1 -7.1 -3.9 -7.8 -3.8 -1 -5.4 -0.4 -9.3 1.6 -3 1.5 -6 2.9 -7 7 -0.5 1.9 -0.1 8.2 -2.3 9.3 -3.8 1.9 -3.4 4.2 -2.3 8.6 0.6 2.4 1.6 7 0 10.1 -1.1 2.1 -4.2 6.4 -7 7.8 -3.2 1.6 -5.4 2.3 -8.6 3.9 -3.8 1.9 -5.4 3.9 -8.6 6.2 -3.1 2.3 -8.4 10.8 -9.3 7 l -0 -0.3 -1.5 2.7 c -1 4 -4.9 5.6 0.8 7 2.3 0.6 6.9 -1.6 10.1 -0.8 4.8 1.2 3 -6.3 7.8 -1.6 3.5 3.5 -2.8 5 -4.7 5.4 -3.9 1 -3.6 5.4 -9.3 5.4 -5.6 0 -4.3 4.6 -3.1 7 1.6 3.2 4.6 1.1 3.1 7 -1.2 4.8 -1.6 7.4 -5.4 9.3 -3.8 1.9 -3.1 5.5 -3.1 10.1 0 3.8 -3.1 4.9 -3.1 9.3 0 4.5 1.4 6.5 2.3 10.1 0.6 2.3 -0.5 1.6 -0.8 2.3 0 0 4.7 -1.4 8.7 1.5 4 2.9 4.6 -0 9.3 1.8 4.8 1.8 9.6 3.2 9.6 3.2 0 0 5.2 0 6.1 0.8 0.9 0.8 8.9 3.7 8.9 3.7 l 7 3.4 6.8 3.7 3.2 1.7 c 0 0 6 1.6 8.1 4.3 2.1 2.7 7.2 1.3 7.2 1.3 l 1.6 1.6 10.1 3.8 3.4 1.4 0.1 -0.7 z"/>

        <path style="fill:#eeeeee;stroke:#646464" id="Solola" d="m 196.2 798.3 c 1.2 1 0.5 7.2 2.9 9.6 2.7 2.7 -2.6 8.8 -3.1 9.3 -3.4 3.4 4.5 6 5.4 6.2 5.4 1.4 6.2 -1.6 9.3 -4.7 2.9 -2.9 6.7 -2.3 10.9 -2.3 5 0 6.5 -1.4 10.9 -2.3 1.5 -0.3 4.9 5.1 5.4 6.2 1.3 2.6 5 2.1 6.2 7 0.9 3.8 1.5 6 2.3 9.3 1.1 4.3 4.4 3.4 7 0.8 3.5 -3.5 4.1 -3.9 9.3 -3.9 5 0 6.4 0.9 9.3 2.3 3.1 1.6 4.8 2.4 7 4.7 0.7 0.7 1.3 2 1.6 2.3 3 3 2.6 -8.4 1.6 -12.4 -0.7 -2.9 -0.8 -6.9 -0.8 -10.9 0 -3.6 3.3 -7.9 4.7 -9.3 2.4 -2.4 3.1 -5.5 3.1 -9.3 0 -1.9 2.5 -4.9 1.6 -8.6 -1 -4.1 -2.4 -5.4 0.8 -8.6 1.2 -1.2 3.2 -6.5 3.9 -7.8 0.7 -1.5 1.1 -1.7 1.6 -2.3 0 0 -1.7 -2.1 -4.5 0.7 -2.6 0 -2.1 -0.2 -4.7 2.3 -2.1 2.1 -3.4 6.7 -7 3.1 -1.6 -1.6 -4.6 -5.5 0 -7.8 6.8 -3.4 2.4 -3.9 0 -6.2 -2 -2 -3.1 -3.8 -5.4 -6.2 -2 -2 -3.1 -3.8 -5.4 -6.2 l -1.2 -1 c -1.3 1.3 -3 1.4 -4.7 3.1 -0.8 0.8 -3.4 6.7 -4.7 7 -1.4 0.4 -8.5 5.5 -10.1 2.3 -2.8 -5.6 -2.4 -1.2 -7 -2.3 -3.8 -1 -3.9 -3.9 -7 -4.7 -4.9 -1.2 -5.1 3.3 -9.3 5.4 -1.8 0.9 -9 5.5 -9.3 6.2 0 0 -0.5 4.2 -1.3 5.2 -0.7 1 -3.9 3.6 -3.9 3.6 0 0 -1.2 -0.1 -2.2 4.4 -1 4.5 -2.3 3.7 -3.3 4.6 -1 0.9 -6.5 5.4 -6.5 5.4 l -2 2.9 -1.4 2.8 z" />

        <path style="fill:#eeeeee;stroke:#646464" id="Suchitepéquez" d="m 182.6 955.1 c 0.6 -2.3 3 -6 3.9 -9.3 1.1 -4.4 3.3 -4.8 6.2 -7.8 3.2 -3.2 3.9 -3.9 3.9 -9.3 0 -4.2 4.6 -5.4 7.8 -7 4.3 -2.2 1.6 -7.7 0.8 -9.3 -1.4 -2.9 -2.3 -6.9 -3.1 -10.1 -0.9 -3.4 -0.7 -7.4 0 -10.1 0.9 -3.5 8.3 -1.6 8.6 -1.6 2.5 0.6 0.6 6.4 3.1 7 6.6 1.6 4.2 -3.3 3.1 -5.4 -1.9 -3.8 0.3 -5.8 2.3 -7.8 3.2 -3.2 3.6 -5.2 6.2 -7.8 2.5 -2.5 5.3 -2.2 7.8 -4.7 0.3 -0.3 -2.9 7.9 -3.1 8.6 -0.6 2.3 0.7 7.1 0 10.1 -0.8 3.3 7.1 0 10.1 1.6 4.5 2.3 5 -1.5 6.2 -3.9 0.2 -0.4 5.4 5.1 6.2 5.4 2.3 1.2 7.3 1.8 9.3 2.3 3.4 0.8 8.1 0 11.7 0 2.1 0 4.6 -6.2 5.4 -7.8 1.6 -3.1 0.8 -7.7 0 -10.9 -1 -4 2.7 -4.2 4.7 -6.2 1.3 -1.3 2.2 -2.8 3.1 -3.9 4.2 -4.2 -2.1 -9.7 -3.9 -10.1 -4.2 -1.1 -3.9 -2.7 -3.9 -7.8 0 -3.5 0.6 -4.9 1.6 -6.8 -0.2 -0.3 -0.9 -1.7 -1.6 -2.3 -2.2 -2.2 -3.9 -3.1 -7 -4.7 -2.9 -1.5 -4.3 -2.3 -9.3 -2.3 -5.2 0 -5.8 0.4 -9.3 3.9 -2.6 2.6 -5.9 3.5 -7 -0.8 -0.8 -3.4 -1.4 -5.5 -2.3 -9.3 -1.2 -4.9 -4.9 -4.4 -6.2 -7 -0.6 -1.1 -4 -6.5 -5.4 -6.2 -4.4 0.9 -5.9 2.3 -10.9 2.3 -4.2 0 -8 -0.6 -10.9 2.3 -3.1 3.1 -3.9 6 -9.3 4.7 -0.9 -0.2 -8.9 -2.8 -5.4 -6.2 0.5 -0.5 5.8 -6.6 3.1 -9.3 -2.4 -2.4 -1.5 -12 -3.4 -8.3 l -2.1 3.6 c 0 0.5 -3 0.3 -3.1 0.8 -1.1 4.4 -3.1 3.1 -6.2 6.2 -1.7 1.7 -4.7 4.3 -4.7 7.8 0 4.5 0.4 7.4 -2.3 10.1 -1.1 1.1 -5 5.1 -5.4 7 -1.1 4.2 0.6 5.5 1.6 9.3 0.7 2.9 0.8 6.9 0.8 10.9 0 3.9 0.8 8.6 -1.6 11.7 -2.1 2.7 -4.4 6 -2.3 10.1 1.8 3.5 2 6.1 0 10.1 -1.3 2.6 -4.7 5.2 -4.7 8.6 0 3.9 0 7.8 0 11.7 0 5.7 -1.1 6.8 -3.1 10.9 -1.4 2.7 -1.5 6 -3.1 9.3 -1.1 2.1 -5 10.4 -5.4 10.9 l 6.5 5.8 5.3 3.2 5.4 1.4 c 0 0 3.9 0.6 5.3 2.3 1.4 1.7 3.3 4.3 3.3 4.3 l 1.9 1.7 1 -1.7 z" />

        <path style="fill:#eeeeee;stroke:#646464" id="Totonicapán" d="m 216.7 771 c 0.7 -2.8 -6.2 -7.8 -7 -9.3 -1.5 -3 -2 -5.8 -3.9 -7.8 -1.2 -1.2 -9.8 0 -11.7 0 -5.4 0 -4.1 -3.1 -3.1 -7 1 -4 -5.2 -3.2 -7.8 -3.9 -2.1 -0.5 3.1 -7.8 3.1 -10.1 0 -2.7 -1.6 -5.8 -1.6 -10.1 0 -3.9 0 -7.8 0 -11.7 0 -3.5 -1.6 -6 -1.6 -10.1 0 -3.7 6.7 -6.1 8.6 -7 0.5 -0.3 1 -0.5 1.6 -0.8 l 0.4 -0 9.7 3.9 16.3 -2.3 1.6 -16.3 c 2.6 2.6 5.6 -6.2 9.3 -6.2 5.2 0 5.4 -2.4 3.9 -5.4 l 1.2 2.7 c -0.7 2.5 -0.2 8 1.6 10.9 1.6 3.2 3.3 4.3 4.7 7 1.8 3.5 2.3 4.7 7 4.7 4.7 0 6.7 1.8 9.3 3.1 2.9 1.4 0.9 6.5 2.3 9.3 1.1 2.3 -5.2 -1.3 -7 -3.1 -4.3 -4.3 -6.2 0.5 -6.2 4.7 0 4.7 1.4 7.4 -0.8 11.7 -1.7 3.4 1.1 8.1 1.6 10.1 0.7 2.7 4 4.8 5.4 6.2 2.8 2.8 4.2 1.4 5.4 6.2 0.6 2.2 4.2 5 5.4 6.2 2.4 2.4 2.5 3.6 4.4 5.5 l -0.1 0.3 c -1.3 1.3 -3 1.4 -4.7 3.1 -0.8 0.8 -3.4 6.7 -4.7 7 -1.4 0.4 -8.5 5.5 -10.1 2.3 -2.8 -5.6 -2.4 -1.2 -7 -2.3 -3.8 -1 -3.9 -3.9 -7 -4.7 -4.9 -1.2 -5.1 3.3 -9.3 5.4 -1.8 0.9 -9 5.5 -9.3 6.2 L 216.7 771 z" />

        <path style="fill:#eeeeee;stroke:#646464" id="Zacapa" d="m 729.3 746.9 c -0.6 -1.2 -1.3 -2.9 -2.3 -3.9 -1.6 -1.6 -4.4 -5 -7.8 -1.6 -1.9 1.9 -2.7 5.1 -4.7 7 -2.2 2.2 -3.4 5.4 -7.8 5.4 -4.4 0 -5.5 -4.5 -7.8 -3.9 -3.7 0.9 -4.5 3.1 -7.8 3.9 -3.8 1 -6 -1.6 -8.6 -1.6 -2.8 0 -9.2 1.2 -11.7 0 -2.5 -1.2 -8.1 -3.5 -9.3 1.6 -1.5 6.2 -3.4 6.5 -8.6 7.8 -1.8 0.5 -2.4 0.2 -4.7 0.8 -3.3 0.8 -7.8 2.5 -11.7 1.6 -3.6 -0.9 -5.3 -2.1 -9.3 -3.1 -1.5 -0.4 -7.2 -4 -7.8 -3.9 -2.6 0.7 -4 2.5 -7 5.4 -1.4 1.4 -6.2 4.1 -5.4 7 0.7 3 1.6 5.9 1.6 10.1 0 4.1 -0.4 6.6 -3.1 9.3 -2.6 2.6 -3 3.1 -8.6 3.1 -4.2 0 -6.2 -0.8 -7.8 -3.9 -1.2 -2.5 -1.7 -5.7 -3.1 -8.6 -0.8 -1.5 -3.1 -6.2 -6.2 -7 -0.4 -0.1 -9.3 -1.5 -9.3 -2.3 0 -4 1.3 -6.5 3.1 -10.1 1.8 -3.6 2.3 -3.5 6.2 -5.4 0.8 -0.4 6.3 -9.3 3.1 -10.1 -2.9 -0.7 -5.4 -2.8 -6.2 -6.2 -1 -3.8 -1.5 -5.4 -3.1 -8.6 -0.4 -0.9 -5 -7.3 -0.8 -6.2 2.5 0.6 5.9 2.6 10.1 1.6 4.8 -1.2 8.5 0.7 5.4 -2.3 -1.5 -1.5 -3.2 -5.1 -5.4 -6.2 -1.8 -0.9 -6.1 -3 -7 -4.7 -1.2 -2.3 -2.5 -4.8 -4.7 -7 -1.6 -1.6 -6.3 -8.4 -7 -8.6 2.2 -1.4 0.3 -3.1 5.4 -3.1 3.2 0 3.2 -4.4 8.6 -3.1 4 1 8 -0.5 10.1 -1.6 2.5 -1.3 4.3 4 7 4.7 3.4 0.9 8.3 0.1 10.9 0.8 3.4 0.9 3.2 3.7 7 4.7 0.3 0.1 4.1 -6.4 4.7 -7 3 -3 3.3 -0.4 3.9 -1.6 0 -4.1 8.3 0 12.4 0 3.6 0 6.5 -3.6 8.6 -4.7 2.6 -1.3 6.6 1.8 10.1 0 3.4 -1.7 5.6 -3.1 10.1 -3.1 4.4 0 7.3 -2.5 10.1 -3.9 2.8 -1.4 5.7 -4.1 7.8 -6.2 2.6 -2.6 2.6 -4.9 5.4 -7.8 2.4 -2.4 7.5 -1.6 10.9 -1.6 5.5 0 5.3 -2.4 6.2 -6.2 0.8 -3.1 7.1 0.1 9.3 2.3 3.2 3.2 5.1 0.3 6.2 -0.8 1.9 -1.9 3.5 4.8 6.2 5.4 1.3 0.3 2.9 -5.7 4.7 1.6 0.8 3.3 0.8 7.1 0.8 10.9 0 2.2 -6.2 4.2 -7.8 5.4 -3.4 2.5 -3 4.3 1.6 5.4 2.3 0.6 2.7 6.8 3.1 8.6 0.9 3.6 1.8 1.8 -0.8 7 -2 4 3.5 5.7 5.4 6.2 0.3 0.1 2.9 3.7 3.1 3.9 l -4.1 3 -2.3 4.3 -1.4 4.6 0.1 4.6 3.6 4 1.4 3.1 -1.1 7.4 -2.3 3.3" />

    </g>
    <g>
        
        <path d="m 913 355.1 c -2 -4.1 3.7 -20.7 7.6 -22.2 1 -0.4 1.9 -0.7 2.1 -0.7 0.6 0 -4.9 10.3 -6.5 12 -0.9 1 -1.7 4.2 -2 7.2 -0.3 3.8 -0.6 4.9 -1.3 3.6 l 0 0 z" style="opacity:0.42039998;fill:#c9e4eb"/>
        
        <path d="M 733.2 56.3" style="fill:none;stroke:#646464;stroke-width:3.29940009"/>
        
        <path d="M 733.2 56.3" style="fill:none;stroke:#646464;stroke-width:3.29940009"/>
        
        <path d="M 949.8 555.1" style="fill:none;stroke:#646464;stroke-width:3.29940009"/>
        
        <path d="m 516.2 1030 c 2.1 -2.1 3.6 -3.4 0.8 -6.2 -1.3 -1.3 -5.2 -4.5 -3.1 -8.6 1.9 -3.7 1.3 -8 3.1 -11.7 2.8 -5.6 3.5 -3 7.8 -6.2 2 -1.5 7 -4 7 -7 0 -5.1 1.3 -7.3 5.4 -9.3 3.3 -1.7 6 -3 9.3 -4.7 1.7 -0.9 7.5 -3.4 8.6 -5.4 1.9 -3.8 3.8 -4.6 5.4 -7.8 2.6 -5.3 3.2 -2.8 8.6 -5.4 2.8 -1.4 4 -4.7 8.6 -4.7 4.2 0 6.1 0.7 8.6 3.1 1.7 1.7 3.8 4.7 7 4.7 5.1 0 6.2 -0.3 6.2 -5.4 0 -4.4 -0.2 -7.4 1.6 -10.9 1.3 -2.7 2.9 -6.8 5.4 -9.3 2.7 -2.7 4.9 -4.8 7.8 -7 2.3 -1.7 5.1 -4.4 7.8 -7 2.9 -2.9 4.2 -1.6 8.6 -1.6 3.5 0 8 0.7 10.9 -0.8 3.3 -1.7 10.1 -1 10.1 -4.7 l 2.4 -7.2 -10.6 -7.2 c 0.3 -0.3 1.6 -0.7 1.6 -1.6 0 -1.8 0.3 -4.3 -1.6 -4.3 -2 0 -3.9 0 -5.4 -0.4 -0.8 -0.2 -3.9 -0.7 -3.9 -1.9 0 -2.6 0.4 -3.1 1.2 -4.7 0.8 -1.6 4.7 -2.2 3.9 -3.9 -0.3 -0.3 -0.6 -0.5 -0.8 -0.8 -1 -2.1 -2.6 -6.4 -0.8 -10.1 1.1 -2.2 5.3 -5.6 8.6 -2.3 0.2 0.2 4.8 8.2 7 3.9 0.5 -1.1 3.5 -7.5 4.7 -7.8 3.4 -0.9 6.1 -0.1 8.6 2.3 1.3 1.3 7 4.7 8.6 -1.6 0.3 -1.3 2.8 -8.9 5.4 -6.2 2.4 2.4 8.6 8.8 8.6 5.4 0.1 -0.5 0.4 -2.3 0.4 -2.3 5.2 1 12.2 7.7 18.7 9.3 7.2 1.8 16.1 0.1 21.8 1.6 3.6 0.9 7.8 8.5 10.9 9.3 1 0.3 12 -12 12.4 -12.4 4 -4 4.3 11.5 9.3 14 8.7 4.3 6.9 4.4 10.9 12.4 3.6 7.3 7.8 3.7 7.8 15.6 0 5.7 13.8 5.4 17.1 6.2 1.2 0.3 6.7 9.5 12.4 10.9 6.3 1.6 4.1 10.4 12.4 12.4 7.3 1.8 16 -1.4 21.8 0 5.9 1.5 1.9 12.8 6.2 17.1 4.1 4.1 11.7 4 17.1 9.3 3.5 3.5 17.1 1.9 21.8 3.1 10 2.5 9.3 2 9.3 14 0 7.9 6.9 9.7 12.4 12.4 6.3 3.2 18.4 -1.4 21.8 -3.1 7.4 -3.7 9.8 -5.7 17.1 -9.3 6.9 -3.4 12.4 -2.8 12.4 -12.4 0 -10.2 7.1 -9.5 14 -7.8 1.5 0.4 3.1 0 4.7 0 l -0.1 0.1 0.1 110.4 H 582.4 c 0 0 -1.5 -4 -3.9 -9.1 -2.3 -5 -4.8 -5.5 -9.4 -9.9 -4.6 -4.4 -6.8 -3.6 -7.7 -5.2 -0.9 -1.6 -9.9 -4 -9.9 -4 0 0 -2.8 1.8 -8 -5.3 -5.2 -7.1 -8.9 -4.2 -11.8 -6.5 -3.4 -2.7 -15.4 -6.7 -15.4 -6.7" style="fill:none;stroke:#646464;stroke-width:3.29900002;stroke-miterlimit:10"/>
        
        <path d="m 733.2 55.7 -8.4 0.6 -410 -1.5 -0.8 135.3 -103.4 -1.6 c 0.4 2 0.3 2.1 0.8 3.9 1.6 6.4 1.6 2.7 7 5.4 2.1 1 6.5 2.9 7.8 5.4 1 2.1 2.3 7.1 5.4 3.9 4 -4 5.4 -0.8 10.1 -0.8 7 0 4.2 2.1 6.2 6.2 0.3 1.3 0.8 3.9 1.6 5.4 1.1 2.2 2.8 4.9 5.4 6.2 2.6 1.3 4.6 2.7 5.4 6.2 0.9 3.7 2.9 4.2 4.7 7.8 0.1 0.2 4.1 8.6 4.7 8.6 3 0 8.1 -0.4 10.1 1.6 1.9 1.9 1.9 5.8 3.9 7.8 1.2 1.2 3.5 6 5.4 7 1.8 0.9 6.2 2.9 6.2 5.4 0 4.5 1.9 6.1 5.4 7 2.3 0.6 6.8 5.4 7.8 4.7 1.8 -1.3 4.6 -7 7.8 -6.2 5.9 1.5 -0.4 2 3.1 5.4 1.2 1.2 5.7 3.3 6.2 5.4 0.7 2.6 0.3 7.8 3.9 7.8 3.2 0 8.6 -0.7 9.3 2.3 0.8 3.2 3.2 5.4 7.8 3.1 0.1 -0 8.6 -3.9 9.3 -0.8 1.2 4.9 1.5 3.8 4.7 7 2.2 2.2 5.8 4.8 8.6 6.2 2.8 1.4 3.8 3 6.2 5.4 0.3 0.3 0.6 0.5 0.8 0.8 1.3 2.7 2.8 4.4 5.4 7 1.4 1.4 4.7 5.6 4.7 7.8 0 1.3 0.3 2.6 0 3.9 0.6 1.1 2.2 0.3 1.6 3.1 -0.1 0.2 -3 11.5 -0.8 10.9 0.2 -0 10.5 -1 10.1 0.8 -0.7 2.7 -2.9 2.6 -4.7 6.2 -0.8 1.5 -4.4 9.3 -0.8 9.3 2.1 0 9.7 2 6.2 5.4 -3.2 3.2 -4.5 2.4 -1.6 3.9 3.6 1.8 5.2 1.2 10.1 0 4.6 -1.2 5.8 -0.4 8.6 2.3 3 3 4.8 0.1 9.3 2.3 3 1.5 1.6 7.8 3.1 8.6 2.7 1.3 5.9 0.5 10.1 1.6 3.5 0.9 10.9 -2.9 10.9 0.8 0 2.9 3.6 6.5 1.6 8.6 -0.3 0.3 -7.4 4.8 -6.2 5.4 3.1 1.6 6.5 3.6 3.1 7 -0.8 0.8 -8.9 5.1 -7.8 6.2 0.5 0.5 7.1 4.6 7 4.7 -2.3 1.1 -6.2 6.2 -7 6.2 -5.1 0 -7.3 -0.3 -3.9 3.1 5.3 5.3 -2.3 2.4 -2.3 7.8 0 6.4 -0.5 5.6 3.9 7.8 4 2 6 1.8 2.3 5.4 -2 2 0.6 5.5 -0.8 6.2 -2.3 1.2 -7.3 6.2 -4.7 6.2 4.2 0 7 2.6 3.1 7.8 L 142.1 472.4 28.6 665.2 62 708 c 0 4.7 -0.1 6.4 -2.3 9.3 -1.5 2 -4.3 6.2 -7.8 6.2 -4.3 0 -7.8 -0.1 -7.8 4.7 0 4.2 0.8 7.5 0.8 11.7 0 2.7 1.2 9.7 -0.8 11.7 -2.1 2.1 -7.2 3.6 -8.6 6.2 -1.3 2.6 -3.4 5.7 -2.3 10.1 0.8 3 3.9 4.9 3.9 7.8 0 4.2 0.1 7.3 1.6 10.1 1.2 2.4 1.4 6.3 2.3 10.1 0.6 2.6 1.6 7 0 10.1 -1.2 2.4 -3.3 5.1 -4.7 7.8 -1.3 2.6 -1 7.4 -2.3 10.1 -1.5 3 -2.6 4.4 -4.7 8.6 -1.3 2.6 -7.8 5.4 -10.1 3.1 l -0 -0.3 c -1 -3.5 -3.4 -2 -5.5 -3.9 -2.1 -1.8 -4 -2.7 -5.7 -6.8 C 6.2 820.4 0 816.5 0 816.5 L -0.1 0 822.2 0.7 c -1.3 3.2 -3.3 11 -6.6 14.3 -4.7 4.7 -7.8 7.8 -11 11 -2.2 2.2 -1.4 11 -2.2 14.3 -1 4 -8.1 -2.6 -11 -5.5 -3.7 -3.7 -6.9 -4.7 -9.9 -7.7 -4.4 -4.4 -2.5 -5.5 -11 -5.5 -4.2 0 -6.9 -5.8 -8.8 -7.7 -4.5 -4.5 -6.2 -3.7 -11 1.1 -3.6 3.6 -8.1 4.6 -12.1 6.6 -5.6 2.8 -4.4 4.9 -4.4 12.1 0 5.5 0 11 0 16.5 0 1.1 -1.1 3.7 -1.1 5.5 z" style="fill:none;stroke:#646464;stroke-width:3.29900002;stroke-miterlimit:10"/>
        
        <path d="m 949.8 555.1 4.1 3 c 0 0 6.9 5.1 8 5.8 1.1 0.7 4.8 3.4 9.8 0.6 5.1 -2.8 4.9 -6.9 5.1 -8.5 0.3 -1.6 4.6 -3.3 4.6 -3.3 v 11.8 401.8 c -1.6 0 -4.2 0.3 -5.7 -0.1 -6.9 -1.7 -14 -2.4 -14 7.8 0 9.7 -5.6 9 -12.4 12.4 -7.3 3.7 -9.7 5.7 -17.1 9.3 -3.4 1.7 -15.5 6.3 -21.8 3.1 -5.6 -2.8 -12.4 -4.6 -12.4 -12.4 0 -12 0.7 -11.5 -9.3 -14 -4.7 -1.2 -18.3 0.4 -21.8 -3.1 -5.4 -5.4 -13 -5.2 -17.1 -9.3 -4.3 -4.3 -0.3 -15.6 -6.2 -17.1 -5.7 -1.4 -14.5 1.8 -21.8 0 -8.3 -2.1 -6.1 -10.9 -12.4 -12.4 -5.7 -1.4 -11.2 -10.6 -12.4 -10.9 -3.3 -0.8 -17.1 -0.5 -17.1 -6.2 0 -11.8 -4.1 -8.3 -7.8 -15.6 -4 -8 -2.2 -8.1 -10.9 -12.4 -5 -2.5 -5.4 -18 -9.3 -14 -0.4 0.4 -11.4 12.7 -12.4 12.4 -3.1 -0.8 -7.3 -8.4 -10.9 -9.3 -5.6 -1.4 -14.6 0.2 -21.8 -1.6 -6.4 -1.6 -9.4 -6.7 -14.6 -7.8 0 0 -2.7 -0.4 -2.7 -2.1 0 -4.9 0.3 -7.5 3.9 -9.3 3.2 -1.6 4.6 -2.2 6.2 -5.4 1.9 -3.9 4.5 -2.1 7 -5.4 2.4 -3.2 4.8 -5.7 6.2 -8.6 1.3 -2.7 3 -4.7 7 -4.7 4.5 0 5.9 2.5 10.9 0 4 -2 5.4 -3.4 5.4 -8.6 0 -2.8 -1.2 -9.2 0 -11.7 1.5 -2.9 5.5 -5.4 4.7 -8.6 -1 -4.2 -1.2 -2.8 -4.7 -6.2 -2.3 -2.3 -3.6 -2.7 -4.7 -7 -0.8 -3 -2.5 -5 -3.9 -7.8 -1.4 -2.7 -3.1 -3.9 -4.7 -7 -1.4 -2.7 -3.1 -4.6 -3.9 -7.8 -0.6 -2.3 -1.9 -7.4 0.8 -10.1 2 -2 3.8 -3.1 6.2 -5.4 1.1 -1.1 5.6 -4.4 6.2 -7 0.6 -2.5 1.6 -6.9 -0.8 -9.3 -1.7 -1.7 -4.9 -3.5 -3.9 -7.8 0.9 -3.6 2.9 -11.2 7.8 -12.4 1.8 -0.4 1.8 -0.2 3.9 -0.8 3.1 -0.8 5.2 -2.2 8.6 -3.9 3.4 -1.7 6.4 -3.7 10.1 -4.7 3.4 -0.9 5 -2.8 9.3 -3.9 3.8 -0.9 5.3 -1.5 8.6 -3.1 3.6 -1.8 3.4 -4.4 7 -6.2 3.5 -1.7 5.2 -3.7 7.8 -6.2 2.3 -2.3 4.6 -3.8 7.8 -7 3.2 -3.2 5.3 -5.4 8.6 -7 3.8 -1.9 5.8 -4.5 9.3 -6.2 1.5 -0.7 7.3 -2.7 9.3 -4.7 2.8 -2.8 3.5 -3.7 7 -5.4 2.7 -1.3 6.6 -2.8 9.3 -5.4 2.6 -2.6 3.7 -3.7 6.2 -6.2 2.8 -2.8 3.7 -2.7 5.4 -6.2 0.8 -1.5 2.7 -6.3 5.4 -7 2.1 -0.5 10.5 -2.3 11.7 -3.9 1 -4 1.8 -3.5 3.9 -6.2 2.5 -3.4 5.4 -6.6 9.3 -8.6 3.5 -1.8 4 -3.4 7.8 -6.2 3.5 -2.6 6.2 -3.8 8.6 -6.2 1.8 -1.8 4.4 -6.1 7.8 -8.6 2.4 -1.8 5.7 -4 8.6 -5.4 3.2 -1.6 5 -3.7 8.6 -5.4 2.8 -1.4 3.8 -3 6.2 -5.4 2.3 -2.3 1.4 -8.6 4.7 -8.6 1 0 8.8 1.2 7.8 -3.1 -1.7 -6.9 7 -6.2 6.2 -6.2" style="fill:none;stroke:#646464;stroke-width:3.29940009"/>
        
        <path d="m 790 514.9 c 1.1 -0.5 1.8 -2.6 0.4 -3.8 -0.9 -0.9 -1.7 -1 -2.5 -2.5 -1.2 -2.4 -1.9 -3.9 -1.9 -7.6 0 -1.7 0.4 -7.1 1.9 -8.2 2 -1.5 4.9 -4 6.9 -5.1 1.3 -0.6 6.8 -2.3 7.6 -3.8 1.3 -2.7 0.9 -3.7 1.9 -7.6 1 -3.9 2.5 -3.5 5.7 -5.1 1.6 -0.8 5.1 -2.2 5.7 -4.4 0.4 -1.6 1.2 -5.8 3.2 -6.3 1.7 -0.4 5.7 -0.9 6.9 -2.5 1.4 -1.8 3.2 -4 3.2 -6.9 0 -3.7 -1.3 -4.3 -1.3 -8.2 0 -3.7 0.9 -4.7 3.2 -6.9 1.8 -1.8 3.5 -1.7 6.9 -2.5 1.8 -0.4 5.3 -5.5 6.9 -5.1 2.9 0.7 5.1 1.1 5.1 -3.2 0 -4.6 2.1 -4.2 4.4 -1.9 0.9 0.9 3.8 4.4 5.1 4.4 2.5 0 5 -5.2 5.1 -5.1 0.7 0.7 1.9 4.9 1.9 5.1 -0.1 0.4 -3.2 7.6 -0.6 5.1 1.8 -1.8 1.9 -5.1 4.4 -6.3 3.1 -1.6 4.1 -1.8 5.7 -5.1 0.5 -1 3.7 -6.1 3.8 -6.3 1 -4.2 3.7 -2.4 5.1 -5.1 0.4 -0.8 0.8 -1.7 1.3 -2.5 1.8 -1.8 2.2 -3.1 3.2 -5.1 2.3 -4.7 1.4 -2.6 3.8 -3.8 4.7 -2.4 3.2 -1.6 3.2 -5.1 0 -1.8 -0 -7.6 1.9 -7.6 5.3 0 4 -0 5.1 -4.4 0.7 -2.8 1.7 -4.2 3.8 -6.3 3.2 -3.2 1.5 -2.3 2.5 -6.3 0.5 -2.1 3.3 -6.2 2.5 -6.9 -0.5 -0.5 -6.5 -3.8 -3.2 -3.8 4.5 0 4.9 -0.7 4.4 -2.5 -0.2 -1 -1.6 -3.1 0 -6.3 1.1 -2.2 0.7 -5.8 1.9 -8.2 0.8 -1.7 3 -6.8 4.4 -8.2 1.5 -1.5 7.3 -2.5 6.3 -0.6 -1 1.9 -3.2 3.3 -3.8 5.7 -0.9 3.5 -1.5 4.1 -3.8 6.3 -1.9 1.9 -2.8 2.8 -1.9 6.3 0.8 3 -0.6 5 -0.6 7.6 0 4 -1.9 4.7 -1.9 8.2 0 4.2 4.4 5 4.4 1.9 0 -3.8 1.3 -4.8 1.3 -8.2 0 -2.7 -1.8 -6.5 -0.6 -8.8 0.8 -1.6 1 -6.2 2.5 -8.2 1.5 -1.9 3 -3.7 5.1 -5.7 4.3 -4.3 0.5 -5.1 1.9 -10.7 0 -0.4 -0.1 -0.9 0 -1.3 0.8 -3.1 1.3 -4.4 1.3 -8.2 0 -3.3 -2.1 -5.3 -1.3 -8.8 0.7 -2.8 1.7 -4 3.2 -6.9 1.5 -3 3 -2.7 6.3 -4.4 2.4 -1.2 3.8 -3.8 1.3 -6.3 -1.7 -1.7 -2 -4 -3.2 -6.3 -0.7 -1.3 -4.2 -4.2 -3.8 -5.7 0.8 -3 1.3 -4.5 2.5 -6.9 0.7 -1.3 1.4 -5.5 3.2 -6.3 2.6 -1.3 5.3 -2.7 7.6 -4.4 4.1 -3.1 2.8 -4.1 1.9 -7.6 -0.9 -3.8 -2.5 -3 -2.5 -8.2 0.4 -1.8 1.1 -4.4 0.6 -6.3 -0.4 -1.5 -1.6 -5.5 -3.2 -6.3 -1.8 -0.9 -4.1 -2 -6.3 -3.2 -2.5 -1.2 -3.7 -2 -4.4 -5.1 -0.5 -1.9 0 -6.2 -0.6 -8.8 -0.8 -3.4 -1.2 -4.3 -2.5 -6.9 -0.8 -1.6 -2.1 -4.9 -1.3 -8.2 0.7 -3 1.3 -5 1.3 -8.2 0 -3.6 1.3 -5.6 1.3 -8.8 0 -3.4 1.9 -4.7 1.9 -7.6 0 -3.8 1.9 -4.9 1.9 -7.6 0 -3 0.6 -5.7 1.3 -8.2 0.6 -2.2 1.2 -6 1.9 -8.8 0.6 -2.6 -0 -5.6 1.3 -8.2 0.4 -0.8 1 -1.6 1.3 -2.5 0.4 -1.8 0.9 -2.4 1.3 -3.8 1.1 -4.3 2 -3.2 5.7 -3.2 2 0 8.5 0.7 9.5 -1.3 1 -2 1.8 -5.7 -1.9 -5.7 -2.3 0 -6.7 -0 -7.6 -1.9 -0.8 -1.7 -1.4 -5.1 -3.8 -5.7 -2.7 -0.7 -4.7 -1.1 -7.6 -2.5 -2.9 -1.4 -3.2 -1.9 -3.2 -6.3 0 -3.2 0 -6.3 0 -9.5 0 -5.1 2.2 -3.2 3.8 -6.3 1.3 -2.6 3.2 -3.8 4.4 -6.3 1.3 -2.6 2.4 -3.9 3.2 -6.9 0.6 -2.3 -0.6 -6.5 0.6 -8.8 1.4 -2.8 2.5 -5 2.5 -8.8 0 -3.9 2.5 -5.4 2.5 -8.2 0 -2.9 0.7 -6.7 0 -9.5 -0.3 -1.3 -1.8 -7.2 -0.6 -8.8 2 -2.7 3.6 -3 4.4 -6.3 0.9 -3.4 1.8 -4.3 3.2 -6.9 1.2 -2.4 4.4 -4.5 5.1 -6.9 0.6 -2.2 1.3 -7.6 2.5 -8.8 2.2 -2.2 4.4 -4.6 3.8 -7.6 H 836.9 822.2 c -1.3 3.2 -3.3 11 -6.6 14.3 -4.7 4.7 -7.8 7.8 -11 11 -2.2 2.2 -1.4 11 -2.2 14.3 -1 4 -8.1 -2.6 -11 -5.5 -3.7 -3.7 -6.9 -4.7 -9.9 -7.7 -4.4 -4.4 -2.5 -5.5 -11 -5.5 -4.2 0 -6.9 -5.8 -8.8 -7.7 -4.5 -4.5 -6.2 -3.7 -11 1.1 -3.6 3.6 -8.1 4.6 -12.1 6.6 -5.6 2.8 -4.4 4.9 -4.4 12.1 0 5.5 0 11 0 16.5 0 1.1 -1.1 3.7 -1.1 5.5 l 2.2 181.5 -16.5 274.9 c 0 5 -0 7.5 5.1 6.2 2.6 -0.7 5.5 -4.3 7.8 -5.4 4.1 -2.1 7.3 1.9 8.6 3.1 2.5 2.5 4.7 -3.1 8.6 -3.1 3.6 0 3 3.5 7.8 2.3 5.4 -1.3 3.6 -4.9 7.8 -0.8 2.6 2.6 4 3.1 8.6 3.1 3.6 0 7.8 -0.8 11.7 -0.8 2.2 0 2.6 -0.5 4.2 -0.9 l 1.1 -0.2 z" style="fill:none;stroke:#646464;stroke-width:3.29900002;stroke-miterlimit:10"/>
    </g>
    <g>
        <g>
            
            <path d="m 966.7 0 c 0.6 3 -1.6 5.4 -3.8 7.6 -1.2 1.2 -2 6.6 -2.5 8.8 -0.6 2.5 -3.8 4.5 -5.1 6.9 -1.3 2.6 -2.3 3.5 -3.2 6.9 -0.8 3.3 -2.4 3.7 -4.4 6.3 -1.2 1.6 0.3 7.5 0.6 8.8 0.7 2.8 0 6.6 0 9.5 0 2.8 -2.5 4.3 -2.5 8.2 0 3.9 -1.1 6.1 -2.5 8.8 -1.2 2.4 -0.1 6.6 -0.6 8.8 -0.8 3 -1.8 4.3 -3.2 6.9 -1.3 2.5 -3.1 3.7 -4.4 6.3 -1.6 3.1 -3.8 1.2 -3.8 6.3 0 3.2 0 6.3 0 9.5 0 4.4 0.3 4.9 3.2 6.3 2.9 1.4 4.9 1.9 7.6 2.5 2.4 0.6 3 4 3.8 5.7 0.9 1.8 5.3 1.9 7.6 1.9 3.6 0 2.9 3.7 1.9 5.7 -1 2 -7.5 1.3 -9.5 1.3 -3.7 0 -4.6 -1.1 -5.7 3.2 -0.3 1.4 -0.8 2 -1.3 3.8 -0.2 0.9 -0.8 1.7 -1.3 2.5 -1.3 2.6 -0.6 5.6 -1.3 8.2 -0.7 2.8 -1.3 6.6 -1.9 8.8 -0.6 2.5 -1.3 5.2 -1.3 8.2 0 2.7 -1.9 3.8 -1.9 7.6 0 2.9 -1.9 4.2 -1.9 7.6 0 3.2 -1.3 5.2 -1.3 8.8 0 3.3 -0.5 5.2 -1.3 8.2 -0.8 3.3 0.4 6.6 1.3 8.2 1.3 2.6 1.7 3.6 2.5 6.9 0.7 2.7 0.1 6.9 0.6 8.8 0.8 3.1 1.9 3.8 4.4 5.1 2.2 1.1 4.5 2.3 6.3 3.2 1.6 0.8 2.8 4.8 3.2 6.3 0.5 1.9 -0.3 4.5 -0.6 6.3 0 5.2 1.6 4.5 2.5 8.2 0.9 3.5 2.2 4.5 -1.9 7.6 -2.3 1.7 -5 3.1 -7.6 4.4 -1.7 0.9 -2.5 5 -3.2 6.3 -1.2 2.5 -1.8 3.9 -2.5 6.9 -0.4 1.5 3.1 4.3 3.8 5.7 1.2 2.3 1.5 4.6 3.2 6.3 2.5 2.5 1.2 5.1 -1.3 6.3 -3.4 1.7 -4.8 1.4 -6.3 4.4 -1.5 2.9 -2.4 4.1 -3.2 6.9 -0.9 3.5 1.3 5.6 1.3 8.8 0 3.8 -0.5 5.1 -1.3 8.2 -0.1 0.4 0 0.8 0 1.3 -1.4 5.6 2.4 6.5 -1.9 10.7 -2 2 -3.6 3.7 -5.1 5.7 -1.5 2 -1.7 6.6 -2.5 8.2 -1.2 2.4 0.6 6.2 0.6 8.8 0 3.4 -1.3 4.4 -1.3 8.2 0 3.1 -4.4 2.3 -4.4 -1.9 0 -3.6 1.9 -4.2 1.9 -8.2 0 -2.6 1.4 -4.6 0.6 -7.6 -0.9 -3.6 0 -4.5 1.9 -6.3 2.3 -2.3 2.9 -2.9 3.8 -6.3 0.6 -2.4 2.8 -3.7 3.8 -5.7 0.9 -1.9 -4.8 -0.9 -6.3 0.6 -1.4 1.4 -3.6 6.5 -4.4 8.2 -1.2 2.4 -0.8 6 -1.9 8.2 -1.6 3.2 -0.2 5.4 0 6.3 0.5 1.9 0.1 2.5 -4.4 2.5 -3.4 0 2.7 3.3 3.2 3.8 0.8 0.8 -2 4.8 -2.5 6.9 -1 4 0.7 3.1 -2.5 6.3 -2.1 2.1 -3.1 3.5 -3.8 6.3 -1.1 4.4 0.2 4.4 -5.1 4.4 -1.9 0 -1.9 5.7 -1.9 7.6 0 3.5 1.6 2.7 -3.2 5.1 -2.4 1.2 -1.5 -0.9 -3.8 3.8 -1 1.9 -1.4 3.3 -3.2 5.1 -0.4 0.8 -0.8 1.7 -1.3 2.5 -1.3 2.6 -4 0.9 -5.1 5.1 -0 0.2 -3.3 5.3 -3.8 6.3 -1.6 3.3 -2.6 3.5 -5.7 5.1 -2.5 1.2 -2.6 4.5 -4.4 6.3 -2.6 2.6 0.5 -4.7 0.6 -5.1 0 -0.1 -1.2 -4.3 -1.9 -5.1 -0.1 -0.1 -2.5 5.1 -5.1 5.1 -1.3 0 -4.2 -3.5 -5.1 -4.4 -2.3 -2.3 -4.4 -2.7 -4.4 1.9 0 4.2 -2.1 3.9 -5.1 3.2 -1.7 -0.4 -5.2 4.6 -6.9 5.1 -3.4 0.9 -5.2 0.7 -6.9 2.5 -2.2 2.2 -3.2 3.2 -3.2 6.9 0 3.9 1.3 4.5 1.3 8.2 0 3 -1.8 5.1 -3.2 6.9 -1.2 1.6 -5.3 2.1 -6.9 2.5 -1.9 0.5 -2.8 4.7 -3.2 6.3 -0.6 2.2 -4.1 3.6 -5.7 4.4 -3.2 1.6 -4.7 1.2 -5.7 5.1 -1 3.9 -0.6 4.9 -1.9 7.6 -0.8 1.5 -6.3 3.1 -7.6 3.8 -2 1 -5 3.6 -6.9 5.1 -1.5 1.1 -1.9 6.5 -1.9 8.2 0 3.7 0.7 5.2 1.9 7.6 0.8 1.6 1.7 1.7 2.5 2.5 2.6 5.1 0.5 4.3 3.8 7.6 2.2 2.2 3 2.5 3.8 5.7 0.3 1.3 8 -1.8 8.2 -1.9 3.6 -0.9 4.4 -1.1 7.6 -1.9 0.7 -0.2 4.4 4.1 5.1 4.4 2.3 1.2 5.5 1.3 8.8 1.3 1.8 0 2.7 5.5 3.2 6.3 1.2 2.3 3.1 3.4 5.1 4.4 2.8 1.4 3.4 3.1 6.3 3.8 2 0.5 3.9 2.9 5.7 3.8 2.3 1.1 3.9 2.6 6.3 3.2 3.6 0.9 1.2 5.1 0.6 6.3 -1.6 3.2 -3 2.3 -1.3 5.7 1 2 5.2 1.9 7.6 1.9 2.6 0 3.8 -3.2 4.4 -5.7 0.7 -2.7 0.6 -5.8 0.6 -8.8 0 -3 3.2 -6.4 4.4 -7.6 2.2 -2.2 2.5 -3.8 2.5 -7.6 0 -2.8 -2 -4.9 -2.5 -6.9 -0.6 -2.5 5 1.9 7.6 1.9 3 0 4.9 1.3 7.6 0.6 2.2 -0.6 -1.8 -4.7 -3.8 -5.7 -2.4 -1.2 -4.1 -2.7 -6.3 -3.8 -2.8 -1.4 -3.4 -3.7 -4.4 -5.7 -1.2 -2.4 -3 -3.4 -5.1 -4.4 -2.8 -1.4 -4.6 -1.4 -6.3 -3.2 -2.6 -2.6 -1.7 -4.8 -0.6 -6.9 1.1 -2.2 4.7 1.4 6.9 2.5 2.2 1.1 3.9 3.3 5.7 5.1 1.6 1.6 4.1 2.2 5.7 3.8 2.2 2.2 2.9 2.7 4.4 5.7 1 2 3.8 3.1 5.1 4.4 1.5 1.5 4 2.6 6.3 3.8 2.1 1 4.3 2.4 5.7 3.8 1.1 1.1 6.9 2 8.8 2.5 3.3 0.8 4.8 1.2 7.6 1.9 2.4 0.6 3.7 2.8 5.7 3.8 1.9 0.9 4.3 3.1 5.7 4.4 1.9 1.9 3.4 2.8 5.1 4.4 1.7 1.7 3.5 4.2 5.1 5.7 1.9 1.9 4.7 2.6 6.9 3.2 2.4 0.6 5.2 1.9 7.6 2.5 1.9 0.5 4.6 3.9 6.9 5.1 2.7 1.3 3 3 6.3 3.8 3.2 0.8 6.5 -0.4 8.2 -1.3 2.6 -1.3 2.6 -4.6 3.2 -6.9 0.4 -1.7 4.7 -3.4 5.3 -3.7 L 981.4 0 966.7 0 z" style="fill:#c9e4eb"/>
            
            <path d="m 966.7 0 c 0.6 3 -1.6 5.4 -3.8 7.6 -1.2 1.2 -2 6.6 -2.5 8.8 -0.6 2.5 -3.8 4.5 -5.1 6.9 -1.3 2.6 -2.3 3.5 -3.2 6.9 -0.8 3.3 -2.4 3.7 -4.4 6.3 -1.2 1.6 0.3 7.5 0.6 8.8 0.7 2.8 0 6.6 0 9.5 0 2.8 -2.5 4.3 -2.5 8.2 0 3.9 -1.1 6.1 -2.5 8.8 -1.2 2.4 -0.1 6.6 -0.6 8.8 -0.8 3 -1.8 4.3 -3.2 6.9 -1.3 2.5 -3.1 3.7 -4.4 6.3 -1.6 3.1 -3.8 1.2 -3.8 6.3 0 3.2 0 6.3 0 9.5 0 4.4 0.3 4.9 3.2 6.3 2.9 1.4 4.9 1.9 7.6 2.5 2.4 0.6 3 4 3.8 5.7 0.9 1.8 5.3 1.9 7.6 1.9 3.6 0 2.9 3.7 1.9 5.7 -1 2 -7.5 1.3 -9.5 1.3 -3.7 0 -4.6 -1.1 -5.7 3.2 -0.3 1.4 -0.8 2 -1.3 3.8 -0.2 0.9 -0.8 1.7 -1.3 2.5 -1.3 2.6 -0.6 5.6 -1.3 8.2 -0.7 2.8 -1.3 6.6 -1.9 8.8 -0.6 2.5 -1.3 5.2 -1.3 8.2 0 2.7 -1.9 3.8 -1.9 7.6 0 2.9 -1.9 4.2 -1.9 7.6 0 3.2 -1.3 5.2 -1.3 8.8 0 3.3 -0.5 5.2 -1.3 8.2 -0.8 3.3 0.4 6.6 1.3 8.2 1.3 2.6 1.7 3.6 2.5 6.9 0.7 2.7 0.1 6.9 0.6 8.8 0.8 3.1 1.9 3.8 4.4 5.1 2.2 1.1 4.5 2.3 6.3 3.2 1.6 0.8 2.8 4.8 3.2 6.3 0.5 1.9 -0.3 4.5 -0.6 6.3 0 5.2 1.6 4.5 2.5 8.2 0.9 3.5 2.2 4.5 -1.9 7.6 -2.3 1.7 -5 3.1 -7.6 4.4 -1.7 0.9 -2.5 5 -3.2 6.3 -1.2 2.5 -1.8 3.9 -2.5 6.9 -0.4 1.5 3.1 4.3 3.8 5.7 1.2 2.3 1.5 4.6 3.2 6.3 2.5 2.5 1.2 5.1 -1.3 6.3 -3.4 1.7 -4.8 1.4 -6.3 4.4 -1.5 2.9 -2.4 4.1 -3.2 6.9 -0.9 3.5 1.3 5.6 1.3 8.8 0 3.8 -0.5 5.1 -1.3 8.2 -0.1 0.4 0 0.8 0 1.3 -1.4 5.6 2.4 6.5 -1.9 10.7 -2 2 -3.6 3.7 -5.1 5.7 -1.5 2 -1.7 6.6 -2.5 8.2 -1.2 2.4 0.6 6.2 0.6 8.8 0 3.4 -1.3 4.4 -1.3 8.2 0 3.1 -4.4 2.3 -4.4 -1.9 0 -3.6 1.9 -4.2 1.9 -8.2 0 -2.6 1.4 -4.6 0.6 -7.6 -0.9 -3.6 0 -4.5 1.9 -6.3 2.3 -2.3 2.9 -2.9 3.8 -6.3 0.6 -2.4 2.8 -3.7 3.8 -5.7 0.9 -1.9 -4.8 -0.9 -6.3 0.6 -1.4 1.4 -3.6 6.5 -4.4 8.2 -1.2 2.4 -0.8 6 -1.9 8.2 -1.6 3.2 -0.2 5.4 0 6.3 0.5 1.9 0.1 2.5 -4.4 2.5 -3.4 0 2.7 3.3 3.2 3.8 0.8 0.8 -2 4.8 -2.5 6.9 -1 4 0.7 3.1 -2.5 6.3 -2.1 2.1 -3.1 3.5 -3.8 6.3 -1.1 4.4 0.2 4.4 -5.1 4.4 -1.9 0 -1.9 5.7 -1.9 7.6 0 3.5 1.6 2.7 -3.2 5.1 -2.4 1.2 -1.5 -0.9 -3.8 3.8 -1 1.9 -1.4 3.3 -3.2 5.1 -0.4 0.8 -0.8 1.7 -1.3 2.5 -1.3 2.6 -4 0.9 -5.1 5.1 -0 0.2 -3.3 5.3 -3.8 6.3 -1.6 3.3 -2.6 3.5 -5.7 5.1 -2.5 1.2 -2.6 4.5 -4.4 6.3 -2.6 2.6 0.5 -4.7 0.6 -5.1 0 -0.1 -1.2 -4.3 -1.9 -5.1 -0.1 -0.1 -2.5 5.1 -5.1 5.1 -1.3 0 -4.2 -3.5 -5.1 -4.4 -2.3 -2.3 -4.4 -2.7 -4.4 1.9 0 4.2 -2.1 3.9 -5.1 3.2 -1.7 -0.4 -5.2 4.6 -6.9 5.1 -3.4 0.9 -5.2 0.7 -6.9 2.5 -2.2 2.2 -3.2 3.2 -3.2 6.9 0 3.9 1.3 4.5 1.3 8.2 0 3 -1.8 5.1 -3.2 6.9 -1.2 1.6 -5.3 2.1 -6.9 2.5 -1.9 0.5 -2.8 4.7 -3.2 6.3 -0.6 2.2 -4.1 3.6 -5.7 4.4 -3.2 1.6 -4.7 1.2 -5.7 5.1 -1 3.9 -0.6 4.9 -1.9 7.6 -0.8 1.5 -6.3 3.1 -7.6 3.8 -2 1 -5 3.6 -6.9 5.1 -1.5 1.1 -1.9 6.5 -1.9 8.2 0 3.7 0.7 5.2 1.9 7.6 0.8 1.6 1.7 1.7 2.5 2.5 2.6 5.1 0.5 4.3 3.8 7.6 2.2 2.2 3 2.5 3.8 5.7 0.3 1.3 8 -1.8 8.2 -1.9 3.6 -0.9 4.4 -1.1 7.6 -1.9 0.7 -0.2 4.4 4.1 5.1 4.4 2.3 1.2 5.5 1.3 8.8 1.3 1.8 0 2.7 5.5 3.2 6.3 1.2 2.3 3.1 3.4 5.1 4.4 2.8 1.4 3.4 3.1 6.3 3.8 2 0.5 3.9 2.9 5.7 3.8 2.3 1.1 3.9 2.6 6.3 3.2 3.6 0.9 1.2 5.1 0.6 6.3 -1.6 3.2 -3 2.3 -1.3 5.7 1 2 5.2 1.9 7.6 1.9 2.6 0 3.8 -3.2 4.4 -5.7 0.7 -2.7 0.6 -5.8 0.6 -8.8 0 -3 3.2 -6.4 4.4 -7.6 2.2 -2.2 2.5 -3.8 2.5 -7.6 0 -2.8 -2 -4.9 -2.5 -6.9 -0.6 -2.5 5 1.9 7.6 1.9 3 0 4.9 1.3 7.6 0.6 2.2 -0.6 -1.8 -4.7 -3.8 -5.7 -2.4 -1.2 -4.1 -2.7 -6.3 -3.8 -2.8 -1.4 -3.4 -3.7 -4.4 -5.7 -1.2 -2.4 -3 -3.4 -5.1 -4.4 -2.8 -1.4 -4.6 -1.4 -6.3 -3.2 -2.6 -2.6 -1.7 -4.8 -0.6 -6.9 1.1 -2.2 4.7 1.4 6.9 2.5 2.2 1.1 3.9 3.3 5.7 5.1 1.6 1.6 4.1 2.2 5.7 3.8 2.2 2.2 2.9 2.7 4.4 5.7 1 2 3.8 3.1 5.1 4.4 1.5 1.5 4 2.6 6.3 3.8 2.1 1 4.3 2.4 5.7 3.8 1.1 1.1 6.9 2 8.8 2.5 3.3 0.8 4.8 1.2 7.6 1.9 2.4 0.6 3.7 2.8 5.7 3.8 1.9 0.9 4.3 3.1 5.7 4.4 1.9 1.9 3.4 2.8 5.1 4.4 1.7 1.7 3.5 4.2 5.1 5.7 1.9 1.9 4.7 2.6 6.9 3.2 2.4 0.6 5.2 1.9 7.6 2.5 1.9 0.5 4.6 3.9 6.9 5.1 2.7 1.3 3 3 6.3 3.8 3.2 0.8 6.5 -0.4 8.2 -1.3 2.6 -1.3 2.6 -4.6 3.2 -6.9 0.4 -1.7 4.7 -3.4 5.3 -3.7 L 981.4 0 966.7 0 z" style="fill:none;stroke:#1478a9;stroke-miterlimit:10"/>
        </g>
        <g>
            
            <path d="m 0 1076.6 c -0.9 -0.9 0.1 -259 1.1 -259 0.5 0 4.3 3.3 7.5 7.1 3.2 3.8 7.1 7.7 8.7 8.8 1.6 1 3.9 3.4 5.1 5.2 1.2 1.8 3.1 3.6 4.3 4 1.1 0.4 4.1 2.5 6.6 4.8 2.5 2.3 6 4.9 7.9 5.9 1.9 1 5.4 3.4 7.9 5.4 2.5 2 8.1 6.4 12.4 9.7 4.4 3.3 10.3 8.3 13.1 11 5.3 5.2 19.4 17.4 24.9 21.7 1.8 1.4 4.7 3.6 6.5 5.1 1.8 1.4 4.5 3.2 6 4 2.5 1.3 12.7 8.4 18.8 13 1.5 1.2 6.5 4 11 6.3 4.5 2.3 11.3 7.1 15 10.5 5.1 4.7 7.9 6.4 11.4 7 3.3 0.6 6.2 2.3 10.5 6.1 4 3.6 7.8 5.9 11.7 7 3.2 0.9 10 3.5 15.2 5.7 9 3.9 12.2 5.2 23.4 10.2 2.9 1.3 6.7 2.3 8.5 2.3 3.3 0 17.6 3.6 19.9 5 2.6 1.6 28.3 4.7 41.7 5 7.6 0.2 23.4 -0.4 35.2 -1.3 29.9 -2.2 67.8 -2.1 76.4 0.3 3.6 1 10.6 2.8 15.4 4.1 5 1.3 16 5.9 25.4 10.6 9.1 4.5 17.4 8.3 18.4 8.3 1 0 2.7 0.4 3.8 1 4.3 2.2 17.7 7.7 23 9.4 3.1 1 7 2.9 8.6 4.1 1.6 1.2 5.7 3.2 9.1 4.2 8.9 2.8 24.9 11.2 29.9 15.8 2.4 2.1 5.7 4.2 7.4 4.6 11.9 2.9 25.6 14.7 27.4 23.6 l 0.7 3.3 -288.9 -0.3 C 131.9 1075.9 0.3 1076.9 0 1076.6 l 0 0 z" style="fill:#c9e4eb"/>
            
            <path d="m 580.6 1076.6 c -0.6 -2.3 -1.2 -4.6 -2.2 -6.6 -0.9 -1.9 -2.3 -2.9 -3.3 -4.9 -0.9 -1.8 -2.2 -2.7 -3.8 -4.4 -1.4 -1.4 -3.6 -1.9 -4.9 -3.3 -1.5 -1.5 -2.8 -2.2 -4.9 -3.3 -1.7 -0.8 -3 -2.1 -5.5 -2.8 -2.7 -0.7 -3.9 -0.9 -6.6 -2.2 -1.8 -0.9 -3.6 -1.9 -4.9 -3.3 -1.5 -1.5 -2.1 -2.7 -4.4 -4.4 -1.7 -1.3 -4 -1.7 -6 -2.8 -1.7 -0.9 -3.7 -1.8 -5.5 -2.8 -1.9 -1 -2.9 -2.3 -4.9 -3.3 -2 -1 -3.2 -1.5 -6 -2.2 -2.1 -0.5 -4.6 -0.7 -6.6 -1.6 -1.7 -0.9 -4.3 -2.1 -5.5 -3.3 -1.7 -1.7 -3.2 -2.7 -5.5 -3.3 -2.1 -0.5 -4.9 -1.1 -7.1 -2.2 -1.8 -0.9 -3.7 -1.6 -6 -2.2 -2.6 -0.6 -3.3 -2.2 -5.5 -2.8 -2.7 -0.7 -3.8 -2.2 -7.1 -2.2 -0.3 -0.3 -0.7 -1.6 -1.6 -1.6 -1.9 0 -6.4 -0.4 -7.7 -1.6 -1.3 -1.3 -3.4 -2.8 -5.5 -3.3 -2.7 -0.7 -3.3 -1.4 -6 -2.8 -2.6 -1.3 -3.4 -2 -6 -3.3 -1.6 -0.8 -3.6 -2.1 -6 -2.8 -2.2 -0.6 -4 -2.1 -6.6 -2.7 -2.2 -0.6 -4.8 -2.2 -6.6 -2.2 -3.1 0 -5 -1 -7.7 -1.6 -2.2 -0.5 -4.1 -1.7 -6 -2.2 -2.3 -0.6 -4.6 -0.5 -7.1 -1.1 -2.2 -0.6 -4.8 -2.2 -6.6 -2.2 -2.8 0 -5.5 0 -8.2 0 -2.5 0 -5.6 0.6 -7.7 0.6 -2.9 0 -5.5 0.6 -7.7 0.6 -2.8 0 -5.5 0 -8.2 0 -2.7 0 -5.5 0 -8.2 0 -2.8 0 -5.4 -1.5 -7.1 -1.1 -2.5 0.6 -4.4 1.6 -7.1 1.6 -2.8 0 -5.5 0 -8.2 0 -2.5 0 -5.6 0.6 -7.7 0.6 -2.8 0 -5.7 0 -7.7 0.6 -2.5 0.6 -4.4 0.4 -7.1 1.1 -2.5 0.6 -5.4 0.6 -8.2 0.6 -3.1 0 -6.1 -1.1 -9.3 -1.1 -0.6 0.1 -1.9 0.6 -3.3 0.6 -2.1 0 -5.3 0.1 -7.7 -0.6 -1.9 -0.5 -5 -0.6 -7.7 -0.6 -3.2 0 -4.1 -1.6 -6.6 -1.6 -2.5 0 -5 -0 -7.7 -0.6 -2.5 -0.5 -5.8 -0.3 -7.1 -1.6 -1.6 -1.6 -3.3 -1.5 -6 -2.2 -2.4 -0.6 -4.6 -0.7 -6.6 -1.6 -1.9 -1 -3.4 -1.6 -6.6 -1.6 -2.5 0 -5.9 0.2 -7.1 -1.1 -1.9 -1.9 -2.8 -1.9 -6 -2.8 -2.2 -0.5 -4.4 -0.6 -6 -2.2 -1.7 -1.7 -2.6 -2 -5.5 -2.8 -2.8 -0.7 -4.1 -1.5 -6.6 -2.8 -1.8 -0.9 -4.3 -1.6 -6.6 -2.8 -1.5 -0.8 -3.8 -2.2 -6 -2.8 -1.5 -0.4 -4.9 -0.8 -6.6 -1.6 -1.6 -0.8 -4 -1.2 -5.5 -2.8 -1.4 -1.4 -2.2 -2.7 -3.8 -4.4 -1.5 -1.5 -2 -3.1 -4.9 -3.8 -2.3 -0.6 -4.6 -1.1 -6.6 -1.6 -2.3 -0.6 -4.1 -1.3 -5.5 -2.8 -1.4 -1.4 -3 -2 -4.4 -3.8 -1.3 -1.7 -2.8 -2.8 -4.4 -4.4 -1.2 -1.2 -2.7 -2.7 -4.9 -3.3 -2.9 -0.7 -3.5 -0.8 -5.5 -2.7 -1.8 -1.8 -2.9 -1.4 -5.5 -2.8 -2.1 -1.1 -3 -1.9 -4.9 -3.8 -2 -2 -2.9 -1.7 -6 -3.3 -1.8 -0.9 -4.3 -4.8 -7.1 -5.5 -1 -0.5 -3 -3.1 -3.8 -3.3 -2.9 -0.7 -3.5 -0.8 -5.5 -2.8 -1 -1 -3 -3.4 -4.9 -3.8 -3.2 -0.8 -2.3 -1.7 -4.4 -3.8 -1.4 -1.4 -3.6 -1.9 -4.9 -3.3 -1.4 -1.4 -2.7 -2.2 -4.4 -3.8 -1.1 -1.1 -2.4 -3.4 -4.4 -4.4 -1.6 -0.8 -3.1 -2.9 -4.9 -3.8 -2.3 -1.2 -3.3 -2.7 -4.9 -4.4 -2.1 -2.1 -2.5 -3.1 -4.4 -4.9 -1.4 -1.4 -3.6 -1.9 -4.9 -3.3 -0.9 -0.9 -3 -3.7 -4.4 -4.4 -1.6 -0.8 -3.4 -1.8 -4.9 -3.3 -1.4 -1.4 -3.3 -1.6 -4.9 -3.3 -1.4 -1.4 -3 -2.5 -4.4 -3.8 -1.4 -1.4 -2.8 -2.2 -4.9 -3.3 -1.3 -0.7 -3.9 -1.7 -5.5 -3.3 -1.4 -1.4 -3 -2.5 -4.4 -3.8 C 31.9 846.8 29.5 844.4 28 844 c -3.5 -0.9 -2.8 -1.7 -4.9 -3.8 -1 -1 -2.2 -4.1 -3.8 -4.9 -1.4 -0.7 -3.8 -2.2 -4.9 -3.3 -1.7 -1.7 -2.4 -3.5 -3.8 -4.9 -1.1 -1.1 -3 -2.7 -3.8 -4.4 -1 -2.1 -4.6 -5.1 -6.6 -6 v 260.1 H 580.6 z" style="opacity:0.42039998;fill:none;stroke:#1478aa;stroke-width:2;stroke-linejoin:round;stroke-miterlimit:3.86369991"/>
        </g>
        <g>
            
            <path d="m 607.6 254.2 c -1.3 0.3 -1.9 -0.8 -3 -1.4 -1.1 -0.5 -1.4 -1.1 -2.5 -1.6 -1.5 -0.7 -1.9 -1.1 -2.8 -1.9 -0.7 -0.7 -1.9 -1.2 -2.8 -1.4 -1.3 -0.3 -1.9 -0.5 -3.3 -0.8 -1.6 -0.4 -2.9 0.4 -3.8 1.1 -1 0.8 -2.6 -0.9 -3 -1.1 -1.4 -0.7 -2.8 0.7 -3.6 1.1 -1.2 0.6 -2.9 0.2 -3.8 0 -1.2 -0.3 -2.5 -0.3 -3.6 0.3 -1.5 0.7 -2 0.8 -3.8 0.8 -1 0 -2.1 -0.6 -3.6 -0.6 -1.5 0 -2.3 1 -3 1.6 -0.8 0.8 -1.2 2.7 -1.6 3.6 -0.7 1.4 -1.9 2.2 -2.8 3 -0.8 0.8 -1.9 1.9 -3 2.5 -1.6 0.8 -2.5 0.2 -3.6 1.6 -0.9 1.2 -1.3 1.5 -2.2 2.5 -0.3 0.3 -3.4 0.4 -3.8 0.6 -1.3 0.3 -1.9 0.1 -2.8 0.6 l 19.2 5.2 c -0.8 0.2 -0.6 -1.8 -1.4 -2.2 -1.2 -0.6 -1.6 -0.8 -2.5 -1.6 -1.2 -1.2 -1.6 -0.2 -1.6 -2.5 0 -0.5 3.7 -0.3 4.1 -0.3 1.5 0 2 -0.9 3 -1.4 0.8 -0.4 1.6 -1.6 2.2 -2.2 1.2 -1.2 0.9 -2 2.8 -2.5 0.8 -0.2 2.5 0.8 3 1.1 1 0.5 2.6 0.3 3.8 0.3 1.5 0 2.4 -0.6 3.8 -0.6 1.2 0 2.5 -0.3 3.8 0 1.2 0.3 3.1 -0 4.1 -0.3 0.9 -0.2 1.7 -1.5 2.5 -1.9 1.7 -0.8 1.6 -0.1 2.5 0.8 0.8 0.8 1.6 1.2 2.5 1.6 1 0.5 3 0.1 3.8 0.3 1.5 0.4 2.9 -0.1 3.6 -0.8 1.7 -1.6 2.1 -1.3 3 -3.6 z" style="fill:#c9e4eb;stroke:#1478aa"/>
            
            <path d="m 676.1 616.3 c 0.3 -0.3 3.4 0.1 4.1 0.3 1 0.3 1 2 1.9 2.5 1.2 0.6 2.5 -0.9 3 -1.4 1 -1 2.3 1.5 2.5 1.6 0.7 0.7 2.8 0.1 3.3 0.3 1.1 0.3 1.6 2 1.9 2.8 0.6 1.2 0.6 2.2 0.3 3.6 -0.4 1.6 -2.2 0.2 -1.6 2.2 0.1 0.5 1.6 1.5 1.9 2.2 0.5 1.1 0.2 2.8 0 3.6 -0.4 1.5 -2.2 -0.1 -2.2 2.5 0 0.5 1.4 1.6 1.6 2.5 0.3 1.3 1 1.8 1.6 2.5 0.7 0.7 2.1 0.9 3 1.1 1.6 0.4 2.2 0.3 3 -0.6 0.9 -0.9 1.1 -1.6 1.9 -2.5 0.7 -0.7 2.6 -0.1 3.3 -0.8 0.9 -0.9 1.4 -1.8 2.8 -2.8 1.2 -0.9 1.7 -1.8 3 -2.5 1.8 -0.9 -0.1 -2 -1.1 -2.2 -1.7 -0.4 -2.3 -0.1 -1.9 -1.6 0.2 -1 3.6 0.2 3.8 0.3 1.1 0.3 2.4 0.3 3.8 0.3 1.4 0 2.8 0 4.1 0 1.6 0 2.7 0.1 3.6 0.6 1.1 0.5 1.8 0.8 3 1.1 1.2 0.3 2.5 0.3 3.8 0.3 1.4 0 2.7 0 4.1 0 1.4 0 2.9 -0 3.8 -0.3 1.3 -0.3 1.8 -1.1 3 -1.4 1.2 -0.3 2.2 -1.4 3.3 -1.6 1.3 -0.3 2.7 -0.3 4.1 -0.3 1.2 0 2 -1.6 2.8 -2.2 0.9 0 2.9 -2 3.3 -2.5 0.9 -0.9 1.6 -1.8 2.2 -3 0.5 -1 1.3 -1.3 1.9 -2.5 0.5 -1 1.3 -1.9 2.2 -2.8 0.6 -0.6 2.5 -0.8 3 -1.1 1 -0.5 1.7 -2.4 2.2 -3.3 0.5 -1 1.9 -1.8 2.7 -2.2 1.1 -0.5 2.4 -0.4 3.3 -0.8 0.2 -0.1 0.7 -3.2 0.8 -3.6 0.3 -1.2 -0 -3 -0.3 -4.1 -0.2 -0.9 -0.9 -2.2 -1.1 -3 -0.3 -1.4 -0.6 -2.7 -0.6 -4.1 0 -1 -1.5 -1.5 -2.2 -2.2 -0.8 -0.8 -1 -1.9 -1.4 -2.8 -0.5 -1 -0.3 -2.6 -0.3 -3.8 0 -0.7 2.1 -1.3 2.8 -1.6 1.5 -0.7 1.7 -0.4 2.5 -1.9 0.6 -1.2 -0.3 -3.1 -0.6 -3.6 -0.6 -1.2 -0.6 -2.4 -0.6 -3.8 0 -0.7 1.9 -2.2 2.5 -2.7 0.8 -0.8 2.3 -1.1 3.3 -1.1 1.4 0 2.9 -0 3.8 -0.3 1.6 -0.4 2 -2.9 2.5 -3.8 0.5 -1 1.7 -1.1 3 -1.1 1.4 0 2.8 0 4.1 0 1.4 0 2.5 0.3 3.6 0.6 1.1 0.3 2 -1.9 2.2 -2.7 0.5 -1.9 -1.1 -2.1 1.4 -2.8 1.3 -0.3 2.1 -1.2 3 -1.6 1 -0.5 1.7 -1.8 2.2 -2.8 0.8 -1.5 0.4 -1.8 1.4 -2.8 1.2 -1.2 1.6 -0.4 1.6 -2.7 0 -2 0.4 -2.1 1.6 -2.8 1.1 -0.6 1.1 -2.3 1.1 -3.6 0 -1 -1.5 -1.6 -2.2 -1.9 -1 -0.5 -2.6 -0.3 -3.8 -0.3 -0.6 0 -1.8 2.2 -1.9 2.5 -0.5 1 -0.3 2.6 -0.3 3.8 0 1.8 -0.1 2.4 -1.4 3 -1.1 0.6 -2.5 0.6 -3.8 0.6 -0.9 0 -2.3 1.9 -2.8 2.5 -0.4 0.5 -1.9 1.4 -2.5 1.6 -1.4 0.7 -1.9 -0.8 -3.3 -0.8 -0.7 0 -2 2.4 -2.2 2.8 -0.7 1.4 -1.5 0.6 -2.8 0.3 -1.1 -0.3 -0.8 2.3 -0.8 3.3 0 1.4 0 2.9 -0.3 4.1 -0.2 0.6 -2.9 1 -3.3 1.1 -1.5 0.4 -2.4 0.4 -3.8 1.1 -1.2 0.6 -2.2 1.3 -3 1.6 -1.4 0.7 -2 1.1 -2.8 1.9 -0.8 0.8 -1.1 2.1 -1.4 3.3 -0.3 1.4 -0.8 1.9 -1.6 2.8 -1.1 1.1 -1.7 1.2 -3.3 1.6 -1 0.2 -1.9 1.6 -3 1.9 -1.6 0.4 -1.5 1.5 -2.8 2.8 -0.9 0.9 -1.1 2.1 -1.1 3.3 0 1.5 -1.2 1.6 -2.8 1.6 -1.9 0 -2.5 0.3 -3.3 1.4 -0.9 1.1 -1.3 1 -2.8 1.4 -1 0.2 -2.5 -0.3 -3.8 -0.3 -1.1 0 -2.4 1.2 -3.3 1.6 -1.1 0.6 -2.1 1.3 -3.6 1.6 -1.2 0.3 -2.5 0.3 -3.8 0.3 -0.7 0 -1.6 -2.2 -1.9 -2.5 -0.9 -0.9 -1.7 -0.8 -3 -1.1 -1.7 -0.4 -2.5 0.6 -3.3 1.4 -0.9 0.9 -2 1.1 -3.6 1.1 -1.4 0 -2.8 0.1 -4.1 -0.3 -1.8 -0.4 -2.5 0.6 -3 1.6 -0.6 1.2 -0.6 2.4 -0.6 3.8 0 0.6 0 1.1 0 1.6 0 0.8 -2.8 2.8 -3.6 3.6 -0.9 0.9 -1.7 1.2 -2.5 1.9 -0.8 0.8 -2.9 0.8 -4.1 0.8 -1.8 0 -1.9 -0.5 -2.8 -1.4 -0.5 -0.5 -2.1 -1.2 -2.8 -1.4 -1.7 -0.4 -2.6 0.8 -3.8 1.4 -1.2 0.6 -2.2 0.8 -3.6 0.8 -0.9 0 -2.2 0.6 -3.6 0.6 -1.9 0 -2.2 0.3 -3.3 1.4 -1 1 -1.1 2.1 -1.1 3.6 0 1.4 -1.2 2 -2.2 2.8 -1.1 0.9 -2 1.4 -3 2.7 z" style="fill:#c9e4eb;stroke:#1478aa"/>
            
            <path d="m 259.2 789.8 c -0.7 0.5 -1.7 2.1 -3.3 2.5 -1.3 0.3 -1.5 1.1 -3.3 1.1 -1.1 0 -2.7 0.7 -3.3 1.4 -1.4 1.4 -2.2 0.5 -3 -0.3 -0.1 -0.1 -1.8 2 -1.9 2.2 -1 1 -1.6 1.7 -1.6 3 0 1.3 1.3 1.9 2.7 1.9 1.6 0 2.7 0.1 3.6 0.6 1.2 0.6 1.7 1.2 2.2 2.2 0.6 1.2 0.6 2 1.1 3 0.7 1.4 1.4 1.1 1.4 3 0 0.8 -1.3 2.3 -1.6 2.8 -0.7 1 -1.2 2 -1.9 2.8 -1 1 -1.4 1.6 -1.4 3.3 0 1.2 2.5 0.7 3 0.6 0.9 -0.2 1.2 -2.6 1.4 -3.3 0.2 -0.9 1.1 -2.2 1.6 -3.3 0.7 -1.4 1 -2.1 2.2 -3 1 -0.7 2.1 -1.2 3 -1.9 1.1 -0.8 2.4 -1.2 3.3 -1.6 1 -0.5 2.6 -0.9 3.6 -1.1 1.4 -0.3 2.3 -0.2 3.3 0.3 1.2 0.6 0.3 1.5 2.2 1.9 1.3 0.3 0.9 -0.1 1.4 1.9 0.3 1.1 1 1.3 1.4 2.8 0.4 1.8 -0.4 2.3 1.4 2.7 1.2 0.3 0.8 -2.7 0.8 -3.6 0 -1.2 2 -1.9 3 -2.2 1.3 -0.3 1.1 -2.6 1.1 -3.8 0 -1.4 0 -2.8 0 -4.1 0 -0.8 -1.9 -1.6 -2.5 -1.9 -0.2 -0.1 -1.2 -2.5 -1.4 -2.8 -0.6 -1.2 -1 -1.3 -1.4 -2.7 -0.2 -0.7 -1.8 -1.7 -2.2 -1.9 -0.9 -0.5 -1.8 -1.1 -2.7 -1.4 -1.1 -0.3 -1.1 -1.6 -2.5 -1.9 -1.1 -0.3 -2.7 0.3 -3.8 0.6 -1 0.3 -2.5 0.3 -3.8 0.3 -1 -0 -0.4 -0 -1.9 0.3 z" style="fill:#c9e4eb;stroke:#1478aa"/>
            
            <path d="m 652.7 895.7 c -0.4 0 -1.4 3.1 -1.6 3.6 -0.4 0.8 -1.9 -1.2 -2.5 -1.4 -1.8 -0.4 -1.9 0.8 -1.9 2.2 0 1.6 -0.3 2.3 -0.8 3.3 -0.9 1.7 -2.2 -1.8 -2.2 -1.9 -0.3 -1.3 -1 -1.8 -1.6 -2.5 -0.7 -0.7 -2.5 -0.6 -3.6 -0.6 -1.1 0 -1.1 3 -1.1 3.8 0 1.1 2 1.5 2.8 1.6 1.5 0.4 1.6 0.8 2.5 1.6 0.8 0.8 2 0.7 2.8 1.4 1 1 0.4 1.4 1.9 2.2 1.2 0.6 2.7 0.4 3.6 0.8 1.4 0.7 -0.2 2.6 -0.6 3.3 -1 2 2.1 0.6 2.5 0.3 1.1 -1.1 1.7 -1.8 2.2 -2.8 0.5 -1 2 0.8 3 1.1 1.7 0.4 2.2 -0.2 2.2 -1.9 0 -1.6 0.9 -0.7 1.6 -2.2 0.7 -1.4 -1.5 -1.7 -2.2 -1.9 -0.8 -0.2 -1.8 -1.3 -2.5 -1.6 -1.1 -0.5 -2.2 -1 -3 -1.4 -0.7 -0.3 -0.3 -3.2 -0.3 -3.8 -0 -1.6 0.2 -2 -1.1 -3.3 z" style="fill:#c9e4eb;stroke:#1478aa"/>
        </g>
        <g>
            
            <path d="m 186 617.4 c -0.3 0.7 -0 1.2 0.5 1.7 0.9 0.1 2.8 -0.9 4.1 -0.9 1.2 0 1.1 1.1 2 1.4 7.9 3.3 -0.6 7.4 0.5 11.9 -1.3 2.2 -0.7 7.1 -2.5 7.8 -4.4 1.6 -5.9 -2.8 -9.4 -3.7 -3.6 -0.9 -26 -6.6 -27.8 -7.8 -4.3 -2.8 -8 -6.7 -12 -9.9 -1.4 -1.2 -7.1 -3.3 -7.2 -3.3 -1 -1.2 -1.1 -4.6 -1.9 -6.4 1.3 -4.3 -10.1 -3.5 -9.8 -6.1 -1.1 -0.3 -1.1 -1.1 -1.9 -1.7 l -5.2 -29.5 c -6.4 -11.6 -11.3 -5.3 -12.9 -21.8 -1.4 -1.2 -2 -3.2 -2.5 -4.8 0.7 -1.7 2.1 -3.4 3.8 -4.2 2.2 -6.8 -3.9 -5.8 -6.2 -8.6 -0.9 -1.1 -2.8 -5.4 -3.9 -5.8 -1.9 -0.6 -13 1.8 -14.1 -0.8 -1.8 -0.2 -3.1 0 -5 -0.3 -0.9 0.7 -2.2 1.1 -2.9 2.1 l -1.5 0.1 -2.2 -1.4" style="fill:none;stroke:#1478aa;stroke-width:2;stroke-linejoin:round;stroke-miterlimit:3.86369991"/>
            
            <path d="m 260.8 755.4 c 3.5 2.4 9.7 1.8 14 1.6 1.8 -1.5 3.9 -0.9 5.8 -2.4 0.8 -0.6 1.4 -3.5 2 -4.5 1.6 -2.3 4.8 -3.3 6.3 -6 1.5 -2.7 -1.9 -4.1 3.3 -8.4 l 1.5 -0.1 c 2.6 1.5 14.5 7.9 16.4 5.8 l 0.7 -0.1 c 4.3 4.9 4.9 5 9.8 8.7 3.2 -0.5 6.1 -2.8 9.2 -3 5.6 -5.8 23.1 1.5 30.5 1.9 2.1 0.1 2.5 -1.9 5.6 -1.4 1.5 0.2 2.2 1.7 3.5 2.3 0.5 0.2 11.9 1.9 13.5 2.2 2.6 0.6 5.1 2.6 8.2 2.8 5.7 -2.4 4.5 1.7 8 3.8 1.2 0.7 2.1 -0.6 3 -0.5 1.2 0.2 2.5 2.3 8.2 2 1.5 -1.2 2.7 -0.2 4.4 -0.7 1.7 -0.5 2.1 -1.7 3.1 -2.2 2 -0.9 7.1 -2 9.5 -2.5 1.5 0 1.9 0.3 3.1 0.8 1.8 0.8 9.9 -2 11 -3.5 -0.3 -1.7 0.6 -5.7 3 -5.8 4.1 -0.2 5.7 8.9 7.6 9.6 1.6 0.6 16.5 -0.1 17.8 -0.8 0.8 -0.4 2.9 -2.3 3.4 -2.3 1.1 0 2.9 1.5 4 1.7 5.8 1.3 22 1.7 26.7 -1 9.3 -0.4 7.9 -8.7 16.3 -5.8 2.2 -0.1 4.7 -1.4 7 -1.3 1.3 0.1 1.8 0.6 3.2 0.1 0.9 -0.4 2 -1.8 2.5 -1.9 0.5 -0.2 16.2 2 18.9 2 1.5 0 3.3 -1.4 4.5 -1.3 2.4 1.1 3.6 0.1 6 -0.1 1 -0.1 2.1 1.2 2.9 0.8 1 -0.5 0.6 -2 2.2 -1.9 4.8 1.3 3.3 0.2 7.5 0.6 0.6 -0.2 1 -0.8 1.3 -1.3 0.8 -0 1.5 0.1 2.3 0.1 1.3 -0.7 0.7 -2.8 2.7 -2.9 0.4 0.1 0.7 0.3 1 0.6 l 0.9 0.1 c 3 -3.8 8.4 -0.4 12.1 -1.7 1.4 -0.5 3.1 -0.5 4.4 -1.3 0.8 -0.5 1.2 -1.6 2.2 -1.9 0.5 -0.1 6.1 -0.6 6.1 -0.6 1.4 -0.9 -0.2 -4.1 2.2 -5.9 h 0.9 c 1.5 0.9 2.9 -0.8 4.2 -1 1.5 -0.3 11.8 -2.4 12.5 -2.8 1.3 -0.9 1.6 -2.7 2.6 -3.8 3.2 -0.6 5.8 -3.5 8.7 -3.8 2.3 -0.2 2 1.9 3.1 1.7 0.1 -0 2 -3.2 3.4 -4 1.7 -0.9 3.4 -0.5 5.2 -1.4 8.8 -4.6 13.4 -6.3 22.7 -9.3 2.6 -0.8 5.1 -5.9 6.8 -6.3 2.3 -0.5 3.1 -1.6 4.5 -1.9 1.8 -0.4 0.7 2.4 6.4 0 1.4 -0.6 9 -9.6 11.2 -11.6 2.5 -2.2 14.9 -8.5 18.5 -9.4 1.4 -0.4 1 -2.5 2.7 -2.9 1.3 -0.4 2.5 0.1 4.2 -0.4 0.5 -0.2 0.9 -0.3 1.4 -0.1 1.3 0.8 0.3 2.7 1.8 3.1 1.6 0.4 18.3 -8 20.7 -9.5 1 -0.6 1.5 -2 3 -1.9 1.7 0.7 2.6 1.4 2.4 3.3 l 1.1 0.5 c 3.4 -2.8 4.1 -3.6 7.4 0.1 2.9 1.6 4.1 -4.5 5.3 -5.8 1.6 -1.7 1.6 -0.1 5.8 -4.8 1 -1.1 2.6 -0.2 3.8 -0.3 2.3 -0.2 2.9 -2.6 3.9 -3 1.4 -0.6 2.8 0.6 4 -1.1 0.4 -1.8 -1.6 -2.8 -1.3 -4.5 0.1 -1 1.6 -1.5 1.8 -2.2 l -0.1 -0.8 -0.9 -0.7 c -0.7 -1.7 0.8 -1.5 1.3 -2.4 0.4 -0.8 -0.3 -1.8 0.1 -2.4 0.2 -0.3 5.3 -2.5 6.2 -2.9 2.1 0.1 2 0.7 3.5 1.3 l 0.8 -0.1 c 1.1 -1.2 -2.1 -2.8 -1.4 -4.4 1.7 -1.2 3 -0.2 4.2 1.1 l 0.7 0.1 c 1 -0.3 0.4 -5.4 2.2 -6.6 1.7 -1.1 4.5 0.3 5.4 -0.6 1.1 -1.2 -2.2 -3.7 -1.3 -5 0.7 -1 4.6 0.5 3.8 -2.3 -0.3 -0.9 -2.9 -0.6 -2.8 -1.9 0.4 -6.7 2.2 -10.6 9.4 -12 1.3 -0.3 2.7 0.9 4.2 0.6 1 -0.2 1.5 -1.3 2.6 -1.5 1.2 -0.2 2.6 0.4 3.8 0.3 1.7 -0.2 3.3 -2.4 5.3 -1.9 1.6 1.6 3.5 3.8 2.9 -1.3 l 0.3 -0.6 c 1.8 -0.5 3.5 0.7 4.6 1.3 l 0.7 -0.1 c 1.5 -1.3 -1.3 -2.5 -0.3 -3.2 0.4 -0.3 2.5 0 3.1 -0.1 3.2 -0.5 7.3 -3.6 10.8 -3.9 3 -0.3 3 1.4 6.8 0.8 2.2 1.3 2.8 1.3 4.6 -0.6 2.6 -1 0.7 2.9 2.4 3.8 0.9 0.5 6.5 -3.1 8.2 -3.5 2.5 -0.7 3.2 3 5.1 2.9 l 0.7 -0.3 c 0.3 -1.7 -3.9 -6.8 -1.1 -7.1 1.9 -0.2 2.5 3.7 4.4 1.8 0.5 -1.3 -0.4 -2 -0.7 -3.2 0.5 -0.8 1 -1.4 0.5 -2.4 -0.1 -0.6 1.3 -1.2 1.5 0.5 0.3 0.8 1.1 0.1 1.2 -0.5 0.2 -0.9 -0.2 -1.8 -0.5 -2.6 0.1 -0.4 0.4 -0.7 0.7 -1 1.7 -0.2 2.5 1 3.7 0.7 -0.7 -5.1 0.2 -1.6 3.4 -2.5 0.8 -0.5 1.7 -3.4 2.8 -4.5 1.1 -1.1 2.1 0.1 3.1 0.1 0.9 -0.1 3.4 -4.7 4.6 -5.2 1 -0.4 2.1 -0.2 2.7 -1.4 -0.3 -0.9 -0.5 -1.7 0.3 -2.4 l 0.7 -0.1 c 0.7 0.2 1.8 2.1 2.4 1.2 l 0.1 -0.7 c -0.3 -0.7 -1.3 -1.1 -1.1 -2 0.4 -1.3 1.7 -0.2 2.3 -0.3 1 -0.2 1.2 -2.6 3.8 -1.7 0.8 0.4 0.5 1.4 1.6 1.7 1.3 -0 3.9 0.6 4.6 -0.1 2.3 -0.4 3.2 1.7 5.8 -0.3 3.9 -0.1 -0.1 -2.9 1.9 -3.3 0.7 -0.1 1.8 1.7 2.7 0.5 h 0.8 c 0.3 0.2 0.4 0.7 0.7 0.8 1 0.6 0.8 -1.5 1.2 -1.7 0.7 -0.5 1.8 1.6 2.6 1 2.4 -1.7 -0.4 -6.2 0 -7.2 0.4 -0.9 4.4 -1.1 5.7 -1.7" style="fill:none;stroke:#1478aa;stroke-width:2;stroke-linejoin:round;stroke-miterlimit:3.86369991"/>
            
            <path d="m 1021.5 916.5 1.2 -2.1 c 0.6 -1 0.1 -4 0.3 -5.2 0.9 -4.7 4.1 -8.7 5.4 -13.4 0.2 -0.6 0.3 -1.3 0 -1.9 -1.7 -1.5 -3.9 -1.2 -5.6 -2.5 -0.9 -0.7 -1.2 -2 -2 -2.8 -0.6 -0.6 -2.6 -0.9 -2.9 -1.4 -1.1 -2.2 -0.6 -5 -3.8 -6.9 -1 -0.6 -2.7 -0 -3.5 -1.4 -0.3 -0.6 0.7 -3.1 -0.4 -4.5 -0.5 -0.6 -1.7 -0.4 -2.3 -1.7 -0.6 -1.3 1.2 -2 -0.1 -3.5 -1.6 -1.8 -5.8 -16.2 -9 -15.3 -0.9 -0.4 -1 -1.7 -2 -2.2 -0.5 -0.1 -1 0 -1.5 0.2 -3.6 -1.5 1.1 -5.8 -0.4 -7.5 -0.8 -0.2 -1.7 -4 -3.2 -4.8 l -0.9 -0.1 c -0.5 -1 -1.1 -1.7 -2.3 -1.7 -1 -1 -0.8 -1.9 -1.1 -3 -0.9 -3.4 -4.1 -6.3 -4.8 -9.7 0 -1.8 3 -3.9 2 -6.9 -1.2 -3.5 -4.5 -9 -4.6 -12.5 -0.2 -3.5 -3.1 -3 -4.8 -5 -0.6 -0.8 -1 -4.1 -1.5 -4 -3.8 0.7 -2.1 -0.8 -4.1 -2.4 -1.1 -0.9 -3.4 -0.7 -4.1 -1.6 -1.4 -1.7 -0.9 -4.6 -2 -6.2 -1.7 -2.5 -10.9 -5.5 -12.1 -6.5 -1.2 -1 -1.1 -3.5 -3.5 -2.8 -0.6 -0.1 -5.2 -4.4 -6.1 -5 -1.5 -0.9 -5.4 -0.8 -6.1 -2.3 -1.1 -2.4 2.2 -3.8 1.7 -6.3 -0.2 -1.1 -1.6 -2.3 -0.5 -3.5 0.9 -0.9 2.7 1.9 3.3 0.7 0.4 -0.7 -3 -3 -3.3 -4 -1.5 -3.7 1.1 -3.2 1.9 -4.7 0.2 -0.7 -1.2 -2.9 -1.2 -4.1 -0.3 -3.8 1.7 -12.6 0.9 -15.6 0.7 -2.7 4.1 -1.5 6.2 -2.2 l 0.2 -1 c -2.5 -7.1 -1.1 -1.8 -0.1 -7.7 l -0.9 -0.7 -0.5 -1.3 c 0.8 -1.6 -0.7 -4.1 0.5 -5.7 1.1 -1.5 7.6 -10.2 7.8 -10.9 0.6 -1.7 0.8 -4.4 2.3 -5.6 1.4 -1.1 7.4 -2.4 9.1 -3.3 3.4 -1.8 3.5 -4 8.3 -4.8 1.1 -0.2 2.3 -0.2 3.3 -0.8 2.1 -1.3 2.7 -3.8 4.2 -5.5 0.8 -1 1.9 -0.7 2.6 -1.5 1.1 -1 1.7 -2.6 2.9 -3.6 1.7 -1.4 3.9 -1.7 5.5 -3 1 -0.8 1.3 -2.2 2.6 -2.8 l 1.5 -0.1 -0.1 -1.1 c -0.9 -0.4 -1.7 -1.5 -1.7 -2.5 1.2 -1.7 6 -4.3 8.1 -5.1 l 0.9 0.8 0.1 0.8 0.7 0.8 c 2.1 -0.3 2.9 -3.1 5.3 -2.6 1.5 1.4 0.8 3.3 2.3 4.2 0.4 0.1 1 0.1 1.4 -0.1 2.9 -3.5 -1.9 -2.4 5.5 -5.1 l 0.7 -0.9 v -0.8 l -0.7 -1 c -1.1 -0.4 -2.2 -1.1 -2.8 -2 l 0.1 -0.8 0.7 -0.9 c 1.1 -0.2 2.2 -0.4 3.2 -0.8 l 0.3 -1.3 c -1 -0.7 -1.7 -1.8 -2.1 -2.9 l 0.2 -0.6 c 1.4 -0.2 2.7 0.3 4.1 0.3 1 -0.7 1.4 -1.9 2.3 -2.6 1.8 -1.3 3.4 0 5.2 -0.4 l 0.1 -0.6 c -0.6 -0.5 -1.2 -1 -1.9 -1.3 l -0.4 -1.3 0.7 -1 c 4.1 -1.3 5 -5.8 7.6 -8.7 0.1 -1 -0.7 -2.1 -1.2 -2.9 l 0.8 -0.8 c 1.2 0.2 2.3 1.5 3.5 1.3 l 1 -0.6 c 2.8 -5.8 -4.5 -8.4 -8.3 -10.8 l -0.6 -1 c 2.2 -3.8 6.2 0.2 7.4 2.2 h 1.2 c 1.8 -0.6 2.8 -3 2.5 -4.7 l -0.8 -0.9 c -0.8 -0.1 -1.7 -0.4 -2.3 -0.8 -0.6 -1.6 0.5 -3.2 -0.4 -4.7 -0.6 -1 -1.7 -1.4 -2.3 -2.5 0.3 -1.9 1.7 -2.1 1.9 -4.6 2.1 -2.9 3.8 1.9 5.1 -0.7 l 0.1 -0.8 c -1.6 -1.1 -1.8 -2.5 -2.5 -4 0.3 -2.6 7.2 -1.4 3.3 -6.3 v -0.8 c 2.7 -2.1 3.1 1.7 6 1.5 l 0.9 -0.7 c 1 -1.8 -1.9 -2.7 -1.9 -4.3 0.2 -1.6 3.6 -0.3 4.4 -2.2 0.2 -0.4 -2.8 -9.7 -3.3 -10.2 -1.7 -0.2 -4.6 1.4 -6 0.6 -2.9 -1.6 2.1 -5 -1.1 -5.8 l -0.7 0.1 c -0.7 0.5 -0.9 2.2 -1.6 2.4 -1.3 0.4 -1.9 -3 -1.8 -3.7 0.5 -3.4 6 -3.3 4.6 -4.7 -0.5 -0.5 -3.8 0.6 -4.9 0.6 l -0.7 -1 c 0.3 -1.9 4.5 -3.5 6.1 -5.2 0.8 -0.9 0.8 -2.4 2.3 -2.6 0.5 -0.1 0.8 0.2 1.1 0.5 0.7 0.7 4.3 3.4 3.7 0.3 l -0.2 -1.2 c 0.4 -1.5 2.3 -1.4 3.4 -2.3 0.3 -1.1 -1.5 -8 -2.7 -8.5 -1 -0.4 -1 3.7 -2.4 2.4 -0.5 -0.9 0.7 -3.4 0.3 -4.8 -0.7 -2.6 -4.4 -0.5 -5 -2.4 -0.3 -0.8 1.3 -1.7 1.6 -2.3 0.4 -0.8 -0 -1.8 0 -2.6 1.3 -0.9 2.4 2.1 3.1 0.6 l 0.1 -0.7 c -0.4 -0.9 -2.8 -2.5 -0.1 -3.1 0.6 0.1 1.4 0.6 2 0.1 0.3 -0.7 0.1 -1.4 0.3 -2.1 l 0.9 -0.8 c 0.4 -2.1 -0.8 -1.2 -1.3 -2.4 -0.3 -1 4 -6.3 4.8 -6.5 1.5 -0.6 3.4 0.3 4.9 -0.8 1.1 -0.9 0.6 -8.1 0.3 -9.6" style="fill:none;stroke:#1478aa;stroke-width:2;stroke-linejoin:round;stroke-miterlimit:3.86369991"/>
            
            <path d="m -92.1 402.5 c -1.4 0.7 -3.8 0.7 -4.6 1.9 -0.7 1 -2.1 6.2 -3.1 8.2 -1 1.9 -5 1.8 -5.2 6.3 2.3 4.3 9.4 0 13.1 2.4 3.5 2.3 4 6.9 6.9 9.4 2.7 2.3 13.5 3.4 17.4 5.5 4.5 2.4 9.6 9.7 14.7 10.8 0.5 0.1 1.2 0.2 1.7 0.2 9.3 -0.7 11.7 -13.6 21.2 -16.3 0.7 9.3 -15.6 16.9 -9.4 20.7 0.3 1.3 0.3 2.8 0.9 4 1.2 0.9 3.4 1.1 4.2 1.9 1.3 1.3 1.5 3.7 3.5 4.6 2 0.9 7.6 1.5 9 2.6 1.3 1 0.9 3 2.4 3.8 1.4 0.5 2.6 -0.3 4 -0.1 0.4 0.7 0.7 1.7 0.8 2.5 l 0.8 0.8 1.3 0.3 c 2.3 -0.5 4.2 -3.5 6.7 -2.6 0.9 1 0.9 2.2 1.6 3.3 1.2 1.8 4.8 2.9 6.8 6.3 6.3 3.2 6.2 -2.2 12.5 5.4 1.3 0.3 2.7 0.3 3.9 1 4 5.5 6.5 4.4 9.2 7.3 1.4 1.5 2 4.2 3.8 5.4 2.4 0.9 5.2 -0.8 7.4 0.1 3.2 1.4 2.7 6.2 5.9 7.2 1.4 -0 2.7 -0.5 4 -0.8 3.9 1 5.5 2.6 7.6 5.6 1.2 0.6 2.6 0.3 3.5 1.3 1.8 1.9 1.9 5.7 3.8 7.6 1.8 1.8 5.3 3.2 4.8 6.3 l -1.1 0.4 c -4.1 -0.9 -11.1 -5.1 -12.2 -9 -0.8 -1 -2.2 -1.4 -3.4 -1.5 -1.2 0.4 -9 7.2 -9.4 8.5 -0.6 1.8 1 3.7 -0.2 5.4 -2.6 1.9 -3 1.9 -5 4.5 -2.3 -4.5 2.8 -13.4 4.8 -17.7 1.1 -0.4 1.9 -1.4 2.5 -2.4 v -1.3 c -4 -3.6 -6.1 -0.4 -8.8 -2 -1.1 -0.6 -1.4 -1.8 -2.4 -2.5 -2.6 -1.8 -6.2 -1.8 -8.7 -4.6 -1.1 -1.3 -1.5 -2.5 -3.2 -3.3 -3.8 -1.8 -8.5 1.5 -14.5 -2.9 -5.4 -4 -17.8 -18.3 -24.1 -19.6 -10.3 -2.1 -12.7 4.4 -19.8 8.7 -2.4 3.8 0.5 10 0.3 14.2 l -0.8 0.8 c -2.5 -0.3 -4.3 -3.7 -6 -5.4 l -1.3 -0.3 c -2.4 1.1 -2.6 3.8 -4.7 5.1 -2.3 1.5 -8.5 1 -9.8 3.1 l -0.5 -0.8 c 1.8 -2.1 7.1 -9.9 8.6 -10.6 0.7 -1.2 0.8 -2.7 0.9 -4 l 0.9 -0.6 c 1.7 -0.1 7.2 -1.7 8.1 -3 0.4 -1.4 -0.8 -2.2 -0.5 -3.4 1.4 -1.1 3.4 0.2 4.9 -1.3 1.7 -1.7 2 -7.1 -0.7 -8.3 -2.6 -0.2 -4.6 0.7 -7.3 -0.3 -1.7 -0.6 -3.1 -1.8 -5 -1.5 l -0.9 0.8 -0.3 1.3 c -2 1.4 -4.5 3.5 -5.9 5.4 l -0.1 1.7 c 0.8 1.4 2 2.3 2.7 3.8 l -0.1 1.1 -1.4 0.3 c -2.2 -1.7 -10.9 -5.7 -13.8 -4.9 -1.1 0.3 -1.6 1.6 -2.7 2 l -1.1 -0.1 c -0.8 -0.9 -1.8 -1.6 -2.8 -2.4 -3.6 -0.1 -5.2 -2.2 -6.2 -5.3 l -1.9 -1.3 -1.1 0.4 c -3.1 3.2 -2.1 10.3 -3.1 11.7 -1.3 1.1 -3.3 0.8 -4.5 1.9 -2 1.7 -1.6 4.7 -4.1 5.9 l -0.7 -0.6 c -1.4 -4.6 4.4 -8 5.5 -12.1 0.4 -1.3 -0.2 -3.1 0.7 -4.2 0.9 -0.5 1.9 -1.4 2.1 -2.4 l -0.9 -0.6 c -5.8 1.6 -9 10.1 -10.8 12 l -0.8 -0.1 c -3.1 -13.4 8.3 -12.2 14.9 -18.7 -0.1 -2.9 -4.9 -10.3 -0.9 -12.4 3 0.8 7.2 1.9 9.9 3.2 2.6 1.3 5 4.6 8 5.4 2 0.5 4.2 -0.3 6 0.2 2.6 0.8 2.3 3.6 6.4 3.1 3 -0.4 4.7 -2.5 3.5 -5.4 -1.9 -4.6 -7.2 -6.2 -9.8 -9.9 -4.2 -0.7 -17.7 -8.5 -19.1 -12 -1.7 -0.9 -4.2 0.6 -9.5 -2.7 -0.6 -2 -2.4 -1.8 -3.5 -3 -1.9 -1.9 -2.9 -8.4 -7.9 -5.5 -2.1 2 -4.6 14.8 -4.8 17.9 -0.7 1.2 -1.7 3 -3.3 3.2 -2.2 2 -0.3 5.3 -7.2 3.8 l -0.8 -0.8 v -0.9 l 0.7 -1 c 0.1 -2.7 -3.4 -2.9 1.3 -7.5 l 0.2 -1.5 -0.7 -0.9 c -4.3 -0.5 -12.1 9.9 -17.9 3.3 -0.4 -0.8 -0.4 -1.9 -0.2 -2.8 0.6 -1 1.5 -1.8 2.5 -2.4 l 1.4 0.2 1.2 -0.6 c 0.7 -1.2 -0.2 -2.8 0 -4.2 l 1 -0.6 h 1.6 c 2 1.7 8.3 4.6 10.8 3.1 3.2 -2 -1.9 -8.7 0 -12.9 1.2 -2.6 14.5 -16.5 17.3 -18.6 1.9 -1.4 4.2 -2.3 5.7 -4.2 1.8 -2.2 1.7 -5.6 3.9 -7.4 l 1.2 -0.4 c 1.6 1.5 -1.2 10.4 -2.4 11.6 z" style="fill:#c9e4eb;stroke:#1478aa;stroke-width:2;stroke-linejoin:round;stroke-miterlimit:3.86369991"/>
            
            <path d="m 238 744.1 c 1.1 -1.1 4.6 -3.6 5.1 -4.6 0.6 -1.1 1.2 -4.1 2.3 -4.9 0.2 -2 -0.4 -5.1 0.3 -6.8 0.8 -1.8 2.6 -2.5 3.5 -3.8 2.3 -3.7 3.4 -7.1 6.2 -10.8 0.5 -0.7 1.2 -1.1 1.1 -2.1 -0.1 -0.9 -1.8 -2.4 -2.1 -4.5 0.2 -0.6 1.7 -2.3 1.7 -2.4 0.7 -5.9 -8.4 -5.3 -7.8 -11.1 -1.1 -1.9 -3.6 -1.1 -5.4 -2.7 l -7.4 -11.5 c -1.9 -4.4 4.2 -6.6 -1.5 -11 -0.2 -0.4 -0.1 -1 0.1 -1.4 4.9 -3.1 4 -0.5 5.5 -0.8 1 -0.2 1.8 -2.2 3.7 -1.9 6.6 4 12.8 -3.4 18.5 -4.2 1.8 -0.3 15.1 0.6 16.4 1.7 1.1 -0 1.9 0.7 2.7 1.3 6 -0.4 3.2 -1.9 6 -2.7 5.7 -1.6 11.8 -2.2 17.7 -2.7 6.7 -0.6 5.8 4.2 12.3 0.4 1.3 0.1 9.6 2.8 11 3.3 1 1 0.2 2.3 1.3 2.9 3.2 1.7 8.8 1.3 12.5 2.1 6.2 1.3 3.6 5.5 14.1 4.4 1.2 -0.1 1.3 1 3.3 -0.3 l 0.7 0.1 c 1.2 1 2 3.2 3.4 3.8 1.6 0.7 3.8 -1.3 6.2 -0.3 2.5 1 4.1 3.5 7.2 4.2 5.7 1.2 12.1 -1.4 17.7 -1.1 1.7 0.1 8.7 2.7 8.9 2.6 1.2 -0.1 1.4 -2.9 3.7 -2.6 2.4 0.3 9 2.5 11 1.1 2.2 -2 3 -7.6 4.3 -9.9 1.2 -2.2 4.5 -4.1 5.7 -6.5 0.4 -0.8 3.8 -7.5 3.9 -8 0.7 -7.2 -19.9 -6.5 -25 -6.7 -1.3 -0.1 -2.3 0.8 -3.5 0.8 -3.6 -0.2 -21.9 -9 -23.9 -11.9 -1.4 -2.1 -0.5 -3 -0.7 -5.1 -0.2 -2.5 -1.8 -3.8 0.3 -6.2 4.3 -4.8 8.3 -1.3 13.1 -2.9 3.7 -4.6 -0.7 -3.6 3.3 -9.3 1.3 -1.9 7.2 -3.9 7.8 -6.1 0.4 -1.7 -3.2 -14 -4.4 -15.3 -1.1 -1.3 -3.3 -1.1 -4.1 -2.9 -0.1 -1.7 -4.1 1.7 -5 -1.5 -1 -3.8 0.2 -9.6 0.8 -12.9 0.1 -0.3 -3.3 2.2 -3.6 2.1 -1.5 0.1 -0.2 -3.9 -1 -3.8 -0.9 0.1 -1.6 0.6 -2.3 1 -3 1.3 -26 -1.6 -27.7 -6.5 -1.7 -3.4 4.2 -4.3 3.9 -6.1 -0.1 -1.1 -4.8 -3.3 -4.8 -3.3 -0.1 -1.3 2.2 -1.7 3.1 -2.7 1.6 -5.3 -5.7 -2.8 -6.4 -4.2 -0.1 -4.5 9.9 -9.8 8.9 -14.8 0.4 -0.9 1.4 -4.3 1.8 -4.8 2.1 -2.4 6.2 -4.2 7.1 -9.3 0.2 -1.4 -1.6 -4.3 -1.9 -5 -1 -0.7 -3.2 0.3 -4.3 0.1 -3 -1 6 -12.5 6.4 -13.8 0.8 -2.6 -5.9 -1.2 -5 -5.7 3.3 -2.7 4.1 1.5 5.7 -4.1 0.2 -0.3 0.6 -0.6 0.9 -0.6 1.3 0.6 5.6 5.8 6 2.3 0.1 -1.2 1.3 -2.1 1.7 -2.8 0.8 -1.2 3 -0.6 2.5 -2.9 -3.2 -0.9 3.3 -3.7 4 -4.3 3.7 -3 10 -2.7 13.6 1.4 l 0.7 0.1 c 1.1 -0.3 1.5 -1.8 2.3 -2.5 l 0.8 5.4 c 4.1 1.2 5.2 -0.9 5.2 3.6 3.5 -0 3.6 1.3 4.3 1.4 1.8 0.1 4.8 -1.7 4.8 -1.7 0.1 -0.5 1 0.7 1.5 0.8 0.5 0.2 8.5 -5.6 9.8 -5.8 1.7 -0.2 2.4 1.1 3.9 1.6 0.8 -0.3 0.8 -1.3 1.5 -1.7 1.1 -0.7 2.3 0.1 3.4 -0.3 2.4 -2.8 7.2 -1 2.1 -5.8 -0.4 -1.7 5.5 -5.2 3.1 -6.1 -2 0.1 -3 0.5 -4.4 -1 0.9 -0.9 0.5 -6.4 -1.1 -6.3 -2.5 0.1 -4.9 -3.5 -3.7 -5 3.4 -4.2 4.9 2.3 6.1 -3.8 -0.9 -1.3 2.2 -4.2 0.9 -8.2 -1 -3.2 -6 -2.1 -7.3 -4.9 -3.1 -7 4 -7.9 5.1 -10.3 1.1 -2.4 -3.8 -1 -4.7 -2.2 -0.8 -1.2 -0.2 -4.9 1.7 -4.9 1.4 0 2.5 1.6 4.1 1.5 3.7 -0.3 4.7 -3.5 4.8 -7.2 -1.7 -2.6 -5.3 -4.6 -4.4 -5.2 2.4 -1.7 3.3 -4.9 6 -6.1 0.8 -0.4 1.8 -0.3 2.6 -0.7 l 0.4 -1 c -0.1 -0.4 -8.9 -9.1 2.5 -4.6 2.4 -2.2 -4.3 -4.4 -4.4 -5.6 -0.4 -3.2 5.9 -3.9 1.8 -7.4 -1.7 -0.1 -5 -1.5 -7.2 -2 -2.4 -0.5 -12.9 1.7 -14 -0.8 -0.8 -1.9 2 -5.1 1.1 -6.5 -0.7 -1 -5.7 -2.8 -5.7 -2.8 -3.6 -0.1 -10.3 4.6 -9.1 -3.3 l -0.8 -0.6 c -2.2 0.1 -7.1 2.6 -8.4 2 -1.3 -0.6 -6.4 -0.7 -9.2 -1.7 l -0.2 -1.2 c 2.6 -1.4 10.1 -6.3 3.3 -7.8 -1.9 -0.4 -7.7 -0.6 -7.9 -2.3 -0.1 -1.3 4.9 -13.4 5.1 -14.8 0.3 -1.9 -10 2.1 -11.3 0.7 -1.6 -1.7 2.2 -3.1 2.5 -4.5 0.5 -1.7 -0.4 -8.7 -0.9 -10 -0.1 -0.2 1.2 -2.6 0.7 -3.2 -1.5 -2.1 -1.3 -4.9 -2.9 -7 -1.1 -1.5 -3.2 -1.6 -4.4 -3 -1.3 -1.6 -1.2 -3.7 -2.1 -5.5 -0.1 -0.2 -8.2 -8.2 -9 -8.8 -2.8 -2.2 -7.2 -1.4 -9.6 -4.2 -2.8 -3.1 0 -5.6 -2 -6.5 -2.2 -1.1 -8 2 -9.7 1.3 -0.9 -0.4 -7.3 -4.4 -8.3 -5.1 -4.4 -3.4 -3.7 0.5 -7.9 -1.3 -2.4 -1.1 -2 -5 -3.9 -6.9 -2.4 -2.4 -4 -6.6 -3.5 -7.9 0.9 -2.4 -5.8 -4.2 -7.3 -3.6 -2.8 0.9 -6.8 3.8 -7 5.3 -0.5 4.1 -4.3 -2.6 -5.1 -3.1 -3.3 -2 -2.9 0.8 -6.1 -1.5 -2.6 -1.9 0.1 -1.8 -0.9 -4.1 -2.3 -5 -15.3 -15 -15.3 -15.1 -0.8 -1.3 0.3 -2.9 0 -4.2 -2.1 -9.7 -5.5 2.5 -15.2 -10.6 -5.1 -6.9 -5.2 -11.3 -6.8 -13.7 -1.9 -2.7 -6.8 -0.9 -9.1 -5.5 -1.9 -3.7 -1.3 -11.8 -6.3 -14.1 -4.9 -2.2 -10.1 -3.4 -14.1 -0 h -0.8 c -1 -0.6 -0.8 -2 -1.1 -3 -0.7 -2.1 -3.4 -4.9 -5.1 -6.3 -4.1 -3.2 -14.9 4 -13.1 -9 0 -1.4 -0.8 -3 -0.6 -4.2 3 -15.3 16.6 -2.8 13.7 -9.8 -0.6 -1.3 -2.9 -3.1 -3.9 -4.4 -2.1 -2.6 -2.3 -6.4 -4.3 -8.9 -0.4 -0.4 -2.1 -1.5 -2.6 -1.5 -4.4 -0.5 -8.1 3.5 -13.3 -2.4 -3.4 -3.8 2.1 -7 0.9 -10.7 -0.7 -2.4 -4.4 -5.2 -4.4 -7.2 0.3 -7.2 20.2 1.8 17.9 -3.3 -1.2 -1.3 -4.6 -1.8 -6 -2.9 -1.5 -1.2 -12.1 -17.8 -12.2 -18.9 0.2 -0.5 0.9 -0.7 1.4 -0.9 4 0.2 5.5 7 12 0.5 5.4 -0.6 2.5 5.4 10.5 4.7 5.6 -0.5 15.1 -6.5 10.5 -12.6 -2.5 -3.3 -9.5 -4.4 -9.7 -5.5 -0.2 -1.2 6.4 -11 6.5 -13.1 0.1 -2.8 -5 -4.4 -7.3 -3.3 -3.7 1.7 -4.7 3.1 -9.1 3.4 -0.6 -0.3 -1.1 -0.6 -1.5 -1 -0.4 -4 5.7 -3.3 5.6 -10.6 0.9 -0.7 1.2 -3.4 0.9 -4.5 -3.3 -4 -10.4 2.6 -13.3 0.5 -1.3 -1 0.5 -3.7 0.7 -4.9 0.9 -4.4 -4.9 -4.8 -8 -4.7 -3.1 2.9 -5.3 12.7 -7.9 13.1 -9.5 1.5 3.3 -15.3 -9.8 -18.9 -1.7 -0.5 -4.7 -0.6 -6.4 0.2 -3.2 1.6 0.5 9.3 -0.3 10.5 -1.1 1.6 -6.9 -0.8 -8.1 1 -3.8 5.5 6.4 4 7.8 5.2 1.8 1.6 1.2 4.7 -1.7 4.5 -2.5 -0.2 -4.4 -3.1 -7.8 -2.6 -3 0.4 -3.3 9.3 -10.4 5.6 -4.9 -2.6 -2.3 -7 -6.5 -9.9 -2.6 -1.8 -7 1.4 -7.9 -0.1 -0.9 -1.5 -0.4 -6.1 -0.8 -8.1 -0.7 -3.7 -3.7 -3.2 -2.6 -8.3 0.3 -1.4 0.8 -3.5 0 -4.9 -0.8 -1.4 -4.8 -2.5 -5.6 -4.1 -0.8 -1.7 -2 -4.6 -4.6 -4.4 -2 1.1 -4.4 4.2 -6.9 3.9 -3.1 -0.3 -6.4 -2.2 -9.6 -2.8 -2.3 -0.4 -2.5 0.2 -4.5 0.7 -1.9 1.9 -1.3 4.8 -3.5 6.8 -5.7 1 -2.6 -7 -2.6 -9.7 -0.9 -1 -14.6 -7.3 -15.6 -7.1 -2.1 0.4 -2.5 3.6 -5.3 2.5 C 71.2 35.4 70 31 67.7 28.8 63.8 25.1 55.3 28.1 52.3 19.1 47.9 6.2 58.2 2.4 55.7 -5 53.6 -11.3 37.5 -5.8 42.5 -17.7 l -1.7 2.6 c -0.2 -1.7 0.2 -4.2 -0.5 -5.8 -0.8 -0.4 -2 -0.5 -2.9 -0.4 l -0.8 -0.8 c -1 -2.5 2.2 -11.1 -2.5 -15 l 1.7 -1.1 0.6 -1.1 c 0 -1.9 -7 -13.9 -8.4 -14.5 l -2.9 -0.2 0.2 -1.1 0.9 -0.8 0.1 -1.5 c -1.5 -1.7 -4 0.3 -5.6 -2.7 -3 -5.9 0.8 -18 -0.1 -20 -0.6 -1.1 -6.1 -2.3 -8.2 -4.7 -2.1 -2.5 -2.3 -10.5 -7.2 -8.8 -0.7 1 -1.9 1.5 -3 1.9 -2 -0.2 -11.9 -8.2 -13.1 -9.9 -3.4 -5 -2 -12.3 -4.8 -17.8 -3 -5.8 -11.4 -13.8 -10.6 -20" style="fill:none;stroke:#1478aa;stroke-width:2;stroke-linejoin:round;stroke-miterlimit:3.86369991"/>
        </g>
    </g>
</svg>
